<?xml version="1.0" encoding="utf-8"?>
<!-- Generator: Adobe Illustrator 23.0.6, SVG Export Plug-In . SVG Version: 6.00 Build 0)  -->
<svg version="1.1" id="Capa_1" xmlns="http://www.w3.org/2000/svg" xmlns:xlink="http://www.w3.org/1999/xlink" x="0px" y="0px"
	 viewBox="0 0 1440 663" style="enable-background:new 0 0 1440 663;" xml:space="preserve">
<style type="text/css">
	.st0{fill:#FF003D;}
	.st1{fill:#FFFFFF;}
	.st2{fill:url(#SVGID_1_);}
	.st3{fill:url(#SVGID_2_);}
	.st4{fill:url(#SVGID_3_);}
	.st5{fill:url(#SVGID_4_);}
	.st6{fill:url(#SVGID_5_);}
	.st7{fill:url(#SVGID_6_);}
	.st8{fill:url(#SVGID_7_);}
	.st9{fill:url(#SVGID_8_);}
	.st10{fill:url(#SVGID_9_);}
</style>
<circle class="st0" cx="664.8" cy="331" r="300"/>
<g>
	<path class="st1" d="M619.1,102.3h7.7c1.8,0,3.4,0.3,4.8,1c1.4,0.7,2.5,1.6,3.2,2.8c0.8,1.2,1.1,2.7,1.1,4.3s-0.4,3.1-1.1,4.3
		c-0.8,1.2-1.8,2.2-3.2,2.8c-1.4,0.7-3,1-4.8,1h-7.7V102.3z M626.7,114.9c1.4,0,2.5-0.4,3.4-1.2c0.8-0.8,1.3-1.9,1.3-3.3
		c0-1.4-0.4-2.5-1.3-3.3c-0.8-0.8-2-1.2-3.4-1.2h-2.9v9H626.7z"/>
	<path class="st1" d="M651.5,115.1v3.6h-13.1v-16.3h12.8v3.6H643v2.8h7.3v3.5H643v3H651.5z"/>
	<path class="st1" d="M656,118.5c-1.2-0.3-2.3-0.8-3-1.3l1.5-3.4c0.7,0.5,1.6,0.9,2.5,1.2c1,0.3,1.9,0.4,2.8,0.4
		c1.8,0,2.7-0.4,2.7-1.3c0-0.5-0.3-0.8-0.8-1c-0.5-0.2-1.3-0.5-2.4-0.7c-1.2-0.3-2.3-0.5-3.1-0.9c-0.8-0.3-1.5-0.8-2.1-1.5
		c-0.6-0.7-0.9-1.6-0.9-2.7c0-1,0.3-1.9,0.8-2.7c0.5-0.8,1.4-1.4,2.4-1.9c1.1-0.5,2.4-0.7,4-0.7c1.1,0,2.1,0.1,3.2,0.4
		c1,0.2,2,0.6,2.8,1.1l-1.4,3.4c-1.6-0.8-3.1-1.3-4.5-1.3c-0.9,0-1.6,0.1-2,0.4c-0.4,0.3-0.6,0.6-0.6,1.1c0,0.4,0.2,0.8,0.7,1
		c0.5,0.2,1.3,0.4,2.4,0.7c1.2,0.3,2.3,0.5,3.1,0.9c0.8,0.3,1.5,0.8,2.1,1.4c0.6,0.7,0.9,1.6,0.9,2.7c0,1-0.3,1.9-0.8,2.7
		c-0.5,0.8-1.4,1.4-2.5,1.9c-1.1,0.5-2.4,0.7-4,0.7C658.5,119,657.2,118.8,656,118.5z"/>
	<path class="st1" d="M669.2,102.3h4.6v16.3h-4.6V102.3z"/>
	<path class="st1" d="M688.1,110.1h4.1v6.8c-0.9,0.7-2,1.2-3.2,1.5c-1.2,0.4-2.4,0.5-3.6,0.5c-1.7,0-3.3-0.4-4.6-1.1
		c-1.4-0.7-2.4-1.7-3.2-3c-0.8-1.3-1.2-2.8-1.2-4.4c0-1.6,0.4-3.1,1.2-4.4c0.8-1.3,1.9-2.3,3.2-3c1.4-0.7,2.9-1.1,4.7-1.1
		c1.5,0,2.9,0.3,4.1,0.8s2.2,1.3,3,2.2l-2.9,2.7c-1.1-1.2-2.4-1.8-4-1.8c-1.4,0-2.5,0.4-3.4,1.3c-0.9,0.8-1.3,2-1.3,3.4
		c0,0.9,0.2,1.7,0.6,2.4c0.4,0.7,0.9,1.3,1.6,1.7s1.5,0.6,2.4,0.6c0.9,0,1.7-0.2,2.5-0.5V110.1z"/>
	<path class="st1" d="M710.6,102.3v16.3h-3.8l-7.2-8.7v8.7h-4.5v-16.3h3.8l7.2,8.7v-8.7H710.6z"/>
	<path class="st1" d="M571.4,161.3h7.7c1.8,0,3.4,0.3,4.8,1c1.4,0.7,2.5,1.6,3.2,2.8c0.8,1.2,1.1,2.7,1.1,4.3s-0.4,3.1-1.1,4.3
		c-0.8,1.2-1.8,2.2-3.2,2.8c-1.4,0.7-3,1-4.8,1h-7.7V161.3z M578.9,173.9c1.4,0,2.5-0.4,3.4-1.2c0.8-0.8,1.3-1.9,1.3-3.3
		c0-1.4-0.4-2.5-1.3-3.3c-0.8-0.8-2-1.2-3.4-1.2H576v9H578.9z"/>
	<path class="st1" d="M603.8,174.1v3.6h-13.1v-16.3h12.8v3.6h-8.2v2.8h7.3v3.5h-7.3v3H603.8z"/>
	<path class="st1" d="M622.7,161.3l-7,16.3h-4.6l-7-16.3h5l4.4,10.6l4.5-10.6H622.7z"/>
	<path class="st1" d="M636.8,174.1v3.6h-13.1v-16.3h12.8v3.6h-8.2v2.8h7.3v3.5h-7.3v3H636.8z"/>
	<path class="st1" d="M639.3,161.3h4.6V174h7.8v3.7h-12.4V161.3z"/>
	<path class="st1" d="M656.9,176.9c-1.4-0.7-2.5-1.7-3.2-3c-0.8-1.3-1.2-2.7-1.2-4.4s0.4-3.1,1.2-4.4c0.8-1.3,1.9-2.3,3.2-3
		c1.4-0.7,2.9-1.1,4.7-1.1s3.3,0.4,4.7,1.1c1.4,0.7,2.5,1.7,3.2,3c0.8,1.3,1.2,2.7,1.2,4.4s-0.4,3.1-1.2,4.4c-0.8,1.3-1.9,2.3-3.2,3
		c-1.4,0.7-2.9,1.1-4.7,1.1S658.3,177.6,656.9,176.9z M663.8,173.5c0.7-0.4,1.2-0.9,1.6-1.6s0.6-1.5,0.6-2.4c0-0.9-0.2-1.7-0.6-2.4
		c-0.4-0.7-0.9-1.3-1.6-1.6s-1.4-0.6-2.2-0.6c-0.8,0-1.6,0.2-2.2,0.6c-0.7,0.4-1.2,0.9-1.6,1.6c-0.4,0.7-0.6,1.5-0.6,2.4
		c0,0.9,0.2,1.7,0.6,2.4c0.4,0.7,0.9,1.3,1.6,1.6c0.7,0.4,1.4,0.6,2.2,0.6C662.4,174.1,663.1,173.9,663.8,173.5z"/>
	<path class="st1" d="M684.4,162c1.1,0.5,1.9,1.2,2.5,2.1c0.6,0.9,0.9,2,0.9,3.2c0,1.2-0.3,2.3-0.9,3.2c-0.6,0.9-1.4,1.6-2.5,2.1
		c-1.1,0.5-2.4,0.7-3.9,0.7h-2.8v4.3h-4.6v-16.3h7.5C682,161.3,683.3,161.5,684.4,162z M682.4,169.1c0.5-0.4,0.7-1,0.7-1.8
		c0-0.8-0.2-1.4-0.7-1.8c-0.5-0.4-1.2-0.6-2.1-0.6h-2.6v4.8h2.6C681.2,169.7,681.9,169.5,682.4,169.1z"/>
	<path class="st1" d="M704.8,177.6l0-8.7l-4.2,7h-2.1l-4.2-6.8v8.4H690v-16.3h3.8l5.7,9.4l5.6-9.4h3.8l0,16.3H704.8z"/>
	<path class="st1" d="M725.4,174.1v3.6h-13.1v-16.3h12.8v3.6h-8.2v2.8h7.3v3.5h-7.3v3H725.4z"/>
	<path class="st1" d="M743.5,161.3v16.3h-3.8l-7.2-8.7v8.7H728v-16.3h3.8l7.2,8.7v-8.7H743.5z"/>
	<path class="st1" d="M750.3,165h-5v-3.7h14.6v3.7h-5v12.7h-4.6V165z"/>
	<path class="st1" d="M611.8,221c1.1,0.5,1.9,1.2,2.5,2.1c0.6,0.9,0.9,2,0.9,3.2c0,1.2-0.3,2.3-0.9,3.2c-0.6,0.9-1.4,1.6-2.5,2.1
		c-1.1,0.5-2.4,0.7-3.9,0.7h-2.8v4.3h-4.6v-16.3h7.5C609.4,220.3,610.7,220.5,611.8,221z M609.8,228.1c0.5-0.4,0.7-1,0.7-1.8
		c0-0.8-0.2-1.4-0.7-1.8c-0.5-0.4-1.2-0.6-2.1-0.6h-2.6v4.8h2.6C608.6,228.7,609.3,228.5,609.8,228.1z"/>
	<path class="st1" d="M617.4,220.3h4.6V233h7.8v3.7h-12.4V220.3z"/>
	<path class="st1" d="M642.8,233.5h-6.9l-1.3,3.2h-4.7l7.2-16.3h4.6l7.2,16.3h-4.8L642.8,233.5z M641.5,230l-2.1-5.2l-2.1,5.2H641.5
		z"/>
	<path class="st1" d="M665.8,220.3v16.3H662l-7.2-8.7v8.7h-4.5v-16.3h3.8l7.2,8.7v-8.7H665.8z"/>
	<path class="st1" d="M684.6,220.3v16.3h-3.8l-7.2-8.7v8.7H669v-16.3h3.8l7.2,8.7v-8.7H684.6z"/>
	<path class="st1" d="M687.8,220.3h4.6v16.3h-4.6V220.3z"/>
	<path class="st1" d="M711.3,220.3v16.3h-3.8l-7.2-8.7v8.7h-4.5v-16.3h3.8l7.2,8.7v-8.7H711.3z"/>
	<path class="st1" d="M725.5,228.1h4.1v6.8c-0.9,0.7-2,1.2-3.2,1.5s-2.4,0.5-3.6,0.5c-1.7,0-3.3-0.4-4.6-1.1c-1.4-0.7-2.4-1.7-3.2-3
		c-0.8-1.3-1.2-2.8-1.2-4.4c0-1.6,0.4-3.1,1.2-4.4c0.8-1.3,1.9-2.3,3.2-3c1.4-0.7,2.9-1.1,4.7-1.1c1.5,0,2.9,0.3,4.1,0.8
		s2.2,1.3,3,2.2l-2.9,2.7c-1.1-1.2-2.4-1.8-4-1.8c-1.4,0-2.5,0.4-3.4,1.3c-0.9,0.8-1.3,2-1.3,3.4c0,0.9,0.2,1.7,0.6,2.4
		c0.4,0.7,0.9,1.3,1.6,1.7s1.5,0.6,2.4,0.6c0.9,0,1.7-0.2,2.5-0.5V228.1z"/>
	<path class="st1" d="M501.8,291.3h-2.5v4.3h-4.6v-16.3h7.5c1.5,0,2.8,0.2,3.9,0.7c1.1,0.5,1.9,1.2,2.5,2.1c0.6,0.9,0.9,2,0.9,3.2
		c0,1.2-0.3,2.2-0.8,3.1c-0.6,0.9-1.3,1.6-2.4,2.1l3.5,5.1h-4.9L501.8,291.3z M504,283.6c-0.5-0.4-1.2-0.6-2.1-0.6h-2.6v4.8h2.6
		c0.9,0,1.7-0.2,2.1-0.6c0.5-0.4,0.7-1,0.7-1.8C504.7,284.6,504.5,284,504,283.6z"/>
	<path class="st1" d="M525,292.1v3.6h-13.1v-16.3h12.8v3.6h-8.2v2.8h7.3v3.5h-7.3v3H525z"/>
	<path class="st1" d="M538.5,287.1h4.1v6.8c-0.9,0.7-2,1.2-3.2,1.5c-1.2,0.4-2.4,0.5-3.6,0.5c-1.7,0-3.3-0.4-4.6-1.1
		c-1.4-0.7-2.4-1.7-3.2-3c-0.8-1.3-1.2-2.8-1.2-4.4c0-1.6,0.4-3.1,1.2-4.4c0.8-1.3,1.9-2.3,3.2-3c1.4-0.7,2.9-1.1,4.7-1.1
		c1.5,0,2.9,0.3,4.1,0.8s2.2,1.3,3,2.2l-2.9,2.7c-1.1-1.2-2.4-1.8-4-1.8c-1.4,0-2.5,0.4-3.4,1.3c-0.9,0.8-1.3,2-1.3,3.4
		c0,0.9,0.2,1.7,0.6,2.4c0.4,0.7,0.9,1.3,1.6,1.7s1.5,0.6,2.4,0.6c0.9,0,1.7-0.2,2.5-0.5V287.1z"/>
	<path class="st1" d="M547.4,294c-1.3-1.3-2-3.2-2-5.6v-9.1h4.6v8.9c0,2.6,1,3.9,3.1,3.9c2.1,0,3.1-1.3,3.1-3.9v-8.9h4.6v9.1
		c0,2.4-0.7,4.3-2,5.6c-1.3,1.3-3.2,2-5.7,2S548.8,295.3,547.4,294z"/>
	<path class="st1" d="M563.9,279.3h4.6V292h7.8v3.7h-12.4V279.3z"/>
	<path class="st1" d="M589.3,292.5h-6.9l-1.3,3.2h-4.7l7.2-16.3h4.6l7.2,16.3h-4.8L589.3,292.5z M587.9,289l-2.1-5.2l-2.1,5.2H587.9
		z"/>
	<path class="st1" d="M599.3,283h-5v-3.7H609v3.7h-5v12.7h-4.6V283z"/>
	<path class="st1" d="M614,294.9c-1.4-0.7-2.5-1.7-3.2-3c-0.8-1.3-1.2-2.7-1.2-4.4s0.4-3.1,1.2-4.4c0.8-1.3,1.9-2.3,3.2-3
		c1.4-0.7,2.9-1.1,4.7-1.1s3.3,0.4,4.7,1.1c1.4,0.7,2.5,1.7,3.2,3c0.8,1.3,1.2,2.7,1.2,4.4s-0.4,3.1-1.2,4.4c-0.8,1.3-1.9,2.3-3.2,3
		c-1.4,0.7-2.9,1.1-4.7,1.1S615.4,295.6,614,294.9z M620.9,291.5c0.7-0.4,1.2-0.9,1.6-1.6s0.6-1.5,0.6-2.4c0-0.9-0.2-1.7-0.6-2.4
		c-0.4-0.7-0.9-1.3-1.6-1.6s-1.4-0.6-2.2-0.6c-0.8,0-1.6,0.2-2.2,0.6c-0.7,0.4-1.2,0.9-1.6,1.6c-0.4,0.7-0.6,1.5-0.6,2.4
		c0,0.9,0.2,1.7,0.6,2.4c0.4,0.7,0.9,1.3,1.6,1.6c0.7,0.4,1.4,0.6,2.2,0.6C619.5,292.1,620.3,291.9,620.9,291.5z"/>
	<path class="st1" d="M637.3,291.3h-2.5v4.3h-4.6v-16.3h7.5c1.5,0,2.8,0.2,3.9,0.7c1.1,0.5,1.9,1.2,2.5,2.1c0.6,0.9,0.9,2,0.9,3.2
		c0,1.2-0.3,2.2-0.8,3.1c-0.6,0.9-1.3,1.6-2.4,2.1l3.5,5.1h-4.9L637.3,291.3z M639.5,283.6c-0.5-0.4-1.2-0.6-2.1-0.6h-2.6v4.8h2.6
		c0.9,0,1.7-0.2,2.1-0.6c0.5-0.4,0.7-1,0.7-1.8C640.3,284.6,640,284,639.5,283.6z"/>
	<path class="st1" d="M656,289.8v5.9h-4.6v-5.9l-6.2-10.4h4.9l3.9,6.5l3.9-6.5h4.5L656,289.8z"/>
	<path class="st1" d="M681.1,292.5h-6.9l-1.3,3.2h-4.7l7.2-16.3h4.6l7.2,16.3h-4.8L681.1,292.5z M679.8,289l-2.1-5.2l-2.1,5.2H679.8
		z"/>
	<path class="st1" d="M690.1,294c-1.3-1.3-2-3.2-2-5.6v-9.1h4.6v8.9c0,2.6,1,3.9,3.1,3.9c2.1,0,3.1-1.3,3.1-3.9v-8.9h4.6v9.1
		c0,2.4-0.7,4.3-2,5.6c-1.3,1.3-3.2,2-5.7,2S691.4,295.3,690.1,294z"/>
	<path class="st1" d="M709.8,283h-5v-3.7h14.6v3.7h-5v12.7h-4.6V283z"/>
	<path class="st1" d="M736.7,279.3v16.3H732v-6.4h-6.3v6.4h-4.6v-16.3h4.6v6.1h6.3v-6.1H736.7z"/>
	<path class="st1" d="M743.5,294.9c-1.4-0.7-2.5-1.7-3.2-3c-0.8-1.3-1.2-2.7-1.2-4.4s0.4-3.1,1.2-4.4c0.8-1.3,1.9-2.3,3.2-3
		c1.4-0.7,2.9-1.1,4.7-1.1s3.3,0.4,4.7,1.1c1.4,0.7,2.5,1.7,3.2,3c0.8,1.3,1.2,2.7,1.2,4.4s-0.4,3.1-1.2,4.4s-1.9,2.3-3.2,3
		c-1.4,0.7-2.9,1.1-4.7,1.1S744.9,295.6,743.5,294.9z M750.4,291.5c0.7-0.4,1.2-0.9,1.6-1.6s0.6-1.5,0.6-2.4c0-0.9-0.2-1.7-0.6-2.4
		c-0.4-0.7-0.9-1.3-1.6-1.6c-0.7-0.4-1.4-0.6-2.2-0.6c-0.8,0-1.6,0.2-2.2,0.6s-1.2,0.9-1.6,1.6c-0.4,0.7-0.6,1.5-0.6,2.4
		c0,0.9,0.2,1.7,0.6,2.4c0.4,0.7,0.9,1.3,1.6,1.6c0.7,0.4,1.4,0.6,2.2,0.6C749,292.1,749.7,291.9,750.4,291.5z"/>
	<path class="st1" d="M766.8,291.3h-2.5v4.3h-4.6v-16.3h7.5c1.5,0,2.8,0.2,3.9,0.7c1.1,0.5,1.9,1.2,2.5,2.1c0.6,0.9,0.9,2,0.9,3.2
		c0,1.2-0.3,2.2-0.8,3.1c-0.6,0.9-1.3,1.6-2.4,2.1l3.5,5.1h-4.9L766.8,291.3z M769,283.6c-0.5-0.4-1.2-0.6-2.1-0.6h-2.6v4.8h2.6
		c0.9,0,1.7-0.2,2.1-0.6c0.5-0.4,0.7-1,0.7-1.8C769.7,284.6,769.5,284,769,283.6z"/>
	<path class="st1" d="M776.9,279.3h4.6v16.3h-4.6V279.3z"/>
	<path class="st1" d="M788.3,283h-5v-3.7H798v3.7h-5v12.7h-4.6V283z"/>
	<path class="st1" d="M799.7,279.3h4.6v16.3h-4.6V279.3z"/>
	<path class="st1" d="M820.7,292.1v3.6h-13.1v-16.3h12.8v3.6h-8.2v2.8h7.3v3.5h-7.3v3H820.7z"/>
	<path class="st1" d="M825.2,295.5c-1.2-0.3-2.3-0.8-3-1.3l1.5-3.4c0.7,0.5,1.6,0.9,2.5,1.2c1,0.3,1.9,0.4,2.8,0.4
		c1.8,0,2.7-0.4,2.7-1.3c0-0.5-0.3-0.8-0.8-1s-1.3-0.5-2.4-0.7c-1.2-0.3-2.3-0.5-3.1-0.9c-0.8-0.3-1.5-0.8-2.1-1.5
		c-0.6-0.7-0.9-1.6-0.9-2.7c0-1,0.3-1.9,0.8-2.7c0.5-0.8,1.4-1.4,2.4-1.9c1.1-0.5,2.4-0.7,4-0.7c1.1,0,2.1,0.1,3.2,0.4
		c1,0.2,2,0.6,2.8,1.1l-1.4,3.4c-1.6-0.8-3.1-1.3-4.5-1.3c-0.9,0-1.6,0.1-2,0.4c-0.4,0.3-0.6,0.6-0.6,1.1c0,0.4,0.2,0.8,0.7,1
		c0.5,0.2,1.3,0.4,2.4,0.7c1.2,0.3,2.3,0.5,3.1,0.9c0.8,0.3,1.5,0.8,2.1,1.4c0.6,0.7,0.9,1.6,0.9,2.7c0,1-0.3,1.9-0.8,2.7
		c-0.5,0.8-1.4,1.4-2.5,1.9c-1.1,0.5-2.4,0.7-4,0.7C827.7,296,826.4,295.8,825.2,295.5z"/>
	<path class="st1" d="M571.4,338.3h7.7c1.8,0,3.4,0.3,4.8,1c1.4,0.7,2.5,1.6,3.2,2.8c0.8,1.2,1.1,2.7,1.1,4.3s-0.4,3.1-1.1,4.3
		c-0.8,1.2-1.8,2.2-3.2,2.8c-1.4,0.7-3,1-4.8,1h-7.7V338.3z M578.9,350.9c1.4,0,2.5-0.4,3.4-1.2c0.8-0.8,1.3-1.9,1.3-3.3
		c0-1.4-0.4-2.5-1.3-3.3c-0.8-0.8-2-1.2-3.4-1.2H576v9H578.9z"/>
	<path class="st1" d="M603.8,351.1v3.6h-13.1v-16.3h12.8v3.6h-8.2v2.8h7.3v3.5h-7.3v3H603.8z"/>
	<path class="st1" d="M622.7,338.3l-7,16.3h-4.6l-7-16.3h5l4.4,10.6l4.5-10.6H622.7z"/>
	<path class="st1" d="M636.8,351.1v3.6h-13.1v-16.3h12.8v3.6h-8.2v2.8h7.3v3.5h-7.3v3H636.8z"/>
	<path class="st1" d="M639.3,338.3h4.6V351h7.8v3.7h-12.4V338.3z"/>
	<path class="st1" d="M656.9,353.9c-1.4-0.7-2.5-1.7-3.2-3c-0.8-1.3-1.2-2.7-1.2-4.4s0.4-3.1,1.2-4.4c0.8-1.3,1.9-2.3,3.2-3
		c1.4-0.7,2.9-1.1,4.7-1.1s3.3,0.4,4.7,1.1c1.4,0.7,2.5,1.7,3.2,3c0.8,1.3,1.2,2.7,1.2,4.4s-0.4,3.1-1.2,4.4c-0.8,1.3-1.9,2.3-3.2,3
		c-1.4,0.7-2.9,1.1-4.7,1.1S658.3,354.6,656.9,353.9z M663.8,350.5c0.7-0.4,1.2-0.9,1.6-1.6s0.6-1.5,0.6-2.4c0-0.9-0.2-1.7-0.6-2.4
		c-0.4-0.7-0.9-1.3-1.6-1.6s-1.4-0.6-2.2-0.6c-0.8,0-1.6,0.2-2.2,0.6c-0.7,0.4-1.2,0.9-1.6,1.6c-0.4,0.7-0.6,1.5-0.6,2.4
		c0,0.9,0.2,1.7,0.6,2.4c0.4,0.7,0.9,1.3,1.6,1.6c0.7,0.4,1.4,0.6,2.2,0.6C662.4,351.1,663.1,350.9,663.8,350.5z"/>
	<path class="st1" d="M684.4,339c1.1,0.5,1.9,1.2,2.5,2.1c0.6,0.9,0.9,2,0.9,3.2c0,1.2-0.3,2.3-0.9,3.2c-0.6,0.9-1.4,1.6-2.5,2.1
		c-1.1,0.5-2.4,0.7-3.9,0.7h-2.8v4.3h-4.6v-16.3h7.5C682,338.3,683.3,338.5,684.4,339z M682.4,346.1c0.5-0.4,0.7-1,0.7-1.8
		c0-0.8-0.2-1.4-0.7-1.8c-0.5-0.4-1.2-0.6-2.1-0.6h-2.6v4.8h2.6C681.2,346.7,681.9,346.5,682.4,346.1z"/>
	<path class="st1" d="M704.8,354.6l0-8.7l-4.2,7h-2.1l-4.2-6.8v8.4H690v-16.3h3.8l5.7,9.4l5.6-9.4h3.8l0,16.3H704.8z"/>
	<path class="st1" d="M725.4,351.1v3.6h-13.1v-16.3h12.8v3.6h-8.2v2.8h7.3v3.5h-7.3v3H725.4z"/>
	<path class="st1" d="M743.5,338.3v16.3h-3.8l-7.2-8.7v8.7H728v-16.3h3.8l7.2,8.7v-8.7H743.5z"/>
	<path class="st1" d="M750.3,342h-5v-3.7h14.6v3.7h-5v12.7h-4.6V342z"/>
	<path class="st1" d="M605.9,413.6l0-8.7l-4.2,7h-2.1l-4.2-6.8v8.4h-4.3v-16.3h3.8l5.7,9.4l5.6-9.4h3.8l0,16.3H605.9z"/>
	<path class="st1" d="M624.4,410.5h-6.9l-1.3,3.2h-4.7l7.2-16.3h4.6l7.2,16.3h-4.8L624.4,410.5z M623,407l-2.1-5.2l-2.1,5.2H623z"/>
	<path class="st1" d="M638.9,409.3h-2.5v4.3h-4.6v-16.3h7.5c1.5,0,2.8,0.2,3.9,0.7c1.1,0.5,1.9,1.2,2.5,2.1c0.6,0.9,0.9,2,0.9,3.2
		c0,1.2-0.3,2.2-0.8,3.1c-0.6,0.9-1.3,1.6-2.4,2.1l3.5,5.1h-4.9L638.9,409.3z M641.1,401.6c-0.5-0.4-1.2-0.6-2.1-0.6h-2.6v4.8h2.6
		c0.9,0,1.7-0.2,2.1-0.6c0.5-0.4,0.7-1,0.7-1.8S641.6,402,641.1,401.6z"/>
	<path class="st1" d="M655.4,407.7l-1.7,1.8v4.1h-4.6v-16.3h4.6v6.8l6.3-6.8h5.1l-6.7,7.2l7,9.1H660L655.4,407.7z"/>
	<path class="st1" d="M679.7,410.1v3.6h-13.1v-16.3h12.8v3.6h-8.2v2.8h7.3v3.5h-7.3v3H679.7z"/>
	<path class="st1" d="M685.8,401h-5v-3.7h14.6v3.7h-5v12.7h-4.6V401z"/>
	<path class="st1" d="M697.1,397.3h4.6v16.3h-4.6V397.3z"/>
	<path class="st1" d="M720.6,397.3v16.3h-3.8l-7.2-8.7v8.7h-4.5v-16.3h3.8l7.2,8.7v-8.7H720.6z"/>
	<path class="st1" d="M734.8,405.1h4.1v6.8c-0.9,0.7-2,1.2-3.2,1.5c-1.2,0.4-2.4,0.5-3.6,0.5c-1.7,0-3.3-0.4-4.6-1.1
		c-1.4-0.7-2.4-1.7-3.2-3s-1.2-2.8-1.2-4.4s0.4-3.1,1.2-4.4c0.8-1.3,1.9-2.3,3.2-3c1.4-0.7,2.9-1.1,4.7-1.1c1.5,0,2.9,0.3,4.1,0.8
		s2.2,1.3,3,2.2l-2.9,2.7c-1.1-1.2-2.4-1.8-4-1.8c-1.4,0-2.5,0.4-3.4,1.3c-0.9,0.8-1.3,2-1.3,3.4c0,0.9,0.2,1.7,0.6,2.4
		c0.4,0.7,0.9,1.3,1.6,1.7s1.5,0.6,2.4,0.6c0.9,0,1.7-0.2,2.5-0.5V405.1z"/>
	<path class="st1" d="M500.9,468.3h-2.5v4.3h-4.6v-16.3h7.5c1.5,0,2.8,0.2,3.9,0.7c1.1,0.5,1.9,1.2,2.5,2.1c0.6,0.9,0.9,2,0.9,3.2
		c0,1.2-0.3,2.2-0.8,3.1c-0.6,0.9-1.3,1.6-2.4,2.1l3.5,5.1h-4.9L500.9,468.3z M503.1,460.6c-0.5-0.4-1.2-0.6-2.1-0.6h-2.6v4.8h2.6
		c0.9,0,1.7-0.2,2.1-0.6c0.5-0.4,0.7-1,0.7-1.8S503.6,461,503.1,460.6z"/>
	<path class="st1" d="M524.1,469.1v3.6H511v-16.3h12.8v3.6h-8.2v2.8h7.3v3.5h-7.3v3H524.1z"/>
	<path class="st1" d="M537.6,464.1h4.1v6.8c-0.9,0.7-2,1.2-3.2,1.5c-1.2,0.4-2.4,0.5-3.6,0.5c-1.7,0-3.3-0.4-4.6-1.1
		c-1.4-0.7-2.4-1.7-3.2-3c-0.8-1.3-1.2-2.8-1.2-4.4s0.4-3.1,1.2-4.4c0.8-1.3,1.9-2.3,3.2-3c1.4-0.7,2.9-1.1,4.7-1.1
		c1.5,0,2.9,0.3,4.1,0.8s2.2,1.3,3,2.2l-2.9,2.7c-1.1-1.2-2.4-1.8-4-1.8c-1.4,0-2.5,0.4-3.4,1.3c-0.9,0.8-1.3,2-1.3,3.4
		c0,0.9,0.2,1.7,0.6,2.4c0.4,0.7,0.9,1.3,1.6,1.7s1.5,0.6,2.4,0.6c0.9,0,1.7-0.2,2.5-0.5V464.1z"/>
	<path class="st1" d="M546.5,471c-1.3-1.3-2-3.2-2-5.6v-9.1h4.6v8.9c0,2.6,1,3.9,3.1,3.9c2.1,0,3.1-1.3,3.1-3.9v-8.9h4.6v9.1
		c0,2.4-0.7,4.3-2,5.6c-1.3,1.3-3.2,2-5.7,2S547.9,472.3,546.5,471z"/>
	<path class="st1" d="M563,456.3h4.6V469h7.8v3.7H563V456.3z"/>
	<path class="st1" d="M588.4,469.5h-6.9l-1.3,3.2h-4.7l7.2-16.3h4.6l7.2,16.3h-4.8L588.4,469.5z M587,466l-2.1-5.2l-2.1,5.2H587z"/>
	<path class="st1" d="M598.4,460h-5v-3.7h14.6v3.7h-5v12.7h-4.6V460z"/>
	<path class="st1" d="M613.1,471.9c-1.4-0.7-2.5-1.7-3.2-3c-0.8-1.3-1.2-2.7-1.2-4.4s0.4-3.1,1.2-4.4c0.8-1.3,1.9-2.3,3.2-3
		c1.4-0.7,2.9-1.1,4.7-1.1s3.3,0.4,4.7,1.1c1.4,0.7,2.5,1.7,3.2,3c0.8,1.3,1.2,2.7,1.2,4.4s-0.4,3.1-1.2,4.4c-0.8,1.3-1.9,2.3-3.2,3
		c-1.4,0.7-2.9,1.1-4.7,1.1S614.5,472.6,613.1,471.9z M620,468.5c0.7-0.4,1.2-0.9,1.6-1.6s0.6-1.5,0.6-2.4s-0.2-1.7-0.6-2.4
		s-0.9-1.3-1.6-1.6s-1.4-0.6-2.2-0.6c-0.8,0-1.6,0.2-2.2,0.6c-0.7,0.4-1.2,0.9-1.6,1.6c-0.4,0.7-0.6,1.5-0.6,2.4s0.2,1.7,0.6,2.4
		c0.4,0.7,0.9,1.3,1.6,1.6c0.7,0.4,1.4,0.6,2.2,0.6C618.6,469.1,619.4,468.9,620,468.5z"/>
	<path class="st1" d="M636.4,468.3h-2.5v4.3h-4.6v-16.3h7.5c1.5,0,2.8,0.2,3.9,0.7c1.1,0.5,1.9,1.2,2.5,2.1c0.6,0.9,0.9,2,0.9,3.2
		c0,1.2-0.3,2.2-0.8,3.1c-0.6,0.9-1.3,1.6-2.4,2.1l3.5,5.1h-4.9L636.4,468.3z M638.6,460.6c-0.5-0.4-1.2-0.6-2.1-0.6h-2.6v4.8h2.6
		c0.9,0,1.7-0.2,2.1-0.6c0.5-0.4,0.7-1,0.7-1.8S639.1,461,638.6,460.6z"/>
	<path class="st1" d="M655.1,466.8v5.9h-4.6v-5.9l-6.2-10.4h4.9l3.9,6.5l3.9-6.5h4.5L655.1,466.8z"/>
	<path class="st1" d="M673.9,459.9v3.6h7.2v3.6h-7.2v5.6h-4.6v-16.3h12.8v3.6H673.9z"/>
	<path class="st1" d="M691.4,468.3h-2.5v4.3h-4.6v-16.3h7.5c1.5,0,2.8,0.2,3.9,0.7c1.1,0.5,1.9,1.2,2.5,2.1c0.6,0.9,0.9,2,0.9,3.2
		c0,1.2-0.3,2.2-0.8,3.1c-0.6,0.9-1.3,1.6-2.4,2.1l3.5,5.1h-4.9L691.4,468.3z M693.6,460.6c-0.5-0.4-1.2-0.6-2.1-0.6h-2.6v4.8h2.6
		c0.9,0,1.7-0.2,2.1-0.6c0.5-0.4,0.7-1,0.7-1.8S694.1,461,693.6,460.6z"/>
	<path class="st1" d="M712.5,469.5h-6.9l-1.3,3.2h-4.7l7.2-16.3h4.6l7.2,16.3h-4.8L712.5,469.5z M711.2,466l-2.1-5.2L707,466H711.2z
		"/>
	<path class="st1" d="M734.7,472.6l0-8.7l-4.2,7h-2.1l-4.2-6.8v8.4h-4.3v-16.3h3.8l5.7,9.4l5.6-9.4h3.8l0,16.3H734.7z"/>
	<path class="st1" d="M755.3,469.1v3.6h-13.1v-16.3H755v3.6h-8.2v2.8h7.3v3.5h-7.3v3H755.3z"/>
	<path class="st1" d="M783.3,456.3l-5.3,16.3H773l-3.1-9.9l-3.3,9.9h-4.9l-5.3-16.3h4.8l3.3,10.4l3.5-10.4h4.2l3.3,10.5l3.4-10.5
		H783.3z"/>
	<path class="st1" d="M788.3,471.9c-1.4-0.7-2.5-1.7-3.2-3c-0.8-1.3-1.2-2.7-1.2-4.4s0.4-3.1,1.2-4.4c0.8-1.3,1.9-2.3,3.2-3
		c1.4-0.7,2.9-1.1,4.7-1.1s3.3,0.4,4.7,1.1c1.4,0.7,2.5,1.7,3.2,3s1.2,2.7,1.2,4.4s-0.4,3.1-1.2,4.4s-1.9,2.3-3.2,3
		c-1.4,0.7-2.9,1.1-4.7,1.1S789.7,472.6,788.3,471.9z M795.2,468.5c0.7-0.4,1.2-0.9,1.6-1.6s0.6-1.5,0.6-2.4s-0.2-1.7-0.6-2.4
		s-0.9-1.3-1.6-1.6c-0.7-0.4-1.4-0.6-2.2-0.6c-0.8,0-1.6,0.2-2.2,0.6s-1.2,0.9-1.6,1.6c-0.4,0.7-0.6,1.5-0.6,2.4s0.2,1.7,0.6,2.4
		c0.4,0.7,0.9,1.3,1.6,1.6s1.4,0.6,2.2,0.6C793.8,469.1,794.5,468.9,795.2,468.5z"/>
	<path class="st1" d="M811.6,468.3h-2.5v4.3h-4.6v-16.3h7.5c1.5,0,2.8,0.2,3.9,0.7s1.9,1.2,2.5,2.1c0.6,0.9,0.9,2,0.9,3.2
		c0,1.2-0.3,2.2-0.8,3.1c-0.6,0.9-1.3,1.6-2.4,2.1l3.5,5.1h-4.9L811.6,468.3z M813.8,460.6c-0.5-0.4-1.2-0.6-2.1-0.6h-2.6v4.8h2.6
		c0.9,0,1.7-0.2,2.1-0.6c0.5-0.4,0.7-1,0.7-1.8S814.3,461,813.8,460.6z"/>
	<path class="st1" d="M828,466.7l-1.7,1.8v4.1h-4.6v-16.3h4.6v6.8l6.3-6.8h5.1l-6.7,7.2l7,9.1h-5.4L828,466.7z"/>
	<path class="st1" d="M520.4,516c1.1,0.5,1.9,1.2,2.5,2.1c0.6,0.9,0.9,2,0.9,3.2s-0.3,2.3-0.9,3.2c-0.6,0.9-1.4,1.6-2.5,2.1
		c-1.1,0.5-2.4,0.7-3.9,0.7h-2.8v4.3H509v-16.3h7.5C518,515.3,519.3,515.5,520.4,516z M518.4,523.1c0.5-0.4,0.7-1,0.7-1.8
		s-0.2-1.4-0.7-1.8c-0.5-0.4-1.2-0.6-2.1-0.6h-2.6v4.8h2.6C517.2,523.7,517.9,523.5,518.4,523.1z"/>
	<path class="st1" d="M533.2,527.3h-2.5v4.3H526v-16.3h7.5c1.5,0,2.8,0.2,3.9,0.7c1.1,0.5,1.9,1.2,2.5,2.1c0.6,0.9,0.9,2,0.9,3.2
		c0,1.2-0.3,2.2-0.8,3.1c-0.6,0.9-1.3,1.6-2.4,2.1l3.5,5.1h-4.9L533.2,527.3z M535.4,519.6c-0.5-0.4-1.2-0.6-2.1-0.6h-2.6v4.8h2.6
		c0.9,0,1.7-0.2,2.1-0.6c0.5-0.4,0.7-1,0.7-1.8S535.8,520,535.4,519.6z"/>
	<path class="st1" d="M546.9,530.9c-1.4-0.7-2.5-1.7-3.2-3c-0.8-1.3-1.2-2.7-1.2-4.4s0.4-3.1,1.2-4.4c0.8-1.3,1.9-2.3,3.2-3
		c1.4-0.7,2.9-1.1,4.7-1.1s3.3,0.4,4.7,1.1c1.4,0.7,2.5,1.7,3.2,3c0.8,1.3,1.2,2.7,1.2,4.4s-0.4,3.1-1.2,4.4c-0.8,1.3-1.9,2.3-3.2,3
		c-1.4,0.7-2.9,1.1-4.7,1.1S548.2,531.6,546.9,530.9z M553.8,527.5c0.7-0.4,1.2-0.9,1.6-1.6s0.6-1.5,0.6-2.4s-0.2-1.7-0.6-2.4
		s-0.9-1.3-1.6-1.6s-1.4-0.6-2.2-0.6c-0.8,0-1.6,0.2-2.2,0.6c-0.7,0.4-1.2,0.9-1.6,1.6c-0.4,0.7-0.6,1.5-0.6,2.4s0.2,1.7,0.6,2.4
		c0.4,0.7,0.9,1.3,1.6,1.6c0.7,0.4,1.4,0.6,2.2,0.6C552.4,528.1,553.1,527.9,553.8,527.5z"/>
	<path class="st1" d="M563,515.3h7.7c1.8,0,3.4,0.3,4.8,1c1.4,0.7,2.5,1.6,3.2,2.8c0.8,1.2,1.1,2.7,1.1,4.3s-0.4,3.1-1.1,4.3
		c-0.8,1.2-1.8,2.2-3.2,2.8c-1.4,0.7-3,1-4.8,1H563V515.3z M570.6,527.9c1.4,0,2.5-0.4,3.4-1.2c0.8-0.8,1.3-1.9,1.3-3.3
		s-0.4-2.5-1.3-3.3c-0.8-0.8-2-1.2-3.4-1.2h-2.9v9H570.6z"/>
	<path class="st1" d="M584.2,530c-1.3-1.3-2-3.2-2-5.6v-9.1h4.6v8.9c0,2.6,1,3.9,3.1,3.9c2.1,0,3.1-1.3,3.1-3.9v-8.9h4.6v9.1
		c0,2.4-0.7,4.3-2,5.6c-1.3,1.3-3.2,2-5.7,2S585.5,531.3,584.2,530z"/>
	<path class="st1" d="M604.2,530.9c-1.4-0.7-2.4-1.7-3.2-3c-0.8-1.3-1.2-2.8-1.2-4.4s0.4-3.1,1.2-4.4c0.8-1.3,1.8-2.3,3.2-3
		s2.9-1.1,4.6-1.1c1.5,0,2.8,0.3,4,0.8s2.2,1.3,3,2.3l-2.9,2.7c-1.1-1.3-2.3-1.9-3.9-1.9c-0.9,0-1.7,0.2-2.4,0.6
		c-0.7,0.4-1.2,0.9-1.6,1.6s-0.6,1.5-0.6,2.4s0.2,1.7,0.6,2.4s0.9,1.3,1.6,1.6c0.7,0.4,1.5,0.6,2.4,0.6c1.5,0,2.8-0.6,3.9-1.9
		l2.9,2.7c-0.8,1-1.8,1.8-3,2.3c-1.2,0.5-2.5,0.8-4,0.8C607.1,532,605.6,531.6,604.2,530.9z"/>
	<path class="st1" d="M621.2,519h-5v-3.7h14.6v3.7h-5v12.7h-4.6V519z"/>
	<path class="st1" d="M646.5,527.3H644v4.3h-4.6v-16.3h7.5c1.5,0,2.8,0.2,3.9,0.7c1.1,0.5,1.9,1.2,2.5,2.1c0.6,0.9,0.9,2,0.9,3.2
		c0,1.2-0.3,2.2-0.8,3.1c-0.6,0.9-1.3,1.6-2.4,2.1l3.5,5.1h-4.9L646.5,527.3z M648.7,519.6c-0.5-0.4-1.2-0.6-2.1-0.6H644v4.8h2.6
		c0.9,0,1.7-0.2,2.1-0.6c0.5-0.4,0.7-1,0.7-1.8S649.2,520,648.7,519.6z"/>
	<path class="st1" d="M669.8,528.1v3.6h-13.1v-16.3h12.8v3.6h-8.2v2.8h7.3v3.5h-7.3v3H669.8z"/>
	<path class="st1" d="M683.3,523.1h4.1v6.8c-0.9,0.7-2,1.2-3.2,1.5c-1.2,0.4-2.4,0.5-3.6,0.5c-1.7,0-3.3-0.4-4.6-1.1
		c-1.4-0.7-2.4-1.7-3.2-3c-0.8-1.3-1.2-2.8-1.2-4.4s0.4-3.1,1.2-4.4c0.8-1.3,1.9-2.3,3.2-3c1.4-0.7,2.9-1.1,4.7-1.1
		c1.5,0,2.9,0.3,4.1,0.8s2.2,1.3,3,2.2l-2.9,2.7c-1.1-1.2-2.4-1.8-4-1.8c-1.4,0-2.5,0.4-3.4,1.3c-0.9,0.8-1.3,2-1.3,3.4
		c0,0.9,0.2,1.7,0.6,2.4c0.4,0.7,0.9,1.3,1.6,1.7s1.5,0.6,2.4,0.6c0.9,0,1.7-0.2,2.5-0.5V523.1z"/>
	<path class="st1" d="M690.3,515.3h4.6v16.3h-4.6V515.3z"/>
	<path class="st1" d="M700.1,531.5c-1.2-0.3-2.3-0.8-3-1.3l1.5-3.4c0.7,0.5,1.6,0.9,2.5,1.2c1,0.3,1.9,0.4,2.8,0.4
		c1.8,0,2.7-0.4,2.7-1.3c0-0.5-0.3-0.8-0.8-1c-0.5-0.2-1.3-0.5-2.4-0.7c-1.2-0.3-2.3-0.5-3.1-0.9c-0.8-0.3-1.5-0.8-2.1-1.5
		s-0.9-1.6-0.9-2.7c0-1,0.3-1.9,0.8-2.7c0.5-0.8,1.4-1.4,2.4-1.9c1.1-0.5,2.4-0.7,4-0.7c1.1,0,2.1,0.1,3.2,0.4s2,0.6,2.8,1.1
		l-1.4,3.4c-1.6-0.8-3.1-1.3-4.5-1.3c-0.9,0-1.6,0.1-2,0.4s-0.6,0.6-0.6,1.1s0.2,0.8,0.7,1c0.5,0.2,1.3,0.4,2.4,0.7
		c1.2,0.3,2.3,0.5,3.1,0.9c0.8,0.3,1.5,0.8,2.1,1.4c0.6,0.7,0.9,1.6,0.9,2.7c0,1-0.3,1.9-0.8,2.7c-0.5,0.8-1.4,1.4-2.5,1.9
		c-1.1,0.5-2.4,0.7-4,0.7C702.6,532,701.3,531.8,700.1,531.5z"/>
	<path class="st1" d="M716.5,519h-5v-3.7h14.6v3.7h-5v12.7h-4.6V519z"/>
	<path class="st1" d="M735,527.3h-2.5v4.3h-4.6v-16.3h7.5c1.5,0,2.8,0.2,3.9,0.7s1.9,1.2,2.5,2.1c0.6,0.9,0.9,2,0.9,3.2
		c0,1.2-0.3,2.2-0.8,3.1c-0.6,0.9-1.3,1.6-2.4,2.1l3.5,5.1H738L735,527.3z M737.2,519.6c-0.5-0.4-1.2-0.6-2.1-0.6h-2.6v4.8h2.6
		c0.9,0,1.7-0.2,2.1-0.6c0.5-0.4,0.7-1,0.7-1.8S737.7,520,737.2,519.6z"/>
	<path class="st1" d="M756.1,528.5h-6.9l-1.3,3.2h-4.7l7.2-16.3h4.6l7.2,16.3h-4.8L756.1,528.5z M754.7,525l-2.1-5.2l-2.1,5.2H754.7
		z"/>
	<path class="st1" d="M766.2,519h-5v-3.7h14.6v3.7h-5v12.7h-4.6V519z"/>
	<path class="st1" d="M777.5,515.3h4.6v16.3h-4.6V515.3z"/>
	<path class="st1" d="M789,530.9c-1.4-0.7-2.5-1.7-3.2-3c-0.8-1.3-1.2-2.7-1.2-4.4s0.4-3.1,1.2-4.4c0.8-1.3,1.9-2.3,3.2-3
		c1.4-0.7,2.9-1.1,4.7-1.1s3.3,0.4,4.7,1.1c1.4,0.7,2.5,1.7,3.2,3s1.2,2.7,1.2,4.4s-0.4,3.1-1.2,4.4s-1.9,2.3-3.2,3
		c-1.4,0.7-2.9,1.1-4.7,1.1S790.4,531.6,789,530.9z M795.9,527.5c0.7-0.4,1.2-0.9,1.6-1.6s0.6-1.5,0.6-2.4s-0.2-1.7-0.6-2.4
		s-0.9-1.3-1.6-1.6c-0.7-0.4-1.4-0.6-2.2-0.6c-0.8,0-1.6,0.2-2.2,0.6s-1.2,0.9-1.6,1.6c-0.4,0.7-0.6,1.5-0.6,2.4s0.2,1.7,0.6,2.4
		c0.4,0.7,0.9,1.3,1.6,1.6s1.4,0.6,2.2,0.6C794.5,528.1,795.2,527.9,795.9,527.5z"/>
	<path class="st1" d="M820.7,515.3v16.3h-3.8l-7.2-8.7v8.7h-4.5v-16.3h3.8l7.2,8.7v-8.7H820.7z"/>
</g>
<g>
	<g>
		<linearGradient id="SVGID_1_" gradientUnits="userSpaceOnUse" x1="57.2874" y1="189.6455" x2="383.2434" y2="189.6455">
			<stop  offset="0" style="stop-color:#0085FF"/>
			<stop  offset="1" style="stop-color:#FF003D"/>
		</linearGradient>
		<polygon class="st2" points="358.3,225.5 383.2,189.6 358.3,153.8 57.3,153.8 77.8,189.6 57.3,225.5 		"/>
	</g>
	<g>
		<path class="st1" d="M107,196.3v2H95.1V182h11.5v2h-9.2v5h8.2v2h-8.2v5.3H107z"/>
		<path class="st1" d="M124.8,182v16.3h-1.9l-9.8-12.2v12.2h-2.3V182h1.9l9.8,12.2V182H124.8z"/>
		<path class="st1" d="M132.9,184h-5.6v-2h13.5v2h-5.6v14.3h-2.3V184z"/>
		<path class="st1" d="M154.3,198.4l-3.5-5c-0.4,0-0.8,0-1,0h-4v5h-2.3V182h6.4c2.1,0,3.8,0.5,5,1.5c1.2,1,1.8,2.4,1.8,4.2
			c0,1.3-0.3,2.3-0.9,3.2c-0.6,0.9-1.5,1.5-2.7,1.9l3.9,5.5H154.3z M153.1,190.4c0.8-0.6,1.2-1.5,1.2-2.7c0-1.2-0.4-2.1-1.2-2.7
			s-1.9-0.9-3.4-0.9h-4v7.4h4C151.2,191.4,152.3,191.1,153.1,190.4z"/>
		<path class="st1" d="M172.2,196.3v2h-11.9V182h11.5v2h-9.2v5h8.2v2h-8.2v5.3H172.2z"/>
		<path class="st1" d="M187.4,183.5c1.2,1,1.8,2.4,1.8,4.2c0,1.8-0.6,3.2-1.8,4.2s-2.9,1.5-5,1.5h-4v4.9H176V182h6.4
			C184.5,182,186.2,182.5,187.4,183.5z M185.7,190.4c0.8-0.6,1.2-1.5,1.2-2.7c0-1.2-0.4-2.1-1.2-2.7s-1.9-0.9-3.4-0.9h-4v7.3h4
			C183.8,191.4,184.9,191.1,185.7,190.4z"/>
		<path class="st1" d="M203.6,198.4l-3.5-5c-0.4,0-0.8,0-1,0h-4v5h-2.3V182h6.4c2.1,0,3.8,0.5,5,1.5c1.2,1,1.8,2.4,1.8,4.2
			c0,1.3-0.3,2.3-0.9,3.2c-0.6,0.9-1.5,1.5-2.7,1.9l3.9,5.5H203.6z M202.3,190.4c0.8-0.6,1.2-1.5,1.2-2.7c0-1.2-0.4-2.1-1.2-2.7
			s-1.9-0.9-3.4-0.9h-4v7.4h4C200.4,191.4,201.5,191.1,202.3,190.4z"/>
		<path class="st1" d="M221.5,196.3v2h-11.9V182h11.5v2h-9.2v5h8.2v2h-8.2v5.3H221.5z"/>
		<path class="st1" d="M239.3,182v16.3h-1.9l-9.8-12.2v12.2h-2.3V182h1.9l9.8,12.2V182H239.3z"/>
		<path class="st1" d="M256.1,196.3v2h-11.9V182h11.5v2h-9.2v5h8.2v2h-8.2v5.3H256.1z"/>
		<path class="st1" d="M261.5,196.7c-1.2-1.2-1.8-3-1.8-5.4V182h2.3v9.2c0,3.5,1.5,5.3,4.6,5.3c1.5,0,2.6-0.4,3.4-1.3
			c0.8-0.9,1.2-2.2,1.2-4V182h2.3v9.3c0,2.4-0.6,4.1-1.8,5.4s-2.9,1.9-5.1,1.9C264.4,198.5,262.7,197.9,261.5,196.7z"/>
		<path class="st1" d="M289.2,198.4l-3.5-5c-0.4,0-0.8,0-1,0h-4v5h-2.3V182h6.4c2.1,0,3.8,0.5,5,1.5c1.2,1,1.8,2.4,1.8,4.2
			c0,1.3-0.3,2.3-0.9,3.2c-0.6,0.9-1.5,1.5-2.7,1.9l3.9,5.5H289.2z M288,190.4c0.8-0.6,1.2-1.5,1.2-2.7c0-1.2-0.4-2.1-1.2-2.7
			s-1.9-0.9-3.4-0.9h-4v7.4h4C286.1,191.4,287.2,191.1,288,190.4z"/>
		<path class="st1" d="M296.5,198c-1.1-0.4-2-0.9-2.7-1.5l0.9-1.8c0.6,0.6,1.4,1,2.4,1.4c1,0.4,2,0.5,3,0.5c1.4,0,2.4-0.2,3-0.7
			c0.7-0.5,1-1.1,1-1.8c0-0.6-0.2-1-0.5-1.4s-0.8-0.6-1.4-0.8c-0.5-0.2-1.3-0.4-2.3-0.6c-1.2-0.3-2.2-0.6-3-0.9
			c-0.8-0.3-1.4-0.8-1.9-1.4c-0.5-0.6-0.8-1.4-0.8-2.5c0-0.9,0.2-1.7,0.7-2.4s1.2-1.3,2.1-1.7c0.9-0.4,2.1-0.6,3.5-0.6
			c1,0,1.9,0.1,2.8,0.4c0.9,0.2,1.7,0.6,2.4,1.1l-0.8,1.9c-0.7-0.4-1.4-0.8-2.2-1c-0.8-0.2-1.5-0.3-2.3-0.3c-1.3,0-2.3,0.2-3,0.7
			c-0.7,0.5-1,1.1-1,1.9c0,0.6,0.2,1,0.6,1.4s0.8,0.6,1.4,0.8c0.6,0.2,1.3,0.4,2.3,0.6c1.2,0.3,2.2,0.6,3,0.9
			c0.7,0.3,1.4,0.7,1.9,1.4c0.5,0.6,0.8,1.4,0.8,2.5c0,0.9-0.2,1.6-0.7,2.3c-0.5,0.7-1.2,1.3-2.1,1.7s-2.1,0.6-3.5,0.6
			C298.8,198.5,297.6,198.3,296.5,198z"/>
	</g>
</g>
<g>
	<g>
		<linearGradient id="SVGID_2_" gradientUnits="userSpaceOnUse" x1="1018.0165" y1="189.6455" x2="1433.0769" y2="189.6455">
			<stop  offset="0" style="stop-color:#FF003D"/>
			<stop  offset="1" style="stop-color:#FFC600"/>
		</linearGradient>
		<polygon class="st3" points="1433.1,225.5 1433.1,153.8 1018,153.8 1038.5,189.6 1018,225.5 		"/>
	</g>
</g>
<g>
	<path class="st1" d="M1055.8,182h2.3v16.3h-2.3V182z"/>
	<path class="st1" d="M1077.1,182v16.3h-1.9l-9.8-12.2v12.2h-2.3V182h1.9l9.8,12.2V182H1077.1z"/>
	<path class="st1" d="M1085.3,184h-5.6v-2h13.5v2h-5.6v14.3h-2.3V184z"/>
	<path class="st1" d="M1107.6,196.3v2h-11.9V182h11.5v2h-9.2v5h8.2v2h-8.2v5.3H1107.6z"/>
	<path class="st1" d="M1122.3,198.4l-3.5-5c-0.4,0-0.8,0-1,0h-4v5h-2.3V182h6.4c2.1,0,3.8,0.5,5,1.5c1.2,1,1.8,2.4,1.8,4.2
		c0,1.3-0.3,2.3-0.9,3.2c-0.6,0.9-1.5,1.5-2.7,1.9l3.9,5.5H1122.3z M1121.1,190.4c0.8-0.6,1.2-1.5,1.2-2.7c0-1.2-0.4-2.1-1.2-2.7
		c-0.8-0.6-1.9-0.9-3.4-0.9h-4v7.4h4C1119.1,191.4,1120.3,191.1,1121.1,190.4z"/>
	<path class="st1" d="M1142.4,182v16.3h-1.9l-9.8-12.2v12.2h-2.3V182h1.9l9.8,12.2V182H1142.4z"/>
	<path class="st1" d="M1157.7,194.3h-8.7l-1.8,4.1h-2.4l7.4-16.3h2.3l7.4,16.3h-2.5L1157.7,194.3z M1156.9,192.4l-3.5-8l-3.5,8
		H1156.9z"/>
	<path class="st1" d="M1164.4,182h2.3v14.3h8.8v2h-11.2V182z"/>
	<path class="st1" d="M1199.7,198.4l0-11.9l-5.9,9.9h-1.1l-5.9-9.9v11.8h-2.2V182h1.9l6.8,11.5l6.7-11.5h1.9l0,16.3H1199.7z"/>
	<path class="st1" d="M1217.2,194.3h-8.7l-1.8,4.1h-2.4l7.4-16.3h2.3l7.4,16.3h-2.5L1217.2,194.3z M1216.4,192.4l-3.5-8l-3.5,8
		H1216.4z"/>
	<path class="st1" d="M1234.8,198.4l-3.5-5c-0.4,0-0.8,0-1,0h-4v5h-2.3V182h6.4c2.1,0,3.8,0.5,5,1.5c1.2,1,1.8,2.4,1.8,4.2
		c0,1.3-0.3,2.3-0.9,3.2c-0.6,0.9-1.5,1.5-2.7,1.9l3.9,5.5H1234.8z M1233.6,190.4c0.8-0.6,1.2-1.5,1.2-2.7c0-1.2-0.4-2.1-1.2-2.7
		c-0.8-0.6-1.9-0.9-3.4-0.9h-4v7.4h4C1231.7,191.4,1232.8,191.1,1233.6,190.4z"/>
	<path class="st1" d="M1246.2,191.1l-3,3v4.2h-2.3V182h2.3v9.1l8.9-9.1h2.7l-7,7.4l7.4,9h-2.7L1246.2,191.1z"/>
	<path class="st1" d="M1269.5,196.3v2h-11.9V182h11.5v2h-9.2v5h8.2v2h-8.2v5.3H1269.5z"/>
	<path class="st1" d="M1276.5,184h-5.6v-2h13.5v2h-5.6v14.3h-2.3V184z"/>
</g>
<g>
	<g>
		<g>
			<linearGradient id="SVGID_3_" gradientUnits="userSpaceOnUse" x1="1043.953" y1="287.3401" x2="1433.0769" y2="287.3401">
				<stop  offset="0" style="stop-color:#FF003D"/>
				<stop  offset="1" style="stop-color:#FFC600"/>
			</linearGradient>
			<polygon class="st4" points="1433.1,323.2 1433.1,251.5 1044,251.5 1064.5,287.3 1044,323.2 			"/>
		</g>
	</g>
	<g>
		<path class="st1" d="M1092.7,296l-3.5-5c-0.4,0-0.8,0-1,0h-4v5h-2.3v-16.3h6.4c2.1,0,3.8,0.5,5,1.5c1.2,1,1.8,2.4,1.8,4.2
			c0,1.3-0.3,2.3-0.9,3.2c-0.6,0.9-1.5,1.5-2.7,1.9l3.9,5.5H1092.7z M1091.5,288.1c0.8-0.6,1.2-1.5,1.2-2.7c0-1.2-0.4-2.1-1.2-2.7
			c-0.8-0.6-1.9-0.9-3.4-0.9h-4v7.4h4C1089.6,289.1,1090.7,288.8,1091.5,288.1z"/>
		<path class="st1" d="M1110.6,294v2h-11.9v-16.3h11.5v2h-9.2v5h8.2v2h-8.2v5.3H1110.6z"/>
		<path class="st1" d="M1125.6,287.8h2.2v6.4c-0.8,0.7-1.8,1.2-2.8,1.5c-1.1,0.4-2.2,0.5-3.4,0.5c-1.6,0-3.1-0.4-4.5-1.1
			c-1.3-0.7-2.4-1.7-3.1-3c-0.8-1.3-1.1-2.7-1.1-4.3s0.4-3,1.1-4.3c0.8-1.3,1.8-2.3,3.1-3c1.3-0.7,2.8-1.1,4.5-1.1
			c1.3,0,2.5,0.2,3.6,0.6c1.1,0.4,2,1.1,2.7,1.9l-1.4,1.4c-1.3-1.3-2.9-1.9-4.7-1.9c-1.2,0-2.4,0.3-3.3,0.8c-1,0.5-1.8,1.3-2.3,2.2
			c-0.6,1-0.8,2-0.8,3.2c0,1.2,0.3,2.3,0.8,3.2c0.6,1,1.3,1.7,2.3,2.3c1,0.5,2.1,0.8,3.3,0.8c1.5,0,2.7-0.4,3.8-1.1V287.8z"/>
		<path class="st1" d="M1132.3,279.7h2.3V296h-2.3V279.7z"/>
		<path class="st1" d="M1142.5,295.1c-1.3-0.7-2.4-1.7-3.1-3c-0.8-1.3-1.1-2.7-1.1-4.3s0.4-3,1.1-4.3c0.8-1.3,1.8-2.3,3.1-3
			c1.3-0.7,2.8-1.1,4.5-1.1c1.6,0,3.1,0.4,4.4,1.1c1.3,0.7,2.4,1.7,3.1,3c0.7,1.3,1.1,2.7,1.1,4.3s-0.4,3-1.1,4.3
			c-0.7,1.3-1.8,2.3-3.1,3c-1.3,0.7-2.8,1.1-4.4,1.1C1145.3,296.2,1143.8,295.9,1142.5,295.1z M1150.2,293.3c1-0.5,1.7-1.3,2.3-2.3
			c0.6-1,0.8-2,0.8-3.2s-0.3-2.3-0.8-3.2c-0.6-1-1.3-1.7-2.3-2.3c-1-0.5-2-0.8-3.2-0.8s-2.3,0.3-3.3,0.8c-1,0.5-1.7,1.3-2.3,2.3
			s-0.8,2-0.8,3.2s0.3,2.3,0.8,3.2s1.3,1.7,2.3,2.3c1,0.5,2.1,0.8,3.3,0.8S1149.2,293.9,1150.2,293.3z"/>
		<path class="st1" d="M1173.2,279.7V296h-1.9l-9.8-12.2V296h-2.3v-16.3h1.9l9.8,12.2v-12.2H1173.2z"/>
		<path class="st1" d="M1188.5,292h-8.7l-1.8,4.1h-2.4l7.4-16.3h2.3l7.4,16.3h-2.5L1188.5,292z M1187.7,290.1l-3.5-8l-3.5,8H1187.7z
			"/>
		<path class="st1" d="M1195.2,279.7h2.3V294h8.8v2h-11.2V279.7z"/>
		<path class="st1" d="M1230.5,296l0-11.9l-5.9,9.9h-1.1l-5.9-9.9V296h-2.2v-16.3h1.9l6.8,11.5l6.7-11.5h1.9l0,16.3H1230.5z"/>
		<path class="st1" d="M1248.1,292h-8.7l-1.8,4.1h-2.4l7.4-16.3h2.3l7.4,16.3h-2.5L1248.1,292z M1247.2,290.1l-3.5-8l-3.5,8H1247.2z
			"/>
		<path class="st1" d="M1265.7,296l-3.5-5c-0.4,0-0.8,0-1,0h-4v5h-2.3v-16.3h6.4c2.1,0,3.8,0.5,5,1.5c1.2,1,1.8,2.4,1.8,4.2
			c0,1.3-0.3,2.3-0.9,3.2c-0.6,0.9-1.5,1.5-2.7,1.9l3.9,5.5H1265.7z M1264.4,288.1c0.8-0.6,1.2-1.5,1.2-2.7c0-1.2-0.4-2.1-1.2-2.7
			c-0.8-0.6-1.9-0.9-3.4-0.9h-4v7.4h4C1262.5,289.1,1263.7,288.8,1264.4,288.1z"/>
		<path class="st1" d="M1277,288.8l-3,3v4.2h-2.3v-16.3h2.3v9.1l8.9-9.1h2.7l-7,7.4l7.4,9h-2.7L1277,288.8z"/>
		<path class="st1" d="M1300.4,294v2h-11.9v-16.3h11.5v2h-9.2v5h8.2v2h-8.2v5.3H1300.4z"/>
		<path class="st1" d="M1307.4,281.7h-5.6v-2h13.5v2h-5.6V296h-2.3V281.7z"/>
	</g>
</g>
<g>
	<g>
		<g>
			<linearGradient id="SVGID_4_" gradientUnits="userSpaceOnUse" x1="1043.953" y1="385.0346" x2="1433.0769" y2="385.0346">
				<stop  offset="0" style="stop-color:#FF003D"/>
				<stop  offset="1" style="stop-color:#FFC600"/>
			</linearGradient>
			<polygon class="st5" points="1433.1,420.9 1433.1,349.2 1044,349.2 1064.5,385 1044,420.9 			"/>
		</g>
	</g>
	<g>
		<path class="st1" d="M1081.8,377.4h2.3v16.3h-2.3V377.4z"/>
		<path class="st1" d="M1103.1,377.4v16.3h-1.9l-9.8-12.2v12.2h-2.3v-16.3h1.9l9.8,12.2v-12.2H1103.1z"/>
		<path class="st1" d="M1111.2,379.4h-5.6v-2h13.5v2h-5.6v14.3h-2.3V379.4z"/>
		<path class="st1" d="M1133.5,391.7v2h-11.9v-16.3h11.5v2h-9.2v5h8.2v2h-8.2v5.3H1133.5z"/>
		<path class="st1" d="M1148.2,393.7l-3.5-5c-0.4,0-0.8,0-1,0h-4v5h-2.3v-16.3h6.4c2.1,0,3.8,0.5,5,1.5c1.2,1,1.8,2.4,1.8,4.2
			c0,1.3-0.3,2.3-0.9,3.2c-0.6,0.9-1.5,1.5-2.7,1.9l3.9,5.5H1148.2z M1147,385.8c0.8-0.6,1.2-1.5,1.2-2.7s-0.4-2.1-1.2-2.7
			c-0.8-0.6-1.9-0.9-3.4-0.9h-4v7.4h4C1145.1,386.8,1146.2,386.5,1147,385.8z"/>
		<path class="st1" d="M1168.3,377.4v16.3h-1.9l-9.8-12.2v12.2h-2.3v-16.3h1.9l9.8,12.2v-12.2H1168.3z"/>
		<path class="st1" d="M1183.6,389.7h-8.7l-1.8,4.1h-2.4l7.4-16.3h2.3l7.4,16.3h-2.5L1183.6,389.7z M1182.8,387.8l-3.5-8l-3.5,8
			H1182.8z"/>
		<path class="st1" d="M1192.7,379.4h-5.6v-2h13.5v2h-5.6v14.3h-2.3V379.4z"/>
		<path class="st1" d="M1203.2,377.4h2.3v16.3h-2.3V377.4z"/>
		<path class="st1" d="M1213.4,392.8c-1.3-0.7-2.4-1.7-3.1-3c-0.8-1.3-1.1-2.7-1.1-4.3c0-1.6,0.4-3,1.1-4.3c0.8-1.3,1.8-2.3,3.1-3
			c1.3-0.7,2.8-1.1,4.5-1.1c1.6,0,3.1,0.4,4.4,1.1c1.3,0.7,2.4,1.7,3.1,3s1.1,2.7,1.1,4.3c0,1.6-0.4,3-1.1,4.3
			c-0.7,1.3-1.8,2.3-3.1,3c-1.3,0.7-2.8,1.1-4.4,1.1C1216.2,393.9,1214.7,393.6,1213.4,392.8z M1221,391c1-0.5,1.7-1.3,2.3-2.3
			c0.6-1,0.8-2,0.8-3.2s-0.3-2.3-0.8-3.2c-0.6-1-1.3-1.7-2.3-2.3s-2-0.8-3.2-0.8s-2.3,0.3-3.3,0.8c-1,0.5-1.7,1.3-2.3,2.3
			s-0.8,2-0.8,3.2s0.3,2.3,0.8,3.2s1.3,1.7,2.3,2.3c1,0.5,2.1,0.8,3.3,0.8S1220.1,391.6,1221,391z"/>
		<path class="st1" d="M1244.1,377.4v16.3h-1.9l-9.8-12.2v12.2h-2.3v-16.3h1.9l9.8,12.2v-12.2H1244.1z"/>
		<path class="st1" d="M1259.4,389.7h-8.7l-1.8,4.1h-2.4l7.4-16.3h2.3l7.4,16.3h-2.5L1259.4,389.7z M1258.6,387.8l-3.5-8l-3.5,8
			H1258.6z"/>
		<path class="st1" d="M1266.1,377.4h2.3v14.3h8.8v2h-11.2V377.4z"/>
		<path class="st1" d="M1301.4,393.7l0-11.9l-5.9,9.9h-1.1l-5.9-9.9v11.8h-2.2v-16.3h1.9l6.8,11.5l6.7-11.5h1.9l0,16.3H1301.4z"/>
		<path class="st1" d="M1318.9,389.7h-8.7l-1.8,4.1h-2.4l7.4-16.3h2.3l7.4,16.3h-2.5L1318.9,389.7z M1318.1,387.8l-3.5-8l-3.5,8
			H1318.1z"/>
		<path class="st1" d="M1336.5,393.7l-3.5-5c-0.4,0-0.8,0-1,0h-4v5h-2.3v-16.3h6.4c2.1,0,3.8,0.5,5,1.5c1.2,1,1.8,2.4,1.8,4.2
			c0,1.3-0.3,2.3-0.9,3.2c-0.6,0.9-1.5,1.5-2.7,1.9l3.9,5.5H1336.5z M1335.3,385.8c0.8-0.6,1.2-1.5,1.2-2.7s-0.4-2.1-1.2-2.7
			c-0.8-0.6-1.9-0.9-3.4-0.9h-4v7.4h4C1333.4,386.8,1334.5,386.5,1335.3,385.8z"/>
		<path class="st1" d="M1347.9,386.5l-3,3v4.2h-2.3v-16.3h2.3v9.1l8.9-9.1h2.7l-7,7.4l7.4,9h-2.7L1347.9,386.5z"/>
		<path class="st1" d="M1371.2,391.7v2h-11.9v-16.3h11.5v2h-9.2v5h8.2v2h-8.2v5.3H1371.2z"/>
		<path class="st1" d="M1378.2,379.4h-5.6v-2h13.5v2h-5.6v14.3h-2.3V379.4z"/>
	</g>
</g>
<g>
	<g>
		<g>
			<linearGradient id="SVGID_5_" gradientUnits="userSpaceOnUse" x1="1018.0165" y1="482.7291" x2="1433.0769" y2="482.7291">
				<stop  offset="0" style="stop-color:#FF003D"/>
				<stop  offset="1" style="stop-color:#FFC600"/>
			</linearGradient>
			<polygon class="st6" points="1433.1,518.6 1433.1,446.9 1018,446.9 1038.5,482.7 1018,518.6 			"/>
		</g>
	</g>
	<g>
		<path class="st1" d="M1057,491.1c-1.1-0.4-2-0.9-2.7-1.5l0.9-1.8c0.6,0.6,1.4,1,2.4,1.4c1,0.3,2,0.5,3,0.5c1.4,0,2.4-0.2,3-0.7
			c0.7-0.5,1-1.1,1-1.8c0-0.6-0.2-1-0.5-1.4c-0.4-0.4-0.8-0.6-1.4-0.8s-1.3-0.4-2.3-0.6c-1.2-0.3-2.2-0.6-3-0.9
			c-0.8-0.3-1.4-0.8-1.9-1.4c-0.5-0.6-0.8-1.4-0.8-2.5c0-0.9,0.2-1.7,0.7-2.4c0.5-0.7,1.2-1.3,2.1-1.7s2.1-0.6,3.5-0.6
			c1,0,1.9,0.1,2.8,0.4c0.9,0.2,1.7,0.6,2.4,1.1l-0.8,1.9c-0.7-0.4-1.4-0.8-2.2-1s-1.5-0.3-2.3-0.3c-1.3,0-2.3,0.2-3,0.7
			c-0.7,0.5-1,1.1-1,1.9c0,0.6,0.2,1,0.6,1.4c0.4,0.3,0.8,0.6,1.4,0.8c0.6,0.2,1.3,0.4,2.3,0.6c1.2,0.3,2.2,0.6,3,0.9
			c0.7,0.3,1.4,0.7,1.9,1.4c0.5,0.6,0.8,1.4,0.8,2.5c0,0.9-0.2,1.6-0.7,2.3s-1.2,1.3-2.1,1.7c-1,0.4-2.1,0.6-3.5,0.6
			C1059.4,491.6,1058.2,491.4,1057,491.1z"/>
		<path class="st1" d="M1081.7,476.6c1.2,1,1.8,2.4,1.8,4.2c0,1.8-0.6,3.2-1.8,4.2s-2.9,1.5-5,1.5h-4v4.9h-2.3v-16.3h6.4
			C1078.8,475.1,1080.5,475.6,1081.7,476.6z M1080,483.5c0.8-0.6,1.2-1.5,1.2-2.7s-0.4-2.1-1.2-2.7c-0.8-0.6-1.9-0.9-3.4-0.9h-4v7.3
			h4C1078.1,484.5,1079.2,484.1,1080,483.5z"/>
		<path class="st1" d="M1098.8,489.4v2H1087v-16.3h11.5v2h-9.2v5h8.2v2h-8.2v5.3H1098.8z"/>
		<path class="st1" d="M1105.4,490.5c-1.3-0.7-2.3-1.7-3.1-3c-0.7-1.3-1.1-2.7-1.1-4.3c0-1.6,0.4-3,1.1-4.3s1.8-2.3,3.1-3
			c1.3-0.7,2.8-1.1,4.4-1.1c1.3,0,2.4,0.2,3.5,0.6c1.1,0.4,2,1.1,2.7,1.9l-1.5,1.5c-1.2-1.3-2.8-1.9-4.6-1.9c-1.2,0-2.3,0.3-3.3,0.8
			s-1.7,1.3-2.3,2.3s-0.8,2-0.8,3.2s0.3,2.3,0.8,3.2s1.3,1.7,2.3,2.3c1,0.5,2.1,0.8,3.3,0.8c1.8,0,3.4-0.7,4.6-2l1.5,1.5
			c-0.7,0.8-1.7,1.5-2.7,1.9c-1.1,0.4-2.2,0.7-3.5,0.7C1108.2,491.6,1106.7,491.3,1105.4,490.5z"/>
		<path class="st1" d="M1119.4,475.1h2.3v16.3h-2.3V475.1z"/>
		<path class="st1" d="M1137,487.4h-8.7l-1.8,4.1h-2.4l7.4-16.3h2.3l7.4,16.3h-2.5L1137,487.4z M1136.2,485.5l-3.5-8l-3.5,8H1136.2z
			"/>
		<path class="st1" d="M1143.7,475.1h2.3v14.3h8.8v2h-11.2V475.1z"/>
		<path class="st1" d="M1177.9,475.1v16.3h-1.9l-9.8-12.2v12.2h-2.3v-16.3h1.9l9.8,12.2v-12.2H1177.9z"/>
		<path class="st1" d="M1182.8,475.1h2.3v16.3h-2.3V475.1z"/>
		<path class="st1" d="M1192.9,490.5c-1.3-0.7-2.3-1.7-3.1-3c-0.7-1.3-1.1-2.7-1.1-4.3c0-1.6,0.4-3,1.1-4.3s1.8-2.3,3.1-3
			c1.3-0.7,2.8-1.1,4.4-1.1c1.3,0,2.4,0.2,3.5,0.6c1.1,0.4,2,1.1,2.7,1.9l-1.5,1.5c-1.2-1.3-2.8-1.9-4.6-1.9c-1.2,0-2.3,0.3-3.3,0.8
			s-1.7,1.3-2.3,2.3s-0.8,2-0.8,3.2s0.3,2.3,0.8,3.2s1.3,1.7,2.3,2.3c1,0.5,2.1,0.8,3.3,0.8c1.8,0,3.4-0.7,4.6-2l1.5,1.5
			c-0.7,0.8-1.7,1.5-2.7,1.9c-1.1,0.4-2.2,0.7-3.5,0.7C1195.7,491.6,1194.3,491.3,1192.9,490.5z"/>
		<path class="st1" d="M1221,475.1v16.3h-2.3v-7.3h-9.4v7.3h-2.3v-16.3h2.3v7h9.4v-7H1221z"/>
		<path class="st1" d="M1237.7,489.4v2h-11.9v-16.3h11.5v2h-9.2v5h8.2v2h-8.2v5.3H1237.7z"/>
		<path class="st1" d="M1242.7,491.1c-1.1-0.4-2-0.9-2.7-1.5l0.9-1.8c0.6,0.6,1.4,1,2.4,1.4c1,0.3,2,0.5,3,0.5c1.4,0,2.4-0.2,3-0.7
			c0.7-0.5,1-1.1,1-1.8c0-0.6-0.2-1-0.5-1.4c-0.4-0.4-0.8-0.6-1.4-0.8s-1.3-0.4-2.3-0.6c-1.2-0.3-2.2-0.6-3-0.9
			c-0.8-0.3-1.4-0.8-1.9-1.4c-0.5-0.6-0.8-1.4-0.8-2.5c0-0.9,0.2-1.7,0.7-2.4c0.5-0.7,1.2-1.3,2.1-1.7s2.1-0.6,3.5-0.6
			c1,0,1.9,0.1,2.8,0.4c0.9,0.2,1.7,0.6,2.4,1.1l-0.8,1.9c-0.7-0.4-1.4-0.8-2.2-1s-1.5-0.3-2.3-0.3c-1.3,0-2.3,0.2-3,0.7
			c-0.7,0.5-1,1.1-1,1.9c0,0.6,0.2,1,0.6,1.4c0.4,0.3,0.8,0.6,1.4,0.8c0.6,0.2,1.3,0.4,2.3,0.6c1.2,0.3,2.2,0.6,3,0.9
			c0.7,0.3,1.4,0.7,1.9,1.4c0.5,0.6,0.8,1.4,0.8,2.5c0,0.9-0.2,1.6-0.7,2.3s-1.2,1.3-2.1,1.7c-1,0.4-2.1,0.6-3.5,0.6
			C1245.1,491.6,1243.9,491.4,1242.7,491.1z"/>
	</g>
</g>
<g>
	<g>
		<linearGradient id="SVGID_6_" gradientUnits="userSpaceOnUse" x1="23.0758" y1="277.83" x2="349.5258" y2="277.83">
			<stop  offset="0" style="stop-color:#0085FF"/>
			<stop  offset="1" style="stop-color:#FF003D"/>
		</linearGradient>
		<polygon class="st7" points="325.2,313.7 349.5,278.7 324,242 23.1,242 44.1,278.7 24.1,313.7 		"/>
	</g>
	<g>
		<path class="st1" d="M72.3,287.4l-3.5-5c-0.4,0-0.8,0-1,0h-4v5h-2.3v-16.3h6.4c2.1,0,3.8,0.5,5,1.5c1.2,1,1.8,2.4,1.8,4.2
			c0,1.3-0.3,2.3-0.9,3.2c-0.6,0.9-1.5,1.5-2.7,1.9l3.9,5.5H72.3z M71.1,279.5c0.8-0.6,1.2-1.5,1.2-2.7c0-1.2-0.4-2.1-1.2-2.7
			s-1.9-0.9-3.4-0.9h-4v7.4h4C69.2,280.4,70.3,280.1,71.1,279.5z"/>
		<path class="st1" d="M90.2,285.4v2H78.4v-16.3h11.5v2h-9.2v5h8.2v2h-8.2v5.3H90.2z"/>
		<path class="st1" d="M95.2,287c-1.1-0.4-2-0.9-2.7-1.5l0.9-1.8c0.6,0.6,1.4,1,2.4,1.4c1,0.4,2,0.5,3,0.5c1.4,0,2.4-0.2,3-0.7
			c0.7-0.5,1-1.1,1-1.8c0-0.6-0.2-1-0.5-1.4s-0.8-0.6-1.4-0.8c-0.5-0.2-1.3-0.4-2.3-0.6c-1.2-0.3-2.2-0.6-3-0.9
			c-0.8-0.3-1.4-0.8-1.9-1.4c-0.5-0.6-0.8-1.4-0.8-2.5c0-0.9,0.2-1.7,0.7-2.4s1.2-1.3,2.1-1.7c0.9-0.4,2.1-0.6,3.5-0.6
			c1,0,1.9,0.1,2.8,0.4c0.9,0.2,1.7,0.6,2.4,1.1l-0.8,1.9c-0.7-0.4-1.4-0.8-2.2-1c-0.8-0.2-1.5-0.3-2.3-0.3c-1.3,0-2.3,0.2-3,0.7
			c-0.7,0.5-1,1.1-1,1.9c0,0.6,0.2,1,0.6,1.4s0.8,0.6,1.4,0.8c0.6,0.2,1.3,0.4,2.3,0.6c1.2,0.3,2.2,0.6,3,0.9
			c0.7,0.3,1.4,0.7,1.9,1.4c0.5,0.6,0.8,1.4,0.8,2.5c0,0.9-0.2,1.6-0.7,2.3c-0.5,0.7-1.2,1.3-2.1,1.7s-2.1,0.6-3.5,0.6
			C97.5,287.6,96.3,287.4,95.2,287z"/>
		<path class="st1" d="M120.4,285.4v2h-11.9v-16.3H120v2h-9.2v5h8.2v2h-8.2v5.3H120.4z"/>
		<path class="st1" d="M134.5,283.3h-8.7l-1.8,4.1h-2.4l7.4-16.3h2.3l7.4,16.3h-2.5L134.5,283.3z M133.7,281.4l-3.5-8l-3.5,8H133.7z
			"/>
		<path class="st1" d="M152.1,287.4l-3.5-5c-0.4,0-0.8,0-1,0h-4v5h-2.3v-16.3h6.4c2.1,0,3.8,0.5,5,1.5c1.2,1,1.8,2.4,1.8,4.2
			c0,1.3-0.3,2.3-0.9,3.2c-0.6,0.9-1.5,1.5-2.7,1.9l3.9,5.5H152.1z M150.9,279.5c0.8-0.6,1.2-1.5,1.2-2.7c0-1.2-0.4-2.1-1.2-2.7
			s-1.9-0.9-3.4-0.9h-4v7.4h4C149,280.4,150.1,280.1,150.9,279.5z"/>
		<path class="st1" d="M161.1,286.5c-1.3-0.7-2.3-1.7-3.1-3c-0.7-1.3-1.1-2.7-1.1-4.3s0.4-3,1.1-4.3c0.7-1.3,1.8-2.3,3.1-3
			c1.3-0.7,2.8-1.1,4.4-1.1c1.3,0,2.4,0.2,3.5,0.6c1.1,0.4,2,1.1,2.7,1.9l-1.5,1.5c-1.2-1.3-2.8-1.9-4.6-1.9c-1.2,0-2.3,0.3-3.3,0.8
			c-1,0.5-1.7,1.3-2.3,2.3s-0.8,2-0.8,3.2s0.3,2.3,0.8,3.2s1.3,1.7,2.3,2.3c1,0.5,2.1,0.8,3.3,0.8c1.8,0,3.4-0.7,4.6-2l1.5,1.5
			c-0.7,0.8-1.7,1.5-2.7,1.9c-1.1,0.4-2.2,0.7-3.5,0.7C163.9,287.6,162.4,287.2,161.1,286.5z"/>
		<path class="st1" d="M189.1,271.1v16.3h-2.3v-7.3h-9.4v7.3h-2.3v-16.3h2.3v7h9.4v-7H189.1z"/>
		<path class="st1" d="M205.9,285.4v2H194v-16.3h11.5v2h-9.2v5h8.2v2h-8.2v5.3H205.9z"/>
		<path class="st1" d="M220.6,287.4l-3.5-5c-0.4,0-0.8,0-1,0h-4v5h-2.3v-16.3h6.4c2.1,0,3.8,0.5,5,1.5c1.2,1,1.8,2.4,1.8,4.2
			c0,1.3-0.3,2.3-0.9,3.2c-0.6,0.9-1.5,1.5-2.7,1.9l3.9,5.5H220.6z M219.3,279.5c0.8-0.6,1.2-1.5,1.2-2.7c0-1.2-0.4-2.1-1.2-2.7
			s-1.9-0.9-3.4-0.9h-4v7.4h4C217.4,280.4,218.6,280.1,219.3,279.5z"/>
		<path class="st1" d="M227.8,287c-1.1-0.4-2-0.9-2.7-1.5l0.9-1.8c0.6,0.6,1.4,1,2.4,1.4c1,0.4,2,0.5,3,0.5c1.4,0,2.4-0.2,3-0.7
			c0.7-0.5,1-1.1,1-1.8c0-0.6-0.2-1-0.5-1.4s-0.8-0.6-1.4-0.8c-0.5-0.2-1.3-0.4-2.3-0.6c-1.2-0.3-2.2-0.6-3-0.9
			c-0.8-0.3-1.4-0.8-1.9-1.4c-0.5-0.6-0.8-1.4-0.8-2.5c0-0.9,0.2-1.7,0.7-2.4s1.2-1.3,2.1-1.7c0.9-0.4,2.1-0.6,3.5-0.6
			c1,0,1.9,0.1,2.8,0.4c0.9,0.2,1.7,0.6,2.4,1.1l-0.8,1.9c-0.7-0.4-1.4-0.8-2.2-1c-0.8-0.2-1.5-0.3-2.3-0.3c-1.3,0-2.3,0.2-3,0.7
			c-0.7,0.5-1,1.1-1,1.9c0,0.6,0.2,1,0.6,1.4s0.8,0.6,1.4,0.8c0.6,0.2,1.3,0.4,2.3,0.6c1.2,0.3,2.2,0.6,3,0.9
			c0.7,0.3,1.4,0.7,1.9,1.4c0.5,0.6,0.8,1.4,0.8,2.5c0,0.9-0.2,1.6-0.7,2.3c-0.5,0.7-1.2,1.3-2.1,1.7s-2.1,0.6-3.5,0.6
			C230.2,287.6,229,287.4,227.8,287z"/>
	</g>
</g>
<g>
	<g>
		<linearGradient id="SVGID_7_" gradientUnits="userSpaceOnUse" x1="19" y1="378.0922" x2="349.5258" y2="378.0922">
			<stop  offset="0" style="stop-color:#0085FF"/>
			<stop  offset="1" style="stop-color:#FF003D"/>
		</linearGradient>
		<polygon class="st8" points="349.5,379.4 316,331.4 19,331.4 19,335.5 44.1,379.4 19,423.3 19,424.8 317.8,424.8 		"/>
	</g>
	<g>
		<path class="st1" d="M76.5,373.4l0-11.9l-5.9,9.9h-1.1l-5.9-9.9v11.8h-2.2v-16.3h1.9l6.8,11.5l6.7-11.5h1.9l0,16.3H76.5z"/>
		<path class="st1" d="M95.5,371.4v2H83.7v-16.3h11.5v2H86v5h8.2v2H86v5.3H95.5z"/>
		<path class="st1" d="M99.3,357.1h6.9c1.7,0,3.3,0.3,4.6,1c1.3,0.7,2.4,1.6,3.1,2.9c0.7,1.2,1.1,2.7,1.1,4.3s-0.4,3-1.1,4.3
			c-0.7,1.2-1.8,2.2-3.1,2.9c-1.3,0.7-2.9,1-4.6,1h-6.9V357.1z M106.1,371.4c1.3,0,2.5-0.3,3.5-0.8c1-0.5,1.8-1.2,2.3-2.2
			s0.8-2,0.8-3.2s-0.3-2.3-0.8-3.2s-1.3-1.6-2.3-2.2c-1-0.5-2.2-0.8-3.5-0.8h-4.4v12.3H106.1z"/>
		<path class="st1" d="M118.6,357.1h2.3v16.3h-2.3V357.1z"/>
		<path class="st1" d="M128.7,372.5c-1.3-0.7-2.3-1.7-3.1-3c-0.7-1.3-1.1-2.7-1.1-4.3c0-1.6,0.4-3,1.1-4.3c0.7-1.3,1.8-2.3,3.1-3
			c1.3-0.7,2.8-1.1,4.4-1.1c1.3,0,2.4,0.2,3.5,0.6c1.1,0.4,2,1.1,2.7,1.9l-1.5,1.5c-1.2-1.3-2.8-1.9-4.6-1.9c-1.2,0-2.3,0.3-3.3,0.8
			c-1,0.5-1.7,1.3-2.3,2.3s-0.8,2-0.8,3.2s0.3,2.3,0.8,3.2s1.3,1.7,2.3,2.3c1,0.5,2.1,0.8,3.3,0.8c1.8,0,3.4-0.7,4.6-2l1.5,1.5
			c-0.7,0.8-1.7,1.5-2.7,1.9c-1.1,0.4-2.2,0.7-3.5,0.7C131.5,373.6,130,373.2,128.7,372.5z"/>
		<path class="st1" d="M152.7,369.3H144l-1.8,4.1h-2.4l7.4-16.3h2.3l7.4,16.3h-2.5L152.7,369.3z M151.9,367.4l-3.5-8l-3.5,8H151.9z"
			/>
		<path class="st1" d="M159.4,357.1h2.3v14.3h8.8v2h-11.2V357.1z"/>
		<path class="st1" d="M72.8,386.6c1.2,1,1.8,2.4,1.8,4.2c0,1.8-0.6,3.2-1.8,4.2s-2.9,1.5-5,1.5h-4v4.9h-2.3v-16.3h6.4
			C69.9,385.1,71.5,385.6,72.8,386.6z M71.1,393.5c0.8-0.6,1.2-1.5,1.2-2.7s-0.4-2.1-1.2-2.7c-0.8-0.6-1.9-0.9-3.4-0.9h-4v7.3h4
			C69.2,394.4,70.3,394.1,71.1,393.5z"/>
		<path class="st1" d="M88.9,401.4l-3.5-5c-0.4,0-0.8,0-1,0h-4v5H78v-16.3h6.4c2.1,0,3.8,0.5,5,1.5c1.2,1,1.8,2.4,1.8,4.2
			c0,1.3-0.3,2.3-0.9,3.2c-0.6,0.9-1.5,1.5-2.7,1.9l3.9,5.5H88.9z M87.7,393.5c0.8-0.6,1.2-1.5,1.2-2.7s-0.4-2.1-1.2-2.7
			c-0.8-0.6-1.9-0.9-3.4-0.9h-4v7.4h4C85.8,394.5,86.9,394.1,87.7,393.5z"/>
		<path class="st1" d="M97.9,400.5c-1.3-0.7-2.4-1.7-3.1-3c-0.8-1.3-1.1-2.7-1.1-4.3c0-1.6,0.4-3,1.1-4.3c0.8-1.3,1.8-2.3,3.1-3
			s2.8-1.1,4.5-1.1c1.6,0,3.1,0.4,4.4,1.1c1.3,0.7,2.4,1.7,3.1,3s1.1,2.7,1.1,4.3c0,1.6-0.4,3-1.1,4.3c-0.7,1.3-1.8,2.3-3.1,3
			c-1.3,0.7-2.8,1.1-4.4,1.1C100.7,401.6,99.2,401.2,97.9,400.5z M105.6,398.7c1-0.5,1.7-1.3,2.3-2.3c0.6-1,0.8-2,0.8-3.2
			s-0.3-2.3-0.8-3.2c-0.6-1-1.3-1.7-2.3-2.3s-2-0.8-3.2-0.8s-2.3,0.3-3.3,0.8s-1.7,1.3-2.3,2.3s-0.8,2-0.8,3.2s0.3,2.3,0.8,3.2
			s1.3,1.7,2.3,2.3c1,0.5,2.1,0.8,3.3,0.8S104.6,399.2,105.6,398.7z"/>
		<path class="st1" d="M116.9,387.1v5.7h8.2v2h-8.2v6.6h-2.3v-16.3h11.5v2H116.9z"/>
		<path class="st1" d="M141.3,399.4v2h-11.9v-16.3h11.5v2h-9.2v5h8.2v2h-8.2v5.3H141.3z"/>
		<path class="st1" d="M146.3,401c-1.1-0.4-2-0.9-2.7-1.5l0.9-1.8c0.6,0.6,1.4,1,2.4,1.4c1,0.3,2,0.5,3,0.5c1.4,0,2.4-0.2,3-0.7
			c0.7-0.5,1-1.1,1-1.8c0-0.6-0.2-1-0.5-1.4c-0.4-0.4-0.8-0.6-1.4-0.8c-0.5-0.2-1.3-0.4-2.3-0.6c-1.2-0.3-2.2-0.6-3-0.9
			c-0.8-0.3-1.4-0.8-1.9-1.4c-0.5-0.6-0.8-1.4-0.8-2.5c0-0.9,0.2-1.7,0.7-2.4s1.2-1.3,2.1-1.7c0.9-0.4,2.1-0.6,3.5-0.6
			c1,0,1.9,0.1,2.8,0.4s1.7,0.6,2.4,1.1l-0.8,1.9c-0.7-0.4-1.4-0.8-2.2-1c-0.8-0.2-1.5-0.3-2.3-0.3c-1.3,0-2.3,0.2-3,0.7
			c-0.7,0.5-1,1.1-1,1.9c0,0.6,0.2,1,0.6,1.4c0.4,0.3,0.8,0.6,1.4,0.8c0.6,0.2,1.3,0.4,2.3,0.6c1.2,0.3,2.2,0.6,3,0.9
			c0.7,0.3,1.4,0.7,1.9,1.4c0.5,0.6,0.8,1.4,0.8,2.5c0,0.9-0.2,1.6-0.7,2.3c-0.5,0.7-1.2,1.3-2.1,1.7s-2.1,0.6-3.5,0.6
			C148.6,401.6,147.4,401.4,146.3,401z"/>
		<path class="st1" d="M160.7,401c-1.1-0.4-2-0.9-2.7-1.5l0.9-1.8c0.6,0.6,1.4,1,2.4,1.4c1,0.3,2,0.5,3,0.5c1.4,0,2.4-0.2,3-0.7
			c0.7-0.5,1-1.1,1-1.8c0-0.6-0.2-1-0.5-1.4c-0.4-0.4-0.8-0.6-1.4-0.8c-0.5-0.2-1.3-0.4-2.3-0.6c-1.2-0.3-2.2-0.6-3-0.9
			c-0.8-0.3-1.4-0.8-1.9-1.4c-0.5-0.6-0.8-1.4-0.8-2.5c0-0.9,0.2-1.7,0.7-2.4s1.2-1.3,2.1-1.7c0.9-0.4,2.1-0.6,3.5-0.6
			c1,0,1.9,0.1,2.8,0.4s1.7,0.6,2.4,1.1l-0.8,1.9c-0.7-0.4-1.4-0.8-2.2-1c-0.8-0.2-1.5-0.3-2.3-0.3c-1.3,0-2.3,0.2-3,0.7
			c-0.7,0.5-1,1.1-1,1.9c0,0.6,0.2,1,0.6,1.4c0.4,0.3,0.8,0.6,1.4,0.8c0.6,0.2,1.3,0.4,2.3,0.6c1.2,0.3,2.2,0.6,3,0.9
			c0.7,0.3,1.4,0.7,1.9,1.4c0.5,0.6,0.8,1.4,0.8,2.5c0,0.9-0.2,1.6-0.7,2.3c-0.5,0.7-1.2,1.3-2.1,1.7s-2.1,0.6-3.5,0.6
			C163.1,401.6,161.9,401.4,160.7,401z"/>
		<path class="st1" d="M174,385.1h2.3v16.3H174V385.1z"/>
		<path class="st1" d="M184.2,400.5c-1.3-0.7-2.4-1.7-3.1-3c-0.8-1.3-1.1-2.7-1.1-4.3c0-1.6,0.4-3,1.1-4.3c0.8-1.3,1.8-2.3,3.1-3
			s2.8-1.1,4.5-1.1c1.6,0,3.1,0.4,4.4,1.1c1.3,0.7,2.4,1.7,3.1,3s1.1,2.7,1.1,4.3c0,1.6-0.4,3-1.1,4.3c-0.7,1.3-1.8,2.3-3.1,3
			c-1.3,0.7-2.8,1.1-4.4,1.1C187,401.6,185.5,401.2,184.2,400.5z M191.9,398.7c1-0.5,1.7-1.3,2.3-2.3c0.6-1,0.8-2,0.8-3.2
			s-0.3-2.3-0.8-3.2c-0.6-1-1.3-1.7-2.3-2.3s-2-0.8-3.2-0.8s-2.3,0.3-3.3,0.8s-1.7,1.3-2.3,2.3s-0.8,2-0.8,3.2s0.3,2.3,0.8,3.2
			s1.3,1.7,2.3,2.3c1,0.5,2.1,0.8,3.3,0.8S190.9,399.2,191.9,398.7z"/>
		<path class="st1" d="M214.9,385.1v16.3H213l-9.8-12.2v12.2h-2.3v-16.3h1.9l9.8,12.2v-12.2H214.9z"/>
		<path class="st1" d="M230.2,397.3h-8.7l-1.8,4.1h-2.4l7.4-16.3h2.3l7.4,16.3H232L230.2,397.3z M229.4,395.5l-3.5-8l-3.5,8H229.4z"
			/>
		<path class="st1" d="M236.9,385.1h2.3v14.3h8.8v2h-11.2V385.1z"/>
		<path class="st1" d="M251.8,401c-1.1-0.4-2-0.9-2.7-1.5l0.9-1.8c0.6,0.6,1.4,1,2.4,1.4c1,0.3,2,0.5,3,0.5c1.4,0,2.4-0.2,3-0.7
			c0.7-0.5,1-1.1,1-1.8c0-0.6-0.2-1-0.5-1.4c-0.4-0.4-0.8-0.6-1.4-0.8c-0.5-0.2-1.3-0.4-2.3-0.6c-1.2-0.3-2.2-0.6-3-0.9
			c-0.8-0.3-1.4-0.8-1.9-1.4c-0.5-0.6-0.8-1.4-0.8-2.5c0-0.9,0.2-1.7,0.7-2.4s1.2-1.3,2.1-1.7c0.9-0.4,2.1-0.6,3.5-0.6
			c1,0,1.9,0.1,2.8,0.4s1.7,0.6,2.4,1.1l-0.8,1.9c-0.7-0.4-1.4-0.8-2.2-1c-0.8-0.2-1.5-0.3-2.3-0.3c-1.3,0-2.3,0.2-3,0.7
			c-0.7,0.5-1,1.1-1,1.9c0,0.6,0.2,1,0.6,1.4c0.4,0.3,0.8,0.6,1.4,0.8c0.6,0.2,1.3,0.4,2.3,0.6c1.2,0.3,2.2,0.6,3,0.9
			c0.7,0.3,1.4,0.7,1.9,1.4c0.5,0.6,0.8,1.4,0.8,2.5c0,0.9-0.2,1.6-0.7,2.3c-0.5,0.7-1.2,1.3-2.1,1.7s-2.1,0.6-3.5,0.6
			C254.2,401.6,253,401.4,251.8,401z"/>
	</g>
</g>
<g>
	<linearGradient id="SVGID_8_" gradientUnits="userSpaceOnUse" x1="56.7933" y1="476.6772" x2="383.2434" y2="476.6772">
		<stop  offset="0" style="stop-color:#0085FF"/>
		<stop  offset="1" style="stop-color:#FF003D"/>
	</linearGradient>
	<polygon class="st9" points="357.7,440.8 56.8,440.8 77.8,477.5 57.8,512.6 358.9,512.6 383.2,477.5 	"/>
	<g>
		<path class="st1" d="M98,485.4c-1.3-0.7-2.4-1.7-3.1-3c-0.8-1.3-1.1-2.7-1.1-4.3c0-1.6,0.4-3,1.1-4.3c0.8-1.3,1.8-2.3,3.1-3
			s2.8-1.1,4.5-1.1c1.6,0,3.1,0.4,4.4,1.1c1.3,0.7,2.4,1.7,3.1,3s1.1,2.7,1.1,4.3c0,1.6-0.4,3-1.1,4.3c-0.7,1.3-1.8,2.3-3.1,3
			c-1.3,0.7-2.8,1.1-4.4,1.1C100.8,486.4,99.3,486.1,98,485.4z M105.7,483.5c1-0.5,1.7-1.3,2.3-2.3c0.6-1,0.8-2,0.8-3.2
			s-0.3-2.3-0.8-3.2c-0.6-1-1.3-1.7-2.3-2.3s-2-0.8-3.2-0.8s-2.3,0.3-3.3,0.8s-1.7,1.3-2.3,2.3s-0.8,2-0.8,3.2s0.3,2.3,0.8,3.2
			s1.3,1.7,2.3,2.3c1,0.5,2.1,0.8,3.3,0.8S104.8,484.1,105.7,483.5z"/>
		<path class="st1" d="M117.7,471.9h-5.6v-2h13.5v2H120v14.3h-2.3V471.9z"/>
		<path class="st1" d="M142.2,469.9v16.3h-2.3V479h-9.4v7.3h-2.3v-16.3h2.3v7h9.4v-7H142.2z"/>
		<path class="st1" d="M159,484.2v2h-11.9v-16.3h11.5v2h-9.2v5h8.2v2h-8.2v5.3H159z"/>
		<path class="st1" d="M173.7,486.2l-3.5-5c-0.4,0-0.8,0-1,0h-4v5h-2.3v-16.3h6.4c2.1,0,3.8,0.5,5,1.5c1.2,1,1.8,2.4,1.8,4.2
			c0,1.3-0.3,2.3-0.9,3.2c-0.6,0.9-1.5,1.5-2.7,1.9l3.9,5.5H173.7z M172.5,478.3c0.8-0.6,1.2-1.5,1.2-2.7s-0.4-2.1-1.2-2.7
			c-0.8-0.6-1.9-0.9-3.4-0.9h-4v7.4h4C170.6,479.3,171.7,479,172.5,478.3z"/>
		<path class="st1" d="M188.9,485.4c-1.3-0.7-2.3-1.7-3.1-3c-0.7-1.3-1.1-2.7-1.1-4.3c0-1.6,0.4-3,1.1-4.3c0.7-1.3,1.8-2.3,3.1-3
			c1.3-0.7,2.8-1.1,4.4-1.1c1.3,0,2.4,0.2,3.5,0.6c1.1,0.4,2,1.1,2.7,1.9l-1.5,1.5c-1.2-1.3-2.8-1.9-4.6-1.9c-1.2,0-2.3,0.3-3.3,0.8
			c-1,0.5-1.7,1.3-2.3,2.3s-0.8,2-0.8,3.2s0.3,2.3,0.8,3.2s1.3,1.7,2.3,2.3c1,0.5,2.1,0.8,3.3,0.8c1.8,0,3.4-0.7,4.6-2l1.5,1.5
			c-0.7,0.8-1.7,1.5-2.7,1.9c-1.1,0.4-2.2,0.7-3.5,0.7C191.7,486.4,190.2,486.1,188.9,485.4z"/>
		<path class="st1" d="M205.5,485.4c-1.3-0.7-2.4-1.7-3.1-3c-0.8-1.3-1.1-2.7-1.1-4.3c0-1.6,0.4-3,1.1-4.3c0.8-1.3,1.8-2.3,3.1-3
			s2.8-1.1,4.5-1.1c1.6,0,3.1,0.4,4.4,1.1c1.3,0.7,2.4,1.7,3.1,3s1.1,2.7,1.1,4.3c0,1.6-0.4,3-1.1,4.3c-0.7,1.3-1.8,2.3-3.1,3
			c-1.3,0.7-2.8,1.1-4.4,1.1C208.3,486.4,206.8,486.1,205.5,485.4z M213.2,483.5c1-0.5,1.7-1.3,2.3-2.3c0.6-1,0.8-2,0.8-3.2
			s-0.3-2.3-0.8-3.2c-0.6-1-1.3-1.7-2.3-2.3s-2-0.8-3.2-0.8s-2.3,0.3-3.3,0.8s-1.7,1.3-2.3,2.3s-0.8,2-0.8,3.2s0.3,2.3,0.8,3.2
			s1.3,1.7,2.3,2.3c1,0.5,2.1,0.8,3.3,0.8S212.2,484.1,213.2,483.5z"/>
		<path class="st1" d="M237.3,486.2l0-11.9l-5.9,9.9h-1.1l-5.9-9.9v11.8h-2.2v-16.3h1.9l6.8,11.5l6.7-11.5h1.9l0,16.3H237.3z"/>
		<path class="st1" d="M255.8,471.4c1.2,1,1.8,2.4,1.8,4.2c0,1.8-0.6,3.2-1.8,4.2s-2.9,1.5-5,1.5h-4v4.9h-2.3v-16.3h6.4
			C252.9,469.9,254.6,470.4,255.8,471.4z M254.1,478.3c0.8-0.6,1.2-1.5,1.2-2.7s-0.4-2.1-1.2-2.7c-0.8-0.6-1.9-0.9-3.4-0.9h-4v7.3h4
			C252.2,479.3,253.4,479,254.1,478.3z"/>
		<path class="st1" d="M270.7,482.2H262l-1.8,4.1h-2.4l7.4-16.3h2.3l7.4,16.3h-2.5L270.7,482.2z M269.9,480.3l-3.5-8l-3.5,8H269.9z"
			/>
		<path class="st1" d="M291.4,469.9v16.3h-1.9l-9.8-12.2v12.2h-2.3v-16.3h1.9l9.8,12.2v-12.2H291.4z"/>
		<path class="st1" d="M296.3,469.9h2.3v16.3h-2.3V469.9z"/>
		<path class="st1" d="M315.4,484.2v2h-11.9v-16.3h11.5v2h-9.2v5h8.2v2h-8.2v5.3H315.4z"/>
		<path class="st1" d="M320.4,485.9c-1.1-0.4-2-0.9-2.7-1.5l0.9-1.8c0.6,0.6,1.4,1,2.4,1.4c1,0.3,2,0.5,3,0.5c1.4,0,2.4-0.2,3-0.7
			c0.7-0.5,1-1.1,1-1.8c0-0.6-0.2-1-0.5-1.4c-0.4-0.4-0.8-0.6-1.4-0.8c-0.5-0.2-1.3-0.4-2.3-0.6c-1.2-0.3-2.2-0.6-3-0.9
			c-0.8-0.3-1.4-0.8-1.9-1.4c-0.5-0.6-0.8-1.4-0.8-2.5c0-0.9,0.2-1.7,0.7-2.4s1.2-1.3,2.1-1.7c0.9-0.4,2.1-0.6,3.5-0.6
			c1,0,1.9,0.1,2.8,0.4s1.7,0.6,2.4,1.1l-0.8,1.9c-0.7-0.4-1.4-0.8-2.2-1c-0.8-0.2-1.5-0.3-2.3-0.3c-1.3,0-2.3,0.2-3,0.7
			c-0.7,0.5-1,1.1-1,1.9c0,0.6,0.2,1,0.6,1.4c0.4,0.3,0.8,0.6,1.4,0.8c0.6,0.2,1.3,0.4,2.3,0.6c1.2,0.3,2.2,0.6,3,0.9
			c0.7,0.3,1.4,0.7,1.9,1.4c0.5,0.6,0.8,1.4,0.8,2.5c0,0.9-0.2,1.6-0.7,2.3c-0.5,0.7-1.2,1.3-2.1,1.7s-2.1,0.6-3.5,0.6
			C322.7,486.4,321.5,486.2,320.4,485.9z"/>
	</g>
</g>
<linearGradient id="SVGID_9_" gradientUnits="userSpaceOnUse" x1="940" y1="335.5" x2="1040" y2="335.5">
	<stop  offset="0" style="stop-color:#FF003D"/>
	<stop  offset="1" style="stop-color:#FFC600"/>
</linearGradient>
<polygon class="st10" points="1040,335.5 975,237.9 975,286 940,286 940,385 975,385 975,433.1 "/>
</svg>
