<?xml version="1.0" encoding="utf-8"?>
<!-- Generator: Adobe Illustrator 23.0.6, SVG Export Plug-In . SVG Version: 6.00 Build 0)  -->
<svg version="1.1" id="Capa_1" xmlns="http://www.w3.org/2000/svg" xmlns:xlink="http://www.w3.org/1999/xlink" x="0px" y="0px"
	 viewBox="0 0 1280 720" style="enable-background:new 0 0 1280 720;" xml:space="preserve">
<style type="text/css">
	.st0{fill:#CA0309;}
	.st1{fill:#000001;}
	.st2{fill:#5C5B5F;}
</style>
<g transform="matrix( 1, 0, 0, 1, 0,0) ">
	<g transform="matrix( 2.53857421875, 0, 0, 2.53857421875, 80.9,182) ">
		<g transform="matrix( 1, 0, 0, 1, 0,0) ">
			<g>
				<g id="S_mbolo_1_0_Layer0_0_FILL">
					<path class="st0" d="M77.6,51c-5.4,12.8-6.9,24.2-4.5,34c2,8.1,6.5,14.7,13.4,19.8c5.7,4.2,12.1,6.8,19,7.7
						c6.5,0.8,10.6-0.1,12.5-2.7c0.8-1.1,0.7-2.2-0.3-3.3c-1-0.9-2.7-1.9-5-3l-7.9-3.6c-3.4-1.5-6.5-3.1-9.3-4.7
						c-7.6-4.5-13-9.7-16.2-15.7C75.1,71.6,74.6,62.1,77.6,51 M256.5,27.7v-8.5h-47.8v8.5h19.6v68.2h8.4V27.7H256.5z"/>
					<path class="st1" d="M153,66.5c-1.9-6.2-4.4-9.7-7.4-10.4c-1.3-0.2-2.3,0.3-2.9,1.7c-0.4,1.1-0.7,3-0.8,5.8l-0.1,8.8
						c0,3.4-0.2,6.9-0.6,10.4c-1,8.8-3.7,15.8-7.9,21.1c-5.6,7-14.1,11.3-25.5,12.9c14-0.2,25-3.3,33-9.4
						c6.6-5.1,10.9-11.8,12.8-20.2C155.2,80,155,73.2,153,66.5 M100.6,36.1c-6.5,2.9-11.9,7.2-16.1,12.8c-3.8,5.2-5.1,9.3-3.8,12.2
						c0.6,1.3,1.6,1.7,3,1.3c1.1-0.3,2.8-1.3,5.2-2.8l7.1-5.2c3.3-2.5,6.2-4.4,8.7-5.8c7.7-4.4,14.9-6.5,21.6-6.3
						c8.9,0.4,17.5,4.6,25.6,12.7c-8.5-11.1-17.6-18-27.3-20.8C116.4,31.9,108.5,32.5,100.6,36.1 M255.6,118.8c-1.1,0-2.1,0.4-3,1.2
						c-0.9,0.8-1.6,2-2.1,3.4c-0.5,1.6-0.8,3.4-0.8,5.4c0,2,0.2,3.7,0.8,5c0.5,1.5,1.2,2.6,2.1,3.3c0.8,0.8,2,1.2,3.4,1.2
						c0.6,0,1.3-0.1,2-0.3c0.6-0.1,1.2-0.3,1.8-0.6l-0.4-2.2c-0.4,0.2-0.8,0.4-1.2,0.5c-0.4,0.1-0.9,0.2-1.6,0.2
						c-0.6,0.1-1.2-0.1-1.9-0.6c-0.7-0.4-1.2-1.1-1.5-2.1c-0.4-1-0.6-2.5-0.6-4.4h7.9l0.1-1.8c0-1.4-0.2-2.8-0.5-4.1
						c-0.3-1.2-0.9-2.2-1.6-3.1C257.7,119.3,256.8,118.9,255.6,118.8 M255.3,121.2c0.8,0,1.4,0.4,1.9,1.3c0.5,0.9,0.8,2.3,0.8,4.2
						h-5.4c0.1-1,0.2-1.9,0.4-2.6c0.3-0.9,0.6-1.6,0.9-2.1C254.2,121.5,254.7,121.3,255.3,121.2 M280.3,119.1h-2.8v19.2h2.8V119.1
						 M280.1,115.6c0.3-0.4,0.5-0.9,0.5-1.5c0-0.5-0.1-1-0.5-1.3c-0.3-0.4-0.6-0.6-1.1-0.6c-0.4,0-0.8,0.2-1.1,0.6
						c-0.3,0.4-0.5,0.8-0.5,1.3c0,0.6,0.1,1.1,0.5,1.5c0.3,0.3,0.7,0.5,1.1,0.5C279.4,116.1,279.8,115.9,280.1,115.6 M265.3,119.9
						c-0.8,0.8-1.4,1.9-1.9,3.3c-0.5,1.6-0.8,3.4-0.8,5.5c0.1,3.2,0.6,5.6,1.4,7.2c0.9,1.7,2.1,2.6,3.6,2.6c0.9,0,1.7-0.3,2.2-0.8
						c0.6-0.5,1.1-1.1,1.4-1.8h0.1l0.1,2.4h2.3l-0.1-27.4h-2.7v10.2H271c-0.4-0.8-0.9-1.4-1.4-1.8c-0.5-0.3-1.1-0.5-1.8-0.5
						C267,118.8,266.1,119.2,265.3,119.9 M266.7,122.5c0.4-0.6,1-1,1.9-1c0.6,0,1.2,0.4,1.7,1.1c0.4,0.7,0.7,1.6,0.8,2.6l0.1,0.7
						v6.4l-0.1,0.6c-0.2,0.8-0.5,1.5-0.8,2.1c-0.4,0.5-0.7,0.9-1,0.9c-0.4,0.2-0.7,0.2-1,0.2c-0.7,0-1.2-0.3-1.6-0.9
						c-0.4-0.7-0.7-1.6-0.9-2.7c-0.2-1.2-0.2-2.4-0.2-3.7c-0.1-1.2,0-2.4,0.2-3.5C265.9,124.1,266.2,123.2,266.7,122.5 M298.4,121.3
						c1.1,0,1.8,0.4,2.1,1.1c0.4,0.8,0.7,1.9,0.7,3.2v0.5c-1.4,0-2.6,0.2-3.6,0.8c-1.2,0.5-2.1,1.3-2.7,2.3c-0.7,1.1-1,2.4-1,3.9
						c0,1.7,0.4,3.1,1.1,4.1c0.7,1,1.7,1.4,2.9,1.4c0.8,0,1.5-0.2,2.1-0.6c0.5-0.3,1-0.9,1.4-1.8h0.1l0.1,2.1h2.4l-0.1-12.7
						c0.1-2.1-0.3-3.8-1.1-5c-0.8-1.2-2-1.8-3.7-1.8c-0.8,0-1.6,0.1-2.4,0.4c-0.8,0.3-1.3,0.6-1.6,0.9l0.6,2.1
						c0.4-0.3,0.8-0.6,1.4-0.8C297.4,121.3,297.9,121.3,298.4,121.3 M300,128.4c0.6-0.1,1-0.2,1.3-0.1v4.4l-0.1,0.6
						c-0.2,0.9-0.5,1.6-0.9,2.1c-0.4,0.5-1,0.8-1.6,0.8c-0.5,0-1-0.2-1.4-0.8c-0.4-0.6-0.6-1.4-0.7-2.6c0-1.1,0.2-1.9,0.6-2.4
						c0.3-0.7,0.8-1.1,1.3-1.4C298.8,128.7,299.3,128.5,300,128.4 M290.1,121.4c0.5,0,0.9,0.1,1.2,0.2l0.8,0.3l0.5-2.4
						c-0.3-0.2-0.7-0.4-1-0.5c-0.5-0.1-0.9-0.1-1.4-0.1c-1.5,0.1-2.7,0.5-3.6,1.4c-1.1,0.9-1.9,2.1-2.4,3.6c-0.5,1.3-0.8,3-0.8,5
						c0,3.2,0.6,5.6,1.8,7.2c1.2,1.7,2.7,2.5,4.5,2.5c0.7,0,1.2-0.1,1.6-0.2c0.5-0.1,0.9-0.3,1.1-0.5l-0.4-2.4l-0.9,0.4l-1,0.1
						c-1.3,0-2.3-0.6-3-1.9c-0.7-1.3-1.1-3.1-1.1-5.2c0-1.2,0.1-2.4,0.5-3.6c0.3-1.1,0.7-2,1.3-2.7
						C288.4,121.8,289.2,121.4,290.1,121.4 M310.6,110.9h-2.8v27.4h2.8V110.9 M230.8,119.1h-2.3l0.1,19.2h2.8l0.1-13.8
						c0.2-1.1,0.5-1.9,1-2.4c0.4-0.5,0.9-0.8,1.6-0.8c0.7,0,1.2,0.2,1.5,0.7c0.3,0.4,0.6,0.9,0.7,1.6c0.1,0.7,0.2,1.4,0.2,2.1v12.6
						h2.7V125l0.1-0.8c0.2-0.8,0.5-1.5,1-2.1c0.4-0.5,0.9-0.8,1.5-0.8c0.7,0,1.2,0.3,1.6,0.8c0.3,0.4,0.6,1,0.7,1.8
						c0.1,0.7,0.2,1.5,0.2,2.3v12h2.7v-12.7c-0.1-2.5-0.5-4.2-1.2-5.2c-0.7-1-1.7-1.5-2.9-1.5c-0.4,0-0.9,0.1-1.2,0.2
						c-0.4,0.1-0.8,0.3-1.2,0.6l-0.9,0.9l-0.8,1.2h-0.1c-0.3-1-0.8-1.7-1.4-2.2c-0.6-0.4-1.3-0.6-2.1-0.6c-0.8,0-1.6,0.3-2.3,0.8
						c-0.7,0.6-1.2,1.2-1.4,1.9H231L230.8,119.1 M290.3,48.9c-1.4-2.7-3.4-4.8-5.9-6.5c-2.5-1.6-5.6-2.5-9.4-2.6
						c-4.5,0.1-8.4,1.4-11.6,4c-3.2,2.5-5.7,6-7.5,10.5c-1.7,4.4-2.6,9.5-2.6,15.1c0.1,5.5,1,10.3,2.8,14.5c1.8,4.2,4.4,7.5,7.8,9.7
						c3.4,2.4,7.5,3.6,12.4,3.6c3.6,0,6.8-0.4,9.4-1.2c2.6-0.8,4.7-1.6,6.2-2.4l-1.6-7.1c-1.5,0.8-3.2,1.5-5.2,2
						c-2.1,0.5-4.6,0.8-7.5,0.8c-2.9,0-5.5-0.6-7.9-1.9c-2.3-1.3-4.2-3.4-5.8-6.2c-1.4-2.8-2.2-6.4-2.3-10.9h32.6l0.2-4.7
						c0.1-2.6-0.1-5.3-0.8-8.3C292.8,54.2,291.8,51.5,290.3,48.9 M261.4,63.1c0.2-2.3,0.8-4.8,1.8-7.3c0.9-2.4,2.2-4.5,4.1-6.2
						c1.8-1.6,4.1-2.5,7-2.6c3.2,0.1,5.7,1,7.4,2.8c1.6,1.7,2.8,3.9,3.5,6.4c0.7,2.6,1,5,0.9,7H261.4 M336.3,120.1
						c-0.9,0.8-1.6,2-2,3.4c-0.4,1.4-0.7,3.2-0.8,5.4c0,1.8,0.2,3.5,0.7,5c0.5,1.5,1.2,2.6,2.1,3.3c0.9,0.8,2.1,1.2,3.5,1.2
						c0.5,0,1.2-0.1,2-0.3c0.6-0.1,1.1-0.3,1.7-0.6l-0.4-2.2c-0.3,0.2-0.7,0.4-1.2,0.5c-0.4,0.1-1,0.2-1.6,0.2
						c-0.6,0.1-1.2-0.1-1.9-0.6c-0.6-0.3-1.1-1-1.6-2.1c-0.3-0.9-0.5-2.3-0.6-4.4h7.9l0.1-1.8c0-1.4-0.2-2.8-0.5-4.1
						c-0.4-1.2-0.9-2.3-1.6-3.1c-0.7-0.7-1.6-1.1-2.8-1.2C338.1,118.8,337.1,119.2,336.3,120.1 M337.5,122c0.4-0.5,0.9-0.8,1.5-0.8
						c0.7,0,1.3,0.4,1.8,1.3c0.5,1,0.7,2.4,0.8,4.2h-5.3c0-0.8,0.1-1.6,0.4-2.6C336.7,123.3,337,122.6,337.5,122 M330.5,110.9h-2.7
						v10.2h0c-0.3-0.8-0.8-1.3-1.4-1.8c-0.6-0.3-1.1-0.5-1.8-0.5c-0.9,0-1.7,0.3-2.5,1c-0.8,0.7-1.4,1.8-1.9,3.3
						c-0.5,1.4-0.7,3.3-0.7,5.5c0,3.2,0.5,5.6,1.4,7.2c0.9,1.7,2.1,2.6,3.6,2.6c0.9,0,1.7-0.3,2.3-0.8c0.6-0.5,1-1.1,1.3-1.8h0.1
						l0.2,2.4h2.4L330.5,110.9 M325.2,121.4c0.7,0.1,1.3,0.4,1.7,1.1c0.5,0.7,0.8,1.6,0.9,2.6v7.1l-0.1,0.6
						c-0.1,0.9-0.4,1.6-0.8,2.1c-0.2,0.4-0.5,0.8-0.9,0.9c-0.4,0.2-0.7,0.2-0.9,0.2c-0.7,0-1.2-0.3-1.7-0.9
						c-0.5-0.7-0.8-1.6-0.9-2.7c-0.2-1-0.4-2.3-0.4-3.7c0-1.2,0.1-2.3,0.3-3.5c0.2-1.2,0.5-2.1,0.9-2.7
						C323.8,121.8,324.4,121.4,325.2,121.4 M362.2,119.1h-2.8v19.2h2.8V119.1 M362,115.6c0.2-0.3,0.4-0.8,0.4-1.5
						c-0.1-0.6-0.2-1.1-0.4-1.3c-0.3-0.4-0.7-0.6-1.2-0.6c-0.5,0-0.8,0.2-1.1,0.6c-0.2,0.2-0.4,0.7-0.5,1.3c0.1,0.7,0.3,1.2,0.5,1.5
						c0.3,0.3,0.7,0.5,1,0.5C361.2,116.1,361.6,115.9,362,115.6 M348.5,119.1h-2.9l4.5,19.2h2.4l4.5-19.2h-2.7l-2.8,15.4h-0.1
						L348.5,119.1 M378.4,120.1c-0.8,0.7-1.5,1.9-2,3.4c-0.5,1.6-0.7,3.4-0.7,5.4c0,2,0.2,3.7,0.7,5c0.4,1.4,1.1,2.5,2.1,3.3
						c0.8,0.8,2,1.2,3.4,1.2c0.6,0,1.3-0.1,2.1-0.3c0.6-0.1,1.2-0.3,1.8-0.6l-0.5-2.2c-0.3,0.2-0.8,0.4-1.2,0.5
						c-0.4,0.1-1,0.2-1.6,0.2c-0.6,0.1-1.2-0.1-1.9-0.6c-0.6-0.3-1.1-1-1.5-2.1c-0.4-1-0.6-2.4-0.6-4.4h7.9l0.1-1.8
						c0-1.4-0.2-2.8-0.5-4.1c-0.3-1.2-0.8-2.2-1.6-3.1c-0.7-0.7-1.6-1.1-2.8-1.2C380.4,118.8,379.3,119.2,378.4,120.1 M379.7,122
						c0.4-0.5,0.9-0.8,1.5-0.8c0.7,0,1.3,0.4,1.8,1.3c0.5,1,0.8,2.4,0.8,4.2h-5.3c0.1-1,0.2-1.9,0.4-2.6
						C379,123.2,379.3,122.5,379.7,122 M373.3,119c-0.4-0.1-0.8-0.1-1.3-0.1c-1.5,0.1-2.7,0.5-3.7,1.4c-1,0.9-1.8,2.1-2.3,3.6
						c-0.5,1.5-0.7,3.1-0.8,5c0.1,3.2,0.6,5.6,1.7,7.2c1.2,1.7,2.7,2.5,4.6,2.5c0.6,0,1.1-0.1,1.6-0.2c0.5-0.1,0.9-0.3,1.2-0.5
						l-0.4-2.4l-0.9,0.4l-1,0.1c-1.3,0-2.3-0.6-3-1.9c-0.7-1.2-1-3-1-5.2c0-1.3,0.1-2.5,0.3-3.6c0.3-1,0.8-1.9,1.4-2.7
						c0.6-0.7,1.3-1,2.2-1c0.5,0,0.9,0.1,1.2,0.2l0.8,0.3l0.5-2.4C374.1,119.2,373.8,119.1,373.3,119 M393.2,118.8
						c-0.9,0-1.7,0.2-2.4,0.6c-0.8,0.6-1.3,1.2-1.6,1.9c-0.4,0.7-0.6,1.6-0.6,2.8c0,1.1,0.3,2.1,0.9,2.9c0.6,0.9,1.5,1.8,2.6,2.5
						c0.9,0.7,1.4,1.3,1.7,1.9c0.3,0.6,0.5,1.2,0.5,1.9c0,0.9-0.3,1.6-0.7,2.1c-0.5,0.5-1.1,0.7-1.9,0.7c-0.6,0-1.1-0.1-1.6-0.4
						c-0.5-0.2-0.9-0.4-1.2-0.6l-0.6,2.3c0.4,0.4,0.9,0.6,1.5,0.8c0.6,0.2,1.2,0.3,1.9,0.3c0.9,0,1.8-0.2,2.5-0.6
						c0.8-0.4,1.4-1.1,1.9-2c0.4-0.8,0.6-1.8,0.7-3.1c-0.1-1.4-0.4-2.5-1-3.4c-0.7-1-1.5-1.8-2.5-2.4c-0.9-0.7-1.5-1.2-1.7-1.6
						c-0.3-0.5-0.4-1.1-0.4-1.7c0-0.7,0.2-1.2,0.5-1.7c0.4-0.5,0.9-0.7,1.6-0.7c0.5,0,0.9,0.1,1.2,0.2c0.4,0.1,0.7,0.3,1,0.7
						l0.7-2.3c-0.3-0.3-0.8-0.5-1.2-0.7C394.5,118.9,393.9,118.8,393.2,118.8 M351.1,15.1h-8.5v80.8h8.5V15.1 M330.1,43.1
						c-1.2-0.9-2.8-1.7-4.8-2.3c-1.9-0.6-4.1-0.9-6.5-1c-3.3,0.1-6.2,0.8-8.5,2.2c-2.4,1.5-4.3,3.4-5.5,5.8c-1.3,2.5-1.9,5.2-2,8.1
						c0,3.4,1,6.4,3,9c2,2.5,5.1,4.7,9.3,6.6c3.1,1.4,5.3,2.8,6.6,4.2c1.3,1.5,1.9,3.5,1.9,5.8c0,2.4-0.7,4.4-2.2,5.9
						c-1.5,1.5-3.7,2.3-6.8,2.3c-2,0-4.1-0.4-6.2-1.2c-2-0.8-3.6-1.7-5-2.7l-2,7.4c1.6,1.2,3.5,2.1,5.8,2.9c2.2,0.6,4.6,1,7.2,1
						c5.5-0.1,9.7-1.7,12.7-4.7c3-2.9,4.5-6.9,4.5-11.9c0-4.1-1-7.4-3.1-10c-2-2.6-5-4.8-9-6.5c-3-1.4-5.2-2.8-6.6-4.2
						c-1.4-1.3-2.1-3-2.1-5.3c0-2,0.7-3.8,2-5.3c1.3-1.4,3.2-2.1,5.7-2.1c2.1,0,4,0.3,5.7,1c1.6,0.7,2.9,1.4,3.8,2.1L330.1,43.1
						 M372.5,48.2c2.3-0.7,4.4-1,6.5-1c3.2,0,5.5,0.7,6.9,2.1c1.5,1.4,2.5,3.1,3,5.2c0.4,2,0.6,3.8,0.6,5.2v1.2
						c-9.1-0.1-16,1.6-20.7,5.2c-4.7,3.5-7.1,8.5-7.1,15.2c0,2.7,0.5,5.2,1.6,7.6c1,2.3,2.6,4.3,4.7,5.9c2.1,1.5,4.7,2.3,7.9,2.3
						c3.3-0.1,6.1-0.9,8.6-2.5c2.4-1.6,4.3-3.5,5.5-5.7h0.3l0.7,7h7.5l-0.5-6.2l-0.1-27.5c0-3.8-0.5-7.4-1.4-10.8
						c-0.9-3.3-2.7-6-5.3-8.3c-2.5-2.1-6.2-3.2-10.9-3.3c-3,0.1-5.8,0.5-8.5,1.3c-2.8,1-5.1,2.1-6.8,3.5l1.8,6.7
						C368.4,49.9,370.3,48.9,372.5,48.2 M373.1,72.2c2-1.8,4.5-3,7.5-3.7c3.1-0.6,6.1-0.8,9.1-0.8v9.6c0,0.7,0,1.2-0.1,1.5
						c-0.1,0.7-0.2,1.3-0.3,1.7c-0.6,2.4-1.9,4.5-3.9,6.3c-2,1.8-4.5,2.8-7.5,2.8c-2.2,0-4.1-0.8-5.6-2.3c-1.5-1.6-2.2-4-2.3-7.2
						C370.2,76.7,371.2,74,373.1,72.2z"/>
					<path class="st2" d="M114.1-2.7C104.4-4.2,94.5-3.7,84.6-1c-9.5,2.6-18.2,6.9-26.3,12.9C41.2,24.6,31.6,42.4,29.8,65.3
						c-1.8,22.3,4.2,41.8,17.9,58.8c13.3,16.3,31.3,26.1,53.9,29.6c17,2.5,32.8,0.9,47.3-4.9l0.6-1.3c-11.5,4.2-23.1,6.2-34.8,6.1
						c-17.8,0-32.9-5.1-45.5-15.3c14.9,7.1,29.9,10.3,45.1,9.7c15.2-0.4,28.8-4.8,40.6-13l2.1-1.5c10.5-8.8,18.5-19.3,23.8-31.4
						c5.3-11.9,7.8-24.8,7.5-38.7c-1.5,16.3-7.2,30.5-17.2,42.9l-0.6,0.8c-1.8,2.2-3.9,4.5-6.2,6.8l-1,1
						c-15.5,14.8-33.1,21.1-52.8,19c-14-2-26.1-7.5-36.2-16.6C63.8,107.7,57.4,96.2,55,82.7c-2.1-13-0.6-25.1,4.5-36.4
						c5.5-12,14.2-20.7,26-26.3c6.6-3.3,16-5.3,28.2-5.8c12.1-0.5,23.6,2.4,34.5,8.9c9.2,5.4,14.7,9.5,16.4,12.2
						c-3.2-7.4-7.9-14-14.1-20C140.6,5.9,128.5-0.1,114.1-2.7z"/>
				</g>
			</g>
		</g>
	</g>
</g>
</svg>
