<?xml version="1.0" encoding="utf-8"?>
<!-- Generator: Adobe Illustrator 23.0.6, SVG Export Plug-In . SVG Version: 6.00 Build 0)  -->
<svg version="1.1" id="Capa_1" xmlns="http://www.w3.org/2000/svg" xmlns:xlink="http://www.w3.org/1999/xlink" x="0px" y="0px"
	 viewBox="0 0 1440 663" style="enable-background:new 0 0 1440 663;" xml:space="preserve">
<style type="text/css">
	.st0{fill:#FF003D;}
	.st1{fill:#FFFFFF;}
	.st2{fill:url(#SVGID_1_);}
	.st3{fill:url(#SVGID_2_);}
	.st4{fill:url(#SVGID_3_);}
	.st5{fill:url(#SVGID_4_);}
	.st6{fill:url(#SVGID_5_);}
	.st7{fill:url(#SVGID_6_);}
	.st8{fill:url(#SVGID_7_);}
	.st9{fill:url(#SVGID_8_);}
</style>
<circle class="st0" cx="664.8" cy="331" r="300"/>
<g>
	<path class="st1" d="M618.2,102.3h7.7c1.8,0,3.4,0.3,4.8,1c1.4,0.7,2.5,1.6,3.2,2.8c0.8,1.2,1.1,2.7,1.1,4.3s-0.4,3.1-1.1,4.3
		c-0.8,1.2-1.8,2.2-3.2,2.8c-1.4,0.7-3,1-4.8,1h-7.7V102.3z M625.8,114.9c1.4,0,2.5-0.4,3.4-1.2c0.8-0.8,1.3-1.9,1.3-3.3
		c0-1.4-0.4-2.5-1.3-3.3c-0.8-0.8-2-1.2-3.4-1.2h-2.9v9H625.8z"/>
	<path class="st1" d="M637.5,102.3h4.6v16.3h-4.6V102.3z"/>
	<path class="st1" d="M647.3,118.5c-1.2-0.3-2.3-0.8-3-1.3l1.5-3.4c0.7,0.5,1.6,0.9,2.5,1.2c1,0.3,1.9,0.4,2.8,0.4
		c1.8,0,2.7-0.4,2.7-1.3c0-0.5-0.3-0.8-0.8-1c-0.5-0.2-1.3-0.5-2.4-0.7c-1.2-0.3-2.3-0.5-3.1-0.9c-0.8-0.3-1.5-0.8-2.1-1.5
		c-0.6-0.7-0.9-1.6-0.9-2.7c0-1,0.3-1.9,0.8-2.7c0.5-0.8,1.4-1.4,2.4-1.9c1.1-0.5,2.4-0.7,4-0.7c1.1,0,2.1,0.1,3.2,0.4
		c1,0.2,2,0.6,2.8,1.1l-1.4,3.4c-1.6-0.8-3.1-1.3-4.5-1.3c-0.9,0-1.6,0.1-2,0.4c-0.4,0.3-0.6,0.6-0.6,1.1c0,0.4,0.2,0.8,0.7,1
		c0.5,0.2,1.3,0.4,2.4,0.7c1.2,0.3,2.3,0.5,3.1,0.9c0.8,0.3,1.5,0.8,2.1,1.4c0.6,0.7,0.9,1.6,0.9,2.7c0,1-0.3,1.9-0.8,2.7
		c-0.5,0.8-1.4,1.4-2.5,1.9c-1.1,0.5-2.4,0.7-4,0.7C649.9,119,648.6,118.8,647.3,118.5z"/>
	<path class="st1" d="M673.7,115.1v3.6h-13.1v-16.3h12.8v3.6h-8.2v2.8h7.3v3.5h-7.3v3H673.7z"/>
	<path class="st1" d="M691.8,102.3v16.3H688l-7.2-8.7v8.7h-4.5v-16.3h3.8l7.2,8.7v-8.7H691.8z M684.7,100.9
		c-0.3-0.2-0.7-0.4-1.1-0.7c-0.3-0.2-0.5-0.3-0.7-0.4c-0.1-0.1-0.3-0.1-0.5-0.1c-0.3,0-0.6,0.1-0.7,0.3c-0.2,0.2-0.3,0.5-0.3,0.9
		h-2.2c0-1.1,0.3-2,0.8-2.7c0.5-0.7,1.2-1,2.1-1c0.4,0,0.8,0.1,1.1,0.2c0.3,0.2,0.7,0.4,1.1,0.7c0.3,0.2,0.5,0.3,0.7,0.4
		c0.1,0.1,0.3,0.1,0.5,0.1c0.3,0,0.6-0.1,0.7-0.3c0.2-0.2,0.3-0.5,0.3-0.9h2.2c0,1.1-0.3,2-0.8,2.7c-0.5,0.7-1.2,1-2.1,1
		C685.4,101.1,685,101,684.7,100.9z"/>
	<path class="st1" d="M698.6,117.9c-1.4-0.7-2.5-1.7-3.2-3c-0.8-1.3-1.2-2.7-1.2-4.4s0.4-3.1,1.2-4.4c0.8-1.3,1.9-2.3,3.2-3
		c1.4-0.7,2.9-1.1,4.7-1.1s3.3,0.4,4.7,1.1c1.4,0.7,2.5,1.7,3.2,3c0.8,1.3,1.2,2.7,1.2,4.4s-0.4,3.1-1.2,4.4s-1.9,2.3-3.2,3
		c-1.4,0.7-2.9,1.1-4.7,1.1S700,118.6,698.6,117.9z M705.5,114.5c0.7-0.4,1.2-0.9,1.6-1.6s0.6-1.5,0.6-2.4c0-0.9-0.2-1.7-0.6-2.4
		c-0.4-0.7-0.9-1.3-1.6-1.6c-0.7-0.4-1.4-0.6-2.2-0.6c-0.8,0-1.6,0.2-2.2,0.6c-0.7,0.4-1.2,0.9-1.6,1.6c-0.4,0.7-0.6,1.5-0.6,2.4
		c0,0.9,0.2,1.7,0.6,2.4c0.4,0.7,0.9,1.3,1.6,1.6c0.7,0.4,1.4,0.6,2.2,0.6C704.1,115.1,704.8,114.9,705.5,114.5z"/>
	<path class="st1" d="M581.2,161.3h7.7c1.8,0,3.4,0.3,4.8,1c1.4,0.7,2.5,1.6,3.2,2.8c0.8,1.2,1.1,2.7,1.1,4.3s-0.4,3.1-1.1,4.3
		c-0.8,1.2-1.8,2.2-3.2,2.8c-1.4,0.7-3,1-4.8,1h-7.7V161.3z M588.7,173.9c1.4,0,2.5-0.4,3.4-1.2c0.8-0.8,1.3-1.9,1.3-3.3
		c0-1.4-0.4-2.5-1.3-3.3c-0.8-0.8-2-1.2-3.4-1.2h-2.9v9H588.7z"/>
	<path class="st1" d="M613.6,174.1v3.6h-13.1v-16.3h12.8v3.6H605v2.8h7.3v3.5H605v3H613.6z"/>
	<path class="st1" d="M618,177.5c-1.2-0.3-2.3-0.8-3-1.3l1.5-3.4c0.7,0.5,1.6,0.9,2.5,1.2c1,0.3,1.9,0.4,2.8,0.4
		c1.8,0,2.7-0.4,2.7-1.3c0-0.5-0.3-0.8-0.8-1c-0.5-0.2-1.3-0.5-2.4-0.7c-1.2-0.3-2.3-0.5-3.1-0.9c-0.8-0.3-1.5-0.8-2.1-1.5
		c-0.6-0.7-0.9-1.6-0.9-2.7c0-1,0.3-1.9,0.8-2.7c0.5-0.8,1.4-1.4,2.4-1.9c1.1-0.5,2.4-0.7,4-0.7c1.1,0,2.1,0.1,3.2,0.4
		c1,0.2,2,0.6,2.8,1.1l-1.4,3.4c-1.6-0.8-3.1-1.3-4.5-1.3c-0.9,0-1.6,0.1-2,0.4c-0.4,0.3-0.6,0.6-0.6,1.1c0,0.4,0.2,0.8,0.7,1
		c0.5,0.2,1.3,0.4,2.4,0.7c1.2,0.3,2.3,0.5,3.1,0.9c0.8,0.3,1.5,0.8,2.1,1.4c0.6,0.7,0.9,1.6,0.9,2.7c0,1-0.3,1.9-0.8,2.7
		c-0.5,0.8-1.4,1.4-2.5,1.9c-1.1,0.5-2.4,0.7-4,0.7C620.6,178,619.3,177.8,618,177.5z"/>
	<path class="st1" d="M642.2,174.5h-6.9l-1.3,3.2h-4.7l7.2-16.3h4.6l7.2,16.3h-4.8L642.2,174.5z M640.8,171l-2.1-5.2l-2.1,5.2H640.8
		z"/>
	<path class="st1" d="M656.7,173.3h-2.5v4.3h-4.6v-16.3h7.5c1.5,0,2.8,0.2,3.9,0.7c1.1,0.5,1.9,1.2,2.5,2.1c0.6,0.9,0.9,2,0.9,3.2
		c0,1.2-0.3,2.2-0.8,3.1c-0.6,0.9-1.3,1.6-2.4,2.1l3.5,5.1h-4.9L656.7,173.3z M658.9,165.6c-0.5-0.4-1.2-0.6-2.1-0.6h-2.6v4.8h2.6
		c0.9,0,1.7-0.2,2.1-0.6c0.5-0.4,0.7-1,0.7-1.8C659.7,166.6,659.4,166,658.9,165.6z"/>
	<path class="st1" d="M674,173.3h-2.5v4.3h-4.6v-16.3h7.5c1.5,0,2.8,0.2,3.9,0.7c1.1,0.5,1.9,1.2,2.5,2.1c0.6,0.9,0.9,2,0.9,3.2
		c0,1.2-0.3,2.2-0.8,3.1c-0.6,0.9-1.3,1.6-2.4,2.1l3.5,5.1H677L674,173.3z M676.2,165.6c-0.5-0.4-1.2-0.6-2.1-0.6h-2.6v4.8h2.6
		c0.9,0,1.7-0.2,2.1-0.6c0.5-0.4,0.7-1,0.7-1.8C676.9,166.6,676.7,166,676.2,165.6z"/>
	<path class="st1" d="M687.7,176.9c-1.4-0.7-2.5-1.7-3.2-3c-0.8-1.3-1.2-2.7-1.2-4.4s0.4-3.1,1.2-4.4c0.8-1.3,1.9-2.3,3.2-3
		c1.4-0.7,2.9-1.1,4.7-1.1s3.3,0.4,4.7,1.1c1.4,0.7,2.5,1.7,3.2,3c0.8,1.3,1.2,2.7,1.2,4.4s-0.4,3.1-1.2,4.4c-0.8,1.3-1.9,2.3-3.2,3
		c-1.4,0.7-2.9,1.1-4.7,1.1S689.1,177.6,687.7,176.9z M694.6,173.5c0.7-0.4,1.2-0.9,1.6-1.6s0.6-1.5,0.6-2.4c0-0.9-0.2-1.7-0.6-2.4
		c-0.4-0.7-0.9-1.3-1.6-1.6s-1.4-0.6-2.2-0.6c-0.8,0-1.6,0.2-2.2,0.6c-0.7,0.4-1.2,0.9-1.6,1.6c-0.4,0.7-0.6,1.5-0.6,2.4
		c0,0.9,0.2,1.7,0.6,2.4c0.4,0.7,0.9,1.3,1.6,1.6c0.7,0.4,1.4,0.6,2.2,0.6C693.2,174.1,693.9,173.9,694.6,173.5z"/>
	<path class="st1" d="M703.9,161.3h4.6V174h7.8v3.7h-12.4V161.3z"/>
	<path class="st1" d="M718.1,161.3h4.6V174h7.8v3.7h-12.4V161.3z"/>
	<path class="st1" d="M735.7,176.9c-1.4-0.7-2.5-1.7-3.2-3c-0.8-1.3-1.2-2.7-1.2-4.4s0.4-3.1,1.2-4.4c0.8-1.3,1.9-2.3,3.2-3
		c1.4-0.7,2.9-1.1,4.7-1.1s3.3,0.4,4.7,1.1c1.4,0.7,2.5,1.7,3.2,3c0.8,1.3,1.2,2.7,1.2,4.4s-0.4,3.1-1.2,4.4s-1.9,2.3-3.2,3
		c-1.4,0.7-2.9,1.1-4.7,1.1S737.1,177.6,735.7,176.9z M742.6,173.5c0.7-0.4,1.2-0.9,1.6-1.6s0.6-1.5,0.6-2.4c0-0.9-0.2-1.7-0.6-2.4
		c-0.4-0.7-0.9-1.3-1.6-1.6c-0.7-0.4-1.4-0.6-2.2-0.6c-0.8,0-1.6,0.2-2.2,0.6s-1.2,0.9-1.6,1.6c-0.4,0.7-0.6,1.5-0.6,2.4
		c0,0.9,0.2,1.7,0.6,2.4c0.4,0.7,0.9,1.3,1.6,1.6c0.7,0.4,1.4,0.6,2.2,0.6C741.2,174.1,741.9,173.9,742.6,173.5z"/>
	<path class="st1" d="M578.8,221c1.1,0.5,1.9,1.2,2.5,2.1c0.6,0.9,0.9,2,0.9,3.2c0,1.2-0.3,2.3-0.9,3.2c-0.6,0.9-1.4,1.6-2.5,2.1
		c-1.1,0.5-2.4,0.7-3.9,0.7h-2.8v4.3h-4.6v-16.3h7.5C576.4,220.3,577.7,220.5,578.8,221z M576.8,228.1c0.5-0.4,0.7-1,0.7-1.8
		c0-0.8-0.2-1.4-0.7-1.8c-0.5-0.4-1.2-0.6-2.1-0.6h-2.6v4.8h2.6C575.6,228.7,576.3,228.5,576.8,228.1z"/>
	<path class="st1" d="M584.4,220.3h4.6V233h7.8v3.7h-12.4V220.3z"/>
	<path class="st1" d="M609.8,233.5h-6.9l-1.3,3.2h-4.7l7.2-16.3h4.6l7.2,16.3h-4.8L609.8,233.5z M608.4,230l-2.1-5.2l-2.1,5.2H608.4
		z"/>
	<path class="st1" d="M632.7,220.3v16.3h-3.8l-7.2-8.7v8.7h-4.5v-16.3h3.8l7.2,8.7v-8.7H632.7z"/>
	<path class="st1" d="M636,220.3h4.6v16.3H636V220.3z"/>
	<path class="st1" d="M648.5,223.9v3.6h7.2v3.6h-7.2v5.6h-4.6v-16.3h12.8v3.6H648.5z"/>
	<path class="st1" d="M658.9,220.3h4.6v16.3h-4.6V220.3z"/>
	<path class="st1" d="M670.4,235.9c-1.4-0.7-2.4-1.7-3.2-3c-0.8-1.3-1.2-2.8-1.2-4.4c0-1.6,0.4-3.1,1.2-4.4c0.8-1.3,1.8-2.3,3.2-3
		s2.9-1.1,4.6-1.1c1.5,0,2.8,0.3,4,0.8c1.2,0.5,2.2,1.3,3,2.3l-2.9,2.7c-1.1-1.3-2.3-1.9-3.9-1.9c-0.9,0-1.7,0.2-2.4,0.6
		c-0.7,0.4-1.2,0.9-1.6,1.6c-0.4,0.7-0.6,1.5-0.6,2.4c0,0.9,0.2,1.7,0.6,2.4s0.9,1.3,1.6,1.6c0.7,0.4,1.5,0.6,2.4,0.6
		c1.5,0,2.8-0.6,3.9-1.9l2.9,2.7c-0.8,1-1.8,1.8-3,2.3s-2.5,0.8-4,0.8C673.3,237,671.7,236.6,670.4,235.9z"/>
	<path class="st1" d="M694.7,233.5h-6.9l-1.3,3.2h-4.7l7.2-16.3h4.6l7.2,16.3H696L694.7,233.5z M693.4,230l-2.1-5.2l-2.1,5.2H693.4z
		"/>
	<path class="st1" d="M705.4,235.9c-1.4-0.7-2.4-1.7-3.2-3c-0.8-1.3-1.2-2.8-1.2-4.4c0-1.6,0.4-3.1,1.2-4.4c0.8-1.3,1.8-2.3,3.2-3
		c1.4-0.7,2.9-1.1,4.6-1.1c1.5,0,2.8,0.3,4,0.8c1.2,0.5,2.2,1.3,3,2.3l-2.9,2.7c-1.1-1.3-2.3-1.9-3.9-1.9c-0.9,0-1.7,0.2-2.4,0.6
		s-1.2,0.9-1.6,1.6c-0.4,0.7-0.6,1.5-0.6,2.4c0,0.9,0.2,1.7,0.6,2.4c0.4,0.7,0.9,1.3,1.6,1.6c0.7,0.4,1.5,0.6,2.4,0.6
		c1.5,0,2.8-0.6,3.9-1.9l2.9,2.7c-0.8,1-1.8,1.8-3,2.3c-1.2,0.5-2.5,0.8-4,0.8C708.3,237,706.8,236.6,705.4,235.9z"/>
	<path class="st1" d="M719.1,220.3h4.6v16.3h-4.6V220.3z"/>
	<path class="st1" d="M730.6,235.9c-1.4-0.7-2.5-1.7-3.2-3c-0.8-1.3-1.2-2.7-1.2-4.4s0.4-3.1,1.2-4.4c0.8-1.3,1.9-2.3,3.2-3
		c1.4-0.7,2.9-1.1,4.7-1.1s3.3,0.4,4.7,1.1c1.4,0.7,2.5,1.7,3.2,3c0.8,1.3,1.2,2.7,1.2,4.4s-0.4,3.1-1.2,4.4s-1.9,2.3-3.2,3
		c-1.4,0.7-2.9,1.1-4.7,1.1S732,236.6,730.6,235.9z M737.5,232.5c0.7-0.4,1.2-0.9,1.6-1.6s0.6-1.5,0.6-2.4c0-0.9-0.2-1.7-0.6-2.4
		c-0.4-0.7-0.9-1.3-1.6-1.6c-0.7-0.4-1.4-0.6-2.2-0.6c-0.8,0-1.6,0.2-2.2,0.6s-1.2,0.9-1.6,1.6c-0.4,0.7-0.6,1.5-0.6,2.4
		c0,0.9,0.2,1.7,0.6,2.4c0.4,0.7,0.9,1.3,1.6,1.6c0.7,0.4,1.4,0.6,2.2,0.6C736.1,233.1,736.8,232.9,737.5,232.5z M736.1,215.4h4.4
		l-4.4,3.5H733L736.1,215.4z"/>
	<path class="st1" d="M762.3,220.3v16.3h-3.8l-7.2-8.7v8.7h-4.5v-16.3h3.8l7.2,8.7v-8.7H762.3z"/>
	<path class="st1" d="M485.4,292.5h-6.9l-1.3,3.2h-4.7l7.2-16.3h4.6l7.2,16.3h-4.8L485.4,292.5z M484.1,289l-2.1-5.2l-2.1,5.2H484.1
		z"/>
	<path class="st1" d="M494.4,294c-1.3-1.3-2-3.2-2-5.6v-9.1h4.6v8.9c0,2.6,1,3.9,3.1,3.9c2.1,0,3.1-1.3,3.1-3.9v-8.9h4.6v9.1
		c0,2.4-0.7,4.3-2,5.6c-1.3,1.3-3.2,2-5.7,2S495.7,295.3,494.4,294z"/>
	<path class="st1" d="M514.1,283h-5v-3.7h14.6v3.7h-5v12.7h-4.6V283z"/>
	<path class="st1" d="M528.7,294.9c-1.4-0.7-2.5-1.7-3.2-3c-0.8-1.3-1.2-2.7-1.2-4.4s0.4-3.1,1.2-4.4c0.8-1.3,1.9-2.3,3.2-3
		c1.4-0.7,2.9-1.1,4.7-1.1s3.3,0.4,4.7,1.1c1.4,0.7,2.5,1.7,3.2,3c0.8,1.3,1.2,2.7,1.2,4.4s-0.4,3.1-1.2,4.4c-0.8,1.3-1.9,2.3-3.2,3
		c-1.4,0.7-2.9,1.1-4.7,1.1S530.1,295.6,528.7,294.9z M535.6,291.5c0.7-0.4,1.2-0.9,1.6-1.6s0.6-1.5,0.6-2.4c0-0.9-0.2-1.7-0.6-2.4
		c-0.4-0.7-0.9-1.3-1.6-1.6s-1.4-0.6-2.2-0.6c-0.8,0-1.6,0.2-2.2,0.6c-0.7,0.4-1.2,0.9-1.6,1.6c-0.4,0.7-0.6,1.5-0.6,2.4
		c0,0.9,0.2,1.7,0.6,2.4c0.4,0.7,0.9,1.3,1.6,1.6c0.7,0.4,1.4,0.6,2.2,0.6C534.2,292.1,535,291.9,535.6,291.5z"/>
	<path class="st1" d="M552.1,291.3h-2.5v4.3h-4.6v-16.3h7.5c1.5,0,2.8,0.2,3.9,0.7c1.1,0.5,1.9,1.2,2.5,2.1c0.6,0.9,0.9,2,0.9,3.2
		c0,1.2-0.3,2.2-0.8,3.1c-0.6,0.9-1.3,1.6-2.4,2.1l3.5,5.1H555L552.1,291.3z M554.2,283.6c-0.5-0.4-1.2-0.6-2.1-0.6h-2.6v4.8h2.6
		c0.9,0,1.7-0.2,2.1-0.6c0.5-0.4,0.7-1,0.7-1.8C555,284.6,554.7,284,554.2,283.6z"/>
	<path class="st1" d="M562.2,279.3h4.6v16.3h-4.6V279.3z"/>
	<path class="st1" d="M570.1,279.3h7.7c1.8,0,3.4,0.3,4.8,1c1.4,0.7,2.5,1.6,3.2,2.8c0.8,1.2,1.1,2.7,1.1,4.3s-0.4,3.1-1.1,4.3
		c-0.8,1.2-1.8,2.2-3.2,2.8c-1.4,0.7-3,1-4.8,1h-7.7V279.3z M577.6,291.9c1.4,0,2.5-0.4,3.4-1.2c0.8-0.8,1.3-1.9,1.3-3.3
		c0-1.4-0.4-2.5-1.3-3.3c-0.8-0.8-2-1.2-3.4-1.2h-2.9v9H577.6z"/>
	<path class="st1" d="M600.1,292.5h-6.9l-1.3,3.2h-4.7l7.2-16.3h4.6l7.2,16.3h-4.8L600.1,292.5z M598.7,289l-2.1-5.2l-2.1,5.2H598.7
		z"/>
	<path class="st1" d="M607.5,279.3h7.7c1.8,0,3.4,0.3,4.8,1c1.4,0.7,2.5,1.6,3.2,2.8c0.8,1.2,1.1,2.7,1.1,4.3s-0.4,3.1-1.1,4.3
		c-0.8,1.2-1.8,2.2-3.2,2.8c-1.4,0.7-3,1-4.8,1h-7.7V279.3z M615,291.9c1.4,0,2.5-0.4,3.4-1.2c0.8-0.8,1.3-1.9,1.3-3.3
		c0-1.4-0.4-2.5-1.3-3.3c-0.8-0.8-2-1.2-3.4-1.2h-2.9v9H615z"/>
	<path class="st1" d="M639.9,292.1v3.6h-13.1v-16.3h12.8v3.6h-8.2v2.8h7.3v3.5h-7.3v3H639.9z"/>
	<path class="st1" d="M644.4,295.5c-1.2-0.3-2.3-0.8-3-1.3l1.5-3.4c0.7,0.5,1.6,0.9,2.5,1.2c1,0.3,1.9,0.4,2.8,0.4
		c1.8,0,2.7-0.4,2.7-1.3c0-0.5-0.3-0.8-0.8-1c-0.5-0.2-1.3-0.5-2.4-0.7c-1.2-0.3-2.3-0.5-3.1-0.9c-0.8-0.3-1.5-0.8-2.1-1.5
		c-0.6-0.7-0.9-1.6-0.9-2.7c0-1,0.3-1.9,0.8-2.7c0.5-0.8,1.4-1.4,2.4-1.9c1.1-0.5,2.4-0.7,4-0.7c1.1,0,2.1,0.1,3.2,0.4
		c1,0.2,2,0.6,2.8,1.1l-1.4,3.4c-1.6-0.8-3.1-1.3-4.5-1.3c-0.9,0-1.6,0.1-2,0.4c-0.4,0.3-0.6,0.6-0.6,1.1c0,0.4,0.2,0.8,0.7,1
		c0.5,0.2,1.3,0.4,2.4,0.7c1.2,0.3,2.3,0.5,3.1,0.9c0.8,0.3,1.5,0.8,2.1,1.4c0.6,0.7,0.9,1.6,0.9,2.7c0,1-0.3,1.9-0.8,2.7
		c-0.5,0.8-1.4,1.4-2.5,1.9c-1.1,0.5-2.4,0.7-4,0.7C646.9,296,645.6,295.8,644.4,295.5z"/>
	<path class="st1" d="M671.5,291.3H669v4.3h-4.6v-16.3h7.5c1.5,0,2.8,0.2,3.9,0.7c1.1,0.5,1.9,1.2,2.5,2.1c0.6,0.9,0.9,2,0.9,3.2
		c0,1.2-0.3,2.2-0.8,3.1c-0.6,0.9-1.3,1.6-2.4,2.1l3.5,5.1h-4.9L671.5,291.3z M673.7,283.6c-0.5-0.4-1.2-0.6-2.1-0.6H669v4.8h2.6
		c0.9,0,1.7-0.2,2.1-0.6c0.5-0.4,0.7-1,0.7-1.8C674.4,284.6,674.2,284,673.7,283.6z"/>
	<path class="st1" d="M694.7,292.1v3.6h-13.1v-16.3h12.8v3.6h-8.2v2.8h7.3v3.5h-7.3v3H694.7z"/>
	<path class="st1" d="M708.2,287.1h4.1v6.8c-0.9,0.7-2,1.2-3.2,1.5s-2.4,0.5-3.6,0.5c-1.7,0-3.3-0.4-4.6-1.1s-2.4-1.7-3.2-3
		c-0.8-1.3-1.2-2.8-1.2-4.4c0-1.6,0.4-3.1,1.2-4.4c0.8-1.3,1.9-2.3,3.2-3s2.9-1.1,4.7-1.1c1.5,0,2.9,0.3,4.1,0.8s2.2,1.3,3,2.2
		l-2.9,2.7c-1.1-1.2-2.4-1.8-4-1.8c-1.4,0-2.5,0.4-3.4,1.3c-0.9,0.8-1.3,2-1.3,3.4c0,0.9,0.2,1.7,0.6,2.4c0.4,0.7,0.9,1.3,1.6,1.7
		s1.5,0.6,2.4,0.6c0.9,0,1.7-0.2,2.5-0.5V287.1z"/>
	<path class="st1" d="M717.1,294c-1.3-1.3-2-3.2-2-5.6v-9.1h4.6v8.9c0,2.6,1,3.9,3.1,3.9c2.1,0,3.1-1.3,3.1-3.9v-8.9h4.6v9.1
		c0,2.4-0.7,4.3-2,5.6c-1.3,1.3-3.2,2-5.7,2S718.5,295.3,717.1,294z"/>
	<path class="st1" d="M733.6,279.3h4.6V292h7.8v3.7h-12.4V279.3z"/>
	<path class="st1" d="M759,292.5h-6.9l-1.3,3.2h-4.7l7.2-16.3h4.6l7.2,16.3h-4.8L759,292.5z M757.6,289l-2.1-5.2l-2.1,5.2H757.6z"/>
	<path class="st1" d="M769,283h-5v-3.7h14.6v3.7h-5v12.7H769V283z"/>
	<path class="st1" d="M783.7,294.9c-1.4-0.7-2.5-1.7-3.2-3c-0.8-1.3-1.2-2.7-1.2-4.4s0.4-3.1,1.2-4.4c0.8-1.3,1.9-2.3,3.2-3
		c1.4-0.7,2.9-1.1,4.7-1.1s3.3,0.4,4.7,1.1c1.4,0.7,2.5,1.7,3.2,3c0.8,1.3,1.2,2.7,1.2,4.4s-0.4,3.1-1.2,4.4s-1.9,2.3-3.2,3
		c-1.4,0.7-2.9,1.1-4.7,1.1S785.1,295.6,783.7,294.9z M790.6,291.5c0.7-0.4,1.2-0.9,1.6-1.6s0.6-1.5,0.6-2.4c0-0.9-0.2-1.7-0.6-2.4
		c-0.4-0.7-0.9-1.3-1.6-1.6c-0.7-0.4-1.4-0.6-2.2-0.6c-0.8,0-1.6,0.2-2.2,0.6s-1.2,0.9-1.6,1.6c-0.4,0.7-0.6,1.5-0.6,2.4
		c0,0.9,0.2,1.7,0.6,2.4c0.4,0.7,0.9,1.3,1.6,1.6c0.7,0.4,1.4,0.6,2.2,0.6C789.2,292.1,790,291.9,790.6,291.5z"/>
	<path class="st1" d="M807,291.3h-2.5v4.3h-4.6v-16.3h7.5c1.5,0,2.8,0.2,3.9,0.7c1.1,0.5,1.9,1.2,2.5,2.1c0.6,0.9,0.9,2,0.9,3.2
		c0,1.2-0.3,2.2-0.8,3.1c-0.6,0.9-1.3,1.6-2.4,2.1l3.5,5.1H810L807,291.3z M809.2,283.6c-0.5-0.4-1.2-0.6-2.1-0.6h-2.6v4.8h2.6
		c0.9,0,1.7-0.2,2.1-0.6c0.5-0.4,0.7-1,0.7-1.8C810,284.6,809.7,284,809.2,283.6z"/>
	<path class="st1" d="M817.2,279.3h4.6v16.3h-4.6V279.3z"/>
	<path class="st1" d="M836,292.5h-6.9l-1.3,3.2h-4.7l7.2-16.3h4.6l7.2,16.3h-4.8L836,292.5z M834.7,289l-2.1-5.2l-2.1,5.2H834.7z"/>
	<path class="st1" d="M845.3,295.5c-1.2-0.3-2.3-0.8-3-1.3l1.5-3.4c0.7,0.5,1.6,0.9,2.5,1.2c1,0.3,1.9,0.4,2.8,0.4
		c1.8,0,2.7-0.4,2.7-1.3c0-0.5-0.3-0.8-0.8-1s-1.3-0.5-2.4-0.7c-1.2-0.3-2.3-0.5-3.1-0.9c-0.8-0.3-1.5-0.8-2.1-1.5
		c-0.6-0.7-0.9-1.6-0.9-2.7c0-1,0.3-1.9,0.8-2.7c0.5-0.8,1.4-1.4,2.4-1.9c1.1-0.5,2.4-0.7,4-0.7c1.1,0,2.1,0.1,3.2,0.4
		c1,0.2,2,0.6,2.8,1.1l-1.4,3.4c-1.6-0.8-3.1-1.3-4.5-1.3c-0.9,0-1.6,0.1-2,0.4c-0.4,0.3-0.6,0.6-0.6,1.1c0,0.4,0.2,0.8,0.7,1
		c0.5,0.2,1.3,0.4,2.4,0.7c1.2,0.3,2.3,0.5,3.1,0.9c0.8,0.3,1.5,0.8,2.1,1.4c0.6,0.7,0.9,1.6,0.9,2.7c0,1-0.3,1.9-0.8,2.7
		c-0.5,0.8-1.4,1.4-2.5,1.9c-1.1,0.5-2.4,0.7-4,0.7C847.9,296,846.6,295.8,845.3,295.5z"/>
	<path class="st1" d="M587,351.1v3.6h-13.1v-16.3h12.8v3.6h-8.2v2.8h7.3v3.5h-7.3v3H587z"/>
	<path class="st1" d="M589.6,338.3h4.6V351h7.8v3.7h-12.4V338.3z"/>
	<path class="st1" d="M614.9,351.5H608l-1.3,3.2H602l7.2-16.3h4.6l7.2,16.3h-4.8L614.9,351.5z M613.6,348l-2.1-5.2l-2.1,5.2H613.6z"
		/>
	<path class="st1" d="M637.1,347.6c0.5,0.7,0.8,1.5,0.8,2.5c0,1.4-0.6,2.5-1.7,3.3c-1.2,0.8-2.8,1.2-5,1.2h-8.8v-16.3h8.4
		c2.1,0,3.7,0.4,4.8,1.2c1.1,0.8,1.6,1.8,1.6,3.1c0,0.8-0.2,1.5-0.6,2.1c-0.4,0.6-0.9,1.1-1.6,1.5
		C635.8,346.4,636.6,346.9,637.1,347.6z M626.9,341.6v3.2h3.2c1.6,0,2.3-0.5,2.3-1.6c0-1-0.8-1.6-2.3-1.6H626.9z M633.2,349.6
		c0-1.1-0.8-1.7-2.4-1.7h-3.9v3.3h3.9C632.4,351.3,633.2,350.7,633.2,349.6z"/>
	<path class="st1" d="M643.9,353.9c-1.4-0.7-2.5-1.7-3.2-3c-0.8-1.3-1.2-2.7-1.2-4.4s0.4-3.1,1.2-4.4c0.8-1.3,1.9-2.3,3.2-3
		c1.4-0.7,2.9-1.1,4.7-1.1s3.3,0.4,4.7,1.1c1.4,0.7,2.5,1.7,3.2,3c0.8,1.3,1.2,2.7,1.2,4.4s-0.4,3.1-1.2,4.4c-0.8,1.3-1.9,2.3-3.2,3
		c-1.4,0.7-2.9,1.1-4.7,1.1S645.3,354.6,643.9,353.9z M650.8,350.5c0.7-0.4,1.2-0.9,1.6-1.6s0.6-1.5,0.6-2.4c0-0.9-0.2-1.7-0.6-2.4
		c-0.4-0.7-0.9-1.3-1.6-1.6s-1.4-0.6-2.2-0.6c-0.8,0-1.6,0.2-2.2,0.6c-0.7,0.4-1.2,0.9-1.6,1.6c-0.4,0.7-0.6,1.5-0.6,2.4
		c0,0.9,0.2,1.7,0.6,2.4c0.4,0.7,0.9,1.3,1.6,1.6c0.7,0.4,1.4,0.6,2.2,0.6C649.4,351.1,650.1,350.9,650.8,350.5z"/>
	<path class="st1" d="M667.2,350.3h-2.5v4.3H660v-16.3h7.5c1.5,0,2.8,0.2,3.9,0.7c1.1,0.5,1.9,1.2,2.5,2.1c0.6,0.9,0.9,2,0.9,3.2
		c0,1.2-0.3,2.2-0.8,3.1c-0.6,0.9-1.3,1.6-2.4,2.1l3.5,5.1h-4.9L667.2,350.3z M669.4,342.6c-0.5-0.4-1.2-0.6-2.1-0.6h-2.6v4.8h2.6
		c0.9,0,1.7-0.2,2.1-0.6c0.5-0.4,0.7-1,0.7-1.8C670.1,343.6,669.9,343,669.4,342.6z"/>
	<path class="st1" d="M688.3,351.5h-6.9l-1.3,3.2h-4.7l7.2-16.3h4.6l7.2,16.3h-4.8L688.3,351.5z M686.9,348l-2.1-5.2l-2.1,5.2H686.9
		z"/>
	<path class="st1" d="M699,353.9c-1.4-0.7-2.4-1.7-3.2-3c-0.8-1.3-1.2-2.8-1.2-4.4c0-1.6,0.4-3.1,1.2-4.4c0.8-1.3,1.8-2.3,3.2-3
		s2.9-1.1,4.6-1.1c1.5,0,2.8,0.3,4,0.8c1.2,0.5,2.2,1.3,3,2.3l-2.9,2.7c-1.1-1.3-2.3-1.9-3.9-1.9c-0.9,0-1.7,0.2-2.4,0.6
		c-0.7,0.4-1.2,0.9-1.6,1.6c-0.4,0.7-0.6,1.5-0.6,2.4c0,0.9,0.2,1.7,0.6,2.4s0.9,1.3,1.6,1.6c0.7,0.4,1.5,0.6,2.4,0.6
		c1.5,0,2.8-0.6,3.9-1.9l2.9,2.7c-0.8,1-1.8,1.8-3,2.3c-1.2,0.5-2.5,0.8-4,0.8C701.9,355,700.3,354.6,699,353.9z"/>
	<path class="st1" d="M712.7,338.3h4.6v16.3h-4.6V338.3z"/>
	<path class="st1" d="M724.2,353.9c-1.4-0.7-2.5-1.7-3.2-3c-0.8-1.3-1.2-2.7-1.2-4.4s0.4-3.1,1.2-4.4c0.8-1.3,1.9-2.3,3.2-3
		c1.4-0.7,2.9-1.1,4.7-1.1s3.3,0.4,4.7,1.1c1.4,0.7,2.5,1.7,3.2,3c0.8,1.3,1.2,2.7,1.2,4.4s-0.4,3.1-1.2,4.4s-1.9,2.3-3.2,3
		c-1.4,0.7-2.9,1.1-4.7,1.1S725.5,354.6,724.2,353.9z M731.1,350.5c0.7-0.4,1.2-0.9,1.6-1.6s0.6-1.5,0.6-2.4c0-0.9-0.2-1.7-0.6-2.4
		c-0.4-0.7-0.9-1.3-1.6-1.6c-0.7-0.4-1.4-0.6-2.2-0.6c-0.8,0-1.6,0.2-2.2,0.6s-1.2,0.9-1.6,1.6c-0.4,0.7-0.6,1.5-0.6,2.4
		c0,0.9,0.2,1.7,0.6,2.4c0.4,0.7,0.9,1.3,1.6,1.6c0.7,0.4,1.4,0.6,2.2,0.6C729.6,351.1,730.4,350.9,731.1,350.5z M729.7,333.4h4.4
		l-4.4,3.5h-3.2L729.7,333.4z"/>
	<path class="st1" d="M755.9,338.3v16.3h-3.8l-7.2-8.7v8.7h-4.5v-16.3h3.8l7.2,8.7v-8.7H755.9z"/>
	<path class="st1" d="M542.5,412.9c-1.4-0.7-2.4-1.7-3.2-3c-0.8-1.3-1.2-2.8-1.2-4.4s0.4-3.1,1.2-4.4c0.8-1.3,1.8-2.3,3.2-3
		s2.9-1.1,4.6-1.1c1.5,0,2.8,0.3,4,0.8s2.2,1.3,3,2.3l-2.9,2.7c-1.1-1.3-2.3-1.9-3.9-1.9c-0.9,0-1.7,0.2-2.4,0.6
		c-0.7,0.4-1.2,0.9-1.6,1.6s-0.6,1.5-0.6,2.4s0.2,1.7,0.6,2.4s0.9,1.3,1.6,1.6c0.7,0.4,1.5,0.6,2.4,0.6c1.5,0,2.8-0.6,3.9-1.9
		l2.9,2.7c-0.8,1-1.8,1.8-3,2.3c-1.2,0.5-2.5,0.8-4,0.8C545.4,414,543.8,413.6,542.5,412.9z"/>
	<path class="st1" d="M559.4,412.9c-1.4-0.7-2.5-1.7-3.2-3c-0.8-1.3-1.2-2.7-1.2-4.4s0.4-3.1,1.2-4.4c0.8-1.3,1.9-2.3,3.2-3
		c1.4-0.7,2.9-1.1,4.7-1.1s3.3,0.4,4.7,1.1c1.4,0.7,2.5,1.7,3.2,3c0.8,1.3,1.2,2.7,1.2,4.4s-0.4,3.1-1.2,4.4c-0.8,1.3-1.9,2.3-3.2,3
		c-1.4,0.7-2.9,1.1-4.7,1.1S560.8,413.6,559.4,412.9z M566.3,409.5c0.7-0.4,1.2-0.9,1.6-1.6s0.6-1.5,0.6-2.4s-0.2-1.7-0.6-2.4
		s-0.9-1.3-1.6-1.6s-1.4-0.6-2.2-0.6c-0.8,0-1.6,0.2-2.2,0.6c-0.7,0.4-1.2,0.9-1.6,1.6c-0.4,0.7-0.6,1.5-0.6,2.4s0.2,1.7,0.6,2.4
		c0.4,0.7,0.9,1.3,1.6,1.6c0.7,0.4,1.4,0.6,2.2,0.6C564.9,410.1,565.6,409.9,566.3,409.5z"/>
	<path class="st1" d="M590.3,413.6l0-8.7l-4.2,7H584l-4.2-6.8v8.4h-4.3v-16.3h3.8l5.7,9.4l5.6-9.4h3.8l0,16.3H590.3z"/>
	<path class="st1" d="M610.9,410.1v3.6h-13.1v-16.3h12.8v3.6h-8.2v2.8h7.3v3.5h-7.3v3H610.9z"/>
	<path class="st1" d="M620.7,409.3h-2.5v4.3h-4.6v-16.3h7.5c1.5,0,2.8,0.2,3.9,0.7c1.1,0.5,1.9,1.2,2.5,2.1c0.6,0.9,0.9,2,0.9,3.2
		c0,1.2-0.3,2.2-0.8,3.1c-0.6,0.9-1.3,1.6-2.4,2.1l3.5,5.1h-4.9L620.7,409.3z M622.9,401.6c-0.5-0.4-1.2-0.6-2.1-0.6h-2.6v4.8h2.6
		c0.9,0,1.7-0.2,2.1-0.6c0.5-0.4,0.7-1,0.7-1.8S623.3,402,622.9,401.6z"/>
	<path class="st1" d="M634.3,412.9c-1.4-0.7-2.4-1.7-3.2-3c-0.8-1.3-1.2-2.8-1.2-4.4s0.4-3.1,1.2-4.4c0.8-1.3,1.8-2.3,3.2-3
		s2.9-1.1,4.6-1.1c1.5,0,2.8,0.3,4,0.8s2.2,1.3,3,2.3l-2.9,2.7c-1.1-1.3-2.3-1.9-3.9-1.9c-0.9,0-1.7,0.2-2.4,0.6
		c-0.7,0.4-1.2,0.9-1.6,1.6s-0.6,1.5-0.6,2.4s0.2,1.7,0.6,2.4s0.9,1.3,1.6,1.6c0.7,0.4,1.5,0.6,2.4,0.6c1.5,0,2.8-0.6,3.9-1.9
		l2.9,2.7c-0.8,1-1.8,1.8-3,2.3c-1.2,0.5-2.5,0.8-4,0.8C637.2,414,635.7,413.6,634.3,412.9z"/>
	<path class="st1" d="M648,397.3h4.6v16.3H648V397.3z"/>
	<path class="st1" d="M666.9,410.5H660l-1.3,3.2H654l7.2-16.3h4.6l7.2,16.3h-4.8L666.9,410.5z M665.5,407l-2.1-5.2l-2.1,5.2H665.5z"
		/>
	<path class="st1" d="M674.3,397.3h4.6V410h7.8v3.7h-12.4V397.3z"/>
	<path class="st1" d="M688.5,397.3h4.6v16.3h-4.6V397.3z"/>
	<path class="st1" d="M710.2,410v3.7h-14.6v-2.9l8.2-9.8h-8v-3.7h14.1v2.9l-8.2,9.8H710.2z"/>
	<path class="st1" d="M723.2,410.5h-6.9l-1.3,3.2h-4.7l7.2-16.3h4.6l7.2,16.3h-4.8L723.2,410.5z M721.9,407l-2.1-5.2l-2.1,5.2H721.9
		z"/>
	<path class="st1" d="M733.9,412.9c-1.4-0.7-2.4-1.7-3.2-3s-1.2-2.8-1.2-4.4s0.4-3.1,1.2-4.4c0.8-1.3,1.8-2.3,3.2-3
		c1.4-0.7,2.9-1.1,4.6-1.1c1.5,0,2.8,0.3,4,0.8c1.2,0.5,2.2,1.3,3,2.3l-2.9,2.7c-1.1-1.3-2.3-1.9-3.9-1.9c-0.9,0-1.7,0.2-2.4,0.6
		s-1.2,0.9-1.6,1.6c-0.4,0.7-0.6,1.5-0.6,2.4s0.2,1.7,0.6,2.4c0.4,0.7,0.9,1.3,1.6,1.6s1.5,0.6,2.4,0.6c1.5,0,2.8-0.6,3.9-1.9
		l2.9,2.7c-0.8,1-1.8,1.8-3,2.3c-1.2,0.5-2.5,0.8-4,0.8C736.8,414,735.3,413.6,733.9,412.9z"/>
	<path class="st1" d="M747.6,397.3h4.6v16.3h-4.6V397.3z"/>
	<path class="st1" d="M759.1,412.9c-1.4-0.7-2.5-1.7-3.2-3c-0.8-1.3-1.2-2.7-1.2-4.4s0.4-3.1,1.2-4.4c0.8-1.3,1.9-2.3,3.2-3
		c1.4-0.7,2.9-1.1,4.7-1.1s3.3,0.4,4.7,1.1c1.4,0.7,2.5,1.7,3.2,3s1.2,2.7,1.2,4.4s-0.4,3.1-1.2,4.4s-1.9,2.3-3.2,3
		c-1.4,0.7-2.9,1.1-4.7,1.1S760.5,413.6,759.1,412.9z M766,409.5c0.7-0.4,1.2-0.9,1.6-1.6s0.6-1.5,0.6-2.4s-0.2-1.7-0.6-2.4
		s-0.9-1.3-1.6-1.6c-0.7-0.4-1.4-0.6-2.2-0.6c-0.8,0-1.6,0.2-2.2,0.6s-1.2,0.9-1.6,1.6c-0.4,0.7-0.6,1.5-0.6,2.4s0.2,1.7,0.6,2.4
		c0.4,0.7,0.9,1.3,1.6,1.6s1.4,0.6,2.2,0.6C764.6,410.1,765.3,409.9,766,409.5z M764.6,392.4h4.4l-4.4,3.5h-3.2L764.6,392.4z"/>
	<path class="st1" d="M790.8,397.3v16.3H787l-7.2-8.7v8.7h-4.5v-16.3h3.8l7.2,8.7v-8.7H790.8z"/>
	<path class="st1" d="M552.9,472.6l0-8.7l-4.2,7h-2.1l-4.2-6.8v8.4h-4.3v-16.3h3.8l5.7,9.4l5.6-9.4h3.8l0,16.3H552.9z"/>
	<path class="st1" d="M571.4,469.5h-6.9l-1.3,3.2h-4.7l7.2-16.3h4.6l7.2,16.3h-4.8L571.4,469.5z M570,466l-2.1-5.2l-2.1,5.2H570z"/>
	<path class="st1" d="M585.9,468.3h-2.5v4.3h-4.6v-16.3h7.5c1.5,0,2.8,0.2,3.9,0.7c1.1,0.5,1.9,1.2,2.5,2.1c0.6,0.9,0.9,2,0.9,3.2
		c0,1.2-0.3,2.2-0.8,3.1c-0.6,0.9-1.3,1.6-2.4,2.1l3.5,5.1h-4.9L585.9,468.3z M588.1,460.6c-0.5-0.4-1.2-0.6-2.1-0.6h-2.6v4.8h2.6
		c0.9,0,1.7-0.2,2.1-0.6c0.5-0.4,0.7-1,0.7-1.8S588.6,461,588.1,460.6z"/>
	<path class="st1" d="M599.6,471.9c-1.4-0.7-2.4-1.7-3.2-3c-0.8-1.3-1.2-2.8-1.2-4.4s0.4-3.1,1.2-4.4c0.8-1.3,1.8-2.3,3.2-3
		s2.9-1.1,4.6-1.1c1.5,0,2.8,0.3,4,0.8s2.2,1.3,3,2.3l-2.9,2.7c-1.1-1.3-2.3-1.9-3.9-1.9c-0.9,0-1.7,0.2-2.4,0.6
		c-0.7,0.4-1.2,0.9-1.6,1.6s-0.6,1.5-0.6,2.4s0.2,1.7,0.6,2.4s0.9,1.3,1.6,1.6c0.7,0.4,1.5,0.6,2.4,0.6c1.5,0,2.8-0.6,3.9-1.9
		l2.9,2.7c-0.8,1-1.8,1.8-3,2.3c-1.2,0.5-2.5,0.8-4,0.8C602.5,473,601,472.6,599.6,471.9z"/>
	<path class="st1" d="M616.5,471.9c-1.4-0.7-2.5-1.7-3.2-3c-0.8-1.3-1.2-2.7-1.2-4.4s0.4-3.1,1.2-4.4c0.8-1.3,1.9-2.3,3.2-3
		c1.4-0.7,2.9-1.1,4.7-1.1s3.3,0.4,4.7,1.1c1.4,0.7,2.5,1.7,3.2,3c0.8,1.3,1.2,2.7,1.2,4.4s-0.4,3.1-1.2,4.4c-0.8,1.3-1.9,2.3-3.2,3
		c-1.4,0.7-2.9,1.1-4.7,1.1S617.9,472.6,616.5,471.9z M623.4,468.5c0.7-0.4,1.2-0.9,1.6-1.6s0.6-1.5,0.6-2.4s-0.2-1.7-0.6-2.4
		s-0.9-1.3-1.6-1.6s-1.4-0.6-2.2-0.6c-0.8,0-1.6,0.2-2.2,0.6c-0.7,0.4-1.2,0.9-1.6,1.6c-0.4,0.7-0.6,1.5-0.6,2.4s0.2,1.7,0.6,2.4
		c0.4,0.7,0.9,1.3,1.6,1.6c0.7,0.4,1.4,0.6,2.2,0.6C622,469.1,622.7,468.9,623.4,468.5z"/>
	<path class="st1" d="M655,456.3v16.3h-3.8l-7.2-8.7v8.7h-4.5v-16.3h3.8l7.2,8.7v-8.7H655z"/>
	<path class="st1" d="M661.9,471.9c-1.4-0.7-2.5-1.7-3.2-3c-0.8-1.3-1.2-2.7-1.2-4.4s0.4-3.1,1.2-4.4c0.8-1.3,1.9-2.3,3.2-3
		c1.4-0.7,2.9-1.1,4.7-1.1s3.3,0.4,4.7,1.1c1.4,0.7,2.5,1.7,3.2,3c0.8,1.3,1.2,2.7,1.2,4.4s-0.4,3.1-1.2,4.4c-0.8,1.3-1.9,2.3-3.2,3
		c-1.4,0.7-2.9,1.1-4.7,1.1S663.2,472.6,661.9,471.9z M668.8,468.5c0.7-0.4,1.2-0.9,1.6-1.6s0.6-1.5,0.6-2.4s-0.2-1.7-0.6-2.4
		s-0.9-1.3-1.6-1.6s-1.4-0.6-2.2-0.6c-0.8,0-1.6,0.2-2.2,0.6c-0.7,0.4-1.2,0.9-1.6,1.6c-0.4,0.7-0.6,1.5-0.6,2.4s0.2,1.7,0.6,2.4
		c0.4,0.7,0.9,1.3,1.6,1.6c0.7,0.4,1.4,0.6,2.2,0.6C667.3,469.1,668.1,468.9,668.8,468.5z"/>
	<path class="st1" d="M685.2,468.3h-2.5v4.3H678v-16.3h7.5c1.5,0,2.8,0.2,3.9,0.7c1.1,0.5,1.9,1.2,2.5,2.1c0.6,0.9,0.9,2,0.9,3.2
		c0,1.2-0.3,2.2-0.8,3.1c-0.6,0.9-1.3,1.6-2.4,2.1l3.5,5.1h-4.9L685.2,468.3z M687.4,460.6c-0.5-0.4-1.2-0.6-2.1-0.6h-2.6v4.8h2.6
		c0.9,0,1.7-0.2,2.1-0.6c0.5-0.4,0.7-1,0.7-1.8S687.9,461,687.4,460.6z"/>
	<path class="st1" d="M710.1,472.6l0-8.7l-4.2,7h-2.1l-4.2-6.8v8.4h-4.3v-16.3h3.8l5.7,9.4l5.6-9.4h3.8l0,16.3H710.1z"/>
	<path class="st1" d="M728.5,469.5h-6.9l-1.3,3.2h-4.7l7.2-16.3h4.6l7.2,16.3h-4.8L728.5,469.5z M727.2,466l-2.1-5.2L723,466H727.2z
		"/>
	<path class="st1" d="M738.6,460h-5v-3.7h14.6v3.7h-5v12.7h-4.6V460z"/>
	<path class="st1" d="M749.9,456.3h4.6v16.3h-4.6V456.3z"/>
	<path class="st1" d="M774.4,456.3l-7,16.3h-4.6l-7-16.3h5l4.4,10.6l4.5-10.6H774.4z"/>
	<path class="st1" d="M778.7,471.9c-1.4-0.7-2.5-1.7-3.2-3c-0.8-1.3-1.2-2.7-1.2-4.4s0.4-3.1,1.2-4.4c0.8-1.3,1.9-2.3,3.2-3
		c1.4-0.7,2.9-1.1,4.7-1.1s3.3,0.4,4.7,1.1c1.4,0.7,2.5,1.7,3.2,3s1.2,2.7,1.2,4.4s-0.4,3.1-1.2,4.4s-1.9,2.3-3.2,3
		c-1.4,0.7-2.9,1.1-4.7,1.1S780.1,472.6,778.7,471.9z M785.6,468.5c0.7-0.4,1.2-0.9,1.6-1.6s0.6-1.5,0.6-2.4s-0.2-1.7-0.6-2.4
		s-0.9-1.3-1.6-1.6c-0.7-0.4-1.4-0.6-2.2-0.6c-0.8,0-1.6,0.2-2.2,0.6s-1.2,0.9-1.6,1.6c-0.4,0.7-0.6,1.5-0.6,2.4s0.2,1.7,0.6,2.4
		c0.4,0.7,0.9,1.3,1.6,1.6s1.4,0.6,2.2,0.6C784.2,469.1,784.9,468.9,785.6,468.5z"/>
	<path class="st1" d="M507.5,527.3H505v4.3h-4.6v-16.3h7.5c1.5,0,2.8,0.2,3.9,0.7c1.1,0.5,1.9,1.2,2.5,2.1c0.6,0.9,0.9,2,0.9,3.2
		c0,1.2-0.3,2.2-0.8,3.1c-0.6,0.9-1.3,1.6-2.4,2.1l3.5,5.1h-4.9L507.5,527.3z M509.7,519.6c-0.5-0.4-1.2-0.6-2.1-0.6H505v4.8h2.6
		c0.9,0,1.7-0.2,2.1-0.6c0.5-0.4,0.7-1,0.7-1.8S510.2,520,509.7,519.6z"/>
	<path class="st1" d="M530.8,528.1v3.6h-13.1v-16.3h12.8v3.6h-8.2v2.8h7.3v3.5h-7.3v3H530.8z"/>
	<path class="st1" d="M544.3,523.1h4.1v6.8c-0.9,0.7-2,1.2-3.2,1.5c-1.2,0.4-2.4,0.5-3.6,0.5c-1.7,0-3.3-0.4-4.6-1.1
		c-1.4-0.7-2.4-1.7-3.2-3c-0.8-1.3-1.2-2.8-1.2-4.4s0.4-3.1,1.2-4.4c0.8-1.3,1.9-2.3,3.2-3c1.4-0.7,2.9-1.1,4.7-1.1
		c1.5,0,2.9,0.3,4.1,0.8s2.2,1.3,3,2.2l-2.9,2.7c-1.1-1.2-2.4-1.8-4-1.8c-1.4,0-2.5,0.4-3.4,1.3c-0.9,0.8-1.3,2-1.3,3.4
		c0,0.9,0.2,1.7,0.6,2.4c0.4,0.7,0.9,1.3,1.6,1.7s1.5,0.6,2.4,0.6c0.9,0,1.7-0.2,2.5-0.5V523.1z"/>
	<path class="st1" d="M551.3,515.3h4.6v16.3h-4.6V515.3z"/>
	<path class="st1" d="M561.1,531.5c-1.2-0.3-2.3-0.8-3-1.3l1.5-3.4c0.7,0.5,1.6,0.9,2.5,1.2c1,0.3,1.9,0.4,2.8,0.4
		c1.8,0,2.7-0.4,2.7-1.3c0-0.5-0.3-0.8-0.8-1c-0.5-0.2-1.3-0.5-2.4-0.7c-1.2-0.3-2.3-0.5-3.1-0.9c-0.8-0.3-1.5-0.8-2.1-1.5
		s-0.9-1.6-0.9-2.7c0-1,0.3-1.9,0.8-2.7c0.5-0.8,1.4-1.4,2.4-1.9c1.1-0.5,2.4-0.7,4-0.7c1.1,0,2.1,0.1,3.2,0.4s2,0.6,2.8,1.1
		l-1.4,3.4c-1.6-0.8-3.1-1.3-4.5-1.3c-0.9,0-1.6,0.1-2,0.4c-0.4,0.3-0.6,0.6-0.6,1.1s0.2,0.8,0.7,1s1.3,0.4,2.4,0.7
		c1.2,0.3,2.3,0.5,3.1,0.9c0.8,0.3,1.5,0.8,2.1,1.4s0.9,1.6,0.9,2.7c0,1-0.3,1.9-0.8,2.7c-0.5,0.8-1.4,1.4-2.5,1.9
		c-1.1,0.5-2.4,0.7-4,0.7C563.6,532,562.4,531.8,561.1,531.5z"/>
	<path class="st1" d="M577.6,519h-5v-3.7h14.6v3.7h-5v12.7h-4.6V519z"/>
	<path class="st1" d="M596.1,527.3h-2.5v4.3h-4.6v-16.3h7.5c1.5,0,2.8,0.2,3.9,0.7c1.1,0.5,1.9,1.2,2.5,2.1c0.6,0.9,0.9,2,0.9,3.2
		c0,1.2-0.3,2.2-0.8,3.1c-0.6,0.9-1.3,1.6-2.4,2.1l3.5,5.1H599L596.1,527.3z M598.2,519.6c-0.5-0.4-1.2-0.6-2.1-0.6h-2.6v4.8h2.6
		c0.9,0,1.7-0.2,2.1-0.6c0.5-0.4,0.7-1,0.7-1.8S598.7,520,598.2,519.6z"/>
	<path class="st1" d="M609.8,530.9c-1.4-0.7-2.5-1.7-3.2-3c-0.8-1.3-1.2-2.7-1.2-4.4s0.4-3.1,1.2-4.4c0.8-1.3,1.9-2.3,3.2-3
		c1.4-0.7,2.9-1.1,4.7-1.1s3.3,0.4,4.7,1.1c1.4,0.7,2.5,1.7,3.2,3c0.8,1.3,1.2,2.7,1.2,4.4s-0.4,3.1-1.2,4.4c-0.8,1.3-1.9,2.3-3.2,3
		c-1.4,0.7-2.9,1.1-4.7,1.1S611.1,531.6,609.8,530.9z M616.7,527.5c0.7-0.4,1.2-0.9,1.6-1.6s0.6-1.5,0.6-2.4s-0.2-1.7-0.6-2.4
		s-0.9-1.3-1.6-1.6s-1.4-0.6-2.2-0.6c-0.8,0-1.6,0.2-2.2,0.6c-0.7,0.4-1.2,0.9-1.6,1.6c-0.4,0.7-0.6,1.5-0.6,2.4s0.2,1.7,0.6,2.4
		c0.4,0.7,0.9,1.3,1.6,1.6c0.7,0.4,1.4,0.6,2.2,0.6C615.2,528.1,616,527.9,616.7,527.5z"/>
	<path class="st1" d="M632.7,515.3h7.7c1.8,0,3.4,0.3,4.8,1c1.4,0.7,2.5,1.6,3.2,2.8c0.8,1.2,1.1,2.7,1.1,4.3s-0.4,3.1-1.1,4.3
		c-0.8,1.2-1.8,2.2-3.2,2.8c-1.4,0.7-3,1-4.8,1h-7.7V515.3z M640.3,527.9c1.4,0,2.5-0.4,3.4-1.2c0.8-0.8,1.3-1.9,1.3-3.3
		s-0.4-2.5-1.3-3.3c-0.8-0.8-2-1.2-3.4-1.2h-2.9v9H640.3z"/>
	<path class="st1" d="M665.1,528.1v3.6H652v-16.3h12.8v3.6h-8.2v2.8h7.3v3.5h-7.3v3H665.1z"/>
	<path class="st1" d="M685.8,516c1.1,0.5,1.9,1.2,2.5,2.1c0.6,0.9,0.9,2,0.9,3.2s-0.3,2.3-0.9,3.2c-0.6,0.9-1.4,1.6-2.5,2.1
		c-1.1,0.5-2.4,0.7-3.9,0.7h-2.8v4.3h-4.6v-16.3h7.5C683.4,515.3,684.7,515.5,685.8,516z M683.8,523.1c0.5-0.4,0.7-1,0.7-1.8
		s-0.2-1.4-0.7-1.8c-0.5-0.4-1.2-0.6-2.1-0.6h-2.6v4.8h2.6C682.6,523.7,683.3,523.5,683.8,523.1z"/>
	<path class="st1" d="M698.6,527.3h-2.5v4.3h-4.6v-16.3h7.5c1.5,0,2.8,0.2,3.9,0.7c1.1,0.5,1.9,1.2,2.5,2.1s0.9,2,0.9,3.2
		c0,1.2-0.3,2.2-0.8,3.1s-1.3,1.6-2.4,2.1l3.5,5.1h-4.9L698.6,527.3z M700.8,519.6c-0.5-0.4-1.2-0.6-2.1-0.6h-2.6v4.8h2.6
		c0.9,0,1.7-0.2,2.1-0.6c0.5-0.4,0.7-1,0.7-1.8S701.3,520,700.8,519.6z"/>
	<path class="st1" d="M712.3,530.9c-1.4-0.7-2.5-1.7-3.2-3c-0.8-1.3-1.2-2.7-1.2-4.4s0.4-3.1,1.2-4.4c0.8-1.3,1.9-2.3,3.2-3
		c1.4-0.7,2.9-1.1,4.7-1.1s3.3,0.4,4.7,1.1c1.4,0.7,2.5,1.7,3.2,3s1.2,2.7,1.2,4.4s-0.4,3.1-1.2,4.4s-1.9,2.3-3.2,3
		c-1.4,0.7-2.9,1.1-4.7,1.1S713.7,531.6,712.3,530.9z M719.2,527.5c0.7-0.4,1.2-0.9,1.6-1.6s0.6-1.5,0.6-2.4s-0.2-1.7-0.6-2.4
		s-0.9-1.3-1.6-1.6c-0.7-0.4-1.4-0.6-2.2-0.6c-0.8,0-1.6,0.2-2.2,0.6s-1.2,0.9-1.6,1.6c-0.4,0.7-0.6,1.5-0.6,2.4s0.2,1.7,0.6,2.4
		c0.4,0.7,0.9,1.3,1.6,1.6s1.4,0.6,2.2,0.6C717.8,528.1,718.5,527.9,719.2,527.5z"/>
	<path class="st1" d="M728.5,515.3h7.7c1.8,0,3.4,0.3,4.8,1c1.4,0.7,2.5,1.6,3.2,2.8s1.1,2.7,1.1,4.3s-0.4,3.1-1.1,4.3
		s-1.8,2.2-3.2,2.8c-1.4,0.7-3,1-4.8,1h-7.7V515.3z M736,527.9c1.4,0,2.5-0.4,3.4-1.2c0.8-0.8,1.3-1.9,1.3-3.3s-0.4-2.5-1.3-3.3
		c-0.8-0.8-2-1.2-3.4-1.2h-2.9v9H736z"/>
	<path class="st1" d="M749.6,530c-1.3-1.3-2-3.2-2-5.6v-9.1h4.6v8.9c0,2.6,1,3.9,3.1,3.9c2.1,0,3.1-1.3,3.1-3.9v-8.9h4.6v9.1
		c0,2.4-0.7,4.3-2,5.6c-1.3,1.3-3.2,2-5.7,2S751,531.3,749.6,530z"/>
	<path class="st1" d="M769.6,530.9c-1.4-0.7-2.4-1.7-3.2-3s-1.2-2.8-1.2-4.4s0.4-3.1,1.2-4.4c0.8-1.3,1.8-2.3,3.2-3
		c1.4-0.7,2.9-1.1,4.6-1.1c1.5,0,2.8,0.3,4,0.8c1.2,0.5,2.2,1.3,3,2.3l-2.9,2.7c-1.1-1.3-2.3-1.9-3.9-1.9c-0.9,0-1.7,0.2-2.4,0.6
		s-1.2,0.9-1.6,1.6c-0.4,0.7-0.6,1.5-0.6,2.4s0.2,1.7,0.6,2.4c0.4,0.7,0.9,1.3,1.6,1.6s1.5,0.6,2.4,0.6c1.5,0,2.8-0.6,3.9-1.9
		l2.9,2.7c-0.8,1-1.8,1.8-3,2.3c-1.2,0.5-2.5,0.8-4,0.8C772.5,532,771,531.6,769.6,530.9z"/>
	<path class="st1" d="M786.7,519h-5v-3.7h14.6v3.7h-5v12.7h-4.6V519z"/>
	<path class="st1" d="M801.4,530.9c-1.4-0.7-2.5-1.7-3.2-3c-0.8-1.3-1.2-2.7-1.2-4.4s0.4-3.1,1.2-4.4c0.8-1.3,1.9-2.3,3.2-3
		c1.4-0.7,2.9-1.1,4.7-1.1s3.3,0.4,4.7,1.1c1.4,0.7,2.5,1.7,3.2,3s1.2,2.7,1.2,4.4s-0.4,3.1-1.2,4.4s-1.9,2.3-3.2,3
		c-1.4,0.7-2.9,1.1-4.7,1.1S802.7,531.6,801.4,530.9z M808.3,527.5c0.7-0.4,1.2-0.9,1.6-1.6s0.6-1.5,0.6-2.4s-0.2-1.7-0.6-2.4
		s-0.9-1.3-1.6-1.6c-0.7-0.4-1.4-0.6-2.2-0.6c-0.8,0-1.6,0.2-2.2,0.6s-1.2,0.9-1.6,1.6c-0.4,0.7-0.6,1.5-0.6,2.4s0.2,1.7,0.6,2.4
		c0.4,0.7,0.9,1.3,1.6,1.6s1.4,0.6,2.2,0.6C806.8,528.1,807.6,527.9,808.3,527.5z"/>
	<path class="st1" d="M819.4,531.5c-1.2-0.3-2.3-0.8-3-1.3l1.5-3.4c0.7,0.5,1.6,0.9,2.5,1.2c1,0.3,1.9,0.4,2.8,0.4
		c1.8,0,2.7-0.4,2.7-1.3c0-0.5-0.3-0.8-0.8-1c-0.5-0.2-1.3-0.5-2.4-0.7c-1.2-0.3-2.3-0.5-3.1-0.9s-1.5-0.8-2.1-1.5s-0.9-1.6-0.9-2.7
		c0-1,0.3-1.9,0.8-2.7c0.5-0.8,1.4-1.4,2.4-1.9c1.1-0.5,2.4-0.7,4-0.7c1.1,0,2.1,0.1,3.2,0.4c1,0.2,2,0.6,2.8,1.1l-1.4,3.4
		c-1.6-0.8-3.1-1.3-4.5-1.3c-0.9,0-1.6,0.1-2,0.4s-0.6,0.6-0.6,1.1s0.2,0.8,0.7,1s1.3,0.4,2.4,0.7c1.2,0.3,2.3,0.5,3.1,0.9
		c0.8,0.3,1.5,0.8,2.1,1.4c0.6,0.7,0.9,1.6,0.9,2.7c0,1-0.3,1.9-0.8,2.7c-0.5,0.8-1.4,1.4-2.5,1.9c-1.1,0.5-2.4,0.7-4,0.7
		C821.9,532,820.7,531.8,819.4,531.5z"/>
</g>
<g>
	<g>
		<linearGradient id="SVGID_1_" gradientUnits="userSpaceOnUse" x1="57.2874" y1="189.6455" x2="383.2434" y2="189.6455">
			<stop  offset="0" style="stop-color:#0085FF"/>
			<stop  offset="1" style="stop-color:#FF003D"/>
		</linearGradient>
		<polygon class="st2" points="358.3,225.5 383.2,189.6 358.3,153.8 57.3,153.8 77.8,189.6 57.3,225.5 		"/>
	</g>
	<g>
		<path class="st1" d="M107,196.3v2H95.1V182h11.5v2h-9.2v5h8.2v2h-8.2v5.3H107z"/>
		<path class="st1" d="M125.9,198.4l0-11.9l-5.9,9.9h-1.1l-5.9-9.9v11.8h-2.2V182h1.9l6.8,11.5l6.7-11.5h1.9l0,16.3H125.9z"/>
		<path class="st1" d="M144.4,183.5c1.2,1,1.8,2.4,1.8,4.2c0,1.8-0.6,3.2-1.8,4.2s-2.9,1.5-5,1.5h-4v4.9H133V182h6.4
			C141.5,182,143.2,182.5,144.4,183.5z M142.7,190.4c0.8-0.6,1.2-1.5,1.2-2.7c0-1.2-0.4-2.1-1.2-2.7s-1.9-0.9-3.4-0.9h-4v7.3h4
			C140.8,191.4,141.9,191.1,142.7,190.4z"/>
		<path class="st1" d="M160.6,198.4l-3.5-5c-0.4,0-0.8,0-1,0h-4v5h-2.3V182h6.4c2.1,0,3.8,0.5,5,1.5c1.2,1,1.8,2.4,1.8,4.2
			c0,1.3-0.3,2.3-0.9,3.2c-0.6,0.9-1.5,1.5-2.7,1.9l3.9,5.5H160.6z M159.3,190.4c0.8-0.6,1.2-1.5,1.2-2.7c0-1.2-0.4-2.1-1.2-2.7
			s-1.9-0.9-3.4-0.9h-4v7.4h4C157.4,191.4,158.6,191.1,159.3,190.4z"/>
		<path class="st1" d="M178.5,196.3v2h-11.9V182h11.5v2H169v5h8.2v2H169v5.3H178.5z"/>
		<path class="st1" d="M196.3,182v16.3h-1.9l-9.8-12.2v12.2h-2.3V182h1.9l9.8,12.2V182H196.3z"/>
		<path class="st1" d="M201.2,182h6.9c1.7,0,3.3,0.3,4.6,1c1.3,0.7,2.4,1.6,3.1,2.9c0.7,1.2,1.1,2.7,1.1,4.3c0,1.6-0.4,3-1.1,4.3
			c-0.7,1.2-1.8,2.2-3.1,2.9c-1.3,0.7-2.9,1-4.6,1h-6.9V182z M208,196.3c1.3,0,2.5-0.3,3.5-0.8c1-0.5,1.8-1.2,2.3-2.2
			c0.5-0.9,0.8-2,0.8-3.2s-0.3-2.3-0.8-3.2c-0.5-0.9-1.3-1.6-2.3-2.2c-1-0.5-2.2-0.8-3.5-0.8h-4.4v12.3H208z"/>
		<path class="st1" d="M232.4,196.3v2h-11.9V182H232v2h-9.2v5h8.2v2h-8.2v5.3H232.4z"/>
		<path class="st1" d="M236.1,182h6.9c1.7,0,3.3,0.3,4.6,1c1.3,0.7,2.4,1.6,3.1,2.9c0.7,1.2,1.1,2.7,1.1,4.3c0,1.6-0.4,3-1.1,4.3
			c-0.7,1.2-1.8,2.2-3.1,2.9c-1.3,0.7-2.9,1-4.6,1h-6.9V182z M242.9,196.3c1.3,0,2.5-0.3,3.5-0.8c1-0.5,1.8-1.2,2.3-2.2
			c0.5-0.9,0.8-2,0.8-3.2s-0.3-2.3-0.8-3.2c-0.5-0.9-1.3-1.6-2.3-2.2c-1-0.5-2.2-0.8-3.5-0.8h-4.4v12.3H242.9z"/>
		<path class="st1" d="M258.3,197.5c-1.3-0.7-2.4-1.7-3.1-3c-0.8-1.3-1.1-2.7-1.1-4.3s0.4-3,1.1-4.3c0.8-1.3,1.8-2.3,3.1-3
			s2.8-1.1,4.5-1.1c1.6,0,3.1,0.4,4.4,1.1c1.3,0.7,2.4,1.7,3.1,3c0.7,1.3,1.1,2.7,1.1,4.3s-0.4,3-1.1,4.3c-0.7,1.3-1.8,2.3-3.1,3
			c-1.3,0.7-2.8,1.1-4.4,1.1C261.2,198.5,259.7,198.2,258.3,197.5z M266,195.6c1-0.5,1.7-1.3,2.3-2.3c0.6-1,0.8-2,0.8-3.2
			s-0.3-2.3-0.8-3.2c-0.6-1-1.3-1.7-2.3-2.3c-1-0.5-2-0.8-3.2-0.8s-2.3,0.3-3.3,0.8c-1,0.5-1.7,1.3-2.3,2.3s-0.8,2-0.8,3.2
			s0.3,2.3,0.8,3.2s1.3,1.7,2.3,2.3c1,0.5,2.1,0.8,3.3,0.8S265.1,196.2,266,195.6z"/>
		<path class="st1" d="M286,198.4l-3.5-5c-0.4,0-0.8,0-1,0h-4v5H275V182h6.4c2.1,0,3.8,0.5,5,1.5c1.2,1,1.8,2.4,1.8,4.2
			c0,1.3-0.3,2.3-0.9,3.2c-0.6,0.9-1.5,1.5-2.7,1.9l3.9,5.5H286z M284.7,190.4c0.8-0.6,1.2-1.5,1.2-2.7c0-1.2-0.4-2.1-1.2-2.7
			s-1.9-0.9-3.4-0.9h-4v7.4h4C282.8,191.4,283.9,191.1,284.7,190.4z"/>
		<path class="st1" d="M303.9,196.3v2H292V182h11.5v2h-9.2v5h8.2v2h-8.2v5.3H303.9z"/>
		<path class="st1" d="M308.8,198c-1.1-0.4-2-0.9-2.7-1.5l0.9-1.8c0.6,0.6,1.4,1,2.4,1.4c1,0.4,2,0.5,3,0.5c1.4,0,2.4-0.2,3-0.7
			c0.7-0.5,1-1.1,1-1.8c0-0.6-0.2-1-0.5-1.4s-0.8-0.6-1.4-0.8c-0.5-0.2-1.3-0.4-2.3-0.6c-1.2-0.3-2.2-0.6-3-0.9
			c-0.8-0.3-1.4-0.8-1.9-1.4c-0.5-0.6-0.8-1.4-0.8-2.5c0-0.9,0.2-1.7,0.7-2.4s1.2-1.3,2.1-1.7c0.9-0.4,2.1-0.6,3.5-0.6
			c1,0,1.9,0.1,2.8,0.4c0.9,0.2,1.7,0.6,2.4,1.1l-0.8,1.9c-0.7-0.4-1.4-0.8-2.2-1c-0.8-0.2-1.5-0.3-2.3-0.3c-1.3,0-2.3,0.2-3,0.7
			c-0.7,0.5-1,1.1-1,1.9c0,0.6,0.2,1,0.6,1.4s0.8,0.6,1.4,0.8c0.6,0.2,1.3,0.4,2.3,0.6c1.2,0.3,2.2,0.6,3,0.9
			c0.7,0.3,1.4,0.7,1.9,1.4c0.5,0.6,0.8,1.4,0.8,2.5c0,0.9-0.2,1.6-0.7,2.3c-0.5,0.7-1.2,1.3-2.1,1.7s-2.1,0.6-3.5,0.6
			C311.2,198.5,310,198.3,308.8,198z"/>
	</g>
</g>
<g>
	<g>
		<linearGradient id="SVGID_2_" gradientUnits="userSpaceOnUse" x1="1018.0165" y1="189.6455" x2="1433.0769" y2="189.6455">
			<stop  offset="0" style="stop-color:#FF003D"/>
			<stop  offset="1" style="stop-color:#FFC600"/>
		</linearGradient>
		<polygon class="st3" points="1433.1,225.5 1433.1,153.8 1018,153.8 1038.5,189.6 1018,225.5 		"/>
	</g>
</g>
<g>
	<path class="st1" d="M1071,198.4l0-11.9l-5.9,9.9h-1.1l-5.9-9.9v11.8h-2.2V182h1.9l6.8,11.5l6.7-11.5h1.9l0,16.3H1071z"/>
	<path class="st1" d="M1090,196.3v2h-11.9V182h11.5v2h-9.2v5h8.2v2h-8.2v5.3H1090z"/>
	<path class="st1" d="M1104.7,198.4l-3.5-5c-0.4,0-0.8,0-1,0h-4v5h-2.3V182h6.4c2.1,0,3.8,0.5,5,1.5c1.2,1,1.8,2.4,1.8,4.2
		c0,1.3-0.3,2.3-0.9,3.2c-0.6,0.9-1.5,1.5-2.7,1.9l3.9,5.5H1104.7z M1103.5,190.4c0.8-0.6,1.2-1.5,1.2-2.7c0-1.2-0.4-2.1-1.2-2.7
		c-0.8-0.6-1.9-0.9-3.4-0.9h-4v7.4h4C1101.5,191.4,1102.7,191.1,1103.5,190.4z"/>
	<path class="st1" d="M1113.6,197.5c-1.3-0.7-2.3-1.7-3.1-3c-0.7-1.3-1.1-2.7-1.1-4.3s0.4-3,1.1-4.3c0.7-1.3,1.8-2.3,3.1-3
		c1.3-0.7,2.8-1.1,4.4-1.1c1.3,0,2.4,0.2,3.5,0.6c1.1,0.4,2,1.1,2.7,1.9l-1.5,1.5c-1.2-1.3-2.8-1.9-4.6-1.9c-1.2,0-2.3,0.3-3.3,0.8
		c-1,0.5-1.7,1.3-2.3,2.3s-0.8,2-0.8,3.2s0.3,2.3,0.8,3.2s1.3,1.7,2.3,2.3c1,0.5,2.1,0.8,3.3,0.8c1.8,0,3.4-0.7,4.6-2l1.5,1.5
		c-0.7,0.8-1.7,1.5-2.7,1.9c-1.1,0.4-2.2,0.7-3.5,0.7C1116.4,198.5,1114.9,198.2,1113.6,197.5z"/>
	<path class="st1" d="M1137.6,194.3h-8.7l-1.8,4.1h-2.4l7.4-16.3h2.3l7.4,16.3h-2.5L1137.6,194.3z M1136.8,192.4l-3.5-8l-3.5,8
		H1136.8z"/>
	<path class="st1" d="M1144.3,182h6.9c1.7,0,3.3,0.3,4.6,1c1.3,0.7,2.4,1.6,3.1,2.9s1.1,2.7,1.1,4.3c0,1.6-0.4,3-1.1,4.3
		c-0.7,1.2-1.8,2.2-3.1,2.9c-1.3,0.7-2.9,1-4.6,1h-6.9V182z M1151,196.3c1.3,0,2.5-0.3,3.5-0.8c1-0.5,1.8-1.2,2.3-2.2
		c0.5-0.9,0.8-2,0.8-3.2s-0.3-2.3-0.8-3.2c-0.5-0.9-1.3-1.6-2.3-2.2c-1-0.5-2.2-0.8-3.5-0.8h-4.4v12.3H1151z"/>
	<path class="st1" d="M1166.5,197.5c-1.3-0.7-2.4-1.7-3.1-3c-0.8-1.3-1.1-2.7-1.1-4.3s0.4-3,1.1-4.3c0.8-1.3,1.8-2.3,3.1-3
		c1.3-0.7,2.8-1.1,4.5-1.1c1.6,0,3.1,0.4,4.4,1.1c1.3,0.7,2.4,1.7,3.1,3c0.7,1.3,1.1,2.7,1.1,4.3s-0.4,3-1.1,4.3
		c-0.7,1.3-1.8,2.3-3.1,3c-1.3,0.7-2.8,1.1-4.4,1.1C1169.3,198.5,1167.8,198.2,1166.5,197.5z M1174.2,195.6c1-0.5,1.7-1.3,2.3-2.3
		c0.6-1,0.8-2,0.8-3.2s-0.3-2.3-0.8-3.2c-0.6-1-1.3-1.7-2.3-2.3c-1-0.5-2-0.8-3.2-0.8s-2.3,0.3-3.3,0.8c-1,0.5-1.7,1.3-2.3,2.3
		s-0.8,2-0.8,3.2s0.3,2.3,0.8,3.2s1.3,1.7,2.3,2.3c1,0.5,2.1,0.8,3.3,0.8S1173.2,196.2,1174.2,195.6z"/>
	<path class="st1" d="M1189.5,182h2.3v16.3h-2.3V182z"/>
	<path class="st1" d="M1210.8,182v16.3h-1.9l-9.8-12.2v12.2h-2.3V182h1.9l9.8,12.2V182H1210.8z"/>
	<path class="st1" d="M1218.9,184h-5.6v-2h13.5v2h-5.6v14.3h-2.3V184z"/>
	<path class="st1" d="M1241.2,196.3v2h-11.9V182h11.5v2h-9.2v5h8.2v2h-8.2v5.3H1241.2z"/>
	<path class="st1" d="M1255.9,198.4l-3.5-5c-0.4,0-0.8,0-1,0h-4v5h-2.3V182h6.4c2.1,0,3.8,0.5,5,1.5c1.2,1,1.8,2.4,1.8,4.2
		c0,1.3-0.3,2.3-0.9,3.2c-0.6,0.9-1.5,1.5-2.7,1.9l3.9,5.5H1255.9z M1254.7,190.4c0.8-0.6,1.2-1.5,1.2-2.7c0-1.2-0.4-2.1-1.2-2.7
		c-0.8-0.6-1.9-0.9-3.4-0.9h-4v7.4h4C1252.8,191.4,1253.9,191.1,1254.7,190.4z"/>
	<path class="st1" d="M1276,182v16.3h-1.9l-9.8-12.2v12.2h-2.3V182h1.9l9.8,12.2V182H1276z"/>
	<path class="st1" d="M1283.8,197.5c-1.3-0.7-2.4-1.7-3.1-3c-0.8-1.3-1.1-2.7-1.1-4.3s0.4-3,1.1-4.3c0.8-1.3,1.8-2.3,3.1-3
		c1.3-0.7,2.8-1.1,4.5-1.1c1.6,0,3.1,0.4,4.4,1.1c1.3,0.7,2.4,1.7,3.1,3c0.7,1.3,1.1,2.7,1.1,4.3s-0.4,3-1.1,4.3
		c-0.7,1.3-1.8,2.3-3.1,3c-1.3,0.7-2.8,1.1-4.4,1.1C1286.7,198.5,1285.2,198.2,1283.8,197.5z M1291.5,195.6c1-0.5,1.7-1.3,2.3-2.3
		c0.6-1,0.8-2,0.8-3.2s-0.3-2.3-0.8-3.2c-0.6-1-1.3-1.7-2.3-2.3c-1-0.5-2-0.8-3.2-0.8s-2.3,0.3-3.3,0.8c-1,0.5-1.7,1.3-2.3,2.3
		s-0.8,2-0.8,3.2s0.3,2.3,0.8,3.2s1.3,1.7,2.3,2.3c1,0.5,2.1,0.8,3.3,0.8S1290.6,196.2,1291.5,195.6z"/>
</g>
<g>
	<g>
		<g>
			<linearGradient id="SVGID_3_" gradientUnits="userSpaceOnUse" x1="1043.953" y1="287.3401" x2="1433.0769" y2="287.3401">
				<stop  offset="0" style="stop-color:#FF003D"/>
				<stop  offset="1" style="stop-color:#FFC600"/>
			</linearGradient>
			<polygon class="st4" points="1433.1,323.2 1433.1,251.5 1044,251.5 1064.5,287.3 1044,323.2 			"/>
		</g>
	</g>
	<g>
		<path class="st1" d="M1096.9,296l0-11.9l-5.9,9.9h-1.1l-5.9-9.9V296h-2.2v-16.3h1.9l6.8,11.5l6.7-11.5h1.9l0,16.3H1096.9z"/>
		<path class="st1" d="M1115.9,294v2h-11.9v-16.3h11.5v2h-9.2v5h8.2v2h-8.2v5.3H1115.9z"/>
		<path class="st1" d="M1130.6,296l-3.5-5c-0.4,0-0.8,0-1,0h-4v5h-2.3v-16.3h6.4c2.1,0,3.8,0.5,5,1.5c1.2,1,1.8,2.4,1.8,4.2
			c0,1.3-0.3,2.3-0.9,3.2c-0.6,0.9-1.5,1.5-2.7,1.9l3.9,5.5H1130.6z M1129.4,288.1c0.8-0.6,1.2-1.5,1.2-2.7c0-1.2-0.4-2.1-1.2-2.7
			c-0.8-0.6-1.9-0.9-3.4-0.9h-4v7.4h4C1127.5,289.1,1128.6,288.8,1129.4,288.1z"/>
		<path class="st1" d="M1139.6,295.1c-1.3-0.7-2.3-1.7-3.1-3c-0.7-1.3-1.1-2.7-1.1-4.3s0.4-3,1.1-4.3c0.7-1.3,1.8-2.3,3.1-3
			c1.3-0.7,2.8-1.1,4.4-1.1c1.3,0,2.4,0.2,3.5,0.6c1.1,0.4,2,1.1,2.7,1.9l-1.5,1.5c-1.2-1.3-2.8-1.9-4.6-1.9c-1.2,0-2.3,0.3-3.3,0.8
			c-1,0.5-1.7,1.3-2.3,2.3s-0.8,2-0.8,3.2s0.3,2.3,0.8,3.2s1.3,1.7,2.3,2.3c1,0.5,2.1,0.8,3.3,0.8c1.8,0,3.4-0.7,4.6-2l1.5,1.5
			c-0.7,0.8-1.7,1.5-2.7,1.9c-1.1,0.4-2.2,0.7-3.5,0.7C1142.3,296.2,1140.9,295.9,1139.6,295.1z"/>
		<path class="st1" d="M1163.6,292h-8.7l-1.8,4.1h-2.4l7.4-16.3h2.3l7.4,16.3h-2.5L1163.6,292z M1162.7,290.1l-3.5-8l-3.5,8H1162.7z
			"/>
		<path class="st1" d="M1170.2,279.7h6.9c1.7,0,3.3,0.3,4.6,1c1.3,0.7,2.4,1.6,3.1,2.9s1.1,2.7,1.1,4.3c0,1.6-0.4,3-1.1,4.3
			c-0.7,1.2-1.8,2.2-3.1,2.9c-1.3,0.7-2.9,1-4.6,1h-6.9V279.7z M1177,294c1.3,0,2.5-0.3,3.5-0.8c1-0.5,1.8-1.2,2.3-2.2
			c0.5-0.9,0.8-2,0.8-3.2s-0.3-2.3-0.8-3.2c-0.5-0.9-1.3-1.6-2.3-2.2c-1-0.5-2.2-0.8-3.5-0.8h-4.4V294H1177z"/>
		<path class="st1" d="M1192.4,295.1c-1.3-0.7-2.4-1.7-3.1-3c-0.8-1.3-1.1-2.7-1.1-4.3s0.4-3,1.1-4.3c0.8-1.3,1.8-2.3,3.1-3
			c1.3-0.7,2.8-1.1,4.5-1.1c1.6,0,3.1,0.4,4.4,1.1c1.3,0.7,2.4,1.7,3.1,3c0.7,1.3,1.1,2.7,1.1,4.3s-0.4,3-1.1,4.3
			c-0.7,1.3-1.8,2.3-3.1,3c-1.3,0.7-2.8,1.1-4.4,1.1C1195.2,296.2,1193.8,295.9,1192.4,295.1z M1200.1,293.3c1-0.5,1.7-1.3,2.3-2.3
			c0.6-1,0.8-2,0.8-3.2s-0.3-2.3-0.8-3.2c-0.6-1-1.3-1.7-2.3-2.3c-1-0.5-2-0.8-3.2-0.8s-2.3,0.3-3.3,0.8c-1,0.5-1.7,1.3-2.3,2.3
			s-0.8,2-0.8,3.2s0.3,2.3,0.8,3.2s1.3,1.7,2.3,2.3c1,0.5,2.1,0.8,3.3,0.8S1199.2,293.9,1200.1,293.3z"/>
		<path class="st1" d="M1226.3,296l-3.5-5c-0.4,0-0.8,0-1,0h-4v5h-2.3v-16.3h6.4c2.1,0,3.8,0.5,5,1.5c1.2,1,1.8,2.4,1.8,4.2
			c0,1.3-0.3,2.3-0.9,3.2c-0.6,0.9-1.5,1.5-2.7,1.9l3.9,5.5H1226.3z M1225.1,288.1c0.8-0.6,1.2-1.5,1.2-2.7c0-1.2-0.4-2.1-1.2-2.7
			c-0.8-0.6-1.9-0.9-3.4-0.9h-4v7.4h4C1223.2,289.1,1224.3,288.8,1225.1,288.1z"/>
		<path class="st1" d="M1244.2,294v2h-11.9v-16.3h11.5v2h-9.2v5h8.2v2h-8.2v5.3H1244.2z"/>
		<path class="st1" d="M1259.3,287.8h2.2v6.4c-0.8,0.7-1.8,1.2-2.8,1.5c-1.1,0.4-2.2,0.5-3.4,0.5c-1.6,0-3.1-0.4-4.5-1.1
			c-1.3-0.7-2.4-1.7-3.1-3c-0.8-1.3-1.1-2.7-1.1-4.3s0.4-3,1.1-4.3c0.8-1.3,1.8-2.3,3.1-3c1.3-0.7,2.8-1.1,4.5-1.1
			c1.3,0,2.5,0.2,3.6,0.6c1.1,0.4,2,1.1,2.7,1.9l-1.4,1.4c-1.3-1.3-2.9-1.9-4.7-1.9c-1.2,0-2.4,0.3-3.3,0.8c-1,0.5-1.8,1.3-2.3,2.2
			c-0.6,1-0.8,2-0.8,3.2c0,1.2,0.3,2.3,0.8,3.2c0.6,1,1.3,1.7,2.3,2.3c1,0.5,2.1,0.8,3.3,0.8c1.5,0,2.7-0.4,3.8-1.1V287.8z"/>
		<path class="st1" d="M1266,279.7h2.3V296h-2.3V279.7z"/>
		<path class="st1" d="M1276.1,295.1c-1.3-0.7-2.4-1.7-3.1-3c-0.8-1.3-1.1-2.7-1.1-4.3s0.4-3,1.1-4.3c0.8-1.3,1.8-2.3,3.1-3
			c1.3-0.7,2.8-1.1,4.5-1.1c1.6,0,3.1,0.4,4.4,1.1c1.3,0.7,2.4,1.7,3.1,3c0.7,1.3,1.1,2.7,1.1,4.3s-0.4,3-1.1,4.3
			c-0.7,1.3-1.8,2.3-3.1,3c-1.3,0.7-2.8,1.1-4.4,1.1C1278.9,296.2,1277.4,295.9,1276.1,295.1z M1283.8,293.3c1-0.5,1.7-1.3,2.3-2.3
			c0.6-1,0.8-2,0.8-3.2s-0.3-2.3-0.8-3.2c-0.6-1-1.3-1.7-2.3-2.3c-1-0.5-2-0.8-3.2-0.8s-2.3,0.3-3.3,0.8c-1,0.5-1.7,1.3-2.3,2.3
			s-0.8,2-0.8,3.2s0.3,2.3,0.8,3.2s1.3,1.7,2.3,2.3c1,0.5,2.1,0.8,3.3,0.8S1282.9,293.9,1283.8,293.3z"/>
		<path class="st1" d="M1306.9,279.7V296h-1.9l-9.8-12.2V296h-2.3v-16.3h1.9l9.8,12.2v-12.2H1306.9z"/>
		<path class="st1" d="M1322.2,292h-8.7l-1.8,4.1h-2.4l7.4-16.3h2.3l7.4,16.3h-2.5L1322.2,292z M1321.4,290.1l-3.5-8l-3.5,8H1321.4z
			"/>
		<path class="st1" d="M1328.9,279.7h2.3V294h8.8v2h-11.2V279.7z"/>
	</g>
</g>
<g>
	<g>
		<g>
			<linearGradient id="SVGID_4_" gradientUnits="userSpaceOnUse" x1="1043.953" y1="385.0346" x2="1433.0769" y2="385.0346">
				<stop  offset="0" style="stop-color:#FF003D"/>
				<stop  offset="1" style="stop-color:#FFC600"/>
			</linearGradient>
			<polygon class="st5" points="1433.1,420.9 1433.1,349.2 1044,349.2 1064.5,385 1044,420.9 			"/>
		</g>
	</g>
	<g>
		<path class="st1" d="M1096.9,393.7l0-11.9l-5.9,9.9h-1.1l-5.9-9.9v11.8h-2.2v-16.3h1.9l6.8,11.5l6.7-11.5h1.9l0,16.3H1096.9z"/>
		<path class="st1" d="M1115.9,391.7v2h-11.9v-16.3h11.5v2h-9.2v5h8.2v2h-8.2v5.3H1115.9z"/>
		<path class="st1" d="M1130.6,393.7l-3.5-5c-0.4,0-0.8,0-1,0h-4v5h-2.3v-16.3h6.4c2.1,0,3.8,0.5,5,1.5c1.2,1,1.8,2.4,1.8,4.2
			c0,1.3-0.3,2.3-0.9,3.2c-0.6,0.9-1.5,1.5-2.7,1.9l3.9,5.5H1130.6z M1129.4,385.8c0.8-0.6,1.2-1.5,1.2-2.7s-0.4-2.1-1.2-2.7
			c-0.8-0.6-1.9-0.9-3.4-0.9h-4v7.4h4C1127.5,386.8,1128.6,386.5,1129.4,385.8z"/>
		<path class="st1" d="M1139.6,392.8c-1.3-0.7-2.3-1.7-3.1-3c-0.7-1.3-1.1-2.7-1.1-4.3c0-1.6,0.4-3,1.1-4.3s1.8-2.3,3.1-3
			c1.3-0.7,2.8-1.1,4.4-1.1c1.3,0,2.4,0.2,3.5,0.6c1.1,0.4,2,1.1,2.7,1.9l-1.5,1.5c-1.2-1.3-2.8-1.9-4.6-1.9c-1.2,0-2.3,0.3-3.3,0.8
			s-1.7,1.3-2.3,2.3s-0.8,2-0.8,3.2s0.3,2.3,0.8,3.2s1.3,1.7,2.3,2.3c1,0.5,2.1,0.8,3.3,0.8c1.8,0,3.4-0.7,4.6-2l1.5,1.5
			c-0.7,0.8-1.7,1.5-2.7,1.9c-1.1,0.4-2.2,0.7-3.5,0.7C1142.3,393.9,1140.9,393.6,1139.6,392.8z"/>
		<path class="st1" d="M1163.6,389.7h-8.7l-1.8,4.1h-2.4l7.4-16.3h2.3l7.4,16.3h-2.5L1163.6,389.7z M1162.7,387.8l-3.5-8l-3.5,8
			H1162.7z"/>
		<path class="st1" d="M1170.2,377.4h6.9c1.7,0,3.3,0.3,4.6,1c1.3,0.7,2.4,1.6,3.1,2.9c0.7,1.2,1.1,2.7,1.1,4.3s-0.4,3-1.1,4.3
			s-1.8,2.2-3.1,2.9c-1.3,0.7-2.9,1-4.6,1h-6.9V377.4z M1177,391.7c1.3,0,2.5-0.3,3.5-0.8c1-0.5,1.8-1.2,2.3-2.2
			c0.5-0.9,0.8-2,0.8-3.2s-0.3-2.3-0.8-3.2c-0.5-0.9-1.3-1.6-2.3-2.2c-1-0.5-2.2-0.8-3.5-0.8h-4.4v12.3H1177z"/>
		<path class="st1" d="M1192.4,392.8c-1.3-0.7-2.4-1.7-3.1-3c-0.8-1.3-1.1-2.7-1.1-4.3c0-1.6,0.4-3,1.1-4.3c0.8-1.3,1.8-2.3,3.1-3
			c1.3-0.7,2.8-1.1,4.5-1.1c1.6,0,3.1,0.4,4.4,1.1c1.3,0.7,2.4,1.7,3.1,3s1.1,2.7,1.1,4.3c0,1.6-0.4,3-1.1,4.3
			c-0.7,1.3-1.8,2.3-3.1,3c-1.3,0.7-2.8,1.1-4.4,1.1C1195.2,393.9,1193.8,393.6,1192.4,392.8z M1200.1,391c1-0.5,1.7-1.3,2.3-2.3
			c0.6-1,0.8-2,0.8-3.2s-0.3-2.3-0.8-3.2c-0.6-1-1.3-1.7-2.3-2.3s-2-0.8-3.2-0.8s-2.3,0.3-3.3,0.8c-1,0.5-1.7,1.3-2.3,2.3
			s-0.8,2-0.8,3.2s0.3,2.3,0.8,3.2s1.3,1.7,2.3,2.3c1,0.5,2.1,0.8,3.3,0.8S1199.2,391.6,1200.1,391z"/>
		<path class="st1" d="M1215.4,377.4h2.3v16.3h-2.3V377.4z"/>
		<path class="st1" d="M1236.7,377.4v16.3h-1.9l-9.8-12.2v12.2h-2.3v-16.3h1.9l9.8,12.2v-12.2H1236.7z"/>
		<path class="st1" d="M1244.8,379.4h-5.6v-2h13.5v2h-5.6v14.3h-2.3V379.4z"/>
		<path class="st1" d="M1267.2,391.7v2h-11.9v-16.3h11.5v2h-9.2v5h8.2v2h-8.2v5.3H1267.2z"/>
		<path class="st1" d="M1281.9,393.7l-3.5-5c-0.4,0-0.8,0-1,0h-4v5h-2.3v-16.3h6.4c2.1,0,3.8,0.5,5,1.5c1.2,1,1.8,2.4,1.8,4.2
			c0,1.3-0.3,2.3-0.9,3.2c-0.6,0.9-1.5,1.5-2.7,1.9l3.9,5.5H1281.9z M1280.6,385.8c0.8-0.6,1.2-1.5,1.2-2.7s-0.4-2.1-1.2-2.7
			c-0.8-0.6-1.9-0.9-3.4-0.9h-4v7.4h4C1278.7,386.8,1279.9,386.5,1280.6,385.8z"/>
		<path class="st1" d="M1302,377.4v16.3h-1.9l-9.8-12.2v12.2h-2.3v-16.3h1.9l9.8,12.2v-12.2H1302z"/>
		<path class="st1" d="M1317.3,389.7h-8.7l-1.8,4.1h-2.4l7.4-16.3h2.3l7.4,16.3h-2.5L1317.3,389.7z M1316.5,387.8l-3.5-8l-3.5,8
			H1316.5z"/>
		<path class="st1" d="M1326.6,392.8c-1.3-0.7-2.3-1.7-3.1-3c-0.7-1.3-1.1-2.7-1.1-4.3c0-1.6,0.4-3,1.1-4.3s1.8-2.3,3.1-3
			c1.3-0.7,2.8-1.1,4.4-1.1c1.3,0,2.4,0.2,3.5,0.6c1.1,0.4,2,1.1,2.7,1.9l-1.5,1.5c-1.2-1.3-2.8-1.9-4.6-1.9c-1.2,0-2.3,0.3-3.3,0.8
			s-1.7,1.3-2.3,2.3s-0.8,2-0.8,3.2s0.3,2.3,0.8,3.2s1.3,1.7,2.3,2.3c1,0.5,2.1,0.8,3.3,0.8c1.8,0,3.4-0.7,4.6-2l1.5,1.5
			c-0.7,0.8-1.7,1.5-2.7,1.9c-1.1,0.4-2.2,0.7-3.5,0.7C1329.4,393.9,1327.9,393.6,1326.6,392.8z"/>
		<path class="st1" d="M1340.6,377.4h2.3v16.3h-2.3V377.4z"/>
		<path class="st1" d="M1350.8,392.8c-1.3-0.7-2.4-1.7-3.1-3c-0.8-1.3-1.1-2.7-1.1-4.3c0-1.6,0.4-3,1.1-4.3c0.8-1.3,1.8-2.3,3.1-3
			c1.3-0.7,2.8-1.1,4.5-1.1c1.6,0,3.1,0.4,4.4,1.1c1.3,0.7,2.4,1.7,3.1,3s1.1,2.7,1.1,4.3c0,1.6-0.4,3-1.1,4.3
			c-0.7,1.3-1.8,2.3-3.1,3c-1.3,0.7-2.8,1.1-4.4,1.1C1353.6,393.9,1352.1,393.6,1350.8,392.8z M1358.4,391c1-0.5,1.7-1.3,2.3-2.3
			c0.6-1,0.8-2,0.8-3.2s-0.3-2.3-0.8-3.2c-0.6-1-1.3-1.7-2.3-2.3s-2-0.8-3.2-0.8s-2.3,0.3-3.3,0.8c-1,0.5-1.7,1.3-2.3,2.3
			s-0.8,2-0.8,3.2s0.3,2.3,0.8,3.2s1.3,1.7,2.3,2.3c1,0.5,2.1,0.8,3.3,0.8S1357.5,391.6,1358.4,391z"/>
		<path class="st1" d="M1381.5,377.4v16.3h-1.9l-9.8-12.2v12.2h-2.3v-16.3h1.9l9.8,12.2v-12.2H1381.5z"/>
		<path class="st1" d="M1396.8,389.7h-8.7l-1.8,4.1h-2.4l7.4-16.3h2.3l7.4,16.3h-2.5L1396.8,389.7z M1396,387.8l-3.5-8l-3.5,8H1396z
			"/>
		<path class="st1" d="M1403.5,377.4h2.3v14.3h8.8v2h-11.2V377.4z"/>
	</g>
</g>
<g>
	<g>
		<g>
			<linearGradient id="SVGID_5_" gradientUnits="userSpaceOnUse" x1="1018.0165" y1="482.7291" x2="1433.0769" y2="482.7291">
				<stop  offset="0" style="stop-color:#FF003D"/>
				<stop  offset="1" style="stop-color:#FFC600"/>
			</linearGradient>
			<polygon class="st6" points="1433.1,518.6 1433.1,446.9 1018,446.9 1038.5,482.7 1018,518.6 			"/>
		</g>
	</g>
	<g>
		<path class="st1" d="M1069.9,475.1v16.3h-1.9l-9.8-12.2v12.2h-2.3v-16.3h1.9l9.8,12.2v-12.2H1069.9z"/>
		<path class="st1" d="M1074.8,475.1h2.3v16.3h-2.3V475.1z"/>
		<path class="st1" d="M1084.9,490.5c-1.3-0.7-2.3-1.7-3.1-3c-0.7-1.3-1.1-2.7-1.1-4.3c0-1.6,0.4-3,1.1-4.3s1.8-2.3,3.1-3
			c1.3-0.7,2.8-1.1,4.4-1.1c1.3,0,2.4,0.2,3.5,0.6c1.1,0.4,2,1.1,2.7,1.9l-1.5,1.5c-1.2-1.3-2.8-1.9-4.6-1.9c-1.2,0-2.3,0.3-3.3,0.8
			s-1.7,1.3-2.3,2.3s-0.8,2-0.8,3.2s0.3,2.3,0.8,3.2s1.3,1.7,2.3,2.3c1,0.5,2.1,0.8,3.3,0.8c1.8,0,3.4-0.7,4.6-2l1.5,1.5
			c-0.7,0.8-1.7,1.5-2.7,1.9c-1.1,0.4-2.2,0.7-3.5,0.7C1087.7,491.6,1086.2,491.3,1084.9,490.5z"/>
		<path class="st1" d="M1113,475.1v16.3h-2.3v-7.3h-9.4v7.3h-2.3v-16.3h2.3v7h9.4v-7H1113z"/>
		<path class="st1" d="M1120.8,490.5c-1.3-0.7-2.4-1.7-3.1-3c-0.8-1.3-1.1-2.7-1.1-4.3c0-1.6,0.4-3,1.1-4.3c0.8-1.3,1.8-2.3,3.1-3
			c1.3-0.7,2.8-1.1,4.5-1.1c1.6,0,3.1,0.4,4.4,1.1c1.3,0.7,2.4,1.7,3.1,3s1.1,2.7,1.1,4.3c0,1.6-0.4,3-1.1,4.3
			c-0.7,1.3-1.8,2.3-3.1,3c-1.3,0.7-2.8,1.1-4.4,1.1C1123.6,491.6,1122.1,491.3,1120.8,490.5z M1128.5,488.7c1-0.5,1.7-1.3,2.3-2.3
			c0.6-1,0.8-2,0.8-3.2s-0.3-2.3-0.8-3.2c-0.6-1-1.3-1.7-2.3-2.3s-2-0.8-3.2-0.8s-2.3,0.3-3.3,0.8c-1,0.5-1.7,1.3-2.3,2.3
			s-0.8,2-0.8,3.2s0.3,2.3,0.8,3.2s1.3,1.7,2.3,2.3c1,0.5,2.1,0.8,3.3,0.8S1127.5,489.3,1128.5,488.7z"/>
		<path class="st1" d="M1138.7,491.1c-1.1-0.4-2-0.9-2.7-1.5l0.9-1.8c0.6,0.6,1.4,1,2.4,1.4c1,0.3,2,0.5,3,0.5c1.4,0,2.4-0.2,3-0.7
			c0.7-0.5,1-1.1,1-1.8c0-0.6-0.2-1-0.5-1.4c-0.4-0.4-0.8-0.6-1.4-0.8s-1.3-0.4-2.3-0.6c-1.2-0.3-2.2-0.6-3-0.9
			c-0.8-0.3-1.4-0.8-1.9-1.4c-0.5-0.6-0.8-1.4-0.8-2.5c0-0.9,0.2-1.7,0.7-2.4c0.5-0.7,1.2-1.3,2.1-1.7s2.1-0.6,3.5-0.6
			c1,0,1.9,0.1,2.8,0.4c0.9,0.2,1.7,0.6,2.4,1.1l-0.8,1.9c-0.7-0.4-1.4-0.8-2.2-1s-1.5-0.3-2.3-0.3c-1.3,0-2.3,0.2-3,0.7
			c-0.7,0.5-1,1.1-1,1.9c0,0.6,0.2,1,0.6,1.4c0.4,0.3,0.8,0.6,1.4,0.8c0.6,0.2,1.3,0.4,2.3,0.6c1.2,0.3,2.2,0.6,3,0.9
			c0.7,0.3,1.4,0.7,1.9,1.4c0.5,0.6,0.8,1.4,0.8,2.5c0,0.9-0.2,1.6-0.7,2.3s-1.2,1.3-2.1,1.7c-1,0.4-2.1,0.6-3.5,0.6
			C1141,491.6,1139.8,491.4,1138.7,491.1z"/>
		<path class="st1" d="M1170.1,489.4v2h-11.9v-16.3h11.5v2h-9.2v5h8.2v2h-8.2v5.3H1170.1z"/>
		<path class="st1" d="M1175.1,491.1c-1.1-0.4-2-0.9-2.7-1.5l0.9-1.8c0.6,0.6,1.4,1,2.4,1.4c1,0.3,2,0.5,3,0.5c1.4,0,2.4-0.2,3-0.7
			c0.7-0.5,1-1.1,1-1.8c0-0.6-0.2-1-0.5-1.4c-0.4-0.4-0.8-0.6-1.4-0.8s-1.3-0.4-2.3-0.6c-1.2-0.3-2.2-0.6-3-0.9
			c-0.8-0.3-1.4-0.8-1.9-1.4c-0.5-0.6-0.8-1.4-0.8-2.5c0-0.9,0.2-1.7,0.7-2.4c0.5-0.7,1.2-1.3,2.1-1.7s2.1-0.6,3.5-0.6
			c1,0,1.9,0.1,2.8,0.4c0.9,0.2,1.7,0.6,2.4,1.1l-0.8,1.9c-0.7-0.4-1.4-0.8-2.2-1s-1.5-0.3-2.3-0.3c-1.3,0-2.3,0.2-3,0.7
			c-0.7,0.5-1,1.1-1,1.9c0,0.6,0.2,1,0.6,1.4c0.4,0.3,0.8,0.6,1.4,0.8c0.6,0.2,1.3,0.4,2.3,0.6c1.2,0.3,2.2,0.6,3,0.9
			c0.7,0.3,1.4,0.7,1.9,1.4c0.5,0.6,0.8,1.4,0.8,2.5c0,0.9-0.2,1.6-0.7,2.3s-1.2,1.3-2.1,1.7c-1,0.4-2.1,0.6-3.5,0.6
			C1177.4,491.6,1176.2,491.4,1175.1,491.1z"/>
		<path class="st1" d="M1199.7,476.6c1.2,1,1.8,2.4,1.8,4.2c0,1.8-0.6,3.2-1.8,4.2s-2.9,1.5-5,1.5h-4v4.9h-2.3v-16.3h6.4
			C1196.9,475.1,1198.5,475.6,1199.7,476.6z M1198.1,483.5c0.8-0.6,1.2-1.5,1.2-2.7s-0.4-2.1-1.2-2.7c-0.8-0.6-1.9-0.9-3.4-0.9h-4
			v7.3h4C1196.2,484.5,1197.3,484.1,1198.1,483.5z"/>
		<path class="st1" d="M1216.9,489.4v2H1205v-16.3h11.5v2h-9.2v5h8.2v2h-8.2v5.3H1216.9z"/>
		<path class="st1" d="M1223.4,490.5c-1.3-0.7-2.3-1.7-3.1-3c-0.7-1.3-1.1-2.7-1.1-4.3c0-1.6,0.4-3,1.1-4.3s1.8-2.3,3.1-3
			c1.3-0.7,2.8-1.1,4.4-1.1c1.3,0,2.4,0.2,3.5,0.6c1.1,0.4,2,1.1,2.7,1.9l-1.5,1.5c-1.2-1.3-2.8-1.9-4.6-1.9c-1.2,0-2.3,0.3-3.3,0.8
			s-1.7,1.3-2.3,2.3s-0.8,2-0.8,3.2s0.3,2.3,0.8,3.2s1.3,1.7,2.3,2.3c1,0.5,2.1,0.8,3.3,0.8c1.8,0,3.4-0.7,4.6-2l1.5,1.5
			c-0.7,0.8-1.7,1.5-2.7,1.9c-1.1,0.4-2.2,0.7-3.5,0.7C1226.2,491.6,1224.8,491.3,1223.4,490.5z"/>
		<path class="st1" d="M1237.4,475.1h2.3v16.3h-2.3V475.1z"/>
		<path class="st1" d="M1255.1,487.4h-8.7l-1.8,4.1h-2.4l7.4-16.3h2.3l7.4,16.3h-2.5L1255.1,487.4z M1254.3,485.5l-3.5-8l-3.5,8
			H1254.3z"/>
		<path class="st1" d="M1261.8,475.1h2.3v14.3h8.8v2h-11.2V475.1z"/>
		<path class="st1" d="M1287.5,489.4v2h-11.9v-16.3h11.5v2h-9.2v5h8.2v2h-8.2v5.3H1287.5z"/>
		<path class="st1" d="M1292.5,491.1c-1.1-0.4-2-0.9-2.7-1.5l0.9-1.8c0.6,0.6,1.4,1,2.4,1.4c1,0.3,2,0.5,3,0.5c1.4,0,2.4-0.2,3-0.7
			c0.7-0.5,1-1.1,1-1.8c0-0.6-0.2-1-0.5-1.4c-0.4-0.4-0.8-0.6-1.4-0.8s-1.3-0.4-2.3-0.6c-1.2-0.3-2.2-0.6-3-0.9
			c-0.8-0.3-1.4-0.8-1.9-1.4c-0.5-0.6-0.8-1.4-0.8-2.5c0-0.9,0.2-1.7,0.7-2.4c0.5-0.7,1.2-1.3,2.1-1.7s2.1-0.6,3.5-0.6
			c1,0,1.9,0.1,2.8,0.4c0.9,0.2,1.7,0.6,2.4,1.1l-0.8,1.9c-0.7-0.4-1.4-0.8-2.2-1s-1.5-0.3-2.3-0.3c-1.3,0-2.3,0.2-3,0.7
			c-0.7,0.5-1,1.1-1,1.9c0,0.6,0.2,1,0.6,1.4c0.4,0.3,0.8,0.6,1.4,0.8c0.6,0.2,1.3,0.4,2.3,0.6c1.2,0.3,2.2,0.6,3,0.9
			c0.7,0.3,1.4,0.7,1.9,1.4c0.5,0.6,0.8,1.4,0.8,2.5c0,0.9-0.2,1.6-0.7,2.3s-1.2,1.3-2.1,1.7c-1,0.4-2.1,0.6-3.5,0.6
			C1294.8,491.6,1293.6,491.4,1292.5,491.1z"/>
	</g>
</g>
<g>
	<g>
		<linearGradient id="SVGID_6_" gradientUnits="userSpaceOnUse" x1="23.0758" y1="277.83" x2="349.5258" y2="277.83">
			<stop  offset="0" style="stop-color:#0085FF"/>
			<stop  offset="1" style="stop-color:#FF003D"/>
		</linearGradient>
		<polygon class="st7" points="325.2,313.7 349.5,278.7 324,242 23.1,242 44.1,278.7 24.1,313.7 		"/>
	</g>
	<g>
		<path class="st1" d="M61.4,271.1h2.3v16.3h-2.3V271.1z"/>
		<path class="st1" d="M82.7,271.1v16.3h-1.9L71,275.2v12.2h-2.3v-16.3h1.9l9.8,12.2v-12.2H82.7z"/>
		<path class="st1" d="M101.6,271.1l-7.2,16.3h-2.3l-7.2-16.3h2.5l5.9,13.4l5.9-13.4H101.6z"/>
		<path class="st1" d="M115.5,285.4v2h-11.9v-16.3h11.5v2H106v5h8.2v2H106v5.3H115.5z"/>
		<path class="st1" d="M120.5,287c-1.1-0.4-2-0.9-2.7-1.5l0.9-1.8c0.6,0.6,1.4,1,2.4,1.4c1,0.4,2,0.5,3,0.5c1.4,0,2.4-0.2,3-0.7
			c0.7-0.5,1-1.1,1-1.8c0-0.6-0.2-1-0.5-1.4s-0.8-0.6-1.4-0.8c-0.5-0.2-1.3-0.4-2.3-0.6c-1.2-0.3-2.2-0.6-3-0.9
			c-0.8-0.3-1.4-0.8-1.9-1.4c-0.5-0.6-0.8-1.4-0.8-2.5c0-0.9,0.2-1.7,0.7-2.4s1.2-1.3,2.1-1.7c0.9-0.4,2.1-0.6,3.5-0.6
			c1,0,1.9,0.1,2.8,0.4c0.9,0.2,1.7,0.6,2.4,1.1l-0.8,1.9c-0.7-0.4-1.4-0.8-2.2-1c-0.8-0.2-1.5-0.3-2.3-0.3c-1.3,0-2.3,0.2-3,0.7
			c-0.7,0.5-1,1.1-1,1.9c0,0.6,0.2,1,0.6,1.4s0.8,0.6,1.4,0.8c0.6,0.2,1.3,0.4,2.3,0.6c1.2,0.3,2.2,0.6,3,0.9
			c0.7,0.3,1.4,0.7,1.9,1.4c0.5,0.6,0.8,1.4,0.8,2.5c0,0.9-0.2,1.6-0.7,2.3c-0.5,0.7-1.2,1.3-2.1,1.7s-2.1,0.6-3.5,0.6
			C122.9,287.6,121.7,287.4,120.5,287z"/>
		<path class="st1" d="M136.8,273.1h-5.6v-2h13.5v2h-5.6v14.3h-2.3V273.1z"/>
		<path class="st1" d="M147.3,271.1h2.3v16.3h-2.3V271.1z"/>
		<path class="st1" d="M165.8,279.1h2.2v6.4c-0.8,0.7-1.8,1.2-2.8,1.5c-1.1,0.4-2.2,0.5-3.4,0.5c-1.6,0-3.1-0.4-4.5-1.1
			s-2.4-1.7-3.1-3c-0.8-1.3-1.1-2.7-1.1-4.3s0.4-3,1.1-4.3c0.8-1.3,1.8-2.3,3.1-3c1.3-0.7,2.8-1.1,4.5-1.1c1.3,0,2.5,0.2,3.6,0.6
			c1.1,0.4,2,1.1,2.7,1.9l-1.4,1.4c-1.3-1.3-2.9-1.9-4.7-1.9c-1.2,0-2.4,0.3-3.3,0.8c-1,0.5-1.8,1.3-2.3,2.2c-0.6,1-0.8,2-0.8,3.2
			c0,1.2,0.3,2.3,0.8,3.2c0.6,1,1.3,1.7,2.3,2.3c1,0.5,2.1,0.8,3.3,0.8c1.5,0,2.7-0.4,3.8-1.1V279.1z"/>
		<path class="st1" d="M183,283.3h-8.7l-1.8,4.1h-2.4l7.4-16.3h2.3l7.4,16.3h-2.5L183,283.3z M182.1,281.4l-3.5-8l-3.5,8H182.1z"/>
		<path class="st1" d="M189.6,271.1h6.9c1.7,0,3.3,0.3,4.6,1c1.3,0.7,2.4,1.6,3.1,2.9c0.7,1.2,1.1,2.7,1.1,4.3c0,1.6-0.4,3-1.1,4.3
			c-0.7,1.2-1.8,2.2-3.1,2.9c-1.3,0.7-2.9,1-4.6,1h-6.9V271.1z M196.4,285.4c1.3,0,2.5-0.3,3.5-0.8c1-0.5,1.8-1.2,2.3-2.2
			c0.5-0.9,0.8-2,0.8-3.2s-0.3-2.3-0.8-3.2c-0.5-0.9-1.3-1.6-2.3-2.2c-1-0.5-2.2-0.8-3.5-0.8H192v12.3H196.4z"/>
		<path class="st1" d="M211.8,286.5c-1.3-0.7-2.4-1.7-3.1-3c-0.8-1.3-1.1-2.7-1.1-4.3s0.4-3,1.1-4.3c0.8-1.3,1.8-2.3,3.1-3
			s2.8-1.1,4.5-1.1c1.6,0,3.1,0.4,4.4,1.1c1.3,0.7,2.4,1.7,3.1,3c0.7,1.3,1.1,2.7,1.1,4.3s-0.4,3-1.1,4.3c-0.7,1.3-1.8,2.3-3.1,3
			c-1.3,0.7-2.8,1.1-4.4,1.1C214.6,287.6,213.2,287.2,211.8,286.5z M219.5,284.7c1-0.5,1.7-1.3,2.3-2.3c0.6-1,0.8-2,0.8-3.2
			s-0.3-2.3-0.8-3.2c-0.6-1-1.3-1.7-2.3-2.3c-1-0.5-2-0.8-3.2-0.8s-2.3,0.3-3.3,0.8c-1,0.5-1.7,1.3-2.3,2.3s-0.8,2-0.8,3.2
			s0.3,2.3,0.8,3.2s1.3,1.7,2.3,2.3c1,0.5,2.1,0.8,3.3,0.8S218.6,285.2,219.5,284.7z"/>
		<path class="st1" d="M239.4,287.4l-3.5-5c-0.4,0-0.8,0-1,0h-4v5h-2.3v-16.3h6.4c2.1,0,3.8,0.5,5,1.5c1.2,1,1.8,2.4,1.8,4.2
			c0,1.3-0.3,2.3-0.9,3.2c-0.6,0.9-1.5,1.5-2.7,1.9l3.9,5.5H239.4z M238.2,279.5c0.8-0.6,1.2-1.5,1.2-2.7c0-1.2-0.4-2.1-1.2-2.7
			s-1.9-0.9-3.4-0.9h-4v7.4h4C236.3,280.4,237.4,280.1,238.2,279.5z"/>
		<path class="st1" d="M257.4,285.4v2h-11.9v-16.3H257v2h-9.2v5h8.2v2h-8.2v5.3H257.4z"/>
		<path class="st1" d="M262.3,287c-1.1-0.4-2-0.9-2.7-1.5l0.9-1.8c0.6,0.6,1.4,1,2.4,1.4c1,0.4,2,0.5,3,0.5c1.4,0,2.4-0.2,3-0.7
			c0.7-0.5,1-1.1,1-1.8c0-0.6-0.2-1-0.5-1.4s-0.8-0.6-1.4-0.8c-0.5-0.2-1.3-0.4-2.3-0.6c-1.2-0.3-2.2-0.6-3-0.9
			c-0.8-0.3-1.4-0.8-1.9-1.4c-0.5-0.6-0.8-1.4-0.8-2.5c0-0.9,0.2-1.7,0.7-2.4s1.2-1.3,2.1-1.7c0.9-0.4,2.1-0.6,3.5-0.6
			c1,0,1.9,0.1,2.8,0.4c0.9,0.2,1.7,0.6,2.4,1.1l-0.8,1.9c-0.7-0.4-1.4-0.8-2.2-1c-0.8-0.2-1.5-0.3-2.3-0.3c-1.3,0-2.3,0.2-3,0.7
			c-0.7,0.5-1,1.1-1,1.9c0,0.6,0.2,1,0.6,1.4s0.8,0.6,1.4,0.8c0.6,0.2,1.3,0.4,2.3,0.6c1.2,0.3,2.2,0.6,3,0.9
			c0.7,0.3,1.4,0.7,1.9,1.4c0.5,0.6,0.8,1.4,0.8,2.5c0,0.9-0.2,1.6-0.7,2.3c-0.5,0.7-1.2,1.3-2.1,1.7s-2.1,0.6-3.5,0.6
			C264.7,287.6,263.5,287.4,262.3,287z"/>
	</g>
</g>
<g>
	<g>
		<linearGradient id="SVGID_7_" gradientUnits="userSpaceOnUse" x1="19" y1="378.0922" x2="349.5258" y2="378.0922">
			<stop  offset="0" style="stop-color:#0085FF"/>
			<stop  offset="1" style="stop-color:#FF003D"/>
		</linearGradient>
		<polygon class="st8" points="349.5,379.4 316,331.4 19,331.4 19,335.5 44.1,379.4 19,423.3 19,424.8 317.8,424.8 		"/>
	</g>
	<g>
		<path class="st1" d="M72.8,358.6c1.2,1,1.8,2.4,1.8,4.2c0,1.8-0.6,3.2-1.8,4.2s-2.9,1.5-5,1.5h-4v4.9h-2.3v-16.3h6.4
			C69.9,357.1,71.5,357.6,72.8,358.6z M71.1,365.5c0.8-0.6,1.2-1.5,1.2-2.7s-0.4-2.1-1.2-2.7c-0.8-0.6-1.9-0.9-3.4-0.9h-4v7.3h4
			C69.2,366.4,70.3,366.1,71.1,365.5z"/>
		<path class="st1" d="M88.9,373.4l-3.5-5c-0.4,0-0.8,0-1,0h-4v5H78v-16.3h6.4c2.1,0,3.8,0.5,5,1.5c1.2,1,1.8,2.4,1.8,4.2
			c0,1.3-0.3,2.3-0.9,3.2c-0.6,0.9-1.5,1.5-2.7,1.9l3.9,5.5H88.9z M87.7,365.5c0.8-0.6,1.2-1.5,1.2-2.7s-0.4-2.1-1.2-2.7
			c-0.8-0.6-1.9-0.9-3.4-0.9h-4v7.4h4C85.8,366.4,86.9,366.1,87.7,365.5z"/>
		<path class="st1" d="M97.9,372.5c-1.3-0.7-2.4-1.7-3.1-3c-0.8-1.3-1.1-2.7-1.1-4.3c0-1.6,0.4-3,1.1-4.3c0.8-1.3,1.8-2.3,3.1-3
			s2.8-1.1,4.5-1.1c1.6,0,3.1,0.4,4.4,1.1c1.3,0.7,2.4,1.7,3.1,3s1.1,2.7,1.1,4.3c0,1.6-0.4,3-1.1,4.3c-0.7,1.3-1.8,2.3-3.1,3
			c-1.3,0.7-2.8,1.1-4.4,1.1C100.7,373.6,99.2,373.2,97.9,372.5z M105.6,370.7c1-0.5,1.7-1.3,2.3-2.3c0.6-1,0.8-2,0.8-3.2
			s-0.3-2.3-0.8-3.2c-0.6-1-1.3-1.7-2.3-2.3s-2-0.8-3.2-0.8s-2.3,0.3-3.3,0.8s-1.7,1.3-2.3,2.3s-0.8,2-0.8,3.2s0.3,2.3,0.8,3.2
			s1.3,1.7,2.3,2.3c1,0.5,2.1,0.8,3.3,0.8S104.6,371.2,105.6,370.7z"/>
		<path class="st1" d="M116.9,359.1v5.7h8.2v2h-8.2v6.6h-2.3v-16.3h11.5v2H116.9z"/>
		<path class="st1" d="M141.3,371.4v2h-11.9v-16.3h11.5v2h-9.2v5h8.2v2h-8.2v5.3H141.3z"/>
		<path class="st1" d="M146.3,373c-1.1-0.4-2-0.9-2.7-1.5l0.9-1.8c0.6,0.6,1.4,1,2.4,1.4c1,0.3,2,0.5,3,0.5c1.4,0,2.4-0.2,3-0.7
			c0.7-0.5,1-1.1,1-1.8c0-0.6-0.2-1-0.5-1.4c-0.4-0.4-0.8-0.6-1.4-0.8c-0.5-0.2-1.3-0.4-2.3-0.6c-1.2-0.3-2.2-0.6-3-0.9
			c-0.8-0.3-1.4-0.8-1.9-1.4c-0.5-0.6-0.8-1.4-0.8-2.5c0-0.9,0.2-1.7,0.7-2.4s1.2-1.3,2.1-1.7c0.9-0.4,2.1-0.6,3.5-0.6
			c1,0,1.9,0.1,2.8,0.4c0.9,0.2,1.7,0.6,2.4,1.1l-0.8,1.9c-0.7-0.4-1.4-0.8-2.2-1c-0.8-0.2-1.5-0.3-2.3-0.3c-1.3,0-2.3,0.2-3,0.7
			c-0.7,0.5-1,1.1-1,1.9c0,0.6,0.2,1,0.6,1.4c0.4,0.3,0.8,0.6,1.4,0.8c0.6,0.2,1.3,0.4,2.3,0.6c1.2,0.3,2.2,0.6,3,0.9
			c0.7,0.3,1.4,0.7,1.9,1.4c0.5,0.6,0.8,1.4,0.8,2.5c0,0.9-0.2,1.6-0.7,2.3c-0.5,0.7-1.2,1.3-2.1,1.7s-2.1,0.6-3.5,0.6
			C148.6,373.6,147.4,373.4,146.3,373z"/>
		<path class="st1" d="M159.5,357.1h2.3v16.3h-2.3V357.1z"/>
		<path class="st1" d="M169.7,372.5c-1.3-0.7-2.4-1.7-3.1-3c-0.8-1.3-1.1-2.7-1.1-4.3c0-1.6,0.4-3,1.1-4.3c0.8-1.3,1.8-2.3,3.1-3
			s2.8-1.1,4.5-1.1c1.6,0,3.1,0.4,4.4,1.1c1.3,0.7,2.4,1.7,3.1,3s1.1,2.7,1.1,4.3c0,1.6-0.4,3-1.1,4.3c-0.7,1.3-1.8,2.3-3.1,3
			c-1.3,0.7-2.8,1.1-4.4,1.1C172.5,373.6,171,373.2,169.7,372.5z M177.4,370.7c1-0.5,1.7-1.3,2.3-2.3c0.6-1,0.8-2,0.8-3.2
			s-0.3-2.3-0.8-3.2c-0.6-1-1.3-1.7-2.3-2.3s-2-0.8-3.2-0.8s-2.3,0.3-3.3,0.8s-1.7,1.3-2.3,2.3s-0.8,2-0.8,3.2s0.3,2.3,0.8,3.2
			s1.3,1.7,2.3,2.3c1,0.5,2.1,0.8,3.3,0.8S176.4,371.2,177.4,370.7z"/>
		<path class="st1" d="M200.4,357.1v16.3h-1.9l-9.8-12.2v12.2h-2.3v-16.3h1.9l9.8,12.2v-12.2H200.4z"/>
		<path class="st1" d="M215.8,369.3h-8.7l-1.8,4.1h-2.4l7.4-16.3h2.3l7.4,16.3h-2.5L215.8,369.3z M214.9,367.4l-3.5-8l-3.5,8H214.9z
			"/>
		<path class="st1" d="M222.4,357.1h2.3v14.3h8.8v2h-11.2V357.1z"/>
		<path class="st1" d="M248.2,371.4v2h-11.9v-16.3h11.5v2h-9.2v5h8.2v2h-8.2v5.3H248.2z"/>
		<path class="st1" d="M253.1,373c-1.1-0.4-2-0.9-2.7-1.5l0.9-1.8c0.6,0.6,1.4,1,2.4,1.4c1,0.3,2,0.5,3,0.5c1.4,0,2.4-0.2,3-0.7
			c0.7-0.5,1-1.1,1-1.8c0-0.6-0.2-1-0.5-1.4c-0.4-0.4-0.8-0.6-1.4-0.8c-0.5-0.2-1.3-0.4-2.3-0.6c-1.2-0.3-2.2-0.6-3-0.9
			c-0.8-0.3-1.4-0.8-1.9-1.4c-0.5-0.6-0.8-1.4-0.8-2.5c0-0.9,0.2-1.7,0.7-2.4s1.2-1.3,2.1-1.7c0.9-0.4,2.1-0.6,3.5-0.6
			c1,0,1.9,0.1,2.8,0.4c0.9,0.2,1.7,0.6,2.4,1.1l-0.8,1.9c-0.7-0.4-1.4-0.8-2.2-1c-0.8-0.2-1.5-0.3-2.3-0.3c-1.3,0-2.3,0.2-3,0.7
			c-0.7,0.5-1,1.1-1,1.9c0,0.6,0.2,1,0.6,1.4c0.4,0.3,0.8,0.6,1.4,0.8c0.6,0.2,1.3,0.4,2.3,0.6c1.2,0.3,2.2,0.6,3,0.9
			c0.7,0.3,1.4,0.7,1.9,1.4c0.5,0.6,0.8,1.4,0.8,2.5c0,0.9-0.2,1.6-0.7,2.3c-0.5,0.7-1.2,1.3-2.1,1.7s-2.1,0.6-3.5,0.6
			C255.5,373.6,254.3,373.4,253.1,373z"/>
		<path class="st1" d="M76.5,401.4l0-11.9l-5.9,9.9h-1.1l-5.9-9.9v11.8h-2.2v-16.3h1.9l6.8,11.5l6.7-11.5h1.9l0,16.3H76.5z"/>
		<path class="st1" d="M95.5,399.4v2H83.7v-16.3h11.5v2H86v5h8.2v2H86v5.3H95.5z M90.9,380.7h2.8l-3.9,3h-2.1L90.9,380.7z"/>
		<path class="st1" d="M99.3,385.1h6.9c1.7,0,3.3,0.3,4.6,1c1.3,0.7,2.4,1.6,3.1,2.9c0.7,1.2,1.1,2.7,1.1,4.3s-0.4,3-1.1,4.3
			c-0.7,1.2-1.8,2.2-3.1,2.9c-1.3,0.7-2.9,1-4.6,1h-6.9V385.1z M106.1,399.4c1.3,0,2.5-0.3,3.5-0.8c1-0.5,1.8-1.2,2.3-2.2
			s0.8-2,0.8-3.2s-0.3-2.3-0.8-3.2s-1.3-1.6-2.3-2.2c-1-0.5-2.2-0.8-3.5-0.8h-4.4v12.3H106.1z"/>
		<path class="st1" d="M118.6,385.1h2.3v16.3h-2.3V385.1z"/>
		<path class="st1" d="M128.7,400.5c-1.3-0.7-2.3-1.7-3.1-3c-0.7-1.3-1.1-2.7-1.1-4.3c0-1.6,0.4-3,1.1-4.3c0.7-1.3,1.8-2.3,3.1-3
			c1.3-0.7,2.8-1.1,4.4-1.1c1.3,0,2.4,0.2,3.5,0.6c1.1,0.4,2,1.1,2.7,1.9l-1.5,1.5c-1.2-1.3-2.8-1.9-4.6-1.9c-1.2,0-2.3,0.3-3.3,0.8
			c-1,0.5-1.7,1.3-2.3,2.3s-0.8,2-0.8,3.2s0.3,2.3,0.8,3.2s1.3,1.7,2.3,2.3c1,0.5,2.1,0.8,3.3,0.8c1.8,0,3.4-0.7,4.6-2l1.5,1.5
			c-0.7,0.8-1.7,1.5-2.7,1.9c-1.1,0.4-2.2,0.7-3.5,0.7C131.5,401.6,130,401.2,128.7,400.5z"/>
		<path class="st1" d="M145.3,400.5c-1.3-0.7-2.4-1.7-3.1-3c-0.8-1.3-1.1-2.7-1.1-4.3c0-1.6,0.4-3,1.1-4.3c0.8-1.3,1.8-2.3,3.1-3
			s2.8-1.1,4.5-1.1c1.6,0,3.1,0.4,4.4,1.1c1.3,0.7,2.4,1.7,3.1,3s1.1,2.7,1.1,4.3c0,1.6-0.4,3-1.1,4.3c-0.7,1.3-1.8,2.3-3.1,3
			c-1.3,0.7-2.8,1.1-4.4,1.1C148.1,401.6,146.6,401.2,145.3,400.5z M153,398.7c1-0.5,1.7-1.3,2.3-2.3c0.6-1,0.8-2,0.8-3.2
			s-0.3-2.3-0.8-3.2c-0.6-1-1.3-1.7-2.3-2.3s-2-0.8-3.2-0.8s-2.3,0.3-3.3,0.8s-1.7,1.3-2.3,2.3s-0.8,2-0.8,3.2s0.3,2.3,0.8,3.2
			s1.3,1.7,2.3,2.3c1,0.5,2.1,0.8,3.3,0.8S152,399.2,153,398.7z"/>
		<path class="st1" d="M163.2,401c-1.1-0.4-2-0.9-2.7-1.5l0.9-1.8c0.6,0.6,1.4,1,2.4,1.4c1,0.3,2,0.5,3,0.5c1.4,0,2.4-0.2,3-0.7
			c0.7-0.5,1-1.1,1-1.8c0-0.6-0.2-1-0.5-1.4c-0.4-0.4-0.8-0.6-1.4-0.8c-0.5-0.2-1.3-0.4-2.3-0.6c-1.2-0.3-2.2-0.6-3-0.9
			c-0.8-0.3-1.4-0.8-1.9-1.4c-0.5-0.6-0.8-1.4-0.8-2.5c0-0.9,0.2-1.7,0.7-2.4s1.2-1.3,2.1-1.7c0.9-0.4,2.1-0.6,3.5-0.6
			c1,0,1.9,0.1,2.8,0.4s1.7,0.6,2.4,1.1l-0.8,1.9c-0.7-0.4-1.4-0.8-2.2-1c-0.8-0.2-1.5-0.3-2.3-0.3c-1.3,0-2.3,0.2-3,0.7
			c-0.7,0.5-1,1.1-1,1.9c0,0.6,0.2,1,0.6,1.4c0.4,0.3,0.8,0.6,1.4,0.8c0.6,0.2,1.3,0.4,2.3,0.6c1.2,0.3,2.2,0.6,3,0.9
			c0.7,0.3,1.4,0.7,1.9,1.4c0.5,0.6,0.8,1.4,0.8,2.5c0,0.9-0.2,1.6-0.7,2.3c-0.5,0.7-1.2,1.3-2.1,1.7s-2.1,0.6-3.5,0.6
			C165.5,401.6,164.3,401.4,163.2,401z"/>
	</g>
</g>
<g>
	<linearGradient id="SVGID_8_" gradientUnits="userSpaceOnUse" x1="56.7933" y1="476.6772" x2="383.2434" y2="476.6772">
		<stop  offset="0" style="stop-color:#0085FF"/>
		<stop  offset="1" style="stop-color:#FF003D"/>
	</linearGradient>
	<polygon class="st9" points="357.7,440.8 56.8,440.8 77.8,477.5 57.8,512.6 358.9,512.6 383.2,477.5 	"/>
	<g>
		<path class="st1" d="M98,485.4c-1.3-0.7-2.4-1.7-3.1-3c-0.8-1.3-1.1-2.7-1.1-4.3c0-1.6,0.4-3,1.1-4.3c0.8-1.3,1.8-2.3,3.1-3
			s2.8-1.1,4.5-1.1c1.6,0,3.1,0.4,4.4,1.1c1.3,0.7,2.4,1.7,3.1,3s1.1,2.7,1.1,4.3c0,1.6-0.4,3-1.1,4.3c-0.7,1.3-1.8,2.3-3.1,3
			c-1.3,0.7-2.8,1.1-4.4,1.1C100.8,486.4,99.3,486.1,98,485.4z M105.7,483.5c1-0.5,1.7-1.3,2.3-2.3c0.6-1,0.8-2,0.8-3.2
			s-0.3-2.3-0.8-3.2c-0.6-1-1.3-1.7-2.3-2.3s-2-0.8-3.2-0.8s-2.3,0.3-3.3,0.8s-1.7,1.3-2.3,2.3s-0.8,2-0.8,3.2s0.3,2.3,0.8,3.2
			s1.3,1.7,2.3,2.3c1,0.5,2.1,0.8,3.3,0.8S104.8,484.1,105.7,483.5z"/>
		<path class="st1" d="M117.7,471.9h-5.6v-2h13.5v2H120v14.3h-2.3V471.9z"/>
		<path class="st1" d="M139.1,486.2l-3.5-5c-0.4,0-0.8,0-1,0h-4v5h-2.3v-16.3h6.4c2.1,0,3.8,0.5,5,1.5c1.2,1,1.8,2.4,1.8,4.2
			c0,1.3-0.3,2.3-0.9,3.2c-0.6,0.9-1.5,1.5-2.7,1.9l3.9,5.5H139.1z M137.9,478.3c0.8-0.6,1.2-1.5,1.2-2.7s-0.4-2.1-1.2-2.7
			c-0.8-0.6-1.9-0.9-3.4-0.9h-4v7.4h4C136,479.3,137.1,479,137.9,478.3z"/>
		<path class="st1" d="M155.6,482.2h-8.7l-1.8,4.1h-2.4l7.4-16.3h2.3l7.4,16.3h-2.5L155.6,482.2z M154.7,480.3l-3.5-8l-3.5,8H154.7z
			"/>
		<path class="st1" d="M163.4,485.9c-1.1-0.4-2-0.9-2.7-1.5l0.9-1.8c0.6,0.6,1.4,1,2.4,1.4c1,0.3,2,0.5,3,0.5c1.4,0,2.4-0.2,3-0.7
			c0.7-0.5,1-1.1,1-1.8c0-0.6-0.2-1-0.5-1.4c-0.4-0.4-0.8-0.6-1.4-0.8c-0.5-0.2-1.3-0.4-2.3-0.6c-1.2-0.3-2.2-0.6-3-0.9
			c-0.8-0.3-1.4-0.8-1.9-1.4c-0.5-0.6-0.8-1.4-0.8-2.5c0-0.9,0.2-1.7,0.7-2.4s1.2-1.3,2.1-1.7c0.9-0.4,2.1-0.6,3.5-0.6
			c1,0,1.9,0.1,2.8,0.4s1.7,0.6,2.4,1.1l-0.8,1.9c-0.7-0.4-1.4-0.8-2.2-1c-0.8-0.2-1.5-0.3-2.3-0.3c-1.3,0-2.3,0.2-3,0.7
			c-0.7,0.5-1,1.1-1,1.9c0,0.6,0.2,1,0.6,1.4c0.4,0.3,0.8,0.6,1.4,0.8c0.6,0.2,1.3,0.4,2.3,0.6c1.2,0.3,2.2,0.6,3,0.9
			c0.7,0.3,1.4,0.7,1.9,1.4c0.5,0.6,0.8,1.4,0.8,2.5c0,0.9-0.2,1.6-0.7,2.3c-0.5,0.7-1.2,1.3-2.1,1.7s-2.1,0.6-3.5,0.6
			C165.8,486.4,164.6,486.2,163.4,485.9z"/>
		<path class="st1" d="M194.9,484.2v2H183v-16.3h11.5v2h-9.2v5h8.2v2h-8.2v5.3H194.9z"/>
		<path class="st1" d="M213.8,486.2l0-11.9l-5.9,9.9h-1.1l-5.9-9.9v11.8h-2.2v-16.3h1.9l6.8,11.5l6.7-11.5h1.9l0,16.3H213.8z"/>
		<path class="st1" d="M232.3,471.4c1.2,1,1.8,2.4,1.8,4.2c0,1.8-0.6,3.2-1.8,4.2s-2.9,1.5-5,1.5h-4v4.9h-2.3v-16.3h6.4
			C229.4,469.9,231.1,470.4,232.3,471.4z M230.6,478.3c0.8-0.6,1.2-1.5,1.2-2.7s-0.4-2.1-1.2-2.7c-0.8-0.6-1.9-0.9-3.4-0.9h-4v7.3h4
			C228.7,479.3,229.9,479,230.6,478.3z"/>
		<path class="st1" d="M248.5,486.2l-3.5-5c-0.4,0-0.8,0-1,0h-4v5h-2.3v-16.3h6.4c2.1,0,3.8,0.5,5,1.5c1.2,1,1.8,2.4,1.8,4.2
			c0,1.3-0.3,2.3-0.9,3.2c-0.6,0.9-1.5,1.5-2.7,1.9l3.9,5.5H248.5z M247.3,478.3c0.8-0.6,1.2-1.5,1.2-2.7s-0.4-2.1-1.2-2.7
			c-0.8-0.6-1.9-0.9-3.4-0.9h-4v7.4h4C245.3,479.3,246.5,479,247.3,478.3z"/>
		<path class="st1" d="M266.4,484.2v2h-11.9v-16.3h11.5v2h-9.2v5h8.2v2h-8.2v5.3H266.4z"/>
		<path class="st1" d="M271.4,485.9c-1.1-0.4-2-0.9-2.7-1.5l0.9-1.8c0.6,0.6,1.4,1,2.4,1.4c1,0.3,2,0.5,3,0.5c1.4,0,2.4-0.2,3-0.7
			c0.7-0.5,1-1.1,1-1.8c0-0.6-0.2-1-0.5-1.4c-0.4-0.4-0.8-0.6-1.4-0.8c-0.5-0.2-1.3-0.4-2.3-0.6c-1.2-0.3-2.2-0.6-3-0.9
			c-0.8-0.3-1.4-0.8-1.9-1.4c-0.5-0.6-0.8-1.4-0.8-2.5c0-0.9,0.2-1.7,0.7-2.4s1.2-1.3,2.1-1.7c0.9-0.4,2.1-0.6,3.5-0.6
			c1,0,1.9,0.1,2.8,0.4s1.7,0.6,2.4,1.1l-0.8,1.9c-0.7-0.4-1.4-0.8-2.2-1c-0.8-0.2-1.5-0.3-2.3-0.3c-1.3,0-2.3,0.2-3,0.7
			c-0.7,0.5-1,1.1-1,1.9c0,0.6,0.2,1,0.6,1.4c0.4,0.3,0.8,0.6,1.4,0.8c0.6,0.2,1.3,0.4,2.3,0.6c1.2,0.3,2.2,0.6,3,0.9
			c0.7,0.3,1.4,0.7,1.9,1.4c0.5,0.6,0.8,1.4,0.8,2.5c0,0.9-0.2,1.6-0.7,2.3c-0.5,0.7-1.2,1.3-2.1,1.7s-2.1,0.6-3.5,0.6
			C273.7,486.4,272.5,486.2,271.4,485.9z"/>
		<path class="st1" d="M295.1,482.2h-8.7l-1.8,4.1h-2.4l7.4-16.3h2.3l7.4,16.3h-2.5L295.1,482.2z M294.3,480.3l-3.5-8l-3.5,8H294.3z
			"/>
		<path class="st1" d="M303,485.9c-1.1-0.4-2-0.9-2.7-1.5l0.9-1.8c0.6,0.6,1.4,1,2.4,1.4c1,0.3,2,0.5,3,0.5c1.4,0,2.4-0.2,3-0.7
			c0.7-0.5,1-1.1,1-1.8c0-0.6-0.2-1-0.5-1.4c-0.4-0.4-0.8-0.6-1.4-0.8c-0.5-0.2-1.3-0.4-2.3-0.6c-1.2-0.3-2.2-0.6-3-0.9
			c-0.8-0.3-1.4-0.8-1.9-1.4c-0.5-0.6-0.8-1.4-0.8-2.5c0-0.9,0.2-1.7,0.7-2.4s1.2-1.3,2.1-1.7c0.9-0.4,2.1-0.6,3.5-0.6
			c1,0,1.9,0.1,2.8,0.4s1.7,0.6,2.4,1.1l-0.8,1.9c-0.7-0.4-1.4-0.8-2.2-1c-0.8-0.2-1.5-0.3-2.3-0.3c-1.3,0-2.3,0.2-3,0.7
			c-0.7,0.5-1,1.1-1,1.9c0,0.6,0.2,1,0.6,1.4c0.4,0.3,0.8,0.6,1.4,0.8c0.6,0.2,1.3,0.4,2.3,0.6c1.2,0.3,2.2,0.6,3,0.9
			c0.7,0.3,1.4,0.7,1.9,1.4c0.5,0.6,0.8,1.4,0.8,2.5c0,0.9-0.2,1.6-0.7,2.3c-0.5,0.7-1.2,1.3-2.1,1.7s-2.1,0.6-3.5,0.6
			C305.3,486.4,304.1,486.2,303,485.9z"/>
	</g>
</g>
<polygon class="st0" points="1040,335.5 975,237.9 975,286 940,286 940,385 975,385 975,433.1 "/>
</svg>
