<?xml version="1.0" encoding="utf-8"?>
<!-- Generator: Adobe Illustrator 23.0.6, SVG Export Plug-In . SVG Version: 6.00 Build 0)  -->
<svg version="1.1" id="Capa_1" xmlns="http://www.w3.org/2000/svg" xmlns:xlink="http://www.w3.org/1999/xlink" x="0px" y="0px"
	 viewBox="0 0 873 422" style="enable-background:new 0 0 873 422;" xml:space="preserve">
<style type="text/css">
	.st0{fill:#FF003D;}
	.st1{fill:url(#SVGID_1_);}
	.st2{fill:#FFFFFF;}
	.st3{fill:url(#SVGID_2_);}
	.st4{fill:url(#SVGID_3_);}
	.st5{fill:url(#SVGID_4_);}
	.st6{fill:url(#SVGID_5_);}
	.st7{fill:url(#SVGID_6_);}
	.st8{fill:url(#SVGID_7_);}
	.st9{fill:url(#SVGID_8_);}
</style>
<circle class="st0" cx="412.3" cy="211.5" r="178.5"/>
<g>
	<g>
		<linearGradient id="SVGID_1_" gradientUnits="userSpaceOnUse" x1="50.781" y1="127.3941" x2="244.7248" y2="127.3941">
			<stop  offset="0" style="stop-color:#0085FF"/>
			<stop  offset="1" style="stop-color:#FF003D"/>
		</linearGradient>
		<polygon class="st1" points="229.9,148.7 244.7,127.4 229.9,106 50.8,106 63,127.4 50.8,148.7 		"/>
	</g>
	<g>
		<path class="st2" d="M80.3,131.4v1.2h-7.1v-9.7h6.9v1.2h-5.5v3h4.9v1.2h-4.9v3.1H80.3z"/>
		<path class="st2" d="M91.6,132.6l0-7.1l-3.5,5.9h-0.6l-3.5-5.9v7h-1.3v-9.7h1.1l4.1,6.8l4-6.8h1.1l0,9.7H91.6z"/>
		<path class="st2" d="M102.6,123.8c0.7,0.6,1.1,1.4,1.1,2.5c0,1.1-0.4,1.9-1.1,2.5c-0.7,0.6-1.7,0.9-3,0.9h-2.4v2.9h-1.4v-9.7h3.8
			C100.9,122.9,101.9,123.2,102.6,123.8z M101.6,127.9c0.5-0.4,0.7-0.9,0.7-1.6c0-0.7-0.2-1.2-0.7-1.6c-0.5-0.4-1.1-0.6-2-0.6h-2.4
			v4.4h2.4C100.5,128.4,101.2,128.2,101.6,127.9z"/>
		<path class="st2" d="M112.2,132.6l-2.1-3c-0.3,0-0.5,0-0.6,0h-2.4v3h-1.4v-9.7h3.8c1.3,0,2.2,0.3,3,0.9c0.7,0.6,1.1,1.4,1.1,2.5
			c0,0.8-0.2,1.4-0.6,1.9c-0.4,0.5-0.9,0.9-1.6,1.2l2.3,3.3H112.2z M111.5,127.9c0.5-0.4,0.7-0.9,0.7-1.6c0-0.7-0.2-1.2-0.7-1.6
			c-0.5-0.4-1.1-0.6-2-0.6h-2.4v4.4h2.4C110.4,128.4,111,128.2,111.5,127.9z"/>
		<path class="st2" d="M122.9,131.4v1.2h-7.1v-9.7h6.9v1.2h-5.5v3h4.9v1.2h-4.9v3.1H122.9z"/>
		<path class="st2" d="M133.5,122.9v9.7h-1.1l-5.8-7.3v7.3h-1.4v-9.7h1.1l5.8,7.2v-7.2H133.5z"/>
		<path class="st2" d="M136.4,122.9h4.1c1,0,1.9,0.2,2.7,0.6c0.8,0.4,1.4,1,1.9,1.7c0.4,0.7,0.7,1.6,0.7,2.5c0,1-0.2,1.8-0.7,2.5
			c-0.4,0.7-1.1,1.3-1.9,1.7c-0.8,0.4-1.7,0.6-2.7,0.6h-4.1V122.9z M140.4,131.4c0.8,0,1.5-0.2,2.1-0.5c0.6-0.3,1.1-0.7,1.4-1.3
			c0.3-0.6,0.5-1.2,0.5-1.9c0-0.7-0.2-1.4-0.5-1.9c-0.3-0.6-0.8-1-1.4-1.3c-0.6-0.3-1.3-0.5-2.1-0.5h-2.6v7.3H140.4z"/>
		<path class="st2" d="M154.9,131.4v1.2h-7.1v-9.7h6.9v1.2h-5.5v3h4.9v1.2h-4.9v3.1H154.9z"/>
		<path class="st2" d="M157.2,122.9h4.1c1,0,1.9,0.2,2.7,0.6c0.8,0.4,1.4,1,1.9,1.7c0.4,0.7,0.7,1.6,0.7,2.5c0,1-0.2,1.8-0.7,2.5
			c-0.4,0.7-1.1,1.3-1.9,1.7c-0.8,0.4-1.7,0.6-2.7,0.6h-4.1V122.9z M161.2,131.4c0.8,0,1.5-0.2,2.1-0.5c0.6-0.3,1.1-0.7,1.4-1.3
			c0.3-0.6,0.5-1.2,0.5-1.9c0-0.7-0.2-1.4-0.5-1.9c-0.3-0.6-0.8-1-1.4-1.3c-0.6-0.3-1.3-0.5-2.1-0.5h-2.6v7.3H161.2z"/>
		<path class="st2" d="M170.4,132c-0.8-0.4-1.4-1-1.9-1.8c-0.4-0.8-0.7-1.6-0.7-2.5c0-0.9,0.2-1.8,0.7-2.5c0.4-0.8,1.1-1.4,1.9-1.8
			c0.8-0.4,1.7-0.6,2.7-0.6c1,0,1.9,0.2,2.6,0.6c0.8,0.4,1.4,1,1.8,1.8c0.4,0.8,0.7,1.6,0.7,2.5s-0.2,1.8-0.7,2.5
			c-0.4,0.8-1.1,1.3-1.8,1.8c-0.8,0.4-1.7,0.6-2.6,0.6C172.1,132.7,171.2,132.5,170.4,132z M175,131c0.6-0.3,1-0.8,1.3-1.3
			c0.3-0.6,0.5-1.2,0.5-1.9c0-0.7-0.2-1.3-0.5-1.9c-0.3-0.6-0.8-1-1.3-1.3c-0.6-0.3-1.2-0.5-1.9-0.5s-1.4,0.2-1.9,0.5
			c-0.6,0.3-1,0.8-1.4,1.3c-0.3,0.6-0.5,1.2-0.5,1.9c0,0.7,0.2,1.3,0.5,1.9c0.3,0.6,0.8,1,1.4,1.3c0.6,0.3,1.2,0.5,1.9,0.5
			S174.4,131.3,175,131z"/>
		<path class="st2" d="M186.8,132.6l-2.1-3c-0.3,0-0.5,0-0.6,0h-2.4v3h-1.4v-9.7h3.8c1.3,0,2.2,0.3,3,0.9c0.7,0.6,1.1,1.4,1.1,2.5
			c0,0.8-0.2,1.4-0.6,1.9c-0.4,0.5-0.9,0.9-1.6,1.2l2.3,3.3H186.8z M186.1,127.9c0.5-0.4,0.7-0.9,0.7-1.6c0-0.7-0.2-1.2-0.7-1.6
			c-0.5-0.4-1.1-0.6-2-0.6h-2.4v4.4h2.4C185,128.4,185.6,128.2,186.1,127.9z"/>
		<path class="st2" d="M197.5,131.4v1.2h-7.1v-9.7h6.9v1.2h-5.5v3h4.9v1.2h-4.9v3.1H197.5z"/>
		<path class="st2" d="M200.5,132.3c-0.7-0.2-1.2-0.5-1.6-0.9l0.5-1.1c0.4,0.3,0.8,0.6,1.4,0.8c0.6,0.2,1.2,0.3,1.8,0.3
			c0.8,0,1.4-0.1,1.8-0.4c0.4-0.3,0.6-0.6,0.6-1.1c0-0.3-0.1-0.6-0.3-0.8c-0.2-0.2-0.5-0.4-0.8-0.5c-0.3-0.1-0.8-0.2-1.4-0.4
			c-0.7-0.2-1.3-0.4-1.8-0.5c-0.4-0.2-0.8-0.4-1.2-0.8c-0.3-0.4-0.5-0.9-0.5-1.5c0-0.5,0.1-1,0.4-1.4s0.7-0.8,1.2-1
			c0.6-0.3,1.2-0.4,2.1-0.4c0.6,0,1.1,0.1,1.7,0.2c0.6,0.1,1,0.4,1.4,0.6l-0.5,1.1c-0.4-0.3-0.8-0.5-1.3-0.6
			c-0.5-0.1-0.9-0.2-1.4-0.2c-0.8,0-1.4,0.1-1.8,0.4c-0.4,0.3-0.6,0.7-0.6,1.1c0,0.3,0.1,0.6,0.3,0.8c0.2,0.2,0.5,0.4,0.8,0.5
			c0.3,0.1,0.8,0.2,1.3,0.4c0.7,0.2,1.3,0.4,1.8,0.5c0.4,0.2,0.8,0.4,1.1,0.8c0.3,0.4,0.5,0.8,0.5,1.5c0,0.5-0.1,1-0.4,1.4
			c-0.3,0.4-0.7,0.8-1.3,1c-0.6,0.2-1.3,0.4-2.1,0.4C201.8,132.7,201.1,132.6,200.5,132.3z"/>
	</g>
</g>
<g>
	<g>
		<g>
			<linearGradient id="SVGID_2_" gradientUnits="userSpaceOnUse" x1="587.3098" y1="127.3941" x2="781.2537" y2="127.3941">
				<stop  offset="0" style="stop-color:#FF003D"/>
				<stop  offset="1" style="stop-color:#FFC600"/>
			</linearGradient>
			<polygon class="st3" points="766.4,148.7 781.3,127.4 766.4,106 587.3,106 599.5,127.4 587.3,148.7 			"/>
		</g>
	</g>
	<g>
		<path class="st2" d="M618.8,132.6l0-7.1l-3.5,5.9h-0.6l-3.5-5.9v7h-1.3v-9.7h1.1l4.1,6.8l4-6.8h1.1l0,9.7H618.8z"/>
		<path class="st2" d="M630.1,131.4v1.2h-7.1v-9.7h6.9v1.2h-5.5v3h4.9v1.2h-4.9v3.1H630.1z"/>
		<path class="st2" d="M638.9,132.6l-2.1-3c-0.3,0-0.5,0-0.6,0h-2.4v3h-1.4v-9.7h3.8c1.3,0,2.3,0.3,3,0.9c0.7,0.6,1.1,1.4,1.1,2.5
			c0,0.8-0.2,1.4-0.6,1.9c-0.4,0.5-0.9,0.9-1.6,1.2l2.3,3.3H638.9z M638.1,127.9c0.5-0.4,0.7-0.9,0.7-1.6c0-0.7-0.2-1.2-0.7-1.6
			c-0.5-0.4-1.1-0.6-2-0.6h-2.4v4.4h2.4C637,128.4,637.7,128.2,638.1,127.9z"/>
		<path class="st2" d="M644.2,132c-0.8-0.4-1.4-1-1.8-1.8c-0.4-0.8-0.7-1.6-0.7-2.5s0.2-1.8,0.7-2.5c0.4-0.8,1.1-1.3,1.8-1.8
			c0.8-0.4,1.7-0.6,2.6-0.6c0.8,0,1.5,0.1,2.1,0.4c0.6,0.3,1.2,0.6,1.6,1.1l-0.9,0.9c-0.7-0.8-1.6-1.2-2.7-1.2c-0.7,0-1.4,0.2-2,0.5
			c-0.6,0.3-1,0.8-1.4,1.3c-0.3,0.6-0.5,1.2-0.5,1.9c0,0.7,0.2,1.3,0.5,1.9c0.3,0.6,0.8,1,1.4,1.3c0.6,0.3,1.2,0.5,2,0.5
			c1.1,0,2-0.4,2.7-1.2l0.9,0.9c-0.4,0.5-1,0.9-1.6,1.1c-0.6,0.3-1.3,0.4-2.1,0.4C645.9,132.7,645,132.5,644.2,132z"/>
		<path class="st2" d="M658.5,130.1h-5.2l-1.1,2.4h-1.4l4.4-9.7h1.4l4.4,9.7h-1.5L658.5,130.1z M658,129l-2.1-4.8l-2.1,4.8H658z"/>
		<path class="st2" d="M662.5,122.9h4.1c1,0,1.9,0.2,2.7,0.6c0.8,0.4,1.4,1,1.9,1.7c0.4,0.7,0.7,1.6,0.7,2.5c0,1-0.2,1.8-0.7,2.5
			c-0.4,0.7-1.1,1.3-1.9,1.7c-0.8,0.4-1.7,0.6-2.7,0.6h-4.1V122.9z M666.5,131.4c0.8,0,1.5-0.2,2.1-0.5c0.6-0.3,1.1-0.7,1.4-1.3
			c0.3-0.6,0.5-1.2,0.5-1.9c0-0.7-0.2-1.4-0.5-1.9c-0.3-0.6-0.8-1-1.4-1.3c-0.6-0.3-1.3-0.5-2.1-0.5h-2.6v7.3H666.5z"/>
		<path class="st2" d="M675.7,132c-0.8-0.4-1.4-1-1.9-1.8c-0.4-0.8-0.7-1.6-0.7-2.5c0-0.9,0.2-1.8,0.7-2.5c0.4-0.8,1.1-1.4,1.9-1.8
			c0.8-0.4,1.7-0.6,2.7-0.6c1,0,1.9,0.2,2.6,0.6c0.8,0.4,1.4,1,1.8,1.8c0.4,0.8,0.7,1.6,0.7,2.5s-0.2,1.8-0.7,2.5
			c-0.4,0.8-1.1,1.3-1.8,1.8c-0.8,0.4-1.7,0.6-2.6,0.6C677.3,132.7,676.4,132.5,675.7,132z M680.2,131c0.6-0.3,1-0.8,1.3-1.3
			c0.3-0.6,0.5-1.2,0.5-1.9c0-0.7-0.2-1.3-0.5-1.9c-0.3-0.6-0.8-1-1.3-1.3c-0.6-0.3-1.2-0.5-1.9-0.5s-1.4,0.2-1.9,0.5
			c-0.6,0.3-1,0.8-1.4,1.3c-0.3,0.6-0.5,1.2-0.5,1.9c0,0.7,0.2,1.3,0.5,1.9c0.3,0.6,0.8,1,1.4,1.3c0.6,0.3,1.2,0.5,1.9,0.5
			S679.7,131.3,680.2,131z"/>
		<path class="st2" d="M689.3,122.9h1.4v9.7h-1.4V122.9z"/>
		<path class="st2" d="M702,122.9v9.7h-1.1l-5.8-7.3v7.3h-1.4v-9.7h1.1l5.8,7.2v-7.2H702z"/>
		<path class="st2" d="M706.8,124.1h-3.3v-1.2h8v1.2h-3.3v8.5h-1.4V124.1z"/>
		<path class="st2" d="M720.1,131.4v1.2h-7.1v-9.7h6.9v1.2h-5.5v3h4.9v1.2h-4.9v3.1H720.1z"/>
		<path class="st2" d="M728.9,132.6l-2.1-3c-0.3,0-0.5,0-0.6,0h-2.4v3h-1.4v-9.7h3.8c1.3,0,2.3,0.3,3,0.9c0.7,0.6,1.1,1.4,1.1,2.5
			c0,0.8-0.2,1.4-0.6,1.9c-0.4,0.5-0.9,0.9-1.6,1.2l2.3,3.3H728.9z M728.1,127.9c0.5-0.4,0.7-0.9,0.7-1.6c0-0.7-0.2-1.2-0.7-1.6
			c-0.5-0.4-1.1-0.6-2-0.6h-2.4v4.4h2.4C727,128.4,727.7,128.2,728.1,127.9z"/>
		<path class="st2" d="M740.8,122.9v9.7h-1.1l-5.8-7.3v7.3h-1.4v-9.7h1.1l5.8,7.2v-7.2H740.8z"/>
		<path class="st2" d="M745.5,132c-0.8-0.4-1.4-1-1.9-1.8c-0.4-0.8-0.7-1.6-0.7-2.5c0-0.9,0.2-1.8,0.7-2.5c0.4-0.8,1.1-1.4,1.9-1.8
			c0.8-0.4,1.7-0.6,2.7-0.6c1,0,1.9,0.2,2.6,0.6c0.8,0.4,1.4,1,1.8,1.8c0.4,0.8,0.7,1.6,0.7,2.5s-0.2,1.8-0.7,2.5
			c-0.4,0.8-1.1,1.3-1.8,1.8c-0.8,0.4-1.7,0.6-2.6,0.6C747.1,132.7,746.3,132.5,745.5,132z M750.1,131c0.6-0.3,1-0.8,1.3-1.3
			c0.3-0.6,0.5-1.2,0.5-1.9c0-0.7-0.2-1.3-0.5-1.9c-0.3-0.6-0.8-1-1.3-1.3c-0.6-0.3-1.2-0.5-1.9-0.5s-1.4,0.2-1.9,0.5
			c-0.6,0.3-1,0.8-1.4,1.3c-0.3,0.6-0.5,1.2-0.5,1.9c0,0.7,0.2,1.3,0.5,1.9c0.3,0.6,0.8,1,1.4,1.3c0.6,0.3,1.2,0.5,1.9,0.5
			S749.5,131.3,750.1,131z"/>
	</g>
</g>
<g>
	<g>
		<g>
			<linearGradient id="SVGID_3_" gradientUnits="userSpaceOnUse" x1="602.7421" y1="185.5223" x2="796.6859" y2="185.5223">
				<stop  offset="0" style="stop-color:#FF003D"/>
				<stop  offset="1" style="stop-color:#FFC600"/>
			</linearGradient>
			<polygon class="st4" points="781.9,206.9 796.7,185.5 781.9,164.2 602.7,164.2 614.9,185.5 602.7,206.9 			"/>
		</g>
	</g>
	<g>
		<path class="st2" d="M634.3,190.7l0-7.1l-3.5,5.9h-0.6l-3.5-5.9v7h-1.3V181h1.1l4.1,6.8l4-6.8h1.1l0,9.7H634.3z"/>
		<path class="st2" d="M645.6,189.5v1.2h-7.1V181h6.9v1.2h-5.5v3h4.9v1.2h-4.9v3.1H645.6z"/>
		<path class="st2" d="M654.3,190.7l-2.1-3c-0.3,0-0.5,0-0.6,0h-2.4v3h-1.4V181h3.8c1.3,0,2.3,0.3,3,0.9c0.7,0.6,1.1,1.4,1.1,2.5
			c0,0.8-0.2,1.4-0.6,1.9c-0.4,0.5-0.9,0.9-1.6,1.2l2.3,3.3H654.3z M653.6,186c0.5-0.4,0.7-0.9,0.7-1.6c0-0.7-0.2-1.2-0.7-1.6
			c-0.5-0.4-1.1-0.6-2-0.6h-2.4v4.4h2.4C652.4,186.6,653.1,186.4,653.6,186z"/>
		<path class="st2" d="M659.6,190.2c-0.8-0.4-1.4-1-1.8-1.8c-0.4-0.8-0.7-1.6-0.7-2.5s0.2-1.8,0.7-2.5c0.4-0.8,1.1-1.3,1.8-1.8
			c0.8-0.4,1.7-0.6,2.6-0.6c0.8,0,1.5,0.1,2.1,0.4c0.6,0.3,1.2,0.6,1.6,1.1l-0.9,0.9c-0.7-0.8-1.6-1.2-2.7-1.2c-0.7,0-1.4,0.2-2,0.5
			c-0.6,0.3-1,0.8-1.4,1.3c-0.3,0.6-0.5,1.2-0.5,1.9c0,0.7,0.2,1.3,0.5,1.9c0.3,0.6,0.8,1,1.4,1.3c0.6,0.3,1.2,0.5,2,0.5
			c1.1,0,2-0.4,2.7-1.2l0.9,0.9c-0.4,0.5-1,0.9-1.6,1.1c-0.6,0.3-1.3,0.4-2.1,0.4C661.3,190.8,660.4,190.6,659.6,190.2z"/>
		<path class="st2" d="M673.9,188.3h-5.2l-1.1,2.4h-1.4l4.4-9.7h1.4l4.4,9.7H675L673.9,188.3z M673.4,187.2l-2.1-4.8l-2.1,4.8H673.4
			z"/>
		<path class="st2" d="M677.9,181h4.1c1,0,1.9,0.2,2.7,0.6c0.8,0.4,1.4,1,1.9,1.7c0.4,0.7,0.7,1.6,0.7,2.5c0,1-0.2,1.8-0.7,2.5
			c-0.4,0.7-1.1,1.3-1.9,1.7c-0.8,0.4-1.7,0.6-2.7,0.6h-4.1V181z M681.9,189.5c0.8,0,1.5-0.2,2.1-0.5c0.6-0.3,1.1-0.7,1.4-1.3
			c0.3-0.6,0.5-1.2,0.5-1.9c0-0.7-0.2-1.4-0.5-1.9c-0.3-0.6-0.8-1-1.4-1.3c-0.6-0.3-1.3-0.5-2.1-0.5h-2.6v7.3H681.9z"/>
		<path class="st2" d="M691.1,190.2c-0.8-0.4-1.4-1-1.9-1.8c-0.4-0.8-0.7-1.6-0.7-2.5c0-0.9,0.2-1.8,0.7-2.5
			c0.4-0.8,1.1-1.4,1.9-1.8c0.8-0.4,1.7-0.6,2.7-0.6c1,0,1.9,0.2,2.6,0.6c0.8,0.4,1.4,1,1.8,1.8c0.4,0.8,0.7,1.6,0.7,2.5
			s-0.2,1.8-0.7,2.5c-0.4,0.8-1.1,1.3-1.8,1.8c-0.8,0.4-1.7,0.6-2.6,0.6C692.8,190.8,691.9,190.6,691.1,190.2z M695.7,189.1
			c0.6-0.3,1-0.8,1.3-1.3c0.3-0.6,0.5-1.2,0.5-1.9c0-0.7-0.2-1.3-0.5-1.9c-0.3-0.6-0.8-1-1.3-1.3c-0.6-0.3-1.2-0.5-1.9-0.5
			c-0.7,0-1.4,0.2-1.9,0.5c-0.6,0.3-1,0.8-1.4,1.3c-0.3,0.6-0.5,1.2-0.5,1.9c0,0.7,0.2,1.3,0.5,1.9c0.3,0.6,0.8,1,1.4,1.3
			c0.6,0.3,1.2,0.5,1.9,0.5C694.5,189.6,695.1,189.4,695.7,189.1z"/>
		<path class="st2" d="M711.3,190.7l-2.1-3c-0.3,0-0.5,0-0.6,0h-2.4v3h-1.4V181h3.8c1.3,0,2.3,0.3,3,0.9c0.7,0.6,1.1,1.4,1.1,2.5
			c0,0.8-0.2,1.4-0.6,1.9c-0.4,0.5-0.9,0.9-1.6,1.2l2.3,3.3H711.3z M710.5,186c0.5-0.4,0.7-0.9,0.7-1.6c0-0.7-0.2-1.2-0.7-1.6
			c-0.5-0.4-1.1-0.6-2-0.6h-2.4v4.4h2.4C709.4,186.6,710.1,186.4,710.5,186z"/>
		<path class="st2" d="M721.9,189.5v1.2h-7.1V181h6.9v1.2h-5.5v3h4.9v1.2h-4.9v3.1H721.9z"/>
		<path class="st2" d="M730.9,185.8h1.3v3.8c-0.5,0.4-1,0.7-1.7,0.9c-0.6,0.2-1.3,0.3-2,0.3c-1,0-1.9-0.2-2.7-0.6
			c-0.8-0.4-1.4-1-1.9-1.8c-0.4-0.8-0.7-1.6-0.7-2.5s0.2-1.8,0.7-2.6c0.4-0.8,1.1-1.4,1.9-1.8c0.8-0.4,1.7-0.6,2.7-0.6
			c0.8,0,1.5,0.1,2.1,0.4c0.6,0.3,1.2,0.6,1.6,1.1l-0.9,0.9c-0.8-0.7-1.7-1.1-2.8-1.1c-0.7,0-1.4,0.2-2,0.5c-0.6,0.3-1,0.8-1.4,1.3
			c-0.3,0.6-0.5,1.2-0.5,1.9c0,0.7,0.2,1.3,0.5,1.9c0.3,0.6,0.8,1,1.4,1.3c0.6,0.3,1.2,0.5,2,0.5c0.9,0,1.6-0.2,2.3-0.6V185.8z"/>
		<path class="st2" d="M734.8,181h1.4v9.7h-1.4V181z"/>
		<path class="st2" d="M740.9,190.2c-0.8-0.4-1.4-1-1.9-1.8c-0.4-0.8-0.7-1.6-0.7-2.5c0-0.9,0.2-1.8,0.7-2.5
			c0.4-0.8,1.1-1.4,1.9-1.8c0.8-0.4,1.7-0.6,2.7-0.6c1,0,1.9,0.2,2.6,0.6c0.8,0.4,1.4,1,1.8,1.8c0.4,0.8,0.7,1.6,0.7,2.5
			s-0.2,1.8-0.7,2.5c-0.4,0.8-1.1,1.3-1.8,1.8c-0.8,0.4-1.7,0.6-2.6,0.6C742.6,190.8,741.7,190.6,740.9,190.2z M745.5,189.1
			c0.6-0.3,1-0.8,1.3-1.3c0.3-0.6,0.5-1.2,0.5-1.9c0-0.7-0.2-1.3-0.5-1.9c-0.3-0.6-0.8-1-1.3-1.3c-0.6-0.3-1.2-0.5-1.9-0.5
			s-1.4,0.2-1.9,0.5c-0.6,0.3-1,0.8-1.4,1.3c-0.3,0.6-0.5,1.2-0.5,1.9c0,0.7,0.2,1.3,0.5,1.9c0.3,0.6,0.8,1,1.4,1.3
			c0.6,0.3,1.2,0.5,1.9,0.5S744.9,189.4,745.5,189.1z"/>
		<path class="st2" d="M759.2,181v9.7H758l-5.8-7.3v7.3h-1.4V181h1.1l5.8,7.2V181H759.2z"/>
		<path class="st2" d="M768.3,188.3h-5.2l-1.1,2.4h-1.4l4.4-9.7h1.4l4.4,9.7h-1.5L768.3,188.3z M767.8,187.2l-2.1-4.8l-2.1,4.8
			H767.8z"/>
		<path class="st2" d="M772.3,181h1.4v8.5h5.3v1.2h-6.7V181z"/>
	</g>
</g>
<g>
	<g>
		<g>
			<linearGradient id="SVGID_4_" gradientUnits="userSpaceOnUse" x1="602.7421" y1="243.6506" x2="842.4684" y2="243.6506">
				<stop  offset="0" style="stop-color:#FF003D"/>
				<stop  offset="1" style="stop-color:#FFC600"/>
			</linearGradient>
			<polygon class="st5" points="827.7,265 842.5,243.7 827.7,222.3 602.7,222.3 614.9,243.7 602.7,265 			"/>
		</g>
	</g>
	<g>
		<path class="st2" d="M634.3,248.8l0-7.1l-3.5,5.9h-0.6l-3.5-5.9v7h-1.3v-9.7h1.1l4.1,6.8l4-6.8h1.1l0,9.7H634.3z"/>
		<path class="st2" d="M645.6,247.6v1.2h-7.1v-9.7h6.9v1.2h-5.5v3h4.9v1.2h-4.9v3.1H645.6z"/>
		<path class="st2" d="M654.3,248.8l-2.1-3c-0.3,0-0.5,0-0.6,0h-2.4v3h-1.4v-9.7h3.8c1.3,0,2.3,0.3,3,0.9c0.7,0.6,1.1,1.4,1.1,2.5
			c0,0.8-0.2,1.4-0.6,1.9c-0.4,0.5-0.9,0.9-1.6,1.2l2.3,3.3H654.3z M653.6,244.1c0.5-0.4,0.7-0.9,0.7-1.6s-0.2-1.2-0.7-1.6
			c-0.5-0.4-1.1-0.6-2-0.6h-2.4v4.4h2.4C652.4,244.7,653.1,244.5,653.6,244.1z"/>
		<path class="st2" d="M659.6,248.3c-0.8-0.4-1.4-1-1.8-1.8c-0.4-0.8-0.7-1.6-0.7-2.5c0-0.9,0.2-1.8,0.7-2.5s1.1-1.3,1.8-1.8
			c0.8-0.4,1.7-0.6,2.6-0.6c0.8,0,1.5,0.1,2.1,0.4c0.6,0.3,1.2,0.6,1.6,1.1l-0.9,0.9c-0.7-0.8-1.6-1.2-2.7-1.2c-0.7,0-1.4,0.2-2,0.5
			s-1,0.8-1.4,1.3c-0.3,0.6-0.5,1.2-0.5,1.9c0,0.7,0.2,1.3,0.5,1.9c0.3,0.6,0.8,1,1.4,1.3c0.6,0.3,1.2,0.5,2,0.5
			c1.1,0,2-0.4,2.7-1.2l0.9,0.9c-0.4,0.5-1,0.9-1.6,1.1c-0.6,0.3-1.3,0.4-2.1,0.4C661.3,248.9,660.4,248.7,659.6,248.3z"/>
		<path class="st2" d="M673.9,246.4h-5.2l-1.1,2.4h-1.4l4.4-9.7h1.4l4.4,9.7H675L673.9,246.4z M673.4,245.3l-2.1-4.8l-2.1,4.8H673.4
			z"/>
		<path class="st2" d="M677.9,239.1h4.1c1,0,1.9,0.2,2.7,0.6c0.8,0.4,1.4,1,1.9,1.7c0.4,0.7,0.7,1.6,0.7,2.5c0,1-0.2,1.8-0.7,2.5
			c-0.4,0.7-1.1,1.3-1.9,1.7c-0.8,0.4-1.7,0.6-2.7,0.6h-4.1V239.1z M681.9,247.6c0.8,0,1.5-0.2,2.1-0.5c0.6-0.3,1.1-0.7,1.4-1.3
			c0.3-0.6,0.5-1.2,0.5-1.9c0-0.7-0.2-1.4-0.5-1.9c-0.3-0.6-0.8-1-1.4-1.3c-0.6-0.3-1.3-0.5-2.1-0.5h-2.6v7.3H681.9z"/>
		<path class="st2" d="M691.1,248.3c-0.8-0.4-1.4-1-1.9-1.8c-0.4-0.8-0.7-1.6-0.7-2.5c0-0.9,0.2-1.8,0.7-2.5
			c0.4-0.8,1.1-1.4,1.9-1.8c0.8-0.4,1.7-0.6,2.7-0.6c1,0,1.9,0.2,2.6,0.6c0.8,0.4,1.4,1,1.8,1.8c0.4,0.8,0.7,1.6,0.7,2.5
			c0,0.9-0.2,1.8-0.7,2.5c-0.4,0.8-1.1,1.3-1.8,1.8c-0.8,0.4-1.7,0.6-2.6,0.6C692.8,248.9,691.9,248.7,691.1,248.3z M695.7,247.2
			c0.6-0.3,1-0.8,1.3-1.3c0.3-0.6,0.5-1.2,0.5-1.9c0-0.7-0.2-1.3-0.5-1.9c-0.3-0.6-0.8-1-1.3-1.3c-0.6-0.3-1.2-0.5-1.9-0.5
			c-0.7,0-1.4,0.2-1.9,0.5c-0.6,0.3-1,0.8-1.4,1.3c-0.3,0.6-0.5,1.2-0.5,1.9c0,0.7,0.2,1.3,0.5,1.9c0.3,0.6,0.8,1,1.4,1.3
			c0.6,0.3,1.2,0.5,1.9,0.5C694.5,247.7,695.1,247.5,695.7,247.2z"/>
		<path class="st2" d="M704.8,239.1h1.4v9.7h-1.4V239.1z"/>
		<path class="st2" d="M717.4,239.1v9.7h-1.1l-5.8-7.2v7.2h-1.4v-9.7h1.1l5.8,7.2v-7.2H717.4z"/>
		<path class="st2" d="M722.3,240.3h-3.3v-1.2h8v1.2h-3.3v8.5h-1.4V240.3z"/>
		<path class="st2" d="M735.5,247.6v1.2h-7.1v-9.7h6.9v1.2h-5.5v3h4.9v1.2h-4.9v3.1H735.5z"/>
		<path class="st2" d="M744.3,248.8l-2.1-3c-0.3,0-0.5,0-0.6,0h-2.4v3h-1.4v-9.7h3.8c1.3,0,2.3,0.3,3,0.9c0.7,0.6,1.1,1.4,1.1,2.5
			c0,0.8-0.2,1.4-0.6,1.9c-0.4,0.5-0.9,0.9-1.6,1.2l2.3,3.3H744.3z M743.6,244.1c0.5-0.4,0.7-0.9,0.7-1.6s-0.2-1.2-0.7-1.6
			c-0.5-0.4-1.1-0.6-2-0.6h-2.4v4.4h2.4C742.4,244.7,743.1,244.5,743.6,244.1z"/>
		<path class="st2" d="M756.3,239.1v9.7h-1.1l-5.8-7.2v7.2h-1.4v-9.7h1.1l5.8,7.2v-7.2H756.3z"/>
		<path class="st2" d="M765.4,246.4h-5.2l-1.1,2.4h-1.4l4.4-9.7h1.4l4.4,9.7h-1.5L765.4,246.4z M764.9,245.3l-2.1-4.8l-2.1,4.8
			H764.9z"/>
		<path class="st2" d="M770.9,248.3c-0.8-0.4-1.4-1-1.8-1.8c-0.4-0.8-0.7-1.6-0.7-2.5c0-0.9,0.2-1.8,0.7-2.5
			c0.4-0.8,1.1-1.3,1.8-1.8c0.8-0.4,1.7-0.6,2.6-0.6c0.8,0,1.5,0.1,2.1,0.4c0.6,0.3,1.2,0.6,1.6,1.1l-0.9,0.9
			c-0.7-0.8-1.6-1.2-2.7-1.2c-0.7,0-1.4,0.2-2,0.5c-0.6,0.3-1,0.8-1.4,1.3c-0.3,0.6-0.5,1.2-0.5,1.9c0,0.7,0.2,1.3,0.5,1.9
			c0.3,0.6,0.8,1,1.4,1.3c0.6,0.3,1.2,0.5,2,0.5c1.1,0,2-0.4,2.7-1.2l0.9,0.9c-0.4,0.5-1,0.9-1.6,1.1c-0.6,0.3-1.3,0.4-2.1,0.4
			C772.6,248.9,771.7,248.7,770.9,248.3z"/>
		<path class="st2" d="M779.2,239.1h1.4v9.7h-1.4V239.1z"/>
		<path class="st2" d="M785.3,248.3c-0.8-0.4-1.4-1-1.9-1.8c-0.4-0.8-0.7-1.6-0.7-2.5c0-0.9,0.2-1.8,0.7-2.5
			c0.4-0.8,1.1-1.4,1.9-1.8c0.8-0.4,1.7-0.6,2.7-0.6c1,0,1.9,0.2,2.6,0.6c0.8,0.4,1.4,1,1.8,1.8c0.4,0.8,0.7,1.6,0.7,2.5
			c0,0.9-0.2,1.8-0.7,2.5c-0.4,0.8-1.1,1.3-1.8,1.8c-0.8,0.4-1.7,0.6-2.6,0.6C787,248.9,786.1,248.7,785.3,248.3z M789.9,247.2
			c0.6-0.3,1-0.8,1.3-1.3c0.3-0.6,0.5-1.2,0.5-1.9c0-0.7-0.2-1.3-0.5-1.9c-0.3-0.6-0.8-1-1.3-1.3c-0.6-0.3-1.2-0.5-1.9-0.5
			s-1.4,0.2-1.9,0.5c-0.6,0.3-1,0.8-1.4,1.3c-0.3,0.6-0.5,1.2-0.5,1.9c0,0.7,0.2,1.3,0.5,1.9c0.3,0.6,0.8,1,1.4,1.3
			c0.6,0.3,1.2,0.5,1.9,0.5S789.3,247.5,789.9,247.2z"/>
		<path class="st2" d="M803.6,239.1v9.7h-1.1l-5.8-7.2v7.2h-1.4v-9.7h1.1l5.8,7.2v-7.2H803.6z"/>
		<path class="st2" d="M812.7,246.4h-5.2l-1.1,2.4H805l4.4-9.7h1.4l4.4,9.7h-1.5L812.7,246.4z M812.2,245.3l-2.1-4.8l-2.1,4.8H812.2
			z"/>
		<path class="st2" d="M816.7,239.1h1.4v8.5h5.3v1.2h-6.7V239.1z"/>
	</g>
</g>
<g>
	<g>
		<g>
			<linearGradient id="SVGID_5_" gradientUnits="userSpaceOnUse" x1="587.3098" y1="301.7788" x2="781.2537" y2="301.7788">
				<stop  offset="0" style="stop-color:#FF003D"/>
				<stop  offset="1" style="stop-color:#FFC600"/>
			</linearGradient>
			<polygon class="st6" points="766.4,323.1 781.3,301.8 766.4,280.4 587.3,280.4 599.5,301.8 587.3,323.1 			"/>
		</g>
	</g>
	<g>
		<path class="st2" d="M618.2,297.2v9.7H617l-5.8-7.2v7.2h-1.4v-9.7h1.1l5.8,7.2v-7.2H618.2z"/>
		<path class="st2" d="M621.1,297.2h1.4v9.7h-1.4V297.2z"/>
		<path class="st2" d="M627.1,306.4c-0.8-0.4-1.4-1-1.8-1.8c-0.4-0.8-0.7-1.6-0.7-2.5c0-0.9,0.2-1.8,0.7-2.5
			c0.4-0.8,1.1-1.3,1.8-1.8c0.8-0.4,1.7-0.6,2.6-0.6c0.8,0,1.5,0.1,2.1,0.4c0.6,0.3,1.2,0.6,1.6,1.1l-0.9,0.9
			c-0.7-0.8-1.6-1.2-2.7-1.2c-0.7,0-1.4,0.2-2,0.5c-0.6,0.3-1,0.8-1.4,1.3c-0.3,0.6-0.5,1.2-0.5,1.9c0,0.7,0.2,1.3,0.5,1.9
			c0.3,0.6,0.8,1,1.4,1.3c0.6,0.3,1.2,0.5,2,0.5c1.1,0,2-0.4,2.7-1.2l0.9,0.9c-0.4,0.5-1,0.9-1.6,1.1c-0.6,0.3-1.3,0.4-2.1,0.4
			C628.8,307.1,627.9,306.9,627.1,306.4z"/>
		<path class="st2" d="M643.8,297.2v9.7h-1.4v-4.3h-5.6v4.3h-1.4v-9.7h1.4v4.2h5.6v-4.2H643.8z"/>
		<path class="st2" d="M648.5,306.4c-0.8-0.4-1.4-1-1.9-1.8c-0.4-0.8-0.7-1.6-0.7-2.5c0-0.9,0.2-1.8,0.7-2.5
			c0.4-0.8,1.1-1.4,1.9-1.8c0.8-0.4,1.7-0.6,2.7-0.6c1,0,1.9,0.2,2.6,0.6c0.8,0.4,1.4,1,1.8,1.8s0.7,1.6,0.7,2.5
			c0,0.9-0.2,1.8-0.7,2.5c-0.4,0.8-1.1,1.3-1.8,1.8c-0.8,0.4-1.7,0.6-2.6,0.6C650.1,307.1,649.2,306.9,648.5,306.4z M653,305.3
			c0.6-0.3,1-0.8,1.3-1.3c0.3-0.6,0.5-1.2,0.5-1.9c0-0.7-0.2-1.3-0.5-1.9c-0.3-0.6-0.8-1-1.3-1.3s-1.2-0.5-1.9-0.5s-1.4,0.2-1.9,0.5
			c-0.6,0.3-1,0.8-1.4,1.3c-0.3,0.6-0.5,1.2-0.5,1.9c0,0.7,0.2,1.3,0.5,1.9c0.3,0.6,0.8,1,1.4,1.3c0.6,0.3,1.2,0.5,1.9,0.5
			S652.5,305.7,653,305.3z"/>
		<path class="st2" d="M659.1,306.7c-0.7-0.2-1.2-0.5-1.6-0.9l0.5-1.1c0.4,0.3,0.8,0.6,1.4,0.8c0.6,0.2,1.2,0.3,1.8,0.3
			c0.8,0,1.4-0.1,1.8-0.4c0.4-0.3,0.6-0.6,0.6-1.1c0-0.3-0.1-0.6-0.3-0.8c-0.2-0.2-0.5-0.4-0.8-0.5c-0.3-0.1-0.8-0.2-1.4-0.4
			c-0.7-0.2-1.3-0.4-1.8-0.5c-0.4-0.2-0.8-0.4-1.2-0.8c-0.3-0.4-0.5-0.9-0.5-1.5c0-0.5,0.1-1,0.4-1.4c0.3-0.4,0.7-0.8,1.2-1
			c0.6-0.2,1.2-0.4,2.1-0.4c0.6,0,1.1,0.1,1.7,0.2c0.6,0.1,1,0.4,1.4,0.6l-0.5,1.1c-0.4-0.3-0.8-0.5-1.3-0.6
			c-0.5-0.1-0.9-0.2-1.4-0.2c-0.8,0-1.4,0.1-1.8,0.4c-0.4,0.3-0.6,0.7-0.6,1.1c0,0.3,0.1,0.6,0.3,0.8c0.2,0.2,0.5,0.4,0.8,0.5
			c0.3,0.1,0.8,0.2,1.3,0.4c0.7,0.2,1.3,0.4,1.8,0.5c0.4,0.2,0.8,0.4,1.1,0.8c0.3,0.4,0.5,0.8,0.5,1.5c0,0.5-0.1,1-0.4,1.4
			c-0.3,0.4-0.7,0.8-1.3,1c-0.6,0.2-1.3,0.4-2.1,0.4C660.5,307.1,659.8,307,659.1,306.7z"/>
		<path class="st2" d="M677.8,305.8v1.2h-7.1v-9.7h6.9v1.2h-5.5v3h4.9v1.2h-4.9v3.1H677.8z"/>
		<path class="st2" d="M680.8,306.7c-0.7-0.2-1.2-0.5-1.6-0.9l0.5-1.1c0.4,0.3,0.8,0.6,1.4,0.8c0.6,0.2,1.2,0.3,1.8,0.3
			c0.8,0,1.4-0.1,1.8-0.4c0.4-0.3,0.6-0.6,0.6-1.1c0-0.3-0.1-0.6-0.3-0.8c-0.2-0.2-0.5-0.4-0.8-0.5c-0.3-0.1-0.8-0.2-1.4-0.4
			c-0.7-0.2-1.3-0.4-1.8-0.5c-0.4-0.2-0.8-0.4-1.2-0.8c-0.3-0.4-0.5-0.9-0.5-1.5c0-0.5,0.1-1,0.4-1.4c0.3-0.4,0.7-0.8,1.2-1
			c0.6-0.2,1.2-0.4,2.1-0.4c0.6,0,1.1,0.1,1.7,0.2c0.6,0.1,1,0.4,1.4,0.6l-0.5,1.1c-0.4-0.3-0.8-0.5-1.3-0.6
			c-0.5-0.1-0.9-0.2-1.4-0.2c-0.8,0-1.4,0.1-1.8,0.4c-0.4,0.3-0.6,0.7-0.6,1.1c0,0.3,0.1,0.6,0.3,0.8c0.2,0.2,0.5,0.4,0.8,0.5
			c0.3,0.1,0.8,0.2,1.3,0.4c0.7,0.2,1.3,0.4,1.8,0.5c0.4,0.2,0.8,0.4,1.1,0.8c0.3,0.4,0.5,0.8,0.5,1.5c0,0.5-0.1,1-0.4,1.4
			c-0.3,0.4-0.7,0.8-1.3,1c-0.6,0.2-1.3,0.4-2.1,0.4C682.1,307.1,681.4,307,680.8,306.7z"/>
		<path class="st2" d="M695.4,298.1c0.7,0.6,1.1,1.4,1.1,2.5c0,1.1-0.4,1.9-1.1,2.5c-0.7,0.6-1.7,0.9-3,0.9h-2.4v2.9h-1.4v-9.7h3.8
			C693.7,297.2,694.7,297.5,695.4,298.1z M694.4,302.2c0.5-0.4,0.7-0.9,0.7-1.6c0-0.7-0.2-1.2-0.7-1.6c-0.5-0.4-1.1-0.6-2-0.6h-2.4
			v4.4h2.4C693.3,302.8,694,302.6,694.4,302.2z"/>
		<path class="st2" d="M705.6,305.8v1.2h-7.1v-9.7h6.9v1.2H700v3h4.9v1.2H700v3.1H705.6z"/>
		<path class="st2" d="M709.5,306.4c-0.8-0.4-1.4-1-1.8-1.8c-0.4-0.8-0.7-1.6-0.7-2.5c0-0.9,0.2-1.8,0.7-2.5s1.1-1.3,1.8-1.8
			c0.8-0.4,1.7-0.6,2.6-0.6c0.8,0,1.5,0.1,2.1,0.4c0.6,0.3,1.2,0.6,1.6,1.1l-0.9,0.9c-0.7-0.8-1.6-1.2-2.7-1.2c-0.7,0-1.4,0.2-2,0.5
			s-1,0.8-1.4,1.3c-0.3,0.6-0.5,1.2-0.5,1.9c0,0.7,0.2,1.3,0.5,1.9c0.3,0.6,0.8,1,1.4,1.3c0.6,0.3,1.2,0.5,2,0.5
			c1.1,0,2-0.4,2.7-1.2l0.9,0.9c-0.4,0.5-1,0.9-1.6,1.1c-0.6,0.3-1.3,0.4-2.1,0.4C711.2,307.1,710.3,306.9,709.5,306.4z"/>
		<path class="st2" d="M717.9,297.2h1.4v9.7h-1.4V297.2z"/>
		<path class="st2" d="M728.4,304.5h-5.2l-1.1,2.4h-1.4l4.4-9.7h1.4l4.4,9.7h-1.5L728.4,304.5z M727.9,303.4l-2.1-4.8l-2.1,4.8
			H727.9z"/>
		<path class="st2" d="M732.3,297.2h1.4v8.5h5.3v1.2h-6.7V297.2z"/>
		<path class="st2" d="M747.6,305.8v1.2h-7.1v-9.7h6.9v1.2H742v3h4.9v1.2H742v3.1H747.6z"/>
		<path class="st2" d="M750.6,306.7c-0.7-0.2-1.2-0.5-1.6-0.9l0.5-1.1c0.4,0.3,0.8,0.6,1.4,0.8c0.6,0.2,1.2,0.3,1.8,0.3
			c0.8,0,1.4-0.1,1.8-0.4c0.4-0.3,0.6-0.6,0.6-1.1c0-0.3-0.1-0.6-0.3-0.8c-0.2-0.2-0.5-0.4-0.8-0.5c-0.3-0.1-0.8-0.2-1.4-0.4
			c-0.7-0.2-1.3-0.4-1.8-0.5c-0.4-0.2-0.8-0.4-1.2-0.8c-0.3-0.4-0.5-0.9-0.5-1.5c0-0.5,0.1-1,0.4-1.4c0.3-0.4,0.7-0.8,1.2-1
			c0.6-0.2,1.2-0.4,2.1-0.4c0.6,0,1.1,0.1,1.7,0.2c0.6,0.1,1,0.4,1.4,0.6l-0.5,1.1c-0.4-0.3-0.8-0.5-1.3-0.6
			c-0.5-0.1-0.9-0.2-1.4-0.2c-0.8,0-1.4,0.1-1.8,0.4c-0.4,0.3-0.6,0.7-0.6,1.1c0,0.3,0.1,0.6,0.3,0.8c0.2,0.2,0.5,0.4,0.8,0.5
			c0.3,0.1,0.8,0.2,1.3,0.4c0.7,0.2,1.3,0.4,1.8,0.5c0.4,0.2,0.8,0.4,1.1,0.8c0.3,0.4,0.5,0.8,0.5,1.5c0,0.5-0.1,1-0.4,1.4
			s-0.7,0.8-1.3,1c-0.6,0.2-1.3,0.4-2.1,0.4C752,307.1,751.3,307,750.6,306.7z"/>
	</g>
</g>
<g>
	<g>
		<linearGradient id="SVGID_6_" gradientUnits="userSpaceOnUse" x1="30.4251" y1="179.8638" x2="224.6629" y2="179.8638">
			<stop  offset="0" style="stop-color:#0085FF"/>
			<stop  offset="1" style="stop-color:#FF003D"/>
		</linearGradient>
		<polygon class="st7" points="210.2,201.2 224.7,180.4 209.5,158.5 30.4,158.5 42.9,180.4 31,201.2 		"/>
	</g>
	<g>
		<path class="st2" d="M53.2,175.8h1.4v9.7h-1.4V175.8z"/>
		<path class="st2" d="M65.9,175.8v9.7h-1.1l-5.8-7.3v7.3h-1.4v-9.7h1.1l5.8,7.2v-7.2H65.9z"/>
		<path class="st2" d="M77.2,175.8l-4.3,9.7h-1.4l-4.3-9.7h1.5l3.5,8l3.5-8H77.2z"/>
		<path class="st2" d="M85.4,184.4v1.2h-7.1v-9.7h6.9v1.2h-5.5v3h4.9v1.2h-4.9v3.1H85.4z"/>
		<path class="st2" d="M88.4,185.3c-0.7-0.2-1.2-0.5-1.6-0.9l0.5-1.1c0.4,0.3,0.8,0.6,1.4,0.8c0.6,0.2,1.2,0.3,1.8,0.3
			c0.8,0,1.4-0.1,1.8-0.4c0.4-0.3,0.6-0.6,0.6-1.1c0-0.3-0.1-0.6-0.3-0.8c-0.2-0.2-0.5-0.4-0.8-0.5c-0.3-0.1-0.8-0.2-1.4-0.4
			c-0.7-0.2-1.3-0.4-1.8-0.5c-0.4-0.2-0.8-0.4-1.2-0.8c-0.3-0.4-0.5-0.9-0.5-1.5c0-0.5,0.1-1,0.4-1.4c0.3-0.4,0.7-0.8,1.2-1
			c0.6-0.3,1.2-0.4,2.1-0.4c0.6,0,1.1,0.1,1.7,0.2c0.6,0.1,1,0.4,1.4,0.6l-0.5,1.1c-0.4-0.3-0.8-0.5-1.3-0.6
			c-0.5-0.1-0.9-0.2-1.4-0.2c-0.8,0-1.4,0.1-1.8,0.4c-0.4,0.3-0.6,0.7-0.6,1.1c0,0.3,0.1,0.6,0.3,0.8c0.2,0.2,0.5,0.4,0.8,0.5
			c0.3,0.1,0.8,0.2,1.3,0.4c0.7,0.2,1.3,0.4,1.8,0.5c0.4,0.2,0.8,0.4,1.1,0.8c0.3,0.4,0.5,0.8,0.5,1.5c0,0.5-0.1,1-0.4,1.4
			c-0.3,0.4-0.7,0.8-1.3,1c-0.6,0.2-1.3,0.4-2.1,0.4C89.8,185.7,89.1,185.6,88.4,185.3z"/>
		<path class="st2" d="M98.1,177h-3.3v-1.2h8v1.2h-3.3v8.5h-1.4V177z"/>
		<path class="st2" d="M104.3,175.8h1.4v9.7h-1.4V175.8z"/>
		<path class="st2" d="M115.4,180.6h1.3v3.8c-0.5,0.4-1,0.7-1.7,0.9c-0.6,0.2-1.3,0.3-2,0.3c-1,0-1.9-0.2-2.7-0.6
			c-0.8-0.4-1.4-1-1.9-1.8c-0.4-0.8-0.7-1.6-0.7-2.5s0.2-1.8,0.7-2.6c0.4-0.8,1.1-1.4,1.9-1.8c0.8-0.4,1.7-0.6,2.7-0.6
			c0.8,0,1.5,0.1,2.1,0.4c0.6,0.3,1.2,0.6,1.6,1.1l-0.9,0.9c-0.8-0.7-1.7-1.1-2.8-1.1c-0.7,0-1.4,0.2-2,0.5c-0.6,0.3-1,0.8-1.4,1.3
			c-0.3,0.6-0.5,1.2-0.5,1.9c0,0.7,0.2,1.3,0.5,1.9c0.3,0.6,0.8,1,1.4,1.3c0.6,0.3,1.2,0.5,2,0.5c0.9,0,1.6-0.2,2.3-0.6V180.6z"/>
		<path class="st2" d="M125.6,183.1h-5.2l-1.1,2.4h-1.4l4.4-9.7h1.4l4.4,9.7h-1.5L125.6,183.1z M125.1,182l-2.1-4.8l-2.1,4.8H125.1z
			"/>
		<path class="st2" d="M129.5,175.8h4.1c1,0,1.9,0.2,2.7,0.6c0.8,0.4,1.4,1,1.9,1.7c0.4,0.7,0.7,1.6,0.7,2.5c0,1-0.2,1.8-0.7,2.5
			c-0.4,0.7-1.1,1.3-1.9,1.7c-0.8,0.4-1.7,0.6-2.7,0.6h-4.1V175.8z M133.5,184.4c0.8,0,1.5-0.2,2.1-0.5c0.6-0.3,1.1-0.7,1.4-1.3
			c0.3-0.6,0.5-1.2,0.5-1.9c0-0.7-0.2-1.4-0.5-1.9c-0.3-0.6-0.8-1-1.4-1.3c-0.6-0.3-1.3-0.5-2.1-0.5h-2.6v7.3H133.5z"/>
		<path class="st2" d="M142.7,185c-0.8-0.4-1.4-1-1.9-1.8c-0.4-0.8-0.7-1.6-0.7-2.5s0.2-1.8,0.7-2.5c0.4-0.8,1.1-1.4,1.9-1.8
			c0.8-0.4,1.7-0.6,2.7-0.6c1,0,1.9,0.2,2.6,0.6c0.8,0.4,1.4,1,1.8,1.8c0.4,0.8,0.7,1.6,0.7,2.5s-0.2,1.8-0.7,2.5
			c-0.4,0.8-1.1,1.3-1.8,1.8c-0.8,0.4-1.7,0.6-2.6,0.6C144.4,185.7,143.5,185.5,142.7,185z M147.3,183.9c0.6-0.3,1-0.8,1.3-1.3
			c0.3-0.6,0.5-1.2,0.5-1.9s-0.2-1.3-0.5-1.9c-0.3-0.6-0.8-1-1.3-1.3c-0.6-0.3-1.2-0.5-1.9-0.5s-1.4,0.2-1.9,0.5
			c-0.6,0.3-1,0.8-1.4,1.3c-0.3,0.6-0.5,1.2-0.5,1.9s0.2,1.3,0.5,1.9s0.8,1,1.4,1.3c0.6,0.3,1.2,0.5,1.9,0.5
			S146.7,184.3,147.3,183.9z"/>
		<path class="st2" d="M159.2,185.6l-2.1-3c-0.3,0-0.5,0-0.6,0h-2.4v3h-1.4v-9.7h3.8c1.3,0,2.2,0.3,3,0.9c0.7,0.6,1.1,1.4,1.1,2.5
			c0,0.8-0.2,1.4-0.6,1.9c-0.4,0.5-0.9,0.9-1.6,1.2l2.3,3.3H159.2z M158.4,180.9c0.5-0.4,0.7-0.9,0.7-1.6c0-0.7-0.2-1.2-0.7-1.6
			c-0.5-0.4-1.1-0.6-2-0.6h-2.4v4.4h2.4C157.3,181.4,158,181.2,158.4,180.9z"/>
		<path class="st2" d="M169.8,184.4v1.2h-7.1v-9.7h6.9v1.2h-5.5v3h4.9v1.2h-4.9v3.1H169.8z"/>
		<path class="st2" d="M172.8,185.3c-0.7-0.2-1.2-0.5-1.6-0.9l0.5-1.1c0.4,0.3,0.8,0.6,1.4,0.8c0.6,0.2,1.2,0.3,1.8,0.3
			c0.8,0,1.4-0.1,1.8-0.4c0.4-0.3,0.6-0.6,0.6-1.1c0-0.3-0.1-0.6-0.3-0.8c-0.2-0.2-0.5-0.4-0.8-0.5c-0.3-0.1-0.8-0.2-1.4-0.4
			c-0.7-0.2-1.3-0.4-1.8-0.5c-0.4-0.2-0.8-0.4-1.2-0.8c-0.3-0.4-0.5-0.9-0.5-1.5c0-0.5,0.1-1,0.4-1.4s0.7-0.8,1.2-1
			c0.6-0.3,1.2-0.4,2.1-0.4c0.6,0,1.1,0.1,1.7,0.2c0.6,0.1,1,0.4,1.4,0.6l-0.5,1.1c-0.4-0.3-0.8-0.5-1.3-0.6
			c-0.5-0.1-0.9-0.2-1.4-0.2c-0.8,0-1.4,0.1-1.8,0.4c-0.4,0.3-0.6,0.7-0.6,1.1c0,0.3,0.1,0.6,0.3,0.8c0.2,0.2,0.5,0.4,0.8,0.5
			c0.3,0.1,0.8,0.2,1.3,0.4c0.7,0.2,1.3,0.4,1.8,0.5c0.4,0.2,0.8,0.4,1.1,0.8c0.3,0.4,0.5,0.8,0.5,1.5c0,0.5-0.1,1-0.4,1.4
			c-0.3,0.4-0.7,0.8-1.3,1c-0.6,0.2-1.3,0.4-2.1,0.4C174.2,185.7,173.5,185.6,172.8,185.3z"/>
	</g>
</g>
<g>
	<g>
		<linearGradient id="SVGID_7_" gradientUnits="userSpaceOnUse" x1="28" y1="239.5199" x2="224.6629" y2="239.5199">
			<stop  offset="0" style="stop-color:#0085FF"/>
			<stop  offset="1" style="stop-color:#FF003D"/>
		</linearGradient>
		<polygon class="st8" points="224.7,240.3 204.7,211.7 28,211.7 28,214.2 42.9,240.3 28,266.4 28,267.3 205.8,267.3 		"/>
	</g>
	<g>
		<path class="st2" d="M60,227.9c0.7,0.6,1.1,1.4,1.1,2.5c0,1.1-0.4,1.9-1.1,2.5c-0.7,0.6-1.7,0.9-3,0.9h-2.4v2.9h-1.4V227H57
			C58.3,227,59.3,227.3,60,227.9z M59,232c0.5-0.4,0.7-0.9,0.7-1.6s-0.2-1.2-0.7-1.6c-0.5-0.4-1.1-0.6-2-0.6h-2.4v4.4H57
			C57.9,232.6,58.5,232.4,59,232z"/>
		<path class="st2" d="M69.6,236.7l-2.1-3c-0.3,0-0.5,0-0.6,0h-2.4v3h-1.4V227h3.8c1.3,0,2.2,0.3,3,0.9c0.7,0.6,1.1,1.4,1.1,2.5
			c0,0.8-0.2,1.4-0.6,1.9c-0.4,0.5-0.9,0.9-1.6,1.2l2.3,3.3H69.6z M68.9,232c0.5-0.4,0.7-0.9,0.7-1.6s-0.2-1.2-0.7-1.6
			c-0.5-0.4-1.1-0.6-2-0.6h-2.4v4.4h2.4C67.7,232.6,68.4,232.4,68.9,232z"/>
		<path class="st2" d="M74.9,236.2c-0.8-0.4-1.4-1-1.9-1.8c-0.4-0.8-0.7-1.6-0.7-2.5c0-0.9,0.2-1.8,0.7-2.5c0.4-0.8,1.1-1.4,1.9-1.8
			c0.8-0.4,1.7-0.6,2.7-0.6c1,0,1.9,0.2,2.6,0.6c0.8,0.4,1.4,1,1.8,1.8c0.4,0.8,0.7,1.6,0.7,2.5c0,0.9-0.2,1.8-0.7,2.5
			c-0.4,0.8-1.1,1.3-1.8,1.8c-0.8,0.4-1.7,0.6-2.6,0.6C76.6,236.8,75.7,236.6,74.9,236.2z M79.5,235.1c0.6-0.3,1-0.8,1.3-1.3
			c0.3-0.6,0.5-1.2,0.5-1.9s-0.2-1.3-0.5-1.9c-0.3-0.6-0.8-1-1.3-1.3c-0.6-0.3-1.2-0.5-1.9-0.5c-0.7,0-1.4,0.2-1.9,0.5
			c-0.6,0.3-1,0.8-1.4,1.3c-0.3,0.6-0.5,1.2-0.5,1.9s0.2,1.3,0.5,1.9c0.3,0.6,0.8,1,1.4,1.3c0.6,0.3,1.2,0.5,1.9,0.5
			C78.3,235.6,79,235.4,79.5,235.1z"/>
		<path class="st2" d="M86.3,228.2v3.4h4.9v1.2h-4.9v3.9h-1.4V227h6.9v1.2H86.3z"/>
		<path class="st2" d="M100.7,235.5v1.2h-7.1V227h6.9v1.2h-5.5v3h4.9v1.2h-4.9v3.1H100.7z"/>
		<path class="st2" d="M103.7,236.5c-0.7-0.2-1.2-0.5-1.6-0.9l0.5-1.1c0.4,0.3,0.8,0.6,1.4,0.8c0.6,0.2,1.2,0.3,1.8,0.3
			c0.8,0,1.4-0.1,1.8-0.4c0.4-0.3,0.6-0.6,0.6-1.1c0-0.3-0.1-0.6-0.3-0.8c-0.2-0.2-0.5-0.4-0.8-0.5c-0.3-0.1-0.8-0.2-1.4-0.4
			c-0.7-0.2-1.3-0.4-1.8-0.5c-0.4-0.2-0.8-0.4-1.2-0.8c-0.3-0.4-0.5-0.9-0.5-1.5c0-0.5,0.1-1,0.4-1.4c0.3-0.4,0.7-0.8,1.2-1
			c0.6-0.2,1.2-0.4,2.1-0.4c0.6,0,1.1,0.1,1.7,0.2c0.6,0.1,1,0.4,1.4,0.6l-0.5,1.1c-0.4-0.3-0.8-0.5-1.3-0.6
			c-0.5-0.1-0.9-0.2-1.4-0.2c-0.8,0-1.4,0.1-1.8,0.4c-0.4,0.3-0.6,0.7-0.6,1.1c0,0.3,0.1,0.6,0.3,0.8c0.2,0.2,0.5,0.4,0.8,0.5
			c0.3,0.1,0.8,0.2,1.3,0.4c0.7,0.2,1.3,0.4,1.8,0.5c0.4,0.2,0.8,0.4,1.1,0.8c0.3,0.4,0.5,0.8,0.5,1.5c0,0.5-0.1,1-0.4,1.4
			c-0.3,0.4-0.7,0.8-1.3,1c-0.6,0.2-1.3,0.4-2.1,0.4C105.1,236.8,104.4,236.7,103.7,236.5z"/>
		<path class="st2" d="M111.6,227h1.4v9.7h-1.4V227z"/>
		<path class="st2" d="M117.7,236.2c-0.8-0.4-1.4-1-1.9-1.8c-0.4-0.8-0.7-1.6-0.7-2.5c0-0.9,0.2-1.8,0.7-2.5
			c0.4-0.8,1.1-1.4,1.9-1.8c0.8-0.4,1.7-0.6,2.7-0.6c1,0,1.9,0.2,2.6,0.6c0.8,0.4,1.4,1,1.8,1.8c0.4,0.8,0.7,1.6,0.7,2.5
			c0,0.9-0.2,1.8-0.7,2.5c-0.4,0.8-1.1,1.3-1.8,1.8c-0.8,0.4-1.7,0.6-2.6,0.6C119.3,236.8,118.5,236.6,117.7,236.2z M122.2,235.1
			c0.6-0.3,1-0.8,1.3-1.3c0.3-0.6,0.5-1.2,0.5-1.9s-0.2-1.3-0.5-1.9c-0.3-0.6-0.8-1-1.3-1.3c-0.6-0.3-1.2-0.5-1.9-0.5
			s-1.4,0.2-1.9,0.5c-0.6,0.3-1,0.8-1.4,1.3c-0.3,0.6-0.5,1.2-0.5,1.9s0.2,1.3,0.5,1.9c0.3,0.6,0.8,1,1.4,1.3
			c0.6,0.3,1.2,0.5,1.9,0.5S121.7,235.4,122.2,235.1z"/>
		<path class="st2" d="M136,227v9.7h-1.1l-5.8-7.2v7.2h-1.4V227h1.1l5.8,7.2V227H136z"/>
		<path class="st2" d="M145.1,234.3h-5.2l-1.1,2.4h-1.4l4.4-9.7h1.4l4.4,9.7h-1.5L145.1,234.3z M144.6,233.2l-2.1-4.8l-2.1,4.8
			H144.6z"/>
		<path class="st2" d="M149,227h1.4v8.5h5.3v1.2H149V227z"/>
		<path class="st2" d="M164.3,235.5v1.2h-7.1V227h6.9v1.2h-5.5v3h4.9v1.2h-4.9v3.1H164.3z"/>
		<path class="st2" d="M167.3,236.5c-0.7-0.2-1.2-0.5-1.6-0.9l0.5-1.1c0.4,0.3,0.8,0.6,1.4,0.8c0.6,0.2,1.2,0.3,1.8,0.3
			c0.8,0,1.4-0.1,1.8-0.4c0.4-0.3,0.6-0.6,0.6-1.1c0-0.3-0.1-0.6-0.3-0.8c-0.2-0.2-0.5-0.4-0.8-0.5c-0.3-0.1-0.8-0.2-1.4-0.4
			c-0.7-0.2-1.3-0.4-1.8-0.5c-0.4-0.2-0.8-0.4-1.2-0.8c-0.3-0.4-0.5-0.9-0.5-1.5c0-0.5,0.1-1,0.4-1.4c0.3-0.4,0.7-0.8,1.2-1
			c0.6-0.2,1.2-0.4,2.1-0.4c0.6,0,1.1,0.1,1.7,0.2c0.6,0.1,1,0.4,1.4,0.6l-0.5,1.1c-0.4-0.3-0.8-0.5-1.3-0.6
			c-0.5-0.1-0.9-0.2-1.4-0.2c-0.8,0-1.4,0.1-1.8,0.4c-0.4,0.3-0.6,0.7-0.6,1.1c0,0.3,0.1,0.6,0.3,0.8c0.2,0.2,0.5,0.4,0.8,0.5
			c0.3,0.1,0.8,0.2,1.3,0.4c0.7,0.2,1.3,0.4,1.8,0.5c0.4,0.2,0.8,0.4,1.1,0.8c0.3,0.4,0.5,0.8,0.5,1.5c0,0.5-0.1,1-0.4,1.4
			c-0.3,0.4-0.7,0.8-1.3,1s-1.3,0.4-2.1,0.4C168.7,236.8,168,236.7,167.3,236.5z"/>
		<path class="st2" d="M62.2,253.4l0-7.1l-3.5,5.9h-0.6l-3.5-5.9v7h-1.3v-9.7h1.1l4.1,6.8l4-6.8h1.1l0,9.7H62.2z"/>
		<path class="st2" d="M73.5,252.2v1.2h-7.1v-9.7h6.9v1.2h-5.5v3h4.9v1.2h-4.9v3.1H73.5z M70.8,241.1h1.7l-2.3,1.8h-1.3L70.8,241.1z
			"/>
		<path class="st2" d="M75.8,243.7h4.1c1,0,1.9,0.2,2.7,0.6c0.8,0.4,1.4,1,1.9,1.7c0.4,0.7,0.7,1.6,0.7,2.5c0,1-0.2,1.8-0.7,2.5
			c-0.4,0.7-1.1,1.3-1.9,1.7c-0.8,0.4-1.7,0.6-2.7,0.6h-4.1V243.7z M79.8,252.2c0.8,0,1.5-0.2,2.1-0.5c0.6-0.3,1.1-0.7,1.4-1.3
			c0.3-0.6,0.5-1.2,0.5-1.9c0-0.7-0.2-1.4-0.5-1.9c-0.3-0.6-0.8-1-1.4-1.3c-0.6-0.3-1.3-0.5-2.1-0.5h-2.6v7.3H79.8z"/>
		<path class="st2" d="M87.3,243.7h1.4v9.7h-1.4V243.7z"/>
		<path class="st2" d="M93.3,252.9c-0.8-0.4-1.4-1-1.8-1.8c-0.4-0.8-0.7-1.6-0.7-2.5c0-0.9,0.2-1.8,0.7-2.5c0.4-0.8,1.1-1.3,1.8-1.8
			c0.8-0.4,1.7-0.6,2.6-0.6c0.8,0,1.5,0.1,2.1,0.4c0.6,0.3,1.2,0.6,1.6,1.1l-0.9,0.9c-0.7-0.8-1.6-1.2-2.7-1.2c-0.7,0-1.4,0.2-2,0.5
			c-0.6,0.3-1,0.8-1.4,1.3c-0.3,0.6-0.5,1.2-0.5,1.9s0.2,1.3,0.5,1.9c0.3,0.6,0.8,1,1.4,1.3c0.6,0.3,1.2,0.5,2,0.5
			c1.1,0,2-0.4,2.7-1.2l0.9,0.9c-0.4,0.5-1,0.9-1.6,1.1c-0.6,0.3-1.3,0.4-2.1,0.4C94.9,253.5,94.1,253.3,93.3,252.9z"/>
		<path class="st2" d="M103.1,252.9c-0.8-0.4-1.4-1-1.9-1.8c-0.4-0.8-0.7-1.6-0.7-2.5c0-0.9,0.2-1.8,0.7-2.5
			c0.4-0.8,1.1-1.4,1.9-1.8s1.7-0.6,2.7-0.6c1,0,1.9,0.2,2.6,0.6c0.8,0.4,1.4,1,1.8,1.8c0.4,0.8,0.7,1.6,0.7,2.5
			c0,0.9-0.2,1.8-0.7,2.5c-0.4,0.8-1.1,1.3-1.8,1.8c-0.8,0.4-1.7,0.6-2.6,0.6C104.8,253.5,103.9,253.3,103.1,252.9z M107.7,251.8
			c0.6-0.3,1-0.8,1.3-1.3c0.3-0.6,0.5-1.2,0.5-1.9s-0.2-1.3-0.5-1.9c-0.3-0.6-0.8-1-1.3-1.3c-0.6-0.3-1.2-0.5-1.9-0.5
			c-0.7,0-1.4,0.2-1.9,0.5c-0.6,0.3-1,0.8-1.4,1.3c-0.3,0.6-0.5,1.2-0.5,1.9s0.2,1.3,0.5,1.9c0.3,0.6,0.8,1,1.4,1.3
			c0.6,0.3,1.2,0.5,1.9,0.5C106.5,252.3,107.1,252.1,107.7,251.8z"/>
		<path class="st2" d="M113.8,253.2c-0.7-0.2-1.2-0.5-1.6-0.9l0.5-1.1c0.4,0.3,0.8,0.6,1.4,0.8c0.6,0.2,1.2,0.3,1.8,0.3
			c0.8,0,1.4-0.1,1.8-0.4c0.4-0.3,0.6-0.6,0.6-1.1c0-0.3-0.1-0.6-0.3-0.8c-0.2-0.2-0.5-0.4-0.8-0.5c-0.3-0.1-0.8-0.2-1.4-0.4
			c-0.7-0.2-1.3-0.4-1.8-0.5c-0.4-0.2-0.8-0.4-1.2-0.8c-0.3-0.4-0.5-0.9-0.5-1.5c0-0.5,0.1-1,0.4-1.4c0.3-0.4,0.7-0.8,1.2-1
			c0.6-0.2,1.2-0.4,2.1-0.4c0.6,0,1.1,0.1,1.7,0.2c0.6,0.1,1,0.4,1.4,0.6l-0.5,1.1c-0.4-0.3-0.8-0.5-1.3-0.6
			c-0.5-0.1-0.9-0.2-1.4-0.2c-0.8,0-1.4,0.1-1.8,0.4c-0.4,0.3-0.6,0.7-0.6,1.1c0,0.3,0.1,0.6,0.3,0.8c0.2,0.2,0.5,0.4,0.8,0.5
			c0.3,0.1,0.8,0.2,1.3,0.4c0.7,0.2,1.3,0.4,1.8,0.5c0.4,0.2,0.8,0.4,1.1,0.8c0.3,0.4,0.5,0.8,0.5,1.5c0,0.5-0.1,1-0.4,1.4
			c-0.3,0.4-0.7,0.8-1.3,1c-0.6,0.2-1.3,0.4-2.1,0.4C115.2,253.5,114.5,253.4,113.8,253.2z"/>
	</g>
</g>
<g>
	<linearGradient id="SVGID_8_" gradientUnits="userSpaceOnUse" x1="50.487" y1="298.1779" x2="244.7248" y2="298.1779">
		<stop  offset="0" style="stop-color:#0085FF"/>
		<stop  offset="1" style="stop-color:#FF003D"/>
	</linearGradient>
	<polygon class="st9" points="229.6,276.8 50.5,276.8 63,298.7 51.1,319.5 230.3,319.5 244.7,298.7 	"/>
	<g>
		<path class="st2" d="M75,303.3c-0.8-0.4-1.4-1-1.9-1.8c-0.4-0.8-0.7-1.6-0.7-2.5c0-0.9,0.2-1.8,0.7-2.5c0.4-0.8,1.1-1.4,1.9-1.8
			c0.8-0.4,1.7-0.6,2.7-0.6c1,0,1.9,0.2,2.6,0.6c0.8,0.4,1.4,1,1.8,1.8c0.4,0.8,0.7,1.6,0.7,2.5c0,0.9-0.2,1.8-0.7,2.5
			c-0.4,0.8-1.1,1.3-1.8,1.8c-0.8,0.4-1.7,0.6-2.6,0.6C76.7,304,75.8,303.8,75,303.3z M79.6,302.3c0.6-0.3,1-0.8,1.3-1.3
			c0.3-0.6,0.5-1.2,0.5-1.9c0-0.7-0.2-1.3-0.5-1.9c-0.3-0.6-0.8-1-1.3-1.3c-0.6-0.3-1.2-0.5-1.9-0.5c-0.7,0-1.4,0.2-1.9,0.5
			c-0.6,0.3-1,0.8-1.4,1.3c-0.3,0.6-0.5,1.2-0.5,1.9c0,0.7,0.2,1.3,0.5,1.9c0.3,0.6,0.8,1,1.4,1.3c0.6,0.3,1.2,0.5,1.9,0.5
			C78.4,302.7,79,302.6,79.6,302.3z"/>
		<path class="st2" d="M86.7,295.4h-3.3v-1.2h8v1.2h-3.3v8.5h-1.4V295.4z"/>
		<path class="st2" d="M99.5,303.9l-2.1-3c-0.3,0-0.5,0-0.6,0h-2.4v3H93v-9.7h3.8c1.3,0,2.2,0.3,3,0.9c0.7,0.6,1.1,1.4,1.1,2.5
			c0,0.8-0.2,1.4-0.6,1.9c-0.4,0.5-0.9,0.9-1.6,1.2l2.3,3.3H99.5z M98.7,299.2c0.5-0.4,0.7-0.9,0.7-1.6s-0.2-1.2-0.7-1.6
			c-0.5-0.4-1.1-0.6-2-0.6h-2.4v4.4h2.4C97.6,299.7,98.3,299.5,98.7,299.2z"/>
		<path class="st2" d="M109.3,301.4h-5.2l-1.1,2.4h-1.4l4.4-9.7h1.4l4.4,9.7h-1.5L109.3,301.4z M108.8,300.3l-2.1-4.8l-2.1,4.8
			H108.8z"/>
		<path class="st2" d="M113.9,303.6c-0.7-0.2-1.2-0.5-1.6-0.9l0.5-1.1c0.4,0.3,0.8,0.6,1.4,0.8c0.6,0.2,1.2,0.3,1.8,0.3
			c0.8,0,1.4-0.1,1.8-0.4c0.4-0.3,0.6-0.6,0.6-1.1c0-0.3-0.1-0.6-0.3-0.8c-0.2-0.2-0.5-0.4-0.8-0.5c-0.3-0.1-0.8-0.2-1.4-0.4
			c-0.7-0.2-1.3-0.4-1.8-0.5c-0.4-0.2-0.8-0.4-1.2-0.8c-0.3-0.4-0.5-0.9-0.5-1.5c0-0.5,0.1-1,0.4-1.4c0.3-0.4,0.7-0.8,1.2-1
			c0.6-0.2,1.2-0.4,2.1-0.4c0.6,0,1.1,0.1,1.7,0.2c0.6,0.1,1,0.4,1.4,0.6L119,296c-0.4-0.3-0.8-0.5-1.3-0.6
			c-0.5-0.1-0.9-0.2-1.4-0.2c-0.8,0-1.4,0.1-1.8,0.4c-0.4,0.3-0.6,0.7-0.6,1.1c0,0.3,0.1,0.6,0.3,0.8c0.2,0.2,0.5,0.4,0.8,0.5
			c0.3,0.1,0.8,0.2,1.3,0.4c0.7,0.2,1.3,0.4,1.8,0.5c0.4,0.2,0.8,0.4,1.1,0.8c0.3,0.4,0.5,0.8,0.5,1.5c0,0.5-0.1,1-0.4,1.4
			c-0.3,0.4-0.7,0.8-1.3,1c-0.6,0.2-1.3,0.4-2.1,0.4C115.3,304,114.6,303.9,113.9,303.6z"/>
		<path class="st2" d="M132.6,302.7v1.2h-7.1v-9.7h6.9v1.2H127v3h4.9v1.2H127v3.1H132.6z"/>
		<path class="st2" d="M143.9,303.9l0-7.1l-3.5,5.9h-0.6l-3.5-5.9v7h-1.3v-9.7h1.1l4.1,6.8l4-6.8h1.1l0,9.7H143.9z"/>
		<path class="st2" d="M154.9,295.1c0.7,0.6,1.1,1.4,1.1,2.5c0,1.1-0.4,1.9-1.1,2.5c-0.7,0.6-1.7,0.9-3,0.9h-2.4v2.9h-1.4v-9.7h3.8
			C153.2,294.2,154.2,294.5,154.9,295.1z M153.9,299.2c0.5-0.4,0.7-0.9,0.7-1.6s-0.2-1.2-0.7-1.6c-0.5-0.4-1.1-0.6-2-0.6h-2.4v4.4
			h2.4C152.8,299.7,153.5,299.5,153.9,299.2z"/>
		<path class="st2" d="M164.5,303.9l-2.1-3c-0.3,0-0.5,0-0.6,0h-2.4v3H158v-9.7h3.8c1.3,0,2.2,0.3,3,0.9c0.7,0.6,1.1,1.4,1.1,2.5
			c0,0.8-0.2,1.4-0.6,1.9c-0.4,0.5-0.9,0.9-1.6,1.2l2.3,3.3H164.5z M163.8,299.2c0.5-0.4,0.7-0.9,0.7-1.6s-0.2-1.2-0.7-1.6
			c-0.5-0.4-1.1-0.6-2-0.6h-2.4v4.4h2.4C162.7,299.7,163.3,299.5,163.8,299.2z"/>
		<path class="st2" d="M175.2,302.7v1.2h-7.1v-9.7h6.9v1.2h-5.5v3h4.9v1.2h-4.9v3.1H175.2z"/>
		<path class="st2" d="M178.2,303.6c-0.7-0.2-1.2-0.5-1.6-0.9l0.5-1.1c0.4,0.3,0.8,0.6,1.4,0.8c0.6,0.2,1.2,0.3,1.8,0.3
			c0.8,0,1.4-0.1,1.8-0.4c0.4-0.3,0.6-0.6,0.6-1.1c0-0.3-0.1-0.6-0.3-0.8c-0.2-0.2-0.5-0.4-0.8-0.5c-0.3-0.1-0.8-0.2-1.4-0.4
			c-0.7-0.2-1.3-0.4-1.8-0.5c-0.4-0.2-0.8-0.4-1.2-0.8c-0.3-0.4-0.5-0.9-0.5-1.5c0-0.5,0.1-1,0.4-1.4c0.3-0.4,0.7-0.8,1.2-1
			c0.6-0.2,1.2-0.4,2.1-0.4c0.6,0,1.1,0.1,1.7,0.2c0.6,0.1,1,0.4,1.4,0.6l-0.5,1.1c-0.4-0.3-0.8-0.5-1.3-0.6
			c-0.5-0.1-0.9-0.2-1.4-0.2c-0.8,0-1.4,0.1-1.8,0.4c-0.4,0.3-0.6,0.7-0.6,1.1c0,0.3,0.1,0.6,0.3,0.8c0.2,0.2,0.5,0.4,0.8,0.5
			c0.3,0.1,0.8,0.2,1.3,0.4c0.7,0.2,1.3,0.4,1.8,0.5c0.4,0.2,0.8,0.4,1.1,0.8c0.3,0.4,0.5,0.8,0.5,1.5c0,0.5-0.1,1-0.4,1.4
			c-0.3,0.4-0.7,0.8-1.3,1c-0.6,0.2-1.3,0.4-2.1,0.4C179.6,304,178.8,303.9,178.2,303.6z"/>
		<path class="st2" d="M192.3,301.4h-5.2l-1.1,2.4h-1.4l4.4-9.7h1.4l4.4,9.7h-1.5L192.3,301.4z M191.8,300.3l-2.1-4.8l-2.1,4.8
			H191.8z"/>
		<path class="st2" d="M197,303.6c-0.7-0.2-1.2-0.5-1.6-0.9l0.5-1.1c0.4,0.3,0.8,0.6,1.4,0.8c0.6,0.2,1.2,0.3,1.8,0.3
			c0.8,0,1.4-0.1,1.8-0.4c0.4-0.3,0.6-0.6,0.6-1.1c0-0.3-0.1-0.6-0.3-0.8c-0.2-0.2-0.5-0.4-0.8-0.5c-0.3-0.1-0.8-0.2-1.4-0.4
			c-0.7-0.2-1.3-0.4-1.8-0.5c-0.4-0.2-0.8-0.4-1.2-0.8c-0.3-0.4-0.5-0.9-0.5-1.5c0-0.5,0.1-1,0.4-1.4c0.3-0.4,0.7-0.8,1.2-1
			c0.6-0.2,1.2-0.4,2.1-0.4c0.6,0,1.1,0.1,1.7,0.2c0.6,0.1,1,0.4,1.4,0.6L202,296c-0.4-0.3-0.8-0.5-1.3-0.6
			c-0.5-0.1-0.9-0.2-1.4-0.2c-0.8,0-1.4,0.1-1.8,0.4c-0.4,0.3-0.6,0.7-0.6,1.1c0,0.3,0.1,0.6,0.3,0.8c0.2,0.2,0.5,0.4,0.8,0.5
			c0.3,0.1,0.8,0.2,1.3,0.4c0.7,0.2,1.3,0.4,1.8,0.5c0.4,0.2,0.8,0.4,1.1,0.8c0.3,0.4,0.5,0.8,0.5,1.5c0,0.5-0.1,1-0.4,1.4
			c-0.3,0.4-0.7,0.8-1.3,1c-0.6,0.2-1.3,0.4-2.1,0.4C198.3,304,197.6,303.9,197,303.6z"/>
	</g>
</g>
<g>
	<g>
		<path class="st2" d="M388.5,75.4h4.6c1.1,0,2,0.2,2.8,0.6c0.8,0.4,1.5,1,1.9,1.7c0.5,0.7,0.7,1.6,0.7,2.6s-0.2,1.8-0.7,2.6
			c-0.5,0.7-1.1,1.3-1.9,1.7c-0.8,0.4-1.8,0.6-2.8,0.6h-4.6V75.4z M393,82.9c0.8,0,1.5-0.2,2-0.7c0.5-0.5,0.8-1.1,0.8-2
			c0-0.8-0.3-1.5-0.8-2c-0.5-0.5-1.2-0.7-2-0.7h-1.7v5.3H393z"/>
		<path class="st2" d="M400,75.4h2.8v9.7H400V75.4z"/>
		<path class="st2" d="M405.9,85c-0.7-0.2-1.3-0.5-1.8-0.8l0.9-2c0.4,0.3,0.9,0.5,1.5,0.7c0.6,0.2,1.1,0.3,1.7,0.3
			c1.1,0,1.6-0.3,1.6-0.8c0-0.3-0.2-0.5-0.5-0.6c-0.3-0.1-0.8-0.3-1.5-0.4c-0.7-0.2-1.3-0.3-1.8-0.5c-0.5-0.2-0.9-0.5-1.3-0.9
			c-0.4-0.4-0.5-0.9-0.5-1.6c0-0.6,0.2-1.1,0.5-1.6c0.3-0.5,0.8-0.9,1.5-1.1c0.6-0.3,1.4-0.4,2.4-0.4c0.6,0,1.3,0.1,1.9,0.2
			c0.6,0.1,1.2,0.4,1.6,0.6l-0.8,2c-0.9-0.5-1.8-0.8-2.7-0.8c-0.5,0-0.9,0.1-1.2,0.2c-0.2,0.2-0.4,0.4-0.4,0.6
			c0,0.3,0.1,0.5,0.4,0.6c0.3,0.1,0.8,0.3,1.4,0.4c0.7,0.2,1.4,0.3,1.8,0.5c0.5,0.2,0.9,0.5,1.3,0.9c0.4,0.4,0.5,0.9,0.5,1.6
			c0,0.6-0.2,1.1-0.5,1.6c-0.3,0.5-0.8,0.8-1.5,1.1c-0.6,0.3-1.4,0.4-2.4,0.4C407.4,85.3,406.6,85.2,405.9,85z"/>
		<path class="st2" d="M421.5,83v2.1h-7.8v-9.7h7.6v2.1h-4.9v1.6h4.3v2.1h-4.3V83H421.5z"/>
		<path class="st2" d="M432.3,75.4v9.7H430l-4.3-5.2v5.2H423v-9.7h2.3l4.3,5.2v-5.2H432.3z M428.1,74.6c-0.2-0.1-0.4-0.2-0.7-0.4
			c-0.2-0.1-0.3-0.2-0.4-0.3c-0.1,0-0.2-0.1-0.3-0.1c-0.2,0-0.3,0.1-0.4,0.2c-0.1,0.1-0.2,0.3-0.2,0.5h-1.3c0-0.7,0.2-1.2,0.5-1.6
			c0.3-0.4,0.7-0.6,1.3-0.6c0.3,0,0.5,0,0.7,0.1c0.2,0.1,0.4,0.2,0.7,0.4c0.2,0.1,0.3,0.2,0.4,0.3c0.1,0,0.2,0.1,0.3,0.1
			c0.2,0,0.3-0.1,0.4-0.2c0.1-0.1,0.2-0.3,0.2-0.5h1.3c0,0.7-0.2,1.2-0.5,1.6c-0.3,0.4-0.7,0.6-1.3,0.6
			C428.5,74.7,428.3,74.7,428.1,74.6z"/>
		<path class="st2" d="M436.4,84.7c-0.8-0.4-1.5-1-1.9-1.8c-0.5-0.8-0.7-1.6-0.7-2.6s0.2-1.8,0.7-2.6c0.5-0.8,1.1-1.4,1.9-1.8
			c0.8-0.4,1.7-0.7,2.8-0.7s2,0.2,2.8,0.7c0.8,0.4,1.5,1,1.9,1.8c0.5,0.8,0.7,1.6,0.7,2.6s-0.2,1.8-0.7,2.6
			c-0.5,0.8-1.1,1.4-1.9,1.8c-0.8,0.4-1.7,0.7-2.8,0.7S437.2,85.1,436.4,84.7z M440.5,82.7c0.4-0.2,0.7-0.6,0.9-1s0.3-0.9,0.3-1.5
			c0-0.5-0.1-1-0.3-1.5c-0.2-0.4-0.5-0.7-0.9-1c-0.4-0.2-0.8-0.3-1.3-0.3c-0.5,0-0.9,0.1-1.3,0.3c-0.4,0.2-0.7,0.6-0.9,1
			c-0.2,0.4-0.3,0.9-0.3,1.5c0,0.5,0.1,1,0.3,1.5c0.2,0.4,0.5,0.7,0.9,1c0.4,0.2,0.8,0.3,1.3,0.3C439.6,83.1,440.1,82.9,440.5,82.7z
			"/>
		<path class="st2" d="M366.5,110.5h4.6c1.1,0,2,0.2,2.8,0.6c0.8,0.4,1.5,1,1.9,1.7c0.5,0.7,0.7,1.6,0.7,2.6c0,1-0.2,1.8-0.7,2.6
			c-0.5,0.7-1.1,1.3-1.9,1.7c-0.8,0.4-1.8,0.6-2.8,0.6h-4.6V110.5z M371,118c0.8,0,1.5-0.2,2-0.7c0.5-0.5,0.8-1.1,0.8-2
			c0-0.8-0.3-1.5-0.8-2c-0.5-0.5-1.2-0.7-2-0.7h-1.7v5.3H371z"/>
		<path class="st2" d="M385.8,118.1v2.1H378v-9.7h7.6v2.1h-4.9v1.6h4.3v2.1h-4.3v1.8H385.8z"/>
		<path class="st2" d="M388.4,120.1c-0.7-0.2-1.3-0.5-1.8-0.8l0.9-2c0.4,0.3,0.9,0.5,1.5,0.7c0.6,0.2,1.1,0.3,1.7,0.3
			c1.1,0,1.6-0.3,1.6-0.8c0-0.3-0.2-0.5-0.5-0.6c-0.3-0.1-0.8-0.3-1.5-0.4c-0.7-0.2-1.3-0.3-1.8-0.5c-0.5-0.2-0.9-0.5-1.3-0.9
			c-0.4-0.4-0.5-0.9-0.5-1.6c0-0.6,0.2-1.1,0.5-1.6c0.3-0.5,0.8-0.9,1.5-1.1c0.6-0.3,1.4-0.4,2.4-0.4c0.6,0,1.3,0.1,1.9,0.2
			c0.6,0.1,1.2,0.4,1.6,0.6l-0.8,2c-0.9-0.5-1.8-0.8-2.7-0.8c-0.5,0-0.9,0.1-1.2,0.2c-0.2,0.2-0.4,0.4-0.4,0.6
			c0,0.3,0.1,0.5,0.4,0.6c0.3,0.1,0.8,0.3,1.4,0.4c0.7,0.2,1.4,0.3,1.8,0.5c0.5,0.2,0.9,0.5,1.3,0.9c0.4,0.4,0.5,0.9,0.5,1.6
			c0,0.6-0.2,1.1-0.5,1.6c-0.3,0.5-0.8,0.8-1.5,1.1c-0.6,0.3-1.4,0.4-2.4,0.4C389.9,120.4,389.2,120.3,388.4,120.1z"/>
		<path class="st2" d="M402.8,118.4h-4.1l-0.8,1.9h-2.8l4.3-9.7h2.7l4.3,9.7h-2.9L402.8,118.4z M402,116.3l-1.3-3.1l-1.2,3.1H402z"
			/>
		<path class="st2" d="M411.5,117.7H410v2.6h-2.8v-9.7h4.4c0.9,0,1.6,0.1,2.3,0.4c0.6,0.3,1.1,0.7,1.5,1.3c0.4,0.5,0.5,1.2,0.5,1.9
			c0,0.7-0.2,1.3-0.5,1.8c-0.3,0.5-0.8,0.9-1.4,1.2l2.1,3.1h-2.9L411.5,117.7z M412.8,113.1c-0.3-0.2-0.7-0.4-1.3-0.4H410v2.8h1.5
			c0.6,0,1-0.1,1.3-0.4c0.3-0.2,0.4-0.6,0.4-1C413.2,113.7,413,113.3,412.8,113.1z"/>
		<path class="st2" d="M421.7,117.7h-1.5v2.6h-2.8v-9.7h4.4c0.9,0,1.6,0.1,2.3,0.4c0.6,0.3,1.1,0.7,1.5,1.3c0.4,0.5,0.5,1.2,0.5,1.9
			c0,0.7-0.2,1.3-0.5,1.8c-0.3,0.5-0.8,0.9-1.4,1.2l2.1,3.1h-2.9L421.7,117.7z M423,113.1c-0.3-0.2-0.7-0.4-1.3-0.4h-1.5v2.8h1.5
			c0.6,0,1-0.1,1.3-0.4c0.3-0.2,0.4-0.6,0.4-1C423.5,113.7,423.3,113.3,423,113.1z"/>
		<path class="st2" d="M429.9,119.8c-0.8-0.4-1.5-1-1.9-1.8c-0.5-0.8-0.7-1.6-0.7-2.6s0.2-1.8,0.7-2.6c0.5-0.8,1.1-1.4,1.9-1.8
			c0.8-0.4,1.7-0.7,2.8-0.7c1,0,2,0.2,2.8,0.7c0.8,0.4,1.5,1,1.9,1.8c0.5,0.8,0.7,1.6,0.7,2.6s-0.2,1.8-0.7,2.6
			c-0.5,0.8-1.1,1.4-1.9,1.8c-0.8,0.4-1.7,0.7-2.8,0.7C431.6,120.4,430.7,120.2,429.9,119.8z M434,117.8c0.4-0.2,0.7-0.6,0.9-1
			c0.2-0.4,0.3-0.9,0.3-1.5c0-0.5-0.1-1-0.3-1.5c-0.2-0.4-0.5-0.7-0.9-1c-0.4-0.2-0.8-0.3-1.3-0.3c-0.5,0-0.9,0.1-1.3,0.3
			c-0.4,0.2-0.7,0.6-0.9,1c-0.2,0.4-0.3,0.9-0.3,1.5c0,0.5,0.1,1,0.3,1.5c0.2,0.4,0.5,0.7,0.9,1c0.4,0.2,0.8,0.3,1.3,0.3
			C433.1,118.2,433.6,118,434,117.8z"/>
		<path class="st2" d="M439.5,110.5h2.8v7.5h4.6v2.2h-7.4V110.5z"/>
		<path class="st2" d="M448,110.5h2.8v7.5h4.6v2.2H448V110.5z"/>
		<path class="st2" d="M458.4,119.8c-0.8-0.4-1.5-1-1.9-1.8c-0.5-0.8-0.7-1.6-0.7-2.6s0.2-1.8,0.7-2.6c0.5-0.8,1.1-1.4,1.9-1.8
			c0.8-0.4,1.7-0.7,2.8-0.7c1,0,2,0.2,2.8,0.7c0.8,0.4,1.5,1,1.9,1.8c0.5,0.8,0.7,1.6,0.7,2.6s-0.2,1.8-0.7,2.6s-1.1,1.4-1.9,1.8
			c-0.8,0.4-1.7,0.7-2.8,0.7C460.2,120.4,459.3,120.2,458.4,119.8z M462.5,117.8c0.4-0.2,0.7-0.6,0.9-1s0.3-0.9,0.3-1.5
			c0-0.5-0.1-1-0.3-1.5c-0.2-0.4-0.5-0.7-0.9-1c-0.4-0.2-0.8-0.3-1.3-0.3c-0.5,0-0.9,0.1-1.3,0.3c-0.4,0.2-0.7,0.6-0.9,1
			c-0.2,0.4-0.3,0.9-0.3,1.5c0,0.5,0.1,1,0.3,1.5c0.2,0.4,0.5,0.7,0.9,1c0.4,0.2,0.8,0.3,1.3,0.3C461.7,118.2,462.1,118,462.5,117.8
			z"/>
		<path class="st2" d="M365.1,146.1c0.6,0.3,1.1,0.7,1.5,1.3c0.4,0.5,0.5,1.2,0.5,1.9c0,0.7-0.2,1.4-0.5,1.9c-0.4,0.5-0.9,1-1.5,1.2
			c-0.6,0.3-1.4,0.4-2.3,0.4h-1.7v2.5h-2.8v-9.7h4.4C363.7,145.6,364.4,145.8,365.1,146.1z M363.9,150.3c0.3-0.2,0.4-0.6,0.4-1
			c0-0.5-0.1-0.8-0.4-1.1c-0.3-0.2-0.7-0.4-1.3-0.4h-1.5v2.8h1.5C363.2,150.6,363.6,150.5,363.9,150.3z"/>
		<path class="st2" d="M368.4,145.6h2.8v7.5h4.6v2.2h-7.4V145.6z"/>
		<path class="st2" d="M383.5,153.5h-4.1l-0.8,1.9h-2.8l4.3-9.7h2.7l4.3,9.7h-2.9L383.5,153.5z M382.7,151.4l-1.3-3.1l-1.2,3.1
			H382.7z"/>
		<path class="st2" d="M397.2,145.6v9.7h-2.3l-4.3-5.2v5.2h-2.7v-9.7h2.3l4.3,5.2v-5.2H397.2z"/>
		<path class="st2" d="M399.1,145.6h2.8v9.7h-2.8V145.6z"/>
		<path class="st2" d="M406.6,147.8v2.1h4.3v2.1h-4.3v3.3h-2.8v-9.7h7.6v2.1H406.6z"/>
		<path class="st2" d="M412.7,145.6h2.8v9.7h-2.8V145.6z"/>
		<path class="st2" d="M419.6,154.9c-0.8-0.4-1.4-1-1.9-1.8c-0.5-0.8-0.7-1.6-0.7-2.6c0-1,0.2-1.8,0.7-2.6c0.5-0.8,1.1-1.4,1.9-1.8
			c0.8-0.4,1.7-0.6,2.7-0.6c0.9,0,1.7,0.2,2.4,0.5c0.7,0.3,1.3,0.8,1.8,1.4l-1.8,1.6c-0.6-0.8-1.4-1.1-2.3-1.1c-0.5,0-1,0.1-1.4,0.3
			c-0.4,0.2-0.7,0.6-1,1c-0.2,0.4-0.3,0.9-0.3,1.5c0,0.5,0.1,1,0.3,1.5s0.5,0.7,1,1c0.4,0.2,0.9,0.3,1.4,0.3c0.9,0,1.7-0.4,2.3-1.1
			l1.8,1.6c-0.5,0.6-1.1,1-1.8,1.4c-0.7,0.3-1.5,0.5-2.4,0.5C421.3,155.5,420.4,155.3,419.6,154.9z"/>
		<path class="st2" d="M434,153.5h-4.1l-0.8,1.9h-2.8l4.3-9.7h2.7l4.3,9.7h-2.9L434,153.5z M433.2,151.4l-1.3-3.1l-1.2,3.1H433.2z"
			/>
		<path class="st2" d="M440.4,154.9c-0.8-0.4-1.4-1-1.9-1.8c-0.5-0.8-0.7-1.6-0.7-2.6c0-1,0.2-1.8,0.7-2.6c0.5-0.8,1.1-1.4,1.9-1.8
			c0.8-0.4,1.7-0.6,2.7-0.6c0.9,0,1.7,0.2,2.4,0.5c0.7,0.3,1.3,0.8,1.8,1.4l-1.8,1.6c-0.6-0.8-1.4-1.1-2.3-1.1c-0.5,0-1,0.1-1.4,0.3
			s-0.7,0.6-1,1c-0.2,0.4-0.3,0.9-0.3,1.5c0,0.5,0.1,1,0.3,1.5c0.2,0.4,0.5,0.7,1,1c0.4,0.2,0.9,0.3,1.4,0.3c0.9,0,1.7-0.4,2.3-1.1
			l1.8,1.6c-0.5,0.6-1.1,1-1.8,1.4c-0.7,0.3-1.5,0.5-2.4,0.5C442.1,155.5,441.2,155.3,440.4,154.9z"/>
		<path class="st2" d="M448.6,145.6h2.8v9.7h-2.8V145.6z"/>
		<path class="st2" d="M455.4,154.9c-0.8-0.4-1.5-1-1.9-1.8c-0.5-0.8-0.7-1.6-0.7-2.6c0-1,0.2-1.8,0.7-2.6c0.5-0.8,1.1-1.4,1.9-1.8
			c0.8-0.4,1.7-0.7,2.8-0.7s2,0.2,2.8,0.7c0.8,0.4,1.5,1,1.9,1.8c0.5,0.8,0.7,1.6,0.7,2.6c0,1-0.2,1.8-0.7,2.6
			c-0.5,0.8-1.1,1.4-1.9,1.8c-0.8,0.4-1.7,0.7-2.8,0.7S456.2,155.3,455.4,154.9z M459.5,152.9c0.4-0.2,0.7-0.6,0.9-1
			s0.3-0.9,0.3-1.5c0-0.5-0.1-1-0.3-1.5c-0.2-0.4-0.5-0.7-0.9-1c-0.4-0.2-0.8-0.3-1.3-0.3c-0.5,0-0.9,0.1-1.3,0.3
			c-0.4,0.2-0.7,0.6-0.9,1c-0.2,0.4-0.3,0.9-0.3,1.5c0,0.5,0.1,1,0.3,1.5c0.2,0.4,0.5,0.7,0.9,1c0.4,0.2,0.8,0.3,1.3,0.3
			C458.7,153.3,459.1,153.1,459.5,152.9z M458.7,142.7h2.6l-2.6,2.1h-1.9L458.7,142.7z"/>
		<path class="st2" d="M474.3,145.6v9.7H472l-4.3-5.2v5.2H465v-9.7h2.3l4.3,5.2v-5.2H474.3z"/>
		<path class="st2" d="M309.5,188.6h-4.1l-0.8,1.9h-2.8l4.3-9.7h2.7l4.3,9.7h-2.9L309.5,188.6z M308.7,186.5l-1.3-3.1l-1.2,3.1
			H308.7z"/>
		<path class="st2" d="M314.8,189.5c-0.8-0.8-1.2-1.9-1.2-3.3v-5.4h2.7v5.3c0,1.6,0.6,2.3,1.8,2.3c1.2,0,1.8-0.8,1.8-2.3v-5.3h2.7
			v5.4c0,1.4-0.4,2.6-1.2,3.3c-0.8,0.8-1.9,1.2-3.4,1.2C316.8,190.6,315.6,190.3,314.8,189.5z"/>
		<path class="st2" d="M326.6,182.9h-3v-2.2h8.7v2.2h-3v7.5h-2.7V182.9z"/>
		<path class="st2" d="M335.3,190c-0.8-0.4-1.5-1-1.9-1.8c-0.5-0.8-0.7-1.6-0.7-2.6s0.2-1.8,0.7-2.6c0.5-0.8,1.1-1.4,1.9-1.8
			c0.8-0.4,1.7-0.7,2.8-0.7s2,0.2,2.8,0.7c0.8,0.4,1.5,1,1.9,1.8c0.5,0.8,0.7,1.6,0.7,2.6s-0.2,1.8-0.7,2.6
			c-0.5,0.8-1.1,1.4-1.9,1.8c-0.8,0.4-1.7,0.7-2.8,0.7S336.1,190.4,335.3,190z M339.4,188c0.4-0.2,0.7-0.6,0.9-1
			c0.2-0.4,0.3-0.9,0.3-1.5c0-0.5-0.1-1-0.3-1.5c-0.2-0.4-0.5-0.7-0.9-1c-0.4-0.2-0.8-0.3-1.3-0.3c-0.5,0-0.9,0.1-1.3,0.3
			c-0.4,0.2-0.7,0.6-0.9,1c-0.2,0.4-0.3,0.9-0.3,1.5c0,0.5,0.1,1,0.3,1.5c0.2,0.4,0.5,0.7,0.9,1c0.4,0.2,0.8,0.3,1.3,0.3
			C338.6,188.4,339,188.3,339.4,188z"/>
		<path class="st2" d="M349.2,187.9h-1.5v2.6h-2.8v-9.7h4.4c0.9,0,1.6,0.1,2.3,0.4c0.6,0.3,1.1,0.7,1.5,1.3c0.4,0.5,0.5,1.2,0.5,1.9
			c0,0.7-0.2,1.3-0.5,1.8c-0.3,0.5-0.8,0.9-1.4,1.2l2.1,3.1h-2.9L349.2,187.9z M350.5,183.3c-0.3-0.2-0.7-0.4-1.3-0.4h-1.5v2.8h1.5
			c0.6,0,1-0.1,1.3-0.4c0.3-0.2,0.4-0.6,0.4-1C350.9,183.9,350.8,183.5,350.5,183.3z"/>
		<path class="st2" d="M355.2,180.7h2.8v9.7h-2.8V180.7z"/>
		<path class="st2" d="M359.9,180.7h4.6c1.1,0,2,0.2,2.8,0.6c0.8,0.4,1.5,1,1.9,1.7c0.5,0.7,0.7,1.6,0.7,2.6s-0.2,1.8-0.7,2.6
			c-0.5,0.7-1.1,1.3-1.9,1.7c-0.8,0.4-1.8,0.6-2.8,0.6h-4.6V180.7z M364.4,188.3c0.8,0,1.5-0.2,2-0.7c0.5-0.5,0.8-1.1,0.8-2
			c0-0.8-0.3-1.5-0.8-2c-0.5-0.5-1.2-0.7-2-0.7h-1.7v5.3H364.4z"/>
		<path class="st2" d="M377.7,188.6h-4.1l-0.8,1.9h-2.8l4.3-9.7h2.7l4.3,9.7h-2.9L377.7,188.6z M376.9,186.5l-1.3-3.1l-1.2,3.1
			H376.9z"/>
		<path class="st2" d="M382.2,180.7h4.6c1.1,0,2,0.2,2.8,0.6c0.8,0.4,1.5,1,1.9,1.7c0.5,0.7,0.7,1.6,0.7,2.6s-0.2,1.8-0.7,2.6
			c-0.5,0.7-1.1,1.3-1.9,1.7c-0.8,0.4-1.8,0.6-2.8,0.6h-4.6V180.7z M386.6,188.3c0.8,0,1.5-0.2,2-0.7c0.5-0.5,0.8-1.1,0.8-2
			c0-0.8-0.3-1.5-0.8-2c-0.5-0.5-1.2-0.7-2-0.7h-1.7v5.3H386.6z"/>
		<path class="st2" d="M401.4,188.3v2.1h-7.8v-9.7h7.6v2.1h-4.9v1.6h4.3v2.1h-4.3v1.8H401.4z"/>
		<path class="st2" d="M404.1,190.4c-0.7-0.2-1.3-0.5-1.8-0.8l0.9-2c0.4,0.3,0.9,0.5,1.5,0.7c0.6,0.2,1.1,0.3,1.7,0.3
			c1.1,0,1.6-0.3,1.6-0.8c0-0.3-0.2-0.5-0.5-0.6c-0.3-0.1-0.8-0.3-1.5-0.4c-0.7-0.2-1.3-0.3-1.8-0.5c-0.5-0.2-0.9-0.5-1.3-0.9
			c-0.4-0.4-0.5-0.9-0.5-1.6c0-0.6,0.2-1.1,0.5-1.6c0.3-0.5,0.8-0.9,1.5-1.1c0.6-0.3,1.4-0.4,2.4-0.4c0.6,0,1.3,0.1,1.9,0.2
			c0.6,0.1,1.2,0.4,1.6,0.6l-0.8,2c-0.9-0.5-1.8-0.8-2.7-0.8c-0.5,0-0.9,0.1-1.2,0.2c-0.2,0.2-0.4,0.4-0.4,0.6
			c0,0.3,0.1,0.5,0.4,0.6c0.3,0.1,0.8,0.3,1.4,0.4c0.7,0.2,1.4,0.3,1.8,0.5c0.5,0.2,0.9,0.5,1.3,0.9c0.4,0.4,0.5,0.9,0.5,1.6
			c0,0.6-0.2,1.1-0.5,1.6c-0.3,0.5-0.8,0.8-1.5,1.1c-0.6,0.3-1.4,0.4-2.4,0.4C405.6,190.6,404.8,190.6,404.1,190.4z"/>
		<path class="st2" d="M420.2,187.9h-1.5v2.6H416v-9.7h4.4c0.9,0,1.6,0.1,2.3,0.4c0.6,0.3,1.1,0.7,1.5,1.3c0.4,0.5,0.5,1.2,0.5,1.9
			c0,0.7-0.2,1.3-0.5,1.8c-0.3,0.5-0.8,0.9-1.4,1.2l2.1,3.1H422L420.2,187.9z M421.5,183.3c-0.3-0.2-0.7-0.4-1.3-0.4h-1.5v2.8h1.5
			c0.6,0,1-0.1,1.3-0.4c0.3-0.2,0.4-0.6,0.4-1C422,183.9,421.8,183.5,421.5,183.3z"/>
		<path class="st2" d="M434.1,188.3v2.1h-7.8v-9.7h7.6v2.1H429v1.6h4.3v2.1H429v1.8H434.1z"/>
		<path class="st2" d="M442.1,185.4h2.4v4c-0.6,0.4-1.2,0.7-1.9,0.9c-0.7,0.2-1.4,0.3-2.2,0.3c-1,0-1.9-0.2-2.7-0.6
			c-0.8-0.4-1.5-1-1.9-1.8c-0.5-0.8-0.7-1.6-0.7-2.6c0-1,0.2-1.8,0.7-2.6c0.5-0.8,1.1-1.4,1.9-1.8c0.8-0.4,1.8-0.6,2.8-0.6
			c0.9,0,1.7,0.2,2.4,0.5c0.7,0.3,1.3,0.7,1.8,1.3l-1.7,1.6c-0.7-0.7-1.4-1.1-2.4-1.1c-0.8,0-1.5,0.3-2,0.8c-0.5,0.5-0.8,1.2-0.8,2
			c0,0.5,0.1,1,0.3,1.4c0.2,0.4,0.6,0.7,1,1c0.4,0.2,0.9,0.4,1.4,0.4c0.5,0,1-0.1,1.5-0.3V185.4z"/>
		<path class="st2" d="M447.4,189.5c-0.8-0.8-1.2-1.9-1.2-3.3v-5.4h2.8v5.3c0,1.6,0.6,2.3,1.8,2.3c1.2,0,1.8-0.8,1.8-2.3v-5.3h2.7
			v5.4c0,1.4-0.4,2.6-1.2,3.3c-0.8,0.8-1.9,1.2-3.4,1.2C449.3,190.6,448.2,190.3,447.4,189.5z"/>
		<path class="st2" d="M457.2,180.7h2.8v7.5h4.6v2.2h-7.4V180.7z"/>
		<path class="st2" d="M472.3,188.6h-4.1l-0.8,1.9h-2.8l4.3-9.7h2.7l4.3,9.7h-2.9L472.3,188.6z M471.5,186.5l-1.2-3.1l-1.2,3.1
			H471.5z"/>
		<path class="st2" d="M478.3,182.9h-3v-2.2h8.7v2.2h-3v7.5h-2.8V182.9z"/>
		<path class="st2" d="M487,190c-0.8-0.4-1.5-1-1.9-1.8c-0.5-0.8-0.7-1.6-0.7-2.6s0.2-1.8,0.7-2.6c0.5-0.8,1.1-1.4,1.9-1.8
			c0.8-0.4,1.7-0.7,2.8-0.7c1,0,2,0.2,2.8,0.7c0.8,0.4,1.5,1,1.9,1.8c0.5,0.8,0.7,1.6,0.7,2.6s-0.2,1.8-0.7,2.6
			c-0.5,0.8-1.1,1.4-1.9,1.8c-0.8,0.4-1.7,0.7-2.8,0.7C488.8,190.6,487.8,190.4,487,190z M491.1,188c0.4-0.2,0.7-0.6,0.9-1
			s0.3-0.9,0.3-1.5c0-0.5-0.1-1-0.3-1.5c-0.2-0.4-0.5-0.7-0.9-1c-0.4-0.2-0.8-0.3-1.3-0.3c-0.5,0-0.9,0.1-1.3,0.3
			c-0.4,0.2-0.7,0.6-0.9,1c-0.2,0.4-0.3,0.9-0.3,1.5c0,0.5,0.1,1,0.3,1.5c0.2,0.4,0.5,0.7,0.9,1c0.4,0.2,0.8,0.3,1.3,0.3
			C490.3,188.4,490.7,188.3,491.1,188z"/>
		<path class="st2" d="M500.9,187.9h-1.5v2.6h-2.8v-9.7h4.4c0.9,0,1.6,0.1,2.3,0.4c0.6,0.3,1.1,0.7,1.5,1.3c0.4,0.5,0.5,1.2,0.5,1.9
			c0,0.7-0.2,1.3-0.5,1.8c-0.3,0.5-0.8,0.9-1.4,1.2l2.1,3.1h-2.9L500.9,187.9z M502.2,183.3c-0.3-0.2-0.7-0.4-1.3-0.4h-1.5v2.8h1.5
			c0.6,0,1-0.1,1.3-0.4c0.3-0.2,0.4-0.6,0.4-1C502.6,183.9,502.5,183.5,502.2,183.3z"/>
		<path class="st2" d="M506.9,180.7h2.8v9.7h-2.8V180.7z"/>
		<path class="st2" d="M518.1,188.6H514l-0.8,1.9h-2.8l4.3-9.7h2.7l4.3,9.7h-2.9L518.1,188.6z M517.3,186.5l-1.2-3.1l-1.2,3.1H517.3
			z"/>
		<path class="st2" d="M523.7,190.4c-0.7-0.2-1.3-0.5-1.8-0.8l0.9-2c0.4,0.3,0.9,0.5,1.5,0.7c0.6,0.2,1.1,0.3,1.7,0.3
			c1.1,0,1.6-0.3,1.6-0.8c0-0.3-0.2-0.5-0.5-0.6c-0.3-0.1-0.8-0.3-1.5-0.4c-0.7-0.2-1.3-0.3-1.8-0.5c-0.5-0.2-0.9-0.5-1.3-0.9
			c-0.4-0.4-0.5-0.9-0.5-1.6c0-0.6,0.2-1.1,0.5-1.6c0.3-0.5,0.8-0.9,1.5-1.1c0.6-0.3,1.4-0.4,2.4-0.4c0.6,0,1.3,0.1,1.9,0.2
			c0.6,0.1,1.2,0.4,1.6,0.6l-0.8,2c-0.9-0.5-1.8-0.8-2.7-0.8c-0.5,0-0.9,0.1-1.2,0.2c-0.2,0.2-0.4,0.4-0.4,0.6
			c0,0.3,0.1,0.5,0.4,0.6c0.3,0.1,0.8,0.3,1.4,0.4c0.7,0.2,1.4,0.3,1.8,0.5c0.5,0.2,0.9,0.5,1.3,0.9c0.4,0.4,0.5,0.9,0.5,1.6
			c0,0.6-0.2,1.1-0.5,1.6c-0.3,0.5-0.8,0.8-1.5,1.1c-0.6,0.3-1.4,0.4-2.4,0.4C525.2,190.6,524.4,190.6,523.7,190.4z"/>
		<path class="st2" d="M370,223.4v2.1h-7.8v-9.7h7.6v2.1h-4.9v1.6h4.3v2.1h-4.3v1.8H370z"/>
		<path class="st2" d="M371.5,215.8h2.8v7.5h4.6v2.2h-7.4V215.8z"/>
		<path class="st2" d="M386.6,223.7h-4.1l-0.8,1.9h-2.8l4.3-9.7h2.7l4.3,9.7h-2.9L386.6,223.7z M385.8,221.6l-1.3-3.1l-1.2,3.1
			H385.8z"/>
		<path class="st2" d="M399.8,221.4c0.3,0.4,0.5,0.9,0.5,1.5c0,0.9-0.3,1.5-1,2c-0.7,0.5-1.7,0.7-3,0.7H391v-9.7h5
			c1.2,0,2.2,0.2,2.8,0.7c0.6,0.5,1,1.1,1,1.9c0,0.5-0.1,0.9-0.3,1.2c-0.2,0.4-0.5,0.7-1,0.9C399,220.7,399.5,221,399.8,221.4z
			 M393.7,217.8v1.9h1.9c0.9,0,1.4-0.3,1.4-0.9c0-0.6-0.5-0.9-1.4-0.9H393.7z M397.5,222.6c0-0.7-0.5-1-1.4-1h-2.3v2h2.3
			C397,223.6,397.5,223.2,397.5,222.6z"/>
		<path class="st2" d="M403.8,225.1c-0.8-0.4-1.5-1-1.9-1.8c-0.5-0.8-0.7-1.6-0.7-2.6c0-1,0.2-1.8,0.7-2.6c0.5-0.8,1.1-1.4,1.9-1.8
			c0.8-0.4,1.7-0.7,2.8-0.7c1,0,2,0.2,2.8,0.7c0.8,0.4,1.5,1,1.9,1.8c0.5,0.8,0.7,1.6,0.7,2.6c0,1-0.2,1.8-0.7,2.6
			c-0.5,0.8-1.1,1.4-1.9,1.8c-0.8,0.4-1.7,0.7-2.8,0.7C405.5,225.8,404.6,225.5,403.8,225.1z M407.9,223.1c0.4-0.2,0.7-0.6,0.9-1
			c0.2-0.4,0.3-0.9,0.3-1.5c0-0.5-0.1-1-0.3-1.5c-0.2-0.4-0.5-0.7-0.9-1c-0.4-0.2-0.8-0.3-1.3-0.3c-0.5,0-0.9,0.1-1.3,0.3
			c-0.4,0.2-0.7,0.6-0.9,1c-0.2,0.4-0.3,0.9-0.3,1.5c0,0.5,0.1,1,0.3,1.5c0.2,0.4,0.5,0.7,0.9,1c0.4,0.2,0.8,0.3,1.3,0.3
			C407.1,223.5,407.5,223.4,407.9,223.1z"/>
		<path class="st2" d="M417.7,223h-1.5v2.6h-2.8v-9.7h4.4c0.9,0,1.6,0.1,2.3,0.4c0.6,0.3,1.1,0.7,1.5,1.3c0.4,0.5,0.5,1.2,0.5,1.9
			c0,0.7-0.2,1.3-0.5,1.8c-0.3,0.5-0.8,0.9-1.4,1.2l2.1,3.1h-2.9L417.7,223z M419,218.4c-0.3-0.2-0.7-0.4-1.3-0.4h-1.5v2.8h1.5
			c0.6,0,1-0.1,1.3-0.4c0.3-0.2,0.4-0.6,0.4-1C419.4,219,419.3,218.6,419,218.4z"/>
		<path class="st2" d="M430.2,223.7h-4.1l-0.8,1.9h-2.8l4.3-9.7h2.7l4.3,9.7H431L430.2,223.7z M429.4,221.6l-1.3-3.1l-1.2,3.1H429.4
			z"/>
		<path class="st2" d="M436.6,225.1c-0.8-0.4-1.4-1-1.9-1.8c-0.5-0.8-0.7-1.6-0.7-2.6c0-1,0.2-1.8,0.7-2.6c0.5-0.8,1.1-1.4,1.9-1.8
			s1.7-0.6,2.7-0.6c0.9,0,1.7,0.2,2.4,0.5c0.7,0.3,1.3,0.8,1.8,1.4l-1.8,1.6c-0.6-0.8-1.4-1.1-2.3-1.1c-0.5,0-1,0.1-1.4,0.3
			c-0.4,0.2-0.7,0.6-1,1c-0.2,0.4-0.3,0.9-0.3,1.5c0,0.5,0.1,1,0.3,1.5s0.5,0.7,1,1c0.4,0.2,0.9,0.3,1.4,0.3c0.9,0,1.7-0.4,2.3-1.1
			l1.8,1.6c-0.5,0.6-1.1,1-1.8,1.4c-0.7,0.3-1.5,0.5-2.4,0.5C438.3,225.8,437.4,225.5,436.6,225.1z"/>
		<path class="st2" d="M444.7,215.8h2.8v9.7h-2.8V215.8z"/>
		<path class="st2" d="M451.6,225.1c-0.8-0.4-1.5-1-1.9-1.8c-0.5-0.8-0.7-1.6-0.7-2.6c0-1,0.2-1.8,0.7-2.6c0.5-0.8,1.1-1.4,1.9-1.8
			c0.8-0.4,1.7-0.7,2.8-0.7s2,0.2,2.8,0.7c0.8,0.4,1.5,1,1.9,1.8c0.5,0.8,0.7,1.6,0.7,2.6c0,1-0.2,1.8-0.7,2.6
			c-0.5,0.8-1.1,1.4-1.9,1.8c-0.8,0.4-1.7,0.7-2.8,0.7S452.4,225.5,451.6,225.1z M455.7,223.1c0.4-0.2,0.7-0.6,0.9-1
			s0.3-0.9,0.3-1.5c0-0.5-0.1-1-0.3-1.5c-0.2-0.4-0.5-0.7-0.9-1c-0.4-0.2-0.8-0.3-1.3-0.3c-0.5,0-0.9,0.1-1.3,0.3
			c-0.4,0.2-0.7,0.6-0.9,1c-0.2,0.4-0.3,0.9-0.3,1.5c0,0.5,0.1,1,0.3,1.5c0.2,0.4,0.5,0.7,0.9,1c0.4,0.2,0.8,0.3,1.3,0.3
			C454.8,223.5,455.3,223.4,455.7,223.1z M454.8,212.9h2.6l-2.6,2.1H453L454.8,212.9z"/>
		<path class="st2" d="M470.4,215.8v9.7h-2.3l-4.3-5.2v5.2h-2.7v-9.7h2.3l4.3,5.2v-5.2H470.4z"/>
		<path class="st2" d="M343.5,260.2c-0.8-0.4-1.4-1-1.9-1.8c-0.5-0.8-0.7-1.6-0.7-2.6s0.2-1.8,0.7-2.6c0.5-0.8,1.1-1.4,1.9-1.8
			c0.8-0.4,1.7-0.6,2.7-0.6c0.9,0,1.7,0.2,2.4,0.5c0.7,0.3,1.3,0.8,1.8,1.4l-1.8,1.6c-0.6-0.8-1.4-1.1-2.3-1.1c-0.5,0-1,0.1-1.4,0.3
			c-0.4,0.2-0.7,0.6-1,1s-0.3,0.9-0.3,1.5c0,0.5,0.1,1,0.3,1.5s0.5,0.7,1,1c0.4,0.2,0.9,0.3,1.4,0.3c0.9,0,1.7-0.4,2.3-1.1l1.8,1.6
			c-0.5,0.6-1.1,1-1.8,1.4c-0.7,0.3-1.5,0.5-2.4,0.5C345.2,260.9,344.3,260.6,343.5,260.2z"/>
		<path class="st2" d="M353.5,260.2c-0.8-0.4-1.5-1-1.9-1.8c-0.5-0.8-0.7-1.6-0.7-2.6c0-1,0.2-1.8,0.7-2.6c0.5-0.8,1.1-1.4,1.9-1.8
			c0.8-0.4,1.7-0.7,2.8-0.7c1,0,2,0.2,2.8,0.7c0.8,0.4,1.5,1,1.9,1.8c0.5,0.8,0.7,1.6,0.7,2.6c0,1-0.2,1.8-0.7,2.6
			c-0.5,0.8-1.1,1.4-1.9,1.8c-0.8,0.4-1.7,0.7-2.8,0.7C355.3,260.9,354.4,260.6,353.5,260.2z M357.6,258.2c0.4-0.2,0.7-0.6,0.9-1
			c0.2-0.4,0.3-0.9,0.3-1.5c0-0.5-0.1-1-0.3-1.5c-0.2-0.4-0.5-0.7-0.9-1c-0.4-0.2-0.8-0.3-1.3-0.3c-0.5,0-0.9,0.1-1.3,0.3
			c-0.4,0.2-0.7,0.6-0.9,1c-0.2,0.4-0.3,0.9-0.3,1.5c0,0.5,0.1,1,0.3,1.5c0.2,0.4,0.5,0.7,0.9,1c0.4,0.2,0.8,0.3,1.3,0.3
			C356.8,258.6,357.2,258.5,357.6,258.2z"/>
		<path class="st2" d="M371.9,260.7l0-5.2l-2.5,4.2h-1.2l-2.5-4.1v5h-2.5v-9.7h2.3l3.4,5.6l3.3-5.6h2.3l0,9.7H371.9z"/>
		<path class="st2" d="M384.2,258.5v2.1h-7.8v-9.7h7.6v2.1h-4.9v1.6h4.3v2.1h-4.3v1.8H384.2z"/>
		<path class="st2" d="M390,258.1h-1.5v2.6h-2.8v-9.7h4.4c0.9,0,1.6,0.1,2.3,0.4c0.6,0.3,1.1,0.7,1.5,1.2c0.4,0.5,0.5,1.2,0.5,1.9
			c0,0.7-0.2,1.3-0.5,1.8c-0.3,0.5-0.8,0.9-1.4,1.2l2.1,3.1h-2.9L390,258.1z M391.3,253.5c-0.3-0.2-0.7-0.4-1.3-0.4h-1.5v2.8h1.5
			c0.6,0,1-0.1,1.3-0.4c0.3-0.2,0.4-0.6,0.4-1C391.7,254.1,391.6,253.7,391.3,253.5z"/>
		<path class="st2" d="M398.1,260.2c-0.8-0.4-1.4-1-1.9-1.8c-0.5-0.8-0.7-1.6-0.7-2.6s0.2-1.8,0.7-2.6c0.5-0.8,1.1-1.4,1.9-1.8
			c0.8-0.4,1.7-0.6,2.7-0.6c0.9,0,1.7,0.2,2.4,0.5c0.7,0.3,1.3,0.8,1.8,1.4l-1.8,1.6c-0.6-0.8-1.4-1.1-2.3-1.1c-0.5,0-1,0.1-1.4,0.3
			c-0.4,0.2-0.7,0.6-1,1s-0.3,0.9-0.3,1.5c0,0.5,0.1,1,0.3,1.5s0.5,0.7,1,1c0.4,0.2,0.9,0.3,1.4,0.3c0.9,0,1.7-0.4,2.3-1.1l1.8,1.6
			c-0.5,0.6-1.1,1-1.8,1.4c-0.7,0.3-1.5,0.5-2.4,0.5C399.8,260.9,398.9,260.6,398.1,260.2z"/>
		<path class="st2" d="M406.3,250.9h2.8v9.7h-2.8V250.9z"/>
		<path class="st2" d="M417.5,258.8h-4.1l-0.8,1.9h-2.8l4.3-9.7h2.7l4.3,9.7h-2.9L417.5,258.8z M416.7,256.7l-1.3-3.1l-1.2,3.1
			H416.7z"/>
		<path class="st2" d="M421.9,250.9h2.8v7.5h4.6v2.2h-7.4V250.9z"/>
		<path class="st2" d="M430.4,250.9h2.8v9.7h-2.8V250.9z"/>
		<path class="st2" d="M443.3,258.5v2.2h-8.7v-1.7l4.9-5.8h-4.8v-2.2h8.4v1.7l-4.9,5.8H443.3z"/>
		<path class="st2" d="M451,258.8h-4.1l-0.8,1.9h-2.8l4.3-9.7h2.7l4.3,9.7h-2.9L451,258.8z M450.2,256.7l-1.2-3.1l-1.2,3.1H450.2z"
			/>
		<path class="st2" d="M457.4,260.2c-0.8-0.4-1.4-1-1.9-1.8c-0.5-0.8-0.7-1.6-0.7-2.6s0.2-1.8,0.7-2.6c0.5-0.8,1.1-1.4,1.9-1.8
			c0.8-0.4,1.7-0.6,2.7-0.6c0.9,0,1.7,0.2,2.4,0.5c0.7,0.3,1.3,0.8,1.8,1.4l-1.8,1.6c-0.6-0.8-1.4-1.1-2.3-1.1c-0.5,0-1,0.1-1.4,0.3
			c-0.4,0.2-0.7,0.6-1,1c-0.2,0.4-0.3,0.9-0.3,1.5c0,0.5,0.1,1,0.3,1.5c0.2,0.4,0.5,0.7,1,1c0.4,0.2,0.9,0.3,1.4,0.3
			c0.9,0,1.7-0.4,2.3-1.1l1.8,1.6c-0.5,0.6-1.1,1-1.8,1.4c-0.7,0.3-1.5,0.5-2.4,0.5C459.1,260.9,458.2,260.6,457.4,260.2z"/>
		<path class="st2" d="M465.5,250.9h2.8v9.7h-2.8V250.9z"/>
		<path class="st2" d="M472.4,260.2c-0.8-0.4-1.5-1-1.9-1.8c-0.5-0.8-0.7-1.6-0.7-2.6c0-1,0.2-1.8,0.7-2.6c0.5-0.8,1.1-1.4,1.9-1.8
			c0.8-0.4,1.7-0.7,2.8-0.7s2,0.2,2.8,0.7c0.8,0.4,1.5,1,1.9,1.8c0.5,0.8,0.7,1.6,0.7,2.6c0,1-0.2,1.8-0.7,2.6
			c-0.5,0.8-1.1,1.4-1.9,1.8c-0.8,0.4-1.7,0.7-2.8,0.7S473.2,260.6,472.4,260.2z M476.5,258.2c0.4-0.2,0.7-0.6,0.9-1
			s0.3-0.9,0.3-1.5c0-0.5-0.1-1-0.3-1.5s-0.5-0.7-0.9-1c-0.4-0.2-0.8-0.3-1.3-0.3c-0.5,0-0.9,0.1-1.3,0.3s-0.7,0.6-0.9,1
			c-0.2,0.4-0.3,0.9-0.3,1.5c0,0.5,0.1,1,0.3,1.5c0.2,0.4,0.5,0.7,0.9,1s0.8,0.3,1.3,0.3C475.6,258.6,476.1,258.5,476.5,258.2z
			 M475.6,248h2.6l-2.6,2.1h-1.9L475.6,248z"/>
		<path class="st2" d="M491.2,250.9v9.7H489l-4.3-5.2v5.2H482v-9.7h2.3l4.3,5.2v-5.2H491.2z"/>
		<path class="st2" d="M349.7,295.8l0-5.2l-2.5,4.2h-1.2l-2.5-4.1v5h-2.5V286h2.3l3.4,5.6l3.3-5.6h2.3l0,9.7H349.7z"/>
		<path class="st2" d="M360.7,293.9h-4.1l-0.8,1.9H353l4.3-9.7h2.7l4.3,9.7h-2.9L360.7,293.9z M359.9,291.9l-1.3-3.1l-1.2,3.1H359.9
			z"/>
		<path class="st2" d="M369.3,293.2h-1.5v2.6h-2.8V286h4.4c0.9,0,1.6,0.1,2.3,0.4c0.6,0.3,1.1,0.7,1.5,1.2c0.4,0.5,0.5,1.2,0.5,1.9
			c0,0.7-0.2,1.3-0.5,1.8c-0.3,0.5-0.8,0.9-1.4,1.2l2.1,3.1h-2.9L369.3,293.2z M370.6,288.6c-0.3-0.2-0.7-0.4-1.3-0.4h-1.5v2.8h1.5
			c0.6,0,1-0.1,1.3-0.4c0.3-0.2,0.4-0.6,0.4-1C371.1,289.2,370.9,288.8,370.6,288.6z"/>
		<path class="st2" d="M377.5,295.3c-0.8-0.4-1.4-1-1.9-1.8c-0.5-0.8-0.7-1.6-0.7-2.6s0.2-1.8,0.7-2.6c0.5-0.8,1.1-1.4,1.9-1.8
			c0.8-0.4,1.7-0.6,2.7-0.6c0.9,0,1.7,0.2,2.4,0.5s1.3,0.8,1.8,1.4l-1.8,1.6c-0.6-0.8-1.4-1.1-2.3-1.1c-0.5,0-1,0.1-1.4,0.3
			c-0.4,0.2-0.7,0.6-1,1s-0.3,0.9-0.3,1.5c0,0.5,0.1,1,0.3,1.5s0.5,0.7,1,1c0.4,0.2,0.9,0.3,1.4,0.3c0.9,0,1.7-0.4,2.3-1.1l1.8,1.6
			c-0.5,0.6-1.1,1-1.8,1.4c-0.7,0.3-1.5,0.5-2.4,0.5C379.2,296,378.3,295.7,377.5,295.3z"/>
		<path class="st2" d="M387.5,295.3c-0.8-0.4-1.5-1-1.9-1.8c-0.5-0.8-0.7-1.6-0.7-2.6c0-1,0.2-1.8,0.7-2.6c0.5-0.8,1.1-1.4,1.9-1.8
			c0.8-0.4,1.7-0.7,2.8-0.7s2,0.2,2.8,0.7c0.8,0.4,1.5,1,1.9,1.8c0.5,0.8,0.7,1.6,0.7,2.6c0,1-0.2,1.8-0.7,2.6
			c-0.5,0.8-1.1,1.4-1.9,1.8c-0.8,0.4-1.7,0.7-2.8,0.7S388.3,295.7,387.5,295.3z M391.6,293.3c0.4-0.2,0.7-0.6,0.9-1
			c0.2-0.4,0.3-0.9,0.3-1.5c0-0.5-0.1-1-0.3-1.5c-0.2-0.4-0.5-0.7-0.9-1c-0.4-0.2-0.8-0.3-1.3-0.3c-0.5,0-0.9,0.1-1.3,0.3
			c-0.4,0.2-0.7,0.6-0.9,1c-0.2,0.4-0.3,0.9-0.3,1.5c0,0.5,0.1,1,0.3,1.5c0.2,0.4,0.5,0.7,0.9,1c0.4,0.2,0.8,0.3,1.3,0.3
			C390.8,293.7,391.2,293.6,391.6,293.3z"/>
		<path class="st2" d="M410.4,286v9.7h-2.3l-4.3-5.2v5.2h-2.7V286h2.3l4.3,5.2V286H410.4z"/>
		<path class="st2" d="M414.5,295.3c-0.8-0.4-1.5-1-1.9-1.8c-0.5-0.8-0.7-1.6-0.7-2.6c0-1,0.2-1.8,0.7-2.6c0.5-0.8,1.1-1.4,1.9-1.8
			c0.8-0.4,1.7-0.7,2.8-0.7s2,0.2,2.8,0.7c0.8,0.4,1.5,1,1.9,1.8c0.5,0.8,0.7,1.6,0.7,2.6c0,1-0.2,1.8-0.7,2.6
			c-0.5,0.8-1.1,1.4-1.9,1.8c-0.8,0.4-1.7,0.7-2.8,0.7S415.3,295.7,414.5,295.3z M418.6,293.3c0.4-0.2,0.7-0.6,0.9-1
			c0.2-0.4,0.3-0.9,0.3-1.5c0-0.5-0.1-1-0.3-1.5c-0.2-0.4-0.5-0.7-0.9-1c-0.4-0.2-0.8-0.3-1.3-0.3c-0.5,0-0.9,0.1-1.3,0.3
			c-0.4,0.2-0.7,0.6-0.9,1c-0.2,0.4-0.3,0.9-0.3,1.5c0,0.5,0.1,1,0.3,1.5c0.2,0.4,0.5,0.7,0.9,1c0.4,0.2,0.8,0.3,1.3,0.3
			C417.8,293.7,418.2,293.6,418.6,293.3z"/>
		<path class="st2" d="M428.4,293.2h-1.5v2.6h-2.8V286h4.4c0.9,0,1.6,0.1,2.3,0.4c0.6,0.3,1.1,0.7,1.5,1.2c0.4,0.5,0.5,1.2,0.5,1.9
			c0,0.7-0.2,1.3-0.5,1.8c-0.3,0.5-0.8,0.9-1.4,1.2l2.1,3.1h-2.9L428.4,293.2z M429.7,288.6c-0.3-0.2-0.7-0.4-1.3-0.4h-1.5v2.8h1.5
			c0.6,0,1-0.1,1.3-0.4c0.3-0.2,0.4-0.6,0.4-1C430.1,289.2,430,288.8,429.7,288.6z"/>
		<path class="st2" d="M443.2,295.8l0-5.2l-2.5,4.2h-1.2l-2.5-4.1v5h-2.5V286h2.3l3.4,5.6l3.3-5.6h2.3l0,9.7H443.2z"/>
		<path class="st2" d="M454.2,293.9h-4.1l-0.8,1.9h-2.8l4.3-9.7h2.7l4.3,9.7h-2.9L454.2,293.9z M453.4,291.9l-1.2-3.1l-1.2,3.1
			H453.4z"/>
		<path class="st2" d="M460.2,288.2h-3V286h8.7v2.2h-3v7.5h-2.8V288.2z"/>
		<path class="st2" d="M466.9,286h2.8v9.7h-2.8V286z"/>
		<path class="st2" d="M481.4,286l-4.2,9.7h-2.7l-4.2-9.7h3l2.6,6.3l2.7-6.3H481.4z"/>
		<path class="st2" d="M484,295.3c-0.8-0.4-1.5-1-1.9-1.8c-0.5-0.8-0.7-1.6-0.7-2.6c0-1,0.2-1.8,0.7-2.6c0.5-0.8,1.1-1.4,1.9-1.8
			c0.8-0.4,1.7-0.7,2.8-0.7s2,0.2,2.8,0.7c0.8,0.4,1.5,1,1.9,1.8c0.5,0.8,0.7,1.6,0.7,2.6c0,1-0.2,1.8-0.7,2.6
			c-0.5,0.8-1.1,1.4-1.9,1.8c-0.8,0.4-1.7,0.7-2.8,0.7S484.8,295.7,484,295.3z M488.1,293.3c0.4-0.2,0.7-0.6,0.9-1s0.3-0.9,0.3-1.5
			c0-0.5-0.1-1-0.3-1.5s-0.5-0.7-0.9-1c-0.4-0.2-0.8-0.3-1.3-0.3c-0.5,0-0.9,0.1-1.3,0.3c-0.4,0.2-0.7,0.6-0.9,1
			c-0.2,0.4-0.3,0.9-0.3,1.5c0,0.5,0.1,1,0.3,1.5c0.2,0.4,0.5,0.7,0.9,1c0.4,0.2,0.8,0.3,1.3,0.3
			C487.3,293.7,487.7,293.6,488.1,293.3z"/>
		<path class="st2" d="M322.7,328.3h-1.5v2.6h-2.8v-9.7h4.4c0.9,0,1.6,0.1,2.3,0.4c0.6,0.3,1.1,0.7,1.5,1.2c0.4,0.5,0.5,1.2,0.5,1.9
			c0,0.7-0.2,1.3-0.5,1.8c-0.3,0.5-0.8,0.9-1.4,1.2l2.1,3.1h-2.9L322.7,328.3z M324,323.7c-0.3-0.2-0.7-0.4-1.3-0.4h-1.5v2.8h1.5
			c0.6,0,1-0.1,1.3-0.4c0.3-0.2,0.4-0.6,0.4-1S324.3,323.9,324,323.7z"/>
		<path class="st2" d="M336.5,328.7v2.1h-7.8v-9.7h7.6v2.1h-4.9v1.6h4.3v2.1h-4.3v1.8H336.5z"/>
		<path class="st2" d="M344.5,325.8h2.4v4c-0.6,0.4-1.2,0.7-1.9,0.9c-0.7,0.2-1.4,0.3-2.2,0.3c-1,0-1.9-0.2-2.8-0.6
			c-0.8-0.4-1.5-1-1.9-1.8c-0.5-0.8-0.7-1.6-0.7-2.6s0.2-1.8,0.7-2.6c0.5-0.8,1.1-1.4,1.9-1.8c0.8-0.4,1.8-0.6,2.8-0.6
			c0.9,0,1.7,0.2,2.4,0.5s1.3,0.7,1.8,1.3l-1.8,1.6c-0.7-0.7-1.4-1.1-2.4-1.1c-0.8,0-1.5,0.3-2,0.8c-0.5,0.5-0.8,1.2-0.8,2
			c0,0.5,0.1,1,0.3,1.4c0.2,0.4,0.6,0.8,1,1c0.4,0.2,0.9,0.4,1.4,0.4c0.5,0,1-0.1,1.5-0.3V325.8z"/>
		<path class="st2" d="M348.7,321.2h2.8v9.7h-2.8V321.2z"/>
		<path class="st2" d="M354.6,330.8c-0.7-0.2-1.3-0.5-1.8-0.8l0.9-2c0.4,0.3,0.9,0.5,1.5,0.7c0.6,0.2,1.1,0.3,1.7,0.3
			c1.1,0,1.6-0.3,1.6-0.8c0-0.3-0.2-0.5-0.5-0.6c-0.3-0.1-0.8-0.3-1.5-0.4c-0.7-0.2-1.3-0.3-1.8-0.5c-0.5-0.2-0.9-0.5-1.3-0.9
			c-0.4-0.4-0.5-0.9-0.5-1.6c0-0.6,0.2-1.1,0.5-1.6c0.3-0.5,0.8-0.9,1.5-1.1c0.6-0.3,1.4-0.4,2.4-0.4c0.6,0,1.3,0.1,1.9,0.2
			s1.2,0.4,1.6,0.6l-0.8,2c-0.9-0.5-1.8-0.8-2.7-0.8c-0.5,0-0.9,0.1-1.2,0.2c-0.2,0.2-0.4,0.4-0.4,0.6c0,0.3,0.1,0.5,0.4,0.6
			c0.3,0.1,0.8,0.3,1.4,0.4c0.7,0.2,1.4,0.3,1.8,0.5c0.5,0.2,0.9,0.5,1.3,0.9c0.4,0.4,0.5,0.9,0.5,1.6c0,0.6-0.2,1.1-0.5,1.6
			c-0.3,0.5-0.8,0.9-1.5,1.1c-0.6,0.3-1.4,0.4-2.4,0.4C356.1,331.1,355.3,331,354.6,330.8z"/>
		<path class="st2" d="M364.3,323.3h-3v-2.2h8.7v2.2h-3v7.5h-2.7V323.3z"/>
		<path class="st2" d="M375.3,328.3h-1.5v2.6h-2.8v-9.7h4.4c0.9,0,1.6,0.1,2.3,0.4c0.6,0.3,1.1,0.7,1.5,1.2c0.4,0.5,0.5,1.2,0.5,1.9
			c0,0.7-0.2,1.3-0.5,1.8c-0.3,0.5-0.8,0.9-1.4,1.2l2.1,3.1h-2.9L375.3,328.3z M376.7,323.7c-0.3-0.2-0.7-0.4-1.3-0.4h-1.5v2.8h1.5
			c0.6,0,1-0.1,1.3-0.4c0.3-0.2,0.4-0.6,0.4-1S376.9,323.9,376.7,323.7z"/>
		<path class="st2" d="M383.5,330.4c-0.8-0.4-1.5-1-1.9-1.8c-0.5-0.8-0.7-1.6-0.7-2.6s0.2-1.8,0.7-2.6c0.5-0.8,1.1-1.4,1.9-1.8
			c0.8-0.4,1.7-0.7,2.8-0.7s2,0.2,2.8,0.7c0.8,0.4,1.5,1,1.9,1.8c0.5,0.8,0.7,1.6,0.7,2.6s-0.2,1.8-0.7,2.6
			c-0.5,0.8-1.1,1.4-1.9,1.8c-0.8,0.4-1.7,0.7-2.8,0.7S384.3,330.8,383.5,330.4z M387.6,328.4c0.4-0.2,0.7-0.6,0.9-1
			c0.2-0.4,0.3-0.9,0.3-1.5s-0.1-1-0.3-1.5c-0.2-0.4-0.5-0.7-0.9-1c-0.4-0.2-0.8-0.3-1.3-0.3c-0.5,0-0.9,0.1-1.3,0.3
			c-0.4,0.2-0.7,0.6-0.9,1c-0.2,0.4-0.3,0.9-0.3,1.5s0.1,1,0.3,1.5c0.2,0.4,0.5,0.7,0.9,1c0.4,0.2,0.8,0.3,1.3,0.3
			C386.8,328.8,387.2,328.7,387.6,328.4z"/>
		<path class="st2" d="M397.2,321.2h4.6c1.1,0,2,0.2,2.8,0.6c0.8,0.4,1.5,1,1.9,1.7c0.5,0.7,0.7,1.6,0.7,2.6s-0.2,1.8-0.7,2.6
			c-0.5,0.7-1.1,1.3-1.9,1.7c-0.8,0.4-1.8,0.6-2.8,0.6h-4.6V321.2z M401.7,328.7c0.8,0,1.5-0.2,2-0.7c0.5-0.5,0.8-1.1,0.8-2
			s-0.3-1.5-0.8-2c-0.5-0.5-1.2-0.7-2-0.7h-1.7v5.3H401.7z"/>
		<path class="st2" d="M416.4,328.7v2.1h-7.8v-9.7h7.6v2.1h-4.9v1.6h4.3v2.1h-4.3v1.8H416.4z"/>
		<path class="st2" d="M428.7,321.6c0.6,0.3,1.1,0.7,1.5,1.2c0.4,0.5,0.5,1.2,0.5,1.9s-0.2,1.4-0.5,1.9c-0.4,0.5-0.9,1-1.5,1.2
			c-0.6,0.3-1.4,0.4-2.3,0.4h-1.7v2.5H422v-9.7h4.4C427.3,321.2,428.1,321.3,428.7,321.6z M427.6,325.8c0.3-0.2,0.4-0.6,0.4-1
			s-0.1-0.8-0.4-1.1c-0.3-0.2-0.7-0.4-1.3-0.4h-1.5v2.8h1.5C426.9,326.2,427.3,326,427.6,325.8z"/>
		<path class="st2" d="M436.4,328.3h-1.5v2.6h-2.8v-9.7h4.4c0.9,0,1.6,0.1,2.3,0.4c0.6,0.3,1.1,0.7,1.5,1.2c0.4,0.5,0.5,1.2,0.5,1.9
			c0,0.7-0.2,1.3-0.5,1.8s-0.8,0.9-1.4,1.2l2.1,3.1h-2.9L436.4,328.3z M437.7,323.7c-0.3-0.2-0.7-0.4-1.3-0.4h-1.5v2.8h1.5
			c0.6,0,1-0.1,1.3-0.4c0.3-0.2,0.4-0.6,0.4-1S438,323.9,437.7,323.7z"/>
		<path class="st2" d="M444.5,330.4c-0.8-0.4-1.5-1-1.9-1.8c-0.5-0.8-0.7-1.6-0.7-2.6s0.2-1.8,0.7-2.6c0.5-0.8,1.1-1.4,1.9-1.8
			c0.8-0.4,1.7-0.7,2.8-0.7s2,0.2,2.8,0.7c0.8,0.4,1.5,1,1.9,1.8c0.5,0.8,0.7,1.6,0.7,2.6s-0.2,1.8-0.7,2.6
			c-0.5,0.8-1.1,1.4-1.9,1.8c-0.8,0.4-1.7,0.7-2.8,0.7S445.3,330.8,444.5,330.4z M448.6,328.4c0.4-0.2,0.7-0.6,0.9-1
			s0.3-0.9,0.3-1.5s-0.1-1-0.3-1.5s-0.5-0.7-0.9-1c-0.4-0.2-0.8-0.3-1.3-0.3c-0.5,0-0.9,0.1-1.3,0.3s-0.7,0.6-0.9,1
			c-0.2,0.4-0.3,0.9-0.3,1.5s0.1,1,0.3,1.5c0.2,0.4,0.5,0.7,0.9,1s0.8,0.3,1.3,0.3C447.8,328.8,448.2,328.7,448.6,328.4z"/>
		<path class="st2" d="M454.1,321.2h4.6c1.1,0,2,0.2,2.8,0.6c0.8,0.4,1.5,1,1.9,1.7c0.5,0.7,0.7,1.6,0.7,2.6s-0.2,1.8-0.7,2.6
			c-0.5,0.7-1.1,1.3-1.9,1.7c-0.8,0.4-1.8,0.6-2.8,0.6h-4.6V321.2z M458.6,328.7c0.8,0,1.5-0.2,2-0.7c0.5-0.5,0.8-1.1,0.8-2
			s-0.3-1.5-0.8-2c-0.5-0.5-1.2-0.7-2-0.7h-1.7v5.3H458.6z"/>
		<path class="st2" d="M466.7,329.9c-0.8-0.8-1.2-1.9-1.2-3.3v-5.4h2.8v5.3c0,1.6,0.6,2.3,1.8,2.3c1.2,0,1.8-0.8,1.8-2.3v-5.3h2.7
			v5.4c0,1.4-0.4,2.6-1.2,3.3c-0.8,0.8-1.9,1.2-3.4,1.2C468.7,331.1,467.5,330.7,466.7,329.9z"/>
		<path class="st2" d="M478.6,330.4c-0.8-0.4-1.4-1-1.9-1.8S476,327,476,326s0.2-1.8,0.7-2.6c0.5-0.8,1.1-1.4,1.9-1.8
			c0.8-0.4,1.7-0.6,2.7-0.6c0.9,0,1.7,0.2,2.4,0.5c0.7,0.3,1.3,0.8,1.8,1.4l-1.8,1.6c-0.6-0.8-1.4-1.1-2.3-1.1c-0.5,0-1,0.1-1.4,0.3
			c-0.4,0.2-0.7,0.6-1,1c-0.2,0.4-0.3,0.9-0.3,1.5s0.1,1,0.3,1.5c0.2,0.4,0.5,0.7,1,1c0.4,0.2,0.9,0.3,1.4,0.3
			c0.9,0,1.7-0.4,2.3-1.1l1.8,1.6c-0.5,0.6-1.1,1-1.8,1.4c-0.7,0.3-1.5,0.5-2.4,0.5C480.4,331.1,479.4,330.9,478.6,330.4z"/>
		<path class="st2" d="M488.8,323.3h-3v-2.2h8.7v2.2h-3v7.5h-2.8V323.3z"/>
		<path class="st2" d="M497.5,330.4c-0.8-0.4-1.5-1-1.9-1.8c-0.5-0.8-0.7-1.6-0.7-2.6s0.2-1.8,0.7-2.6c0.5-0.8,1.1-1.4,1.9-1.8
			c0.8-0.4,1.7-0.7,2.8-0.7c1,0,2,0.2,2.8,0.7c0.8,0.4,1.5,1,1.9,1.8s0.7,1.6,0.7,2.6s-0.2,1.8-0.7,2.6s-1.1,1.4-1.9,1.8
			c-0.8,0.4-1.7,0.7-2.8,0.7C499.2,331.1,498.3,330.8,497.5,330.4z M501.6,328.4c0.4-0.2,0.7-0.6,0.9-1s0.3-0.9,0.3-1.5
			s-0.1-1-0.3-1.5s-0.5-0.7-0.9-1c-0.4-0.2-0.8-0.3-1.3-0.3c-0.5,0-0.9,0.1-1.3,0.3c-0.4,0.2-0.7,0.6-0.9,1
			c-0.2,0.4-0.3,0.9-0.3,1.5s0.1,1,0.3,1.5c0.2,0.4,0.5,0.7,0.9,1c0.4,0.2,0.8,0.3,1.3,0.3C500.8,328.8,501.2,328.7,501.6,328.4z"/>
		<path class="st2" d="M508.2,330.8c-0.7-0.2-1.3-0.5-1.8-0.8l0.9-2c0.4,0.3,0.9,0.5,1.5,0.7c0.6,0.2,1.1,0.3,1.7,0.3
			c1.1,0,1.6-0.3,1.6-0.8c0-0.3-0.2-0.5-0.5-0.6c-0.3-0.1-0.8-0.3-1.5-0.4c-0.7-0.2-1.3-0.3-1.8-0.5c-0.5-0.2-0.9-0.5-1.3-0.9
			c-0.4-0.4-0.5-0.9-0.5-1.6c0-0.6,0.2-1.1,0.5-1.6c0.3-0.5,0.8-0.9,1.5-1.1c0.6-0.3,1.4-0.4,2.4-0.4c0.6,0,1.3,0.1,1.9,0.2
			c0.6,0.1,1.2,0.4,1.6,0.6l-0.8,2c-0.9-0.5-1.8-0.8-2.7-0.8c-0.5,0-0.9,0.1-1.2,0.2c-0.2,0.2-0.4,0.4-0.4,0.6
			c0,0.3,0.1,0.5,0.4,0.6c0.3,0.1,0.8,0.3,1.4,0.4c0.7,0.2,1.4,0.3,1.8,0.5c0.5,0.2,0.9,0.5,1.3,0.9c0.4,0.4,0.5,0.9,0.5,1.6
			c0,0.6-0.2,1.1-0.5,1.6c-0.3,0.5-0.8,0.9-1.5,1.1c-0.6,0.3-1.4,0.4-2.4,0.4C509.8,331.1,509,331,508.2,330.8z"/>
	</g>
	<circle class="st2" cx="377" cy="81" r="3"/>
	<circle class="st2" cx="355" cy="116" r="3"/>
	<circle class="st2" cx="350" cy="151" r="3"/>
	<circle class="st2" cx="295" cy="185" r="3"/>
	<circle class="st2" cx="353" cy="221" r="3"/>
	<circle class="st2" cx="332" cy="256" r="3"/>
	<circle class="st2" cx="333" cy="291" r="3"/>
	<circle class="st2" cx="309" cy="326" r="3"/>
</g>
</svg>
