<?xml version="1.0" encoding="utf-8"?>
<!-- Generator: Adobe Illustrator 23.0.6, SVG Export Plug-In . SVG Version: 6.00 Build 0)  -->
<svg version="1.1" id="Capa_1" xmlns="http://www.w3.org/2000/svg" xmlns:xlink="http://www.w3.org/1999/xlink" x="0px" y="0px"
	 viewBox="0 0 1440 663" style="enable-background:new 0 0 1440 663;" xml:space="preserve">
<style type="text/css">
	.st0{fill:#FF003D;}
	.st1{fill:#FFFFFF;}
	.st2{font-family:'Montserrat-ExtraBold';}
	.st3{font-size:23.3429px;}
	.st4{fill:url(#SVGID_1_);}
	.st5{font-family:'Montserrat-Medium';}
	.st6{fill:url(#SVGID_2_);}
	.st7{fill:url(#SVGID_3_);}
	.st8{fill:url(#SVGID_4_);}
	.st9{fill:url(#SVGID_5_);}
	.st10{fill:url(#SVGID_6_);}
	.st11{fill:url(#SVGID_7_);}
	.st12{fill:url(#SVGID_8_);}
	.st13{fill:url(#SVGID_9_);}
</style>
<circle class="st0" cx="664.8" cy="331" r="300"/>
<text transform="matrix(1 0 0 1 616.6069 118.6265)"><tspan x="0" y="0" class="st1 st2 st3">Diseño</tspan><tspan x="-37.2" y="59" class="st1 st2 st3">Desarrollo</tspan><tspan x="-51.1" y="118" class="st1 st2 st3">Planificación</tspan><tspan x="-144.7" y="177" class="st1 st2 st3">Autoridades regulatorias</tspan><tspan x="-44.4" y="236" class="st1 st2 st3">Elaboración</tspan><tspan x="-79.6" y="295" class="st1 st2 st3">Comercialización</tspan><tspan x="-81" y="354" class="st1 st2 st3">Marco normativo</tspan><tspan x="-118.3" y="413" class="st1 st2 st3">Registro de productos</tspan></text>
<g>
	<g>
		<linearGradient id="SVGID_1_" gradientUnits="userSpaceOnUse" x1="57.2874" y1="189.6455" x2="383.2434" y2="189.6455">
			<stop  offset="0" style="stop-color:#0085FF"/>
			<stop  offset="1" style="stop-color:#FF003D"/>
		</linearGradient>
		<polygon class="st4" points="358.3,225.5 383.2,189.6 358.3,153.8 57.3,153.8 77.8,189.6 57.3,225.5 		"/>
	</g>
	<text transform="matrix(1 0 0 1 92.6553 198.3525)" class="st1 st5 st3">Emprendedores</text>
</g>
<g>
	<g>
		<linearGradient id="SVGID_2_" gradientUnits="userSpaceOnUse" x1="1018.0165" y1="189.6455" x2="1433.0769" y2="189.6455">
			<stop  offset="0" style="stop-color:#FF003D"/>
			<stop  offset="1" style="stop-color:#FFC600"/>
		</linearGradient>
		<polygon class="st6" points="1433.1,225.5 1433.1,153.8 1018,153.8 1038.5,189.6 1018,225.5 		"/>
	</g>
</g>
<text transform="matrix(1 0 0 1 1053.3838 198.3525)" class="st1 st5 st3">MERCADO INTERNO</text>
<g>
	<g>
		<g>
			<linearGradient id="SVGID_3_" gradientUnits="userSpaceOnUse" x1="1043.953" y1="287.3401" x2="1433.0769" y2="287.3401">
				<stop  offset="0" style="stop-color:#FF003D"/>
				<stop  offset="1" style="stop-color:#FFC600"/>
			</linearGradient>
			<polygon class="st7" points="1433.1,323.2 1433.1,251.5 1044,251.5 1064.5,287.3 1044,323.2 			"/>
		</g>
	</g>
	<text transform="matrix(1 0 0 1 1079.3203 296.0474)" class="st1 st5 st3">MERCADO REGIONAL</text>
</g>
<g>
	<g>
		<g>
			<linearGradient id="SVGID_4_" gradientUnits="userSpaceOnUse" x1="1043.953" y1="385.0346" x2="1433.0769" y2="385.0346">
				<stop  offset="0" style="stop-color:#FF003D"/>
				<stop  offset="1" style="stop-color:#FFC600"/>
			</linearGradient>
			<polygon class="st8" points="1433.1,420.9 1433.1,349.2 1044,349.2 1064.5,385 1044,420.9 			"/>
		</g>
	</g>
	<text transform="matrix(1 0 0 1 1079.3203 393.7422)" class="st1 st5 st3">MERCADO INTERNACIONAL</text>
</g>
<g>
	<g>
		<g>
			<linearGradient id="SVGID_5_" gradientUnits="userSpaceOnUse" x1="1018.0165" y1="482.7291" x2="1433.0769" y2="482.7291">
				<stop  offset="0" style="stop-color:#FF003D"/>
				<stop  offset="1" style="stop-color:#FFC600"/>
			</linearGradient>
			<polygon class="st9" points="1433.1,518.6 1433.1,446.9 1018,446.9 1038.5,482.7 1018,518.6 			"/>
		</g>
	</g>
	<text transform="matrix(1 0 0 1 1053.3838 491.4365)" class="st1 st5 st3">NICHOS ESPECIALES</text>
</g>
<g>
	<g>
		<linearGradient id="SVGID_6_" gradientUnits="userSpaceOnUse" x1="23.0758" y1="277.83" x2="349.5258" y2="277.83">
			<stop  offset="0" style="stop-color:#0085FF"/>
			<stop  offset="1" style="stop-color:#FF003D"/>
		</linearGradient>
		<polygon class="st10" points="325.2,313.7 349.5,278.7 324,242 23.1,242 44.1,278.7 24.1,313.7 		"/>
	</g>
	<text transform="matrix(1 0 0 1 58.9375 287.4019)" class="st1 st5 st3">Investigadores</text>
</g>
<g>
	<g>
		<linearGradient id="SVGID_7_" gradientUnits="userSpaceOnUse" x1="19" y1="378.0922" x2="349.5258" y2="378.0922">
			<stop  offset="0" style="stop-color:#0085FF"/>
			<stop  offset="1" style="stop-color:#FF003D"/>
		</linearGradient>
		<polygon class="st11" points="349.5,379.4 316,331.4 19,331.4 19,335.5 44.1,379.4 19,423.3 19,424.8 317.8,424.8 		"/>
	</g>
	<text transform="matrix(1 0 0 1 58.9375 373.3984)"><tspan x="0" y="0" class="st1 st5 st3">Profesionales </tspan><tspan x="0" y="28" class="st1 st5 st3">médicos</tspan></text>
</g>
<g>
	<linearGradient id="SVGID_8_" gradientUnits="userSpaceOnUse" x1="56.7933" y1="476.6772" x2="383.2434" y2="476.6772">
		<stop  offset="0" style="stop-color:#0085FF"/>
		<stop  offset="1" style="stop-color:#FF003D"/>
	</linearGradient>
	<polygon class="st12" points="357.7,440.8 56.8,440.8 77.8,477.5 57.8,512.6 358.9,512.6 383.2,477.5 	"/>
	<text transform="matrix(1 0 0 1 92.6553 486.249)" class="st1 st5 st3">Otras empresas</text>
</g>
<linearGradient id="SVGID_9_" gradientUnits="userSpaceOnUse" x1="940" y1="335.5" x2="1040" y2="335.5">
	<stop  offset="0" style="stop-color:#FF003D"/>
	<stop  offset="1" style="stop-color:#FFC600"/>
</linearGradient>
<polygon class="st13" points="1040,335.5 975,237.9 975,286 940,286 940,385 975,385 975,433.1 "/>
</svg>
