<?xml version="1.0" encoding="utf-8"?>
<!-- Generator: Adobe Illustrator 23.0.6, SVG Export Plug-In . SVG Version: 6.00 Build 0)  -->
<svg version="1.1" id="Capa_1" xmlns="http://www.w3.org/2000/svg" xmlns:xlink="http://www.w3.org/1999/xlink" x="0px" y="0px"
	 viewBox="0 0 999 451" style="enable-background:new 0 0 999 451;" xml:space="preserve">
<style type="text/css">
	.st0{fill:#CA0309;}
	.st1{fill:#000001;}
	.st2{fill:#5C5B5F;}
</style>
<g transform="matrix( 1, 0, 0, 1, 0,0) ">
	<g transform="matrix( 2.53857421875, 0, 0, 2.53857421875, 80.9,182) ">
		<g transform="matrix( 1, 0, 0, 1, 0,0) ">
			<g>
				<g id="S_mbolo_1_0_Layer0_0_FILL">
					<path class="st0" d="M26-8.2c-5.4,12.8-6.9,24.2-4.5,34c2,8.1,6.5,14.7,13.4,19.8c5.7,4.2,12.1,6.8,19,7.7
						c6.5,0.8,10.6-0.1,12.5-2.7c0.8-1.1,0.7-2.2-0.3-3.3c-1-0.9-2.7-1.9-5-3l-8-3.6c-3.4-1.5-6.5-3.1-9.3-4.7
						c-7.6-4.5-13-9.7-16.2-15.7C23.5,12.4,23,2.9,26-8.2 M204.9-31.5v-8.5h-47.8v8.5h19.6v68.2h8.4v-68.2H204.9z"/>
					<path class="st1" d="M101.3,7.3C99.4,1.1,97-2.4,93.9-3.1c-1.3-0.2-2.3,0.3-2.9,1.7c-0.4,1.1-0.7,3-0.8,5.8l-0.1,8.8
						c0,3.4-0.2,6.9-0.6,10.4c-1,8.8-3.7,15.8-7.9,21.1c-5.6,7-14.1,11.3-25.5,12.9c14-0.2,25-3.3,33-9.5
						c6.6-5.1,10.9-11.8,12.8-20.2C103.6,20.8,103.3,14,101.3,7.3 M49-23.1c-6.5,2.9-11.9,7.2-16.1,12.8c-3.8,5.2-5.1,9.3-3.8,12.2
						c0.6,1.3,1.6,1.7,3,1.3c1.1-0.3,2.8-1.3,5.2-2.8l7.1-5.2c3.3-2.5,6.2-4.4,8.7-5.8c7.7-4.4,14.9-6.6,21.6-6.3
						c8.9,0.4,17.5,4.6,25.6,12.7c-8.5-11.1-17.6-18-27.3-20.8C64.8-27.3,56.9-26.7,49-23.1 M203.9,59.6c-1.1,0-2.1,0.4-3,1.2
						c-0.9,0.8-1.6,2-2.1,3.4c-0.5,1.6-0.8,3.4-0.8,5.4c0,2,0.2,3.7,0.8,5c0.5,1.5,1.2,2.6,2.1,3.3c0.8,0.8,2,1.2,3.4,1.2
						c0.6,0,1.3-0.1,2-0.3c0.6-0.1,1.2-0.3,1.8-0.6l-0.4-2.2c-0.4,0.2-0.8,0.4-1.2,0.5c-0.4,0.1-0.9,0.2-1.6,0.2
						c-0.6,0.1-1.2-0.1-1.9-0.6c-0.7-0.4-1.2-1.1-1.5-2.1c-0.4-1-0.6-2.5-0.6-4.4h7.9l0.1-1.8c0-1.4-0.2-2.8-0.5-4
						c-0.3-1.2-0.9-2.2-1.6-3.1C206.1,60.1,205.1,59.7,203.9,59.6 M203.6,62c0.8,0,1.4,0.4,1.9,1.3c0.5,0.9,0.8,2.3,0.8,4.2h-5.4
						c0.1-1,0.2-1.9,0.4-2.6c0.3-0.9,0.6-1.6,0.9-2.1C202.6,62.3,203.1,62.1,203.6,62 M228.7,59.9h-2.8v19.2h2.8V59.9 M228.4,56.4
						c0.3-0.4,0.5-0.9,0.5-1.5c0-0.5-0.1-1-0.5-1.3c-0.3-0.4-0.6-0.6-1.1-0.6c-0.4,0-0.8,0.2-1.1,0.6c-0.3,0.4-0.5,0.8-0.5,1.3
						c0,0.6,0.1,1.1,0.5,1.5c0.3,0.3,0.7,0.5,1.1,0.5C227.8,56.9,228.2,56.7,228.4,56.4 M213.7,60.7c-0.8,0.8-1.4,1.9-1.9,3.3
						c-0.5,1.6-0.8,3.4-0.8,5.5c0.1,3.2,0.6,5.6,1.4,7.3c0.9,1.7,2.1,2.6,3.6,2.6c0.9,0,1.7-0.3,2.2-0.8c0.6-0.5,1.1-1.1,1.4-1.8
						h0.1l0.1,2.4h2.3l-0.1-27.4h-2.7v10.2h-0.1c-0.4-0.8-0.9-1.4-1.4-1.8c-0.5-0.3-1.1-0.5-1.8-0.5C215.4,59.6,214.5,60,213.7,60.7
						 M215,63.3c0.4-0.6,1-1,1.9-1c0.6,0,1.2,0.4,1.7,1.1c0.4,0.7,0.7,1.6,0.8,2.5l0.1,0.7V73l-0.1,0.6c-0.2,0.8-0.5,1.5-0.8,2.1
						c-0.4,0.5-0.7,0.9-1,0.9c-0.4,0.2-0.7,0.2-1,0.2c-0.7,0-1.2-0.3-1.6-0.9c-0.4-0.7-0.7-1.6-0.9-2.7c-0.2-1.2-0.2-2.4-0.2-3.7
						c-0.1-1.2,0-2.4,0.2-3.5C214.3,64.9,214.6,64,215,63.3 M246.8,62.1c1.1,0,1.8,0.4,2.1,1.1c0.4,0.8,0.7,1.9,0.7,3.2v0.5
						c-1.4,0-2.6,0.2-3.6,0.8c-1.2,0.5-2.1,1.3-2.7,2.3c-0.7,1.1-1,2.4-1,3.9c0,1.7,0.4,3.1,1.1,4.1c0.7,1,1.7,1.4,2.9,1.4
						c0.8,0,1.5-0.2,2.1-0.6c0.5-0.3,1-0.9,1.4-1.8h0.1l0.1,2.1h2.4l-0.1-12.7c0.1-2.1-0.3-3.8-1.1-5c-0.8-1.2-2-1.8-3.7-1.8
						c-0.8,0-1.6,0.1-2.4,0.4c-0.8,0.3-1.3,0.6-1.6,0.9L244,63c0.4-0.3,0.8-0.6,1.4-0.8C245.8,62.1,246.3,62.1,246.8,62.1
						 M248.3,69.2c0.6-0.1,1-0.2,1.3-0.1v4.4l-0.1,0.6c-0.2,0.9-0.5,1.6-0.9,2.1c-0.4,0.5-1,0.8-1.6,0.8c-0.5,0-1-0.2-1.4-0.8
						c-0.4-0.6-0.6-1.4-0.7-2.6c0-1.1,0.2-1.9,0.6-2.5c0.3-0.7,0.8-1.1,1.3-1.4C247.2,69.5,247.7,69.3,248.3,69.2 M238.4,62.2
						c0.5,0,0.9,0.1,1.2,0.2l0.8,0.3l0.5-2.4c-0.3-0.2-0.7-0.4-1-0.5c-0.5-0.1-0.9-0.1-1.4-0.1c-1.5,0.1-2.7,0.5-3.6,1.4
						c-1.1,0.9-1.9,2.1-2.4,3.5c-0.5,1.3-0.8,3-0.8,5c0,3.2,0.6,5.6,1.8,7.2c1.2,1.7,2.7,2.5,4.5,2.5c0.7,0,1.2-0.1,1.6-0.2
						c0.5-0.1,0.9-0.3,1.1-0.5l-0.4-2.4l-0.9,0.4l-1,0.1c-1.3,0-2.3-0.6-3-1.9c-0.7-1.3-1.1-3.1-1.1-5.3c0-1.2,0.1-2.4,0.5-3.6
						c0.3-1.1,0.7-2,1.3-2.7C236.8,62.6,237.5,62.2,238.4,62.2 M258.9,51.7h-2.8v27.4h2.8V51.7 M179.2,59.9h-2.3l0.1,19.2h2.8
						l0.1-13.8c0.2-1.1,0.5-1.9,1-2.4c0.4-0.5,0.9-0.8,1.6-0.8c0.7,0,1.2,0.2,1.5,0.7c0.3,0.4,0.6,0.9,0.7,1.6
						c0.1,0.7,0.2,1.4,0.2,2.1v12.6h2.7V65.8l0.1-0.8c0.2-0.8,0.5-1.5,1-2.1c0.4-0.5,0.9-0.8,1.5-0.8c0.7,0,1.2,0.3,1.6,0.8
						c0.3,0.4,0.6,1,0.7,1.8c0.1,0.7,0.2,1.5,0.2,2.3v12h2.7V66.4c-0.1-2.5-0.5-4.2-1.2-5.2c-0.7-1-1.7-1.5-2.9-1.5
						c-0.4,0-0.9,0.1-1.2,0.2c-0.4,0.1-0.8,0.3-1.2,0.6l-0.9,0.9l-0.8,1.2h-0.1c-0.3-1-0.8-1.7-1.4-2.2c-0.6-0.4-1.3-0.6-2.1-0.6
						c-0.8,0-1.6,0.3-2.3,0.8c-0.7,0.6-1.2,1.2-1.4,1.9h-0.2L179.2,59.9 M238.7-10.3c-1.4-2.7-3.4-4.8-5.9-6.5
						c-2.5-1.6-5.6-2.5-9.4-2.6c-4.5,0.1-8.4,1.4-11.6,4c-3.2,2.5-5.7,6-7.5,10.5c-1.7,4.4-2.6,9.5-2.6,15.1
						c0.1,5.5,1,10.3,2.8,14.5c1.8,4.2,4.4,7.5,7.8,9.7c3.4,2.4,7.5,3.6,12.4,3.6c3.6,0,6.8-0.4,9.4-1.2c2.6-0.8,4.7-1.6,6.2-2.4
						l-1.6-7.1c-1.5,0.8-3.2,1.5-5.2,2c-2.1,0.5-4.6,0.8-7.5,0.8c-2.9,0-5.5-0.6-7.9-1.9c-2.3-1.3-4.2-3.4-5.8-6.2
						c-1.4-2.8-2.2-6.4-2.3-10.9h32.6l0.2-4.7c0.1-2.6-0.1-5.3-0.8-8.3C241.2-5,240.2-7.7,238.7-10.3 M209.8,3.9
						c0.2-2.3,0.8-4.8,1.8-7.3c0.9-2.4,2.2-4.5,4.1-6.2c1.8-1.6,4.1-2.5,7-2.6c3.2,0.1,5.7,1.1,7.4,2.8c1.6,1.7,2.8,3.9,3.5,6.4
						c0.7,2.6,1,5,0.9,7H209.8 M284.7,60.9c-0.9,0.8-1.6,2-2,3.4c-0.4,1.4-0.7,3.2-0.8,5.4c0,1.8,0.2,3.5,0.7,5
						c0.5,1.5,1.2,2.6,2.1,3.3c0.9,0.8,2.1,1.2,3.5,1.2c0.5,0,1.2-0.1,2-0.3c0.6-0.1,1.1-0.3,1.7-0.6l-0.4-2.2
						c-0.3,0.2-0.7,0.4-1.2,0.5c-0.4,0.1-1,0.2-1.6,0.2c-0.6,0.1-1.2-0.1-1.9-0.6c-0.6-0.3-1.1-1-1.6-2.1c-0.3-0.9-0.5-2.3-0.6-4.4
						h7.9l0.1-1.8c0-1.4-0.2-2.8-0.5-4c-0.4-1.2-0.9-2.3-1.6-3.1c-0.7-0.7-1.6-1.1-2.8-1.2C286.5,59.6,285.5,60,284.7,60.9
						 M285.9,62.8c0.4-0.5,0.9-0.8,1.5-0.8c0.7,0,1.3,0.4,1.8,1.3c0.5,1,0.7,2.4,0.8,4.2h-5.3c0-0.8,0.1-1.6,0.4-2.6
						C285.1,64.1,285.4,63.4,285.9,62.8 M278.8,51.7h-2.7v10.2h0c-0.3-0.8-0.8-1.3-1.4-1.8c-0.6-0.3-1.1-0.5-1.8-0.5
						c-0.9,0-1.7,0.3-2.5,1c-0.8,0.7-1.4,1.8-1.9,3.3c-0.5,1.4-0.7,3.3-0.7,5.5c0,3.2,0.5,5.6,1.4,7.3c0.9,1.7,2.1,2.6,3.6,2.6
						c0.9,0,1.7-0.3,2.3-0.8c0.6-0.5,1-1.1,1.3-1.8h0.1l0.2,2.4h2.4L278.8,51.7 M273.5,62.2c0.7,0.1,1.3,0.4,1.7,1.1
						c0.5,0.7,0.8,1.6,0.9,2.5V73l-0.1,0.6c-0.1,0.9-0.4,1.6-0.8,2.1c-0.2,0.4-0.5,0.8-0.9,0.9c-0.4,0.2-0.7,0.2-0.9,0.2
						c-0.7,0-1.2-0.3-1.7-0.9c-0.5-0.7-0.8-1.6-0.9-2.7c-0.2-1-0.4-2.3-0.4-3.7c0-1.2,0.1-2.3,0.3-3.5c0.2-1.2,0.5-2.1,0.9-2.7
						C272.2,62.6,272.8,62.2,273.5,62.2 M310.5,59.9h-2.8v19.2h2.8V59.9 M310.3,56.4c0.2-0.3,0.4-0.8,0.4-1.5
						c-0.1-0.6-0.2-1.1-0.4-1.3c-0.3-0.4-0.7-0.6-1.2-0.6c-0.5,0-0.8,0.2-1.1,0.6c-0.2,0.2-0.4,0.7-0.5,1.3c0.1,0.7,0.3,1.2,0.5,1.5
						c0.3,0.3,0.7,0.5,1,0.5C309.6,56.9,310,56.7,310.3,56.4 M296.9,59.9H294l4.5,19.2h2.4l4.5-19.2h-2.7l-2.8,15.4h-0.1L296.9,59.9
						 M326.8,60.9c-0.8,0.7-1.5,1.9-2,3.4c-0.5,1.6-0.7,3.4-0.7,5.4c0,2,0.2,3.7,0.7,5c0.4,1.4,1.1,2.5,2.1,3.3
						c0.8,0.8,2,1.2,3.4,1.2c0.6,0,1.3-0.1,2.1-0.3c0.6-0.1,1.2-0.3,1.8-0.6l-0.5-2.2c-0.3,0.2-0.8,0.4-1.2,0.5
						c-0.4,0.1-1,0.2-1.6,0.2c-0.6,0.1-1.2-0.1-1.9-0.6c-0.6-0.3-1.1-1-1.5-2.1c-0.4-1-0.6-2.4-0.6-4.4h7.9l0.1-1.8
						c0-1.4-0.2-2.8-0.5-4c-0.3-1.2-0.8-2.2-1.6-3.1c-0.7-0.7-1.6-1.1-2.8-1.2C328.8,59.6,327.7,60,326.8,60.9 M328.1,62.8
						c0.4-0.5,0.9-0.8,1.5-0.8c0.7,0,1.3,0.4,1.8,1.3c0.5,1,0.8,2.4,0.8,4.2h-5.3c0.1-1,0.2-1.9,0.4-2.6
						C327.4,64,327.7,63.3,328.1,62.8 M321.7,59.8c-0.4-0.1-0.8-0.1-1.3-0.1c-1.5,0.1-2.7,0.5-3.7,1.4c-1,0.9-1.8,2.1-2.3,3.5
						c-0.5,1.5-0.7,3.1-0.8,5c0.1,3.2,0.6,5.6,1.7,7.2c1.2,1.7,2.7,2.5,4.6,2.5c0.6,0,1.1-0.1,1.6-0.2c0.5-0.1,0.9-0.3,1.2-0.5
						l-0.4-2.4l-0.9,0.4l-1,0.1c-1.3,0-2.3-0.6-3-1.9c-0.7-1.2-1-3-1-5.3c0-1.3,0.1-2.5,0.3-3.6c0.3-1,0.8-1.9,1.4-2.7
						c0.6-0.7,1.3-1,2.2-1c0.5,0,0.9,0.1,1.2,0.2l0.8,0.3l0.5-2.4C322.5,60,322.2,59.9,321.7,59.8 M341.6,59.6
						c-0.9,0-1.7,0.2-2.4,0.6c-0.8,0.6-1.3,1.2-1.6,1.9c-0.4,0.7-0.6,1.6-0.6,2.8c0,1.1,0.3,2.1,0.9,2.9c0.6,0.9,1.5,1.8,2.6,2.5
						c0.9,0.7,1.4,1.3,1.7,1.9c0.3,0.6,0.5,1.2,0.5,1.9c0,0.9-0.3,1.6-0.7,2.1c-0.5,0.5-1.1,0.7-1.9,0.7c-0.6,0-1.1-0.1-1.6-0.4
						c-0.5-0.2-0.9-0.4-1.2-0.6l-0.6,2.3c0.4,0.4,0.9,0.6,1.5,0.8c0.6,0.2,1.2,0.3,1.9,0.3c0.9,0,1.8-0.2,2.5-0.6
						c0.8-0.4,1.4-1.1,1.9-2c0.4-0.8,0.6-1.8,0.7-3.1c-0.1-1.4-0.4-2.5-1-3.4c-0.7-1-1.5-1.8-2.5-2.4c-0.9-0.7-1.5-1.2-1.7-1.6
						c-0.3-0.5-0.4-1.1-0.4-1.7c0-0.7,0.2-1.2,0.5-1.7c0.4-0.5,0.9-0.7,1.6-0.7c0.5,0,0.9,0.1,1.2,0.2c0.4,0.1,0.7,0.3,1,0.7
						l0.7-2.3c-0.3-0.3-0.8-0.5-1.2-0.7C342.9,59.7,342.3,59.6,341.6,59.6 M299.5-44.1H291v80.8h8.5V-44.1 M278.4-16.1
						c-1.2-0.9-2.8-1.7-4.8-2.3c-1.9-0.6-4.1-0.9-6.5-1c-3.3,0.1-6.2,0.8-8.5,2.2c-2.4,1.5-4.3,3.4-5.4,5.8c-1.3,2.5-1.9,5.2-2,8.1
						c0,3.4,1,6.4,3,9c2,2.5,5.1,4.7,9.3,6.6c3.1,1.4,5.3,2.8,6.6,4.2c1.3,1.5,1.9,3.5,1.9,5.8c0,2.4-0.7,4.4-2.2,5.9
						c-1.5,1.5-3.7,2.3-6.8,2.3c-2,0-4.1-0.4-6.2-1.2c-2-0.8-3.6-1.7-5-2.7l-2,7.4c1.6,1.2,3.5,2.1,5.8,2.9c2.2,0.6,4.6,1,7.2,1
						c5.5-0.1,9.7-1.7,12.7-4.7c3-2.9,4.5-6.9,4.5-11.9c0-4.1-1-7.4-3.1-10c-2-2.6-5-4.8-9-6.5c-3-1.4-5.2-2.8-6.6-4.2
						c-1.4-1.3-2.1-3-2.1-5.3c0-2,0.7-3.8,2-5.3c1.3-1.4,3.2-2.1,5.7-2.1c2.1,0,4,0.3,5.7,1.1c1.6,0.7,2.9,1.4,3.8,2.1L278.4-16.1
						 M320.9-11c2.3-0.7,4.4-1,6.5-1.1c3.2,0,5.5,0.7,6.9,2.1c1.5,1.4,2.5,3.1,3,5.2c0.4,2,0.6,3.8,0.6,5.3v1.2
						c-9.1-0.1-16,1.6-20.7,5.2c-4.7,3.5-7.1,8.5-7.1,15.3c0,2.7,0.5,5.2,1.6,7.6c1,2.3,2.6,4.3,4.7,5.9c2.1,1.5,4.7,2.3,7.9,2.3
						c3.3-0.1,6.1-0.9,8.6-2.5c2.4-1.6,4.3-3.5,5.5-5.7h0.3l0.7,7h7.5l-0.5-6.2L346.3,3c0-3.8-0.5-7.4-1.4-10.8
						c-0.9-3.3-2.7-6-5.3-8.3c-2.5-2.1-6.2-3.2-10.9-3.3c-3,0.1-5.8,0.5-8.5,1.3c-2.8,1-5.1,2.1-6.8,3.5l1.8,6.7
						C316.8-9.3,318.7-10.3,320.9-11 M321.5,13c2-1.8,4.5-3,7.5-3.7c3.1-0.6,6.1-0.8,9.1-0.8v9.6c0,0.7,0,1.2-0.1,1.5
						c-0.1,0.7-0.2,1.3-0.3,1.7c-0.6,2.4-1.9,4.5-3.9,6.3c-2,1.8-4.5,2.8-7.5,2.8c-2.2,0-4.1-0.8-5.6-2.3c-1.5-1.6-2.2-4-2.3-7.2
						C318.6,17.5,319.6,14.8,321.5,13z"/>
					<path class="st2" d="M62.5-61.9c-9.7-1.5-19.6-0.9-29.5,1.8c-9.5,2.6-18.2,6.9-26.3,12.9C-10.5-34.6-20-16.8-21.9,6.1
						C-23.7,28.4-17.7,48-4,64.9C9.4,81.1,27.3,91,49.9,94.5c17,2.5,32.8,0.9,47.3-4.9l0.6-1.3c-11.5,4.2-23.1,6.2-34.8,6.1
						c-17.8,0-32.9-5.1-45.5-15.3c14.9,7.1,29.9,10.3,45.1,9.7c15.2-0.4,28.8-4.8,40.6-13l2.1-1.5c10.5-8.8,18.5-19.3,23.8-31.5
						c5.3-11.9,7.8-24.8,7.5-38.7c-1.5,16.3-7.2,30.5-17.2,42.8l-0.6,0.8c-1.8,2.2-3.9,4.5-6.2,6.8l-1,1
						C96,70.3,78.4,76.6,58.7,74.5c-14-2-26.1-7.5-36.2-16.6C12.1,48.5,5.7,37,3.3,23.5c-2.1-13-0.6-25.1,4.5-36.4
						c5.5-12,14.2-20.7,26-26.3c6.6-3.3,16-5.3,28.2-5.8c12.1-0.5,23.6,2.4,34.5,8.9c9.2,5.4,14.7,9.5,16.4,12.2
						c-3.2-7.4-7.9-14-14.1-20C89-53.3,76.9-59.3,62.5-61.9z"/>
				</g>
			</g>
		</g>
	</g>
</g>
</svg>
